<svg xmlns="http://www.w3.org/2000/svg" xmlns:xlink="http://www.w3.org/1999/xlink" viewBox="0 0 766.68 737.28"><defs><style>.cls-1,.cls-6{fill:none;}.cls-2{isolation:isolate;}.cls-3{clip-path:url(#clip-path);}.cls-4{opacity:0.7;mix-blend-mode:soft-light;}.cls-5{fill:#d9d9d9;}.cls-6{stroke:#d9d9d9;stroke-linecap:round;stroke-linejoin:round;stroke-width:0.42px;}.cls-7{fill:#cf2228;}.cls-10,.cls-11,.cls-12,.cls-13,.cls-14,.cls-15,.cls-16,.cls-17,.cls-18,.cls-7,.cls-8,.cls-9{fill-rule:evenodd;}.cls-8{fill:#b82026;}.cls-9{fill:#ed2f2b;}.cls-10{fill:#f06262;}.cls-11{fill:#a61e22;}.cls-12{fill:#616264;}.cls-13{fill:#58595b;}.cls-14{fill:#696a6c;}.cls-15{fill:#a4a7a9;}.cls-16{fill:#515254;}.cls-17{fill:#6d6e70;}.cls-18{fill:#b2b4b7;}</style><clipPath id="clip-path"><rect class="cls-1" x="-604.4" y="-855.01" width="350.37" height="873.63" transform="translate(-858.43 -836.39) rotate(180)"/></clipPath></defs><g class="cls-2"><g id="Layer_1" data-name="Layer 1"><g class="cls-3"><g class="cls-4"><path class="cls-5" d="M147.35,30.74a3.13,3.13,0,1,1-3.13,3.13A3.13,3.13,0,0,1,147.35,30.74Z"/><polyline class="cls-6" points="147.35 33.88 116.96 -8.6 95.41 -80.46 116.96 -265.54 53.94 -206.85 38.33 -282.47 -10.81 -189.66 -39.48 -271.33 -31.62 -323.18 -10.35 -347.42 13.1 -437.64 14.98 -468.29 38.33 -471.46 -28.49 -529.79 44.42 -556.62 84.46 -589.82 64.24 -417.6"/></g></g><polygon class="cls-7" points="630.94 176.29 644.48 190.56 766.68 177.77 648.5 158.39 630.94 176.29"/><polygon class="cls-8" points="150.68 251.98 322.13 180.67 0.42 88.56 150.68 251.98"/><polygon class="cls-8" points="136.51 288.66 304.49 344.1 299.48 231.19 136.51 288.66"/><polygon class="cls-9" points="322.13 180.67 408.81 131.7 0.42 88.56 322.13 180.67"/><polygon class="cls-10" points="322.13 180.67 387.22 240.63 447.55 170.09 408.81 131.7 322.13 180.67"/><polygon class="cls-8" points="329.83 354.35 387.22 240.63 322.13 180.67 329.83 354.35"/><polygon class="cls-9" points="329.83 354.35 423.17 374.04 387.22 240.63 329.83 354.35"/><polygon class="cls-9" points="387.22 240.63 491.78 215.77 447.55 170.09 387.22 240.63"/><polygon class="cls-10" points="447.55 170.09 491.78 215.77 533.46 168.97 524.33 120.37 447.55 170.09"/><polygon class="cls-11" points="524.33 120.37 533.46 168.97 630.94 176.29 648.5 158.39 598.92 121.83 524.33 120.37"/><polygon class="cls-12" points="533.46 168.97 578.44 227.12 644.48 190.56 630.94 176.29 533.46 168.97"/><polygon class="cls-13" points="491.78 215.77 554.8 265.54 578.44 227.12 533.46 168.97 491.78 215.77"/><polygon class="cls-12" points="480.1 299.64 554.1 368.56 554.8 265.54 491.78 215.77 480.1 299.64"/><polygon class="cls-14" points="423.17 374.04 469.49 459.64 554.1 368.56 480.1 299.64 423.17 374.04"/><polygon class="cls-8" points="327.63 465.49 423.17 374.04 329.83 354.35 327.63 465.49"/><polygon class="cls-15" points="419.39 532.38 423.17 374.04 327.63 465.49 419.39 532.38"/><polygon class="cls-16" points="419.39 532.38 469.49 459.64 423.17 374.04 419.39 532.38"/><polygon class="cls-17" points="419.39 532.38 531.18 560.61 469.49 459.64 419.39 532.38"/><polygon class="cls-18" points="480.46 695.09 531.18 560.61 419.39 532.38 480.46 695.09"/><polygon class="cls-8" points="176.8 107.08 337.8 124.16 114.39 32.73 176.8 107.08"/><polygon class="cls-7" points="337.8 124.16 408.81 131.7 448.26 95.11 114.39 32.73 337.8 124.16"/><polygon class="cls-11" points="408.81 131.7 447.55 170.09 477.49 154.67 448.26 95.11 408.81 131.7"/><polygon class="cls-8" points="423.17 374.04 480.1 299.64 491.78 215.77 387.22 240.63 423.17 374.04"/><polygon class="cls-10" points="348.76 605.89 419.95 737.28 409.55 563.79 348.76 605.89"/><polygon class="cls-9" points="327.35 584.17 352.91 525.15 260.93 489.2 327.35 584.17"/><polygon class="cls-7" points="217.46 476.65 229.84 407.32 156.77 375.01 217.46 476.65"/><polygon class="cls-10" points="0 259.98 97.25 251.94 58.46 207.88 0 259.98"/><polygon class="cls-8" points="254.18 649.39 266.55 580.06 223.84 598.57 254.18 649.39"/><polygon class="cls-8" points="8.33 40.57 96.33 64.81 10.65 0 8.33 40.57"/></g></g></svg>