<?xml version="1.0" encoding="utf-8"?>
<!-- Generator: Adobe Illustrator 25.0.1, SVG Export Plug-In . SVG Version: 6.00 Build 0)  -->
<svg version="1.1" id="Layer_1" xmlns="http://www.w3.org/2000/svg" xmlns:xlink="http://www.w3.org/1999/xlink" x="0px" y="0px"
	 viewBox="0 0 310 275.68" style="enable-background:new 0 0 310 275.68;" xml:space="preserve">
<style type="text/css">
	.st0{fill:#F5F6F6;}
	.st1{fill:none;stroke:#F5F6F6;stroke-width:0.7559;stroke-miterlimit:10;}
	.st2{fill:none;stroke:#F5F6F6;stroke-linecap:round;stroke-linejoin:round;stroke-miterlimit:10;}
	.st3{fill:none;stroke:#FFFFFF;stroke-miterlimit:10;}
	.st4{font-family:'Gotham-Bold';}
	.st5{font-size:36.7554px;}
	.st6{fill:none;stroke:#F5F6F6;stroke-width:0.8675;stroke-linecap:round;stroke-linejoin:round;stroke-miterlimit:10;}
	.st7{fill:none;stroke:#F5F6F6;stroke-width:0.8537;stroke-linecap:round;stroke-linejoin:round;stroke-miterlimit:10;}
	.st8{fill:none;stroke:#F5F6F6;stroke-width:0.8019;stroke-linecap:round;stroke-linejoin:round;stroke-miterlimit:10;}
	.st9{fill:none;stroke:#F5F6F6;stroke-width:0.5;stroke-miterlimit:10;stroke-dasharray:2.0067,4.0135;}
	.st10{fill:#FFFFFF;}
	.st11{font-size:10px;}
</style>
<g>
	<g>
		<g>
			<g>
				<path class="st0" d="M79,240.5v3.71c0,0.2-0.16,0.37-0.37,0.37h-34.2c-0.2,0-0.37-0.16-0.37-0.37v-12.35
					c0-0.2,0.16-0.37,0.37-0.37h25.3l0.08-1.22H44.43c-0.87,0-1.59,0.71-1.59,1.59v12.35c0,0.87,0.71,1.59,1.59,1.59h34.2
					c0.87,0,1.59-0.71,1.59-1.59v-5.25C80.22,239.71,79.7,240.34,79,240.5z"/>
				<path class="st0" d="M78.63,203.18h-5.54c-0.87,0-1.59,0.71-1.59,1.59l-1.69,25.52h1.22l1.69-25.52c0-0.2,0.16-0.37,0.37-0.37
					h5.54c0.2,0,0.37,0.16,0.37,0.37v25.56c0.7,0.17,1.22,0.79,1.22,1.54v-27.1C80.22,203.89,79.51,203.18,78.63,203.18z"/>
				<path class="st0" d="M79,230.33v1.54v7.1v1.54c0.7-0.17,1.22-0.79,1.22-1.54v-7.1C80.22,231.12,79.7,230.49,79,230.33z"/>
				<polygon class="st0" points="70.95,231.5 71.03,230.28 69.81,230.28 69.73,231.5 				"/>
			</g>
			<path class="st0" d="M74.04,236H72c-0.34,0-0.61-0.27-0.61-0.61c0-0.34,0.27-0.61,0.61-0.61h2.03c0.34,0,0.61,0.27,0.61,0.61
				C74.65,235.73,74.37,236,74.04,236z"/>
			<path class="st0" d="M51.06,236h-2.03c-0.34,0-0.61-0.27-0.61-0.61c0-0.34,0.27-0.61,0.61-0.61h2.03c0.34,0,0.61,0.27,0.61,0.61
				C51.67,235.73,51.4,236,51.06,236z"/>
			<line class="st1" x1="45.35" y1="223.99" x2="50.45" y2="229.09"/>
			<line class="st1" x1="51.4" y1="223.99" x2="56.5" y2="229.09"/>
			<line class="st1" x1="57.45" y1="223.99" x2="62.55" y2="229.09"/>
			<line class="st1" x1="63.5" y1="223.99" x2="68.59" y2="229.09"/>
		</g>
	</g>
	<g>
		<path class="st2" d="M206.27,6.25v8.39c0,1.92-1.56,3.48-3.48,3.48h-9.08c-1.92,0-3.48-1.56-3.48-3.48V6.25
			c0-1.92,1.56-3.48,3.48-3.48h9.08C204.72,2.77,206.27,4.33,206.27,6.25z"/>
		<path class="st2" d="M167.3,6.25v8.39c0,1.92-1.56,3.48-3.48,3.48h-9.08c-1.92,0-3.48-1.56-3.48-3.48V6.25
			c0-1.92,1.56-3.48,3.48-3.48h9.08C165.74,2.77,167.3,4.33,167.3,6.25z"/>
		<path class="st2" d="M128.33,6.25v8.39c0,1.92-1.56,3.48-3.48,3.48h-9.08c-1.92,0-3.48-1.56-3.48-3.48V6.25
			c0-1.92,1.56-3.48,3.48-3.48h9.08C126.77,2.77,128.33,4.33,128.33,6.25z"/>
	</g>
	<text transform="matrix(1 0 0 1 263.3123 130.5923)" class="st3 st4 st5">$</text>
	<g>
		<rect x="134.43" y="115.95" class="st6" width="50.61" height="22.8"/>
		<rect x="169.75" y="124.69" class="st6" width="8.19" height="13.19"/>
		<polygon class="st6" points="185.04,102.83 134.43,102.83 129.23,115.95 190.24,115.95 		"/>
	</g>
	<g>
		<polygon class="st7" points="17.46,125.36 10.22,118.12 2.98,125.36 7.04,125.36 7.04,138.75 13.27,138.75 13.27,125.36 		"/>
		<polygon class="st7" points="34.62,116.82 27.38,109.58 20.14,116.82 24.2,116.82 24.2,138.75 30.42,138.75 30.42,116.82 		"/>
		<polygon class="st7" points="52.48,108.28 45.24,101.04 38,108.28 42.06,108.28 42.06,138.75 48.28,138.75 48.28,108.28 		"/>
	</g>
	<g>
		<polygon class="st8" points="262.96,250.44 229.93,250.44 231.54,207.09 261.36,207.09 		"/>
		<path class="st8" d="M246.45,194.9L246.45,194.9c-4.41,0-7.98,3.57-7.98,7.98v4.22h15.96v-4.22
			C254.42,198.47,250.85,194.9,246.45,194.9z"/>
	</g>
	<g>
		<circle class="st9" cx="158.03" cy="123.89" r="100.6"/>
	</g>
	<g>
		<text transform="matrix(1 0 0 1 128.1837 43.2107)" class="st10 st4 st11">Touchpoints</text>
	</g>
	<g>
		<text transform="matrix(1 0 0 1 242.9246 152.8619)" class="st10 st4 st11">Transactions</text>
	</g>
	<g>
		<text transform="matrix(1 0 0 1 223.7668 270.4395)" class="st10 st4 st11">Products</text>
	</g>
	<g>
		<text transform="matrix(1 0 0 1 34.9527 270.4395)" class="st10 st4 st11">Industries</text>
	</g>
	<g>
		<text transform="matrix(1 0 0 1 13.8936 159.4673)" class="st10 st4 st11">Scala</text>
	</g>
	<g>
		<text transform="matrix(1 0 0 1 134.8546 159.4673)"><tspan x="0" y="0" class="st10 st4 st11">Moments</tspan><tspan x="3.98" y="10.62" class="st10 st4 st11">of truth</tspan></text>
	</g>
</g>
<line class="st3" x1="27.38" y1="4.61" x2="288.86" y2="266.09"/>
<line class="st3" x1="288.86" y1="4.61" x2="27.38" y2="266.09"/>
</svg>
