<?xml version="1.0" encoding="utf-8"?>
<!-- Generator: Adobe Illustrator 25.0.1, SVG Export Plug-In . SVG Version: 6.00 Build 0)  -->
<svg version="1.1" id="Layer_1" xmlns="http://www.w3.org/2000/svg" xmlns:xlink="http://www.w3.org/1999/xlink" x="0px" y="0px"
	 viewBox="0 0 340 309.28" style="enable-background:new 0 0 340 309.28;" xml:space="preserve">
<style type="text/css">
	.st0{fill:none;stroke:#E6312B;stroke-miterlimit:10;}
	.st1{fill:none;stroke:#FFFFFF;stroke-miterlimit:10;}
	.st2{fill:#FFFFFF;}
	.st3{fill:none;stroke:#FFFFFF;stroke-width:0.8257;stroke-linecap:round;stroke-linejoin:round;stroke-miterlimit:10;}
	.st4{fill:none;stroke:#E63332;stroke-width:0.8257;stroke-linecap:round;stroke-linejoin:round;stroke-miterlimit:10;}
	.st5{fill:#F5F6F6;}
	.st6{fill:url(#SVGID_1_);}
	.st7{fill:url(#SVGID_2_);}
	.st8{fill:url(#SVGID_3_);}
	.st9{fill:url(#SVGID_4_);}
	.st10{fill:none;stroke:#F5F6F6;stroke-width:0.5;stroke-miterlimit:10;stroke-dasharray:2.0067,4.0135;}
	.st11{font-family:'Gotham-Bold';}
	.st12{font-size:10px;}
</style>
<g>
	<g>
		<g>
			<g>
				<g>
					<path class="st0" d="M310.42,126.13h-12.1c0,0,1.23-4-2.67-8.54c-5.08-5.91-1.67-19,9.46-18.73"/>
				</g>
			</g>
		</g>
		<g>
			<g>
				<g>
					<path class="st0" d="M310.18,126.13c0,0-1.27-4.02,2.67-8.54c5.85-6.71,2.7-19-8.43-18.73"/>
				</g>
			</g>
		</g>
		<path class="st1" d="M311.13,129.12H297.6c-0.64,0-1.17-0.53-1.17-1.17v-0.46c0-0.64,0.53-1.17,1.17-1.17h13.53
			c0.64,0,1.17,0.53,1.17,1.17v0.46C312.3,128.6,311.77,129.12,311.13,129.12z"/>
		<path class="st1" d="M311.04,132.29h-13.53c-0.64,0-1.17-0.53-1.17-1.17v-0.46c0-0.64,0.53-1.17,1.17-1.17h13.53
			c0.64,0,1.17,0.53,1.17,1.17v0.46C312.21,131.77,311.68,132.29,311.04,132.29z"/>
	</g>
	<g>
		<path class="st1" d="M301.08,132.17c-0.36,0-0.63,0.41-0.55,0.85c0.32,1.82,1.63,3.15,3.21,3.15h1.36c1.58,0,2.89-1.34,3.21-3.16
			c0.08-0.44-0.19-0.85-0.56-0.85L301.08,132.17z"/>
		<path class="st1" d="M304.18,122.31"/>
	</g>
</g>
<g>
	<g>
		<path class="st2" d="M184.87,48.1c-0.12-0.18-0.33-0.29-0.55-0.29h-7.34v-3.66c0-0.36-0.29-0.66-0.66-0.66h-21.37
			c-0.36,0-0.66,0.29-0.66,0.66v16.1c0,0.36,0.29,0.66,0.66,0.66h1.97c0.31,1.51,1.65,2.66,3.25,2.66c1.6,0,2.94-1.14,3.25-2.66
			h2.22c0.36,0,0.66-0.29,0.66-0.66c0-0.36-0.29-0.66-0.66-0.66h-2.22c-0.31-1.51-1.65-2.66-3.25-2.66c-1.6,0-2.94,1.14-3.25,2.66
			h-1.31V44.81h20.05v3.66V59.6h-7.68c-0.36,0-0.66,0.29-0.66,0.66c0,0.36,0.29,0.66,0.66,0.66h8.34h1.37
			c0.31,1.51,1.65,2.66,3.25,2.66s2.94-1.14,3.25-2.66h4.45c0.36,0,0.66-0.29,0.66-0.66v-5.37c0-0.13-0.04-0.26-0.11-0.37
			L184.87,48.1z M160.17,58.26c1.1,0,2,0.9,2,2c0,1.1-0.9,2-2,2c-1.1,0-2-0.9-2-2C158.17,59.15,159.07,58.26,160.17,58.26z
			 M180.94,62.26c-1.1,0-2-0.9-2-2c0-1.1,0.9-2,2-2c1.1,0,2,0.9,2,2C182.94,61.36,182.04,62.26,180.94,62.26z M187.98,59.6h-3.79
			c-0.31-1.51-1.65-2.66-3.25-2.66s-2.94,1.14-3.25,2.66h-0.71V49.13h6.99l4.01,5.96V59.6z"/>
		<path class="st2" d="M157.9,50.99h1.91c0.36,0,0.66-0.29,0.66-0.66c0-0.36-0.29-0.66-0.66-0.66h-1.91c-0.36,0-0.66,0.29-0.66,0.66
			C157.24,50.7,157.54,50.99,157.9,50.99z"/>
		<path class="st2" d="M173.37,49.68h-11.32c-0.36,0-0.66,0.29-0.66,0.66c0,0.36,0.29,0.66,0.66,0.66h11.32
			c0.36,0,0.66-0.29,0.66-0.66C174.03,49.97,173.74,49.68,173.37,49.68z"/>
		<path class="st2" d="M173.37,53.42h-1.91c-0.36,0-0.66,0.29-0.66,0.66c0,0.36,0.29,0.66,0.66,0.66h1.91
			c0.36,0,0.66-0.29,0.66-0.66C174.03,53.71,173.74,53.42,173.37,53.42z"/>
		<path class="st2" d="M157.9,54.73h11.32c0.36,0,0.66-0.29,0.66-0.66c0-0.36-0.29-0.66-0.66-0.66H157.9
			c-0.36,0-0.66,0.29-0.66,0.66C157.24,54.44,157.54,54.73,157.9,54.73z"/>
		<path class="st2" d="M183.06,50.26h-4.23c-0.36,0-0.66,0.29-0.66,0.66v3.56c0,0.36,0.29,0.66,0.66,0.66l6.62,0
			c0.24,0,0.47-0.13,0.58-0.35c0.11-0.21,0.1-0.47-0.04-0.68l-2.39-3.56C183.49,50.37,183.28,50.26,183.06,50.26z M179.49,53.81
			v-2.24h3.22l1.51,2.24H179.49z"/>
	</g>
	<g>
		<g>
			<rect x="153" y="12.33" class="st3" width="15.21" height="25.84"/>
			<rect x="153.99" y="13.9" class="st2" width="3.24" height="3.24"/>
			<rect x="158.98" y="13.9" class="st2" width="3.24" height="3.24"/>
			<rect x="163.83" y="13.9" class="st2" width="3.24" height="3.24"/>
			<rect x="153.99" y="18.6" class="st2" width="3.24" height="3.24"/>
			<rect x="158.98" y="18.6" class="st2" width="3.24" height="3.24"/>
			<rect x="163.83" y="18.6" class="st2" width="3.24" height="3.24"/>
			<rect x="153.99" y="23.3" class="st2" width="3.24" height="3.24"/>
			<rect x="158.98" y="23.3" class="st2" width="3.24" height="3.24"/>
			<rect x="163.83" y="23.3" class="st2" width="3.24" height="3.24"/>
			<rect x="153.99" y="28" class="st2" width="3.24" height="3.24"/>
			<rect x="158.98" y="28" class="st2" width="3.24" height="3.24"/>
			<rect x="163.83" y="28" class="st2" width="3.24" height="3.24"/>
		</g>
		<g>
			<rect x="180.28" y="17.14" class="st4" width="10.34" height="21.03"/>
			<rect x="181.27" y="18.6" class="st2" width="3.24" height="3.24"/>
			<rect x="186.26" y="18.6" class="st2" width="3.24" height="3.24"/>
			<rect x="181.27" y="23.3" class="st2" width="3.24" height="3.24"/>
			<rect x="186.26" y="23.3" class="st2" width="3.24" height="3.24"/>
			<rect x="181.27" y="28" class="st2" width="3.24" height="3.24"/>
			<rect x="186.26" y="28" class="st2" width="3.24" height="3.24"/>
		</g>
		<g>
			<rect x="169.19" y="2.88" class="st3" width="10.26" height="35.28"/>
			<rect x="170.18" y="13.9" class="st2" width="3.24" height="3.24"/>
			<rect x="175.16" y="13.9" class="st2" width="3.24" height="3.24"/>
			<rect x="170.18" y="18.6" class="st2" width="3.24" height="3.24"/>
			<rect x="175.16" y="18.6" class="st2" width="3.24" height="3.24"/>
			<rect x="170.18" y="4.87" class="st2" width="3.24" height="3.24"/>
			<rect x="175.16" y="4.87" class="st2" width="3.24" height="3.24"/>
			<rect x="170.18" y="9.57" class="st2" width="3.24" height="3.24"/>
			<rect x="175.16" y="9.57" class="st2" width="3.24" height="3.24"/>
			<rect x="170.18" y="23.3" class="st2" width="3.24" height="3.24"/>
			<rect x="175.16" y="23.3" class="st2" width="3.24" height="3.24"/>
			<rect x="170.18" y="28" class="st2" width="3.24" height="3.24"/>
			<rect x="175.16" y="28" class="st2" width="3.24" height="3.24"/>
		</g>
	</g>
</g>
<g>
	<g>
		<g>
			<path class="st2" d="M267.84,248.94c-2.19,0-3.98-1.78-3.98-3.98s1.78-3.98,3.98-3.98c2.19,0,3.98,1.78,3.98,3.98
				S270.03,248.94,267.84,248.94z M267.84,242.16c-1.55,0-2.81,1.26-2.81,2.81c0,1.55,1.26,2.81,2.81,2.81
				c1.55,0,2.81-1.26,2.81-2.81C270.65,243.42,269.39,242.16,267.84,242.16z"/>
		</g>
		<g>
			<g>
				<path class="st2" d="M267.45,287.6c-1.75,0-3.18-1.42-3.18-3.18v-15c0-0.27,0.18-0.5,0.45-0.57c0.26-0.06,0.53,0.06,0.66,0.3
					l0.18,0.35l5.02,10.52c0.04,0.08,0.06,0.16,0.06,0.25v4.15C270.63,286.17,269.2,287.6,267.45,287.6z M265.44,271.98v12.45
					c0,1.11,0.9,2.01,2.01,2.01s2.01-0.9,2.01-2.01v-4.01L265.44,271.98z"/>
			</g>
			<g>
				<path class="st2" d="M274.89,287.6c-0.31,0-0.61-0.04-0.91-0.13c-0.86-0.26-1.57-0.87-1.95-1.67l-7.52-15.78
					c-0.28-0.52-0.45-0.9-0.59-1.27c-0.16-0.44-0.27-0.84-0.27-1.37v-14.1c0-1.04,0.41-2.01,1.15-2.73c0.74-0.72,1.73-1.1,2.77-1.07
					c2.03,0.06,3.69,1.83,3.69,3.94v2.75l2.37,3.06c0.35,0.45,0.89,0.72,1.46,0.72h4.47c1.02,0,1.87,0.72,2.07,1.74
					c0.19,0.99-0.3,1.89-1.21,2.25c-0.27,0.11-0.56,0.16-0.86,0.16h-6.2c-0.23,0-1.42-0.04-2.06-0.84l-0.04-0.05v4.18
					c0,1.11,0.39,2.87,0.86,3.86l5.59,11.73c0.72,1.52,0.21,3.36-1.18,4.19C276.04,287.44,275.47,287.6,274.89,287.6z
					 M267.45,250.63c-0.69,0-1.34,0.26-1.84,0.74c-0.52,0.5-0.8,1.17-0.8,1.89v14.1c0,0.37,0.07,0.64,0.2,0.98
					c0.12,0.32,0.27,0.65,0.5,1.07l0.05,0.1l7.52,15.78c0.24,0.51,0.69,0.9,1.23,1.06c0.55,0.17,1.12,0.09,1.62-0.2
					c0.87-0.52,1.19-1.7,0.73-2.69l-5.59-11.73c-0.55-1.16-0.98-3.06-0.98-4.34v-5.78c0-0.24,0.15-0.46,0.38-0.55
					c0.23-0.08,0.49-0.02,0.65,0.17l1.08,1.28c0.27,0.34,0.94,0.41,1.15,0.41h6.2c0.15,0,0.29-0.03,0.43-0.08
					c0.59-0.23,0.53-0.79,0.5-0.95c-0.07-0.37-0.35-0.79-0.92-0.79h-4.47c-0.94,0-1.81-0.42-2.38-1.17l-2.49-3.2
					c-0.01-0.01-1.56-2.01-1.56-2.01c-0.2-0.25-0.15-0.62,0.1-0.82c0.25-0.2,0.62-0.15,0.82,0.1l0.5,0.65v-1.24
					c0-1.49-1.15-2.73-2.56-2.77C267.51,250.63,267.48,250.63,267.45,250.63z"/>
			</g>
			<g>
				<path class="st2" d="M270.67,266.22h-6.44c-0.32,0-0.58-0.26-0.58-0.58c0-0.32,0.26-0.58,0.58-0.58h6.44
					c0.32,0,0.58,0.26,0.58,0.58C271.26,265.96,271,266.22,270.67,266.22z"/>
			</g>
			<g>
				<path class="st2" d="M270.67,262.18c-0.18,0-0.35-0.08-0.47-0.23l-2.17-2.89c-0.19-0.26-0.14-0.62,0.12-0.82
					c0.26-0.19,0.62-0.14,0.82,0.12l2.17,2.89c0.19,0.26,0.14,0.62-0.12,0.82C270.92,262.14,270.8,262.18,270.67,262.18z"/>
			</g>
		</g>
	</g>
	<path class="st0" d="M280.13,226.11c-1.06,0-2.03,0.41-2.74,1.08c-0.72-0.67-1.68-1.08-2.74-1.08c-2.22,0-4.02,1.8-4.02,4.02
		s6.04,7.71,6.76,7.04c0.72,0.67,6.76-4.82,6.76-7.04S282.35,226.11,280.13,226.11z"/>
</g>
<g>
	<path class="st2" d="M183.53,166.35c-0.45-1.67-1.42-3.22-1.07-5.06c0.47-7.66-7.3-12.01-12.99-11.21
		c-7.89,1.11-12.49,10.65-8.02,17.53c2.43,3.73,3.86,7.02,2.11,11.27c-0.38,0.92,0.07,1.61,1.11,1.86c2.98,0.72,5.96,1.47,8.93,2.22
		c1.11,0.28,1.57-0.21,1.61-1.27c0.04-1.02,0.03-2.05,0.16-3.06c0.31-2.34,0.77-2.62,3.02-1.99c1.08,0.3,2.48,0.6,2.74-0.76
		c0.36-1.89,1.84-3.59,1.06-5.7c-0.17-0.45-0.08-1.03,0.5-1.2C184.3,168.48,183.82,167.41,183.53,166.35z M181.78,168.13
		c-0.63,0.24-0.89,0.98-0.73,1.53c0.56,1.81-0.36,3.4-0.58,5.09c-0.14,1.08-0.7,1.23-1.65,1c-3.41-0.85-4.21-0.24-4.48,3.32
		c-0.04,0.6-0.12,1.2-0.2,1.79c-0.08,0.58-0.23,1.06-1.01,0.91l-4.11-0.97c-4.61-1.08-4.7-1.06-3.6-5.51
		c0.61-2.49-0.34-4.34-1.85-6.09c-1.93-2.25-2.85-4.84-2.75-7.81c0.14-4.39,2.78-8.34,6.56-9.77c3.66-1.39,8.84-0.09,11.62,2.96
		c1.37,1.5,2.42,3.24,2.28,5.34c-0.15,2.17,0.32,4.18,1.05,6.17C182.65,166.88,182.98,167.67,181.78,168.13z"/>
</g>
<g>
	<g>
		<g>
			<path class="st5" d="M63.47,273.39c-0.08,0-0.15-0.02-0.22-0.06l-9.28-5.35c-0.14-0.08-0.23-0.23-0.1,0.27v-10.71
				c-0.13-0.82-0.04-0.97,0.1-1.05l4.64-2.68l4.64-2.68c0.14-0.08,0.31-0.08,0.45,0l4.64,2.68l4.64,2.68
				c0.14,0.08,0.23,0.23,0.23,0.39v10.71c0,0.16-0.09,0.31-0.23,0.39l-9.28,5.35C63.63,273.37,63.55,273.39,63.47,273.39z
				 M54.64,267.32l8.83,5.09l8.83-5.09v-10.19l-4.42-2.55l-4.42-2.55l-8.83,5.1V267.32z"/>
			<path class="st5" d="M63.47,273.68c-0.13,0-0.26-0.03-0.37-0.1l-8.99-5.18c-0.05,0.07-0.12,0.12-0.21,0.13
				c-0.15,0.02-0.29-0.08-0.33-0.22c-0.06-0.25-0.12-0.45-0.01-0.6v-10.19c-0.11-0.69-0.11-1.1,0.25-1.31l9.28-5.36
				c0.23-0.13,0.52-0.13,0.75,0l9.28,5.36c0.23,0.13,0.37,0.38,0.37,0.65v10.71c0,0.27-0.14,0.51-0.37,0.65l-9.28,5.35
				C63.73,273.65,63.6,273.68,63.47,273.68z M54.16,267.74l9.23,5.33c0.05,0.03,0.11,0.03,0.15,0l9.28-5.35
				c0.05-0.03,0.08-0.08,0.08-0.13v-10.71c0-0.05-0.03-0.11-0.08-0.13l-9.28-5.36c-0.05-0.03-0.11-0.03-0.15,0l-9.28,5.36
				c0,0.01-0.05,0.14,0.05,0.74L54.16,267.74z M63.47,272.71c-0.05,0-0.1-0.01-0.15-0.04l-8.83-5.1c-0.09-0.05-0.15-0.15-0.15-0.26
				v-10.19c0-0.11,0.06-0.2,0.15-0.26l8.83-5.1c0.09-0.05,0.21-0.05,0.3,0l8.83,5.1c0.09,0.05,0.15,0.15,0.15,0.26v10.19
				c0,0.11-0.06,0.2-0.15,0.26l-8.83,5.1C63.57,272.7,63.52,272.71,63.47,272.71z M54.94,267.15l8.53,4.92l8.53-4.92v-9.85
				l-8.53-4.93l-8.53,4.93V267.15z"/>
		</g>
	</g>
	<g>
		<g>
			<path class="st5" d="M63.47,251.96c-0.25,0-0.45-0.2-0.45-0.45v-4.7c0-0.25,0.2-0.45,0.45-0.45c0.25,0,0.45,0.2,0.45,0.45v4.7
				C63.92,251.76,63.72,251.96,63.47,251.96z"/>
			<path class="st5" d="M63.47,252.11c-0.33,0-0.6-0.27-0.6-0.6v-4.7c0-0.33,0.27-0.6,0.6-0.6c0.33,0,0.6,0.27,0.6,0.6v4.7
				C64.07,251.84,63.8,252.11,63.47,252.11z M63.47,246.51c-0.17,0-0.3,0.14-0.3,0.3v4.7c0,0.17,0.14,0.3,0.3,0.3
				c0.17,0,0.3-0.14,0.3-0.3v-4.7C63.77,246.64,63.64,246.51,63.47,246.51z"/>
		</g>
	</g>
	<g>
		<g>
			<path class="st5" d="M72.85,257.37c-0.16,0-0.31-0.08-0.39-0.23c-0.12-0.22-0.05-0.49,0.17-0.62l4.07-2.35
				c0.22-0.12,0.49-0.05,0.62,0.17c0.13,0.22,0.05,0.49-0.16,0.62l-4.07,2.35C73.01,257.35,72.93,257.37,72.85,257.37z"/>
			<path class="st5" d="M72.85,257.52c-0.21,0-0.41-0.11-0.52-0.3c-0.16-0.29-0.07-0.65,0.22-0.82l4.07-2.35
				c0.29-0.16,0.65-0.07,0.82,0.22c0.08,0.14,0.1,0.3,0.06,0.46c-0.04,0.15-0.14,0.28-0.28,0.36l-4.07,2.35
				C73.06,257.49,72.96,257.52,72.85,257.52z M76.93,254.27c-0.05,0-0.1,0.01-0.15,0.04l-4.07,2.35c-0.14,0.08-0.19,0.27-0.11,0.41
				c0.08,0.14,0.27,0.19,0.41,0.11l4.07-2.35c0.07-0.04,0.12-0.11,0.14-0.18c0.02-0.08,0.01-0.16-0.03-0.23
				C77.13,254.33,77.03,254.27,76.93,254.27z"/>
		</g>
	</g>
	<g>
		<g>
			<path class="st5" d="M76.93,270.55c-0.08,0-0.15-0.02-0.23-0.06l-4.07-2.35c-0.22-0.12-0.29-0.4-0.17-0.62
				c0.13-0.22,0.4-0.29,0.62-0.17l4.07,2.35c0.22,0.12,0.29,0.4,0.16,0.62C77.23,270.47,77.08,270.55,76.93,270.55z"/>
			<path class="st5" d="M76.93,270.7c-0.1,0-0.21-0.03-0.3-0.08l-4.07-2.35c-0.29-0.17-0.39-0.53-0.22-0.82
				c0.16-0.29,0.53-0.38,0.82-0.22l4.07,2.35c0.14,0.08,0.24,0.21,0.28,0.36c0.04,0.15,0.02,0.32-0.06,0.46
				C77.34,270.58,77.14,270.7,76.93,270.7z M72.85,267.45c-0.1,0-0.2,0.05-0.26,0.15c-0.08,0.14-0.03,0.33,0.11,0.41l4.07,2.35
				c0.14,0.08,0.33,0.03,0.41-0.11c0.04-0.07,0.05-0.15,0.03-0.23c-0.02-0.08-0.07-0.14-0.14-0.18L73,267.49
				C72.96,267.46,72.9,267.45,72.85,267.45z"/>
		</g>
	</g>
	<g>
		<g>
			<path class="st5" d="M63.47,278.31c-0.25,0-0.45-0.2-0.45-0.45v-4.7c0-0.25,0.2-0.45,0.45-0.45c0.25,0,0.45,0.2,0.45,0.45v4.7
				C63.92,278.11,63.72,278.31,63.47,278.31z"/>
			<path class="st5" d="M63.47,278.46c-0.33,0-0.6-0.27-0.6-0.6v-4.7c0-0.33,0.27-0.6,0.6-0.6c0.33,0,0.6,0.27,0.6,0.6v4.7
				C64.07,278.19,63.8,278.46,63.47,278.46z M63.47,272.86c-0.17,0-0.3,0.14-0.3,0.3v4.7c0,0.17,0.14,0.3,0.3,0.3
				c0.17,0,0.3-0.14,0.3-0.3v-4.7C63.77,273,63.64,272.86,63.47,272.86z"/>
		</g>
	</g>
	<g>
		<g>
			<path class="st5" d="M50.01,270.55c-0.16,0-0.31-0.08-0.39-0.23c-0.12-0.22-0.05-0.49,0.17-0.62l4.07-2.35
				c0.22-0.12,0.49-0.05,0.61,0.17c0.13,0.22,0.05,0.49-0.16,0.62l-4.07,2.35C50.17,270.53,50.09,270.55,50.01,270.55z"/>
			<path class="st5" d="M50.02,270.7c-0.21,0-0.41-0.12-0.52-0.3c-0.08-0.14-0.1-0.3-0.06-0.46c0.04-0.15,0.14-0.28,0.28-0.36
				l4.07-2.35c0.14-0.08,0.3-0.1,0.46-0.06c0.15,0.04,0.28,0.14,0.36,0.28c0.08,0.14,0.1,0.3,0.06,0.45
				c-0.04,0.16-0.14,0.29-0.28,0.37l-4.07,2.35C50.22,270.67,50.12,270.7,50.02,270.7z M54.09,267.45c-0.05,0-0.1,0.01-0.15,0.04
				l-4.07,2.35c-0.07,0.04-0.12,0.1-0.14,0.18c-0.02,0.08-0.01,0.16,0.03,0.23c0.08,0.14,0.27,0.19,0.41,0.11l4.07-2.35
				c0.07-0.04,0.12-0.11,0.14-0.18c0.02-0.08,0.01-0.16-0.03-0.23c-0.04-0.07-0.1-0.12-0.18-0.14
				C54.14,267.45,54.11,267.45,54.09,267.45z"/>
		</g>
	</g>
	<g>
		<g>
			<path class="st5" d="M54.09,257.37c-0.08,0-0.15-0.02-0.23-0.06l-4.07-2.35c-0.22-0.13-0.29-0.4-0.16-0.62
				c0.12-0.22,0.4-0.29,0.62-0.17l4.07,2.35c0.22,0.12,0.29,0.4,0.16,0.62C54.4,257.29,54.24,257.37,54.09,257.37z"/>
			<path class="st5" d="M54.09,257.52c-0.11,0-0.21-0.03-0.3-0.08l-4.07-2.35c-0.29-0.17-0.38-0.53-0.22-0.82
				c0.08-0.14,0.21-0.24,0.36-0.28c0.16-0.04,0.32-0.02,0.46,0.06l4.07,2.35c0.14,0.08,0.24,0.21,0.28,0.36
				c0.04,0.16,0.02,0.32-0.06,0.46C54.5,257.41,54.3,257.52,54.09,257.52z M50.02,254.27c-0.03,0-0.05,0-0.08,0.01
				c-0.08,0.02-0.14,0.07-0.18,0.14c-0.08,0.14-0.03,0.33,0.11,0.41l4.07,2.35c0.14,0.08,0.33,0.03,0.41-0.11
				c0.04-0.07,0.05-0.15,0.03-0.23c-0.02-0.08-0.07-0.14-0.14-0.18l-4.07-2.35C50.12,254.28,50.07,254.27,50.02,254.27z"/>
		</g>
	</g>
	<g>
		<g>
			<path class="st5" d="M63.47,247.26c-3.11,0-5.64-2.53-5.64-5.64c0-3.11,2.53-5.64,5.64-5.64c3.11,0,5.64,2.53,5.64,5.64
				C69.11,244.73,66.58,247.26,63.47,247.26z M63.47,236.88c-2.61,0-4.74,2.13-4.74,4.74c0,2.61,2.13,4.74,4.74,4.74
				c2.61,0,4.74-2.12,4.74-4.74C68.21,239.01,66.09,236.88,63.47,236.88z"/>
			<path class="st5" d="M63.47,247.41c-3.19,0-5.79-2.6-5.79-5.79c0-3.19,2.6-5.79,5.79-5.79c3.19,0,5.79,2.6,5.79,5.79
				C69.26,244.81,66.66,247.41,63.47,247.41z M63.47,236.13c-3.03,0-5.5,2.46-5.5,5.49c0,3.03,2.47,5.49,5.5,5.49
				c3.03,0,5.49-2.46,5.49-5.49C68.96,238.59,66.5,236.13,63.47,236.13z M63.47,246.51c-2.7,0-4.89-2.19-4.89-4.88
				c0-2.7,2.19-4.89,4.89-4.89c2.7,0,4.89,2.19,4.89,4.89C68.36,244.31,66.17,246.51,63.47,246.51z M63.47,237.03
				c-2.53,0-4.59,2.06-4.59,4.59c0,2.53,2.06,4.59,4.59,4.59c2.53,0,4.59-2.06,4.59-4.59C68.06,239.09,66,237.03,63.47,237.03z"/>
		</g>
	</g>
	<g>
		<g>
			<path class="st5" d="M81.43,257.62c-2.01,0-3.89-1.08-4.89-2.82c-0.75-1.31-0.95-2.83-0.56-4.28c0.39-1.46,1.32-2.67,2.63-3.43
				c0.86-0.5,1.83-0.76,2.82-0.76c2.01,0,3.89,1.08,4.89,2.82c0.75,1.3,0.95,2.82,0.56,4.28c-0.39,1.46-1.32,2.67-2.63,3.42
				C83.39,257.36,82.41,257.62,81.43,257.62z M81.42,247.24c-0.83,0-1.64,0.22-2.37,0.64c-1.1,0.63-1.88,1.66-2.21,2.88
				c-0.33,1.22-0.16,2.5,0.47,3.6c0.85,1.46,2.42,2.37,4.11,2.37c0.83,0,1.64-0.22,2.36-0.64c1.1-0.63,1.88-1.66,2.21-2.88
				c0.33-1.22,0.16-2.5-0.47-3.59C84.69,248.15,83.11,247.24,81.42,247.24z"/>
			<path class="st5" d="M81.43,257.77c-2.06,0-3.99-1.11-5.02-2.89c-0.77-1.34-0.98-2.9-0.58-4.4c0.4-1.49,1.36-2.74,2.7-3.52
				c0.88-0.51,1.88-0.78,2.89-0.78c2.07,0,3.99,1.11,5.02,2.9c0.77,1.34,0.98,2.9,0.58,4.39c-0.4,1.49-1.36,2.74-2.7,3.52
				C83.44,257.5,82.44,257.77,81.43,257.77z M81.42,246.48c-0.96,0-1.91,0.25-2.74,0.74c-1.27,0.73-2.18,1.92-2.56,3.33
				c-0.38,1.42-0.18,2.9,0.55,4.17c0.98,1.69,2.8,2.74,4.76,2.74c0.96,0,1.91-0.26,2.74-0.74c1.27-0.73,2.18-1.92,2.56-3.33
				c0.38-1.42,0.19-2.9-0.55-4.16C85.2,247.54,83.38,246.48,81.42,246.48z M81.43,256.87c-1.74,0-3.37-0.94-4.24-2.44
				c-0.65-1.13-0.83-2.45-0.49-3.71c0.34-1.26,1.15-2.32,2.28-2.97c0.74-0.43,1.59-0.66,2.44-0.66c1.74,0,3.37,0.94,4.24,2.45
				c0.65,1.13,0.83,2.45,0.49,3.71c-0.34,1.26-1.15,2.32-2.28,2.97C83.12,256.64,82.28,256.87,81.43,256.87z M81.42,247.39
				c-0.8,0-1.59,0.21-2.29,0.62c-1.06,0.61-1.82,1.6-2.14,2.79c-0.32,1.18-0.15,2.42,0.46,3.48c0.82,1.41,2.34,2.29,3.98,2.29
				c0.8,0,1.59-0.21,2.29-0.62c1.06-0.61,1.82-1.6,2.14-2.79c0.32-1.18,0.16-2.42-0.46-3.48C84.58,248.27,83.06,247.39,81.42,247.39
				z"/>
		</g>
	</g>
	<g>
		<g>
			<path class="st5" d="M81.42,278.33c-0.99,0-1.96-0.26-2.82-0.76c-1.3-0.75-2.24-1.97-2.63-3.42c-0.39-1.46-0.19-2.98,0.56-4.28
				c1.01-1.74,2.88-2.82,4.89-2.82c0.98,0,1.96,0.26,2.81,0.76c2.69,1.55,3.62,5.01,2.07,7.7
				C85.31,277.25,83.43,278.33,81.42,278.33z M81.43,267.95c-1.69,0-3.27,0.91-4.11,2.37c-0.63,1.1-0.8,2.37-0.47,3.6
				c0.33,1.22,1.11,2.24,2.21,2.87c0.72,0.42,1.54,0.64,2.37,0.64c1.69,0,3.27-0.91,4.11-2.37c1.31-2.26,0.53-5.17-1.74-6.47
				C83.07,268.17,82.26,267.95,81.43,267.95z"/>
			<path class="st5" d="M81.42,278.48c-1.01,0-2.01-0.27-2.89-0.78c-1.34-0.77-2.3-2.02-2.7-3.51c-0.4-1.49-0.19-3.06,0.58-4.4
				c1.03-1.78,2.96-2.89,5.02-2.89c1.01,0,2.01,0.27,2.89,0.78c1.34,0.77,2.3,2.02,2.7,3.51c0.4,1.5,0.2,3.05-0.57,4.39
				C85.41,277.37,83.49,278.48,81.42,278.48z M81.43,267.2c-1.96,0-3.79,1.05-4.76,2.74c-0.73,1.27-0.93,2.75-0.55,4.17
				c0.38,1.42,1.29,2.6,2.56,3.33c0.84,0.48,1.78,0.74,2.75,0.74c1.96,0,3.78-1.05,4.76-2.75c0.73-1.27,0.92-2.75,0.54-4.17
				c-0.38-1.42-1.29-2.6-2.56-3.33C83.34,267.46,82.39,267.2,81.43,267.2z M81.42,277.58c-0.85,0-1.7-0.23-2.44-0.66
				c-1.13-0.65-1.94-1.7-2.28-2.96c-0.34-1.26-0.16-2.58,0.49-3.71c0.87-1.51,2.5-2.44,4.24-2.44c0.85,0,1.7,0.23,2.44,0.66
				c1.13,0.65,1.94,1.7,2.28,2.97c0.34,1.26,0.17,2.58-0.48,3.71C84.79,276.64,83.17,277.58,81.42,277.58z M81.43,268.1
				c-1.64,0-3.16,0.88-3.98,2.29c-0.61,1.06-0.78,2.3-0.46,3.48c0.32,1.18,1.08,2.17,2.14,2.78c0.7,0.4,1.49,0.62,2.29,0.62
				c1.64,0,3.16-0.88,3.98-2.29c0.61-1.06,0.77-2.3,0.46-3.48c-0.32-1.19-1.08-2.17-2.14-2.79C83.02,268.32,82.23,268.1,81.43,268.1
				z"/>
		</g>
	</g>
	<g>
		<g>
			<path class="st5" d="M63.47,288.69c-3.11,0-5.64-2.53-5.64-5.64c0-3.11,2.53-5.64,5.64-5.64c3.11,0,5.64,2.53,5.64,5.64
				C69.11,286.16,66.58,288.69,63.47,288.69z M63.47,278.31c-2.61,0-4.74,2.13-4.74,4.74c0,2.61,2.13,4.74,4.74,4.74
				c2.61,0,4.74-2.13,4.74-4.74C68.21,280.44,66.09,278.31,63.47,278.31z"/>
			<path class="st5" d="M63.47,288.84c-3.19,0-5.79-2.6-5.79-5.79c0-3.19,2.6-5.79,5.79-5.79c3.19,0,5.79,2.6,5.79,5.79
				C69.26,286.24,66.66,288.84,63.47,288.84z M63.47,277.56c-3.03,0-5.5,2.46-5.5,5.49c0,3.03,2.47,5.49,5.5,5.49
				c3.03,0,5.49-2.46,5.49-5.49C68.96,280.02,66.5,277.56,63.47,277.56z M63.47,287.94c-2.7,0-4.89-2.19-4.89-4.89
				c0-2.7,2.19-4.89,4.89-4.89c2.7,0,4.89,2.19,4.89,4.89C68.36,285.75,66.17,287.94,63.47,287.94z M63.47,278.46
				c-2.53,0-4.59,2.06-4.59,4.59c0,2.53,2.06,4.59,4.59,4.59c2.53,0,4.59-2.06,4.59-4.59C68.06,280.52,66,278.46,63.47,278.46z"/>
		</g>
	</g>
	<g>
		<g>
			<path class="st5" d="M45.52,278.33c-2.01,0-3.88-1.08-4.89-2.82c-0.75-1.31-0.96-2.83-0.56-4.28c0.39-1.45,1.32-2.67,2.63-3.42
				c0.86-0.5,1.83-0.76,2.82-0.76c2.01,0,3.89,1.08,4.89,2.82c0.75,1.31,0.95,2.83,0.56,4.28c-0.39,1.46-1.32,2.67-2.63,3.42
				C47.48,278.07,46.51,278.33,45.52,278.33z M45.51,267.95c-0.83,0-1.64,0.22-2.37,0.64c-1.1,0.63-1.88,1.66-2.21,2.88
				c-0.33,1.22-0.16,2.5,0.47,3.6c0.84,1.46,2.42,2.37,4.11,2.37c0.83,0,1.65-0.22,2.37-0.64c1.1-0.63,1.88-1.65,2.21-2.87
				c0.33-1.22,0.16-2.5-0.47-3.6C48.78,268.86,47.2,267.95,45.51,267.95z"/>
			<path class="st5" d="M45.52,278.48c-2.06,0-3.99-1.11-5.02-2.89c-0.77-1.34-0.98-2.9-0.58-4.39c0.4-1.49,1.36-2.74,2.7-3.51
				c0.88-0.51,1.88-0.78,2.89-0.78c2.07,0,3.99,1.11,5.02,2.89c0.77,1.34,0.98,2.9,0.58,4.39c-0.4,1.49-1.36,2.74-2.7,3.51
				C47.53,278.21,46.53,278.48,45.52,278.48z M45.51,267.2c-0.96,0-1.91,0.25-2.74,0.74c-1.27,0.73-2.18,1.92-2.56,3.33
				c-0.38,1.42-0.19,2.9,0.55,4.17c0.98,1.69,2.8,2.75,4.76,2.75c0.96,0,1.91-0.26,2.74-0.74c1.27-0.73,2.18-1.91,2.56-3.33
				c0.38-1.42,0.18-2.9-0.55-4.17C49.3,268.25,47.47,267.2,45.51,267.2z M45.52,277.58c-1.74,0-3.37-0.94-4.24-2.44
				c-0.65-1.13-0.83-2.45-0.49-3.71c0.34-1.26,1.15-2.31,2.28-2.97c0.74-0.43,1.59-0.66,2.44-0.66c1.74,0,3.37,0.94,4.24,2.44
				c0.65,1.13,0.83,2.45,0.49,3.71c-0.34,1.26-1.15,2.31-2.28,2.96C47.22,277.35,46.38,277.58,45.52,277.58z M45.51,268.1
				c-0.8,0-1.59,0.21-2.29,0.62c-1.06,0.61-1.82,1.6-2.14,2.79c-0.32,1.18-0.15,2.42,0.46,3.48c0.82,1.42,2.34,2.29,3.98,2.29
				c0.8,0,1.6-0.21,2.29-0.62c1.06-0.61,1.82-1.6,2.14-2.78c0.32-1.18,0.16-2.42-0.46-3.48C48.68,268.98,47.15,268.1,45.51,268.1z"
				/>
		</g>
	</g>
	<g>
		<g>
			<path class="st5" d="M45.51,257.62c-0.99,0-1.96-0.26-2.82-0.76c-1.3-0.75-2.24-1.97-2.63-3.42c-0.39-1.46-0.19-2.98,0.56-4.28
				c1.01-1.74,2.88-2.82,4.89-2.82c0.98,0,1.96,0.26,2.82,0.76c2.69,1.55,3.62,5.01,2.07,7.71
				C49.4,256.54,47.52,257.62,45.51,257.62z M45.52,247.24c-1.69,0-3.27,0.91-4.11,2.37c-0.63,1.09-0.8,2.37-0.47,3.59
				c0.33,1.22,1.11,2.24,2.21,2.88c0.72,0.42,1.54,0.64,2.37,0.64c1.69,0,3.27-0.91,4.11-2.37c1.31-2.26,0.53-5.17-1.74-6.48
				C47.17,247.46,46.35,247.24,45.52,247.24z"/>
			<path class="st5" d="M45.51,257.77c-1.01,0-2.01-0.27-2.89-0.78c-1.34-0.77-2.3-2.02-2.7-3.52c-0.4-1.49-0.2-3.05,0.58-4.39
				c1.03-1.79,2.96-2.9,5.02-2.9c1.01,0,2.01,0.27,2.89,0.77c2.77,1.6,3.72,5.14,2.12,7.91C49.5,256.66,47.58,257.77,45.51,257.77z
				 M45.52,246.49c-1.96,0-3.78,1.05-4.76,2.75c-0.74,1.27-0.93,2.75-0.55,4.16c0.38,1.42,1.29,2.6,2.56,3.33
				c0.83,0.48,1.78,0.74,2.74,0.74c1.96,0,3.78-1.05,4.76-2.74c1.51-2.62,0.61-5.99-2.01-7.5
				C47.43,246.74,46.48,246.49,45.52,246.49z M45.51,256.87c-0.85,0-1.7-0.23-2.44-0.66c-1.13-0.65-1.94-1.71-2.28-2.97
				c-0.34-1.26-0.16-2.58,0.49-3.71c0.87-1.51,2.5-2.45,4.24-2.45c0.85,0,1.7,0.23,2.44,0.65c2.33,1.35,3.14,4.34,1.79,6.68
				C48.88,255.93,47.26,256.87,45.51,256.87z M45.52,247.39c-1.64,0-3.16,0.88-3.98,2.3c-0.61,1.06-0.78,2.3-0.46,3.48
				c0.32,1.18,1.08,2.17,2.14,2.79c0.7,0.4,1.49,0.62,2.29,0.62c1.64,0,3.16-0.88,3.98-2.29c1.26-2.19,0.51-5.01-1.68-6.27
				C47.12,247.6,46.32,247.39,45.52,247.39z"/>
		</g>
	</g>
</g>
<g>
	<path class="st2" d="M44.78,146.11c-5.74,0-11.2-2.17-15.38-6.1c-0.33-0.31-0.35-0.84-0.04-1.17c0.31-0.33,0.84-0.35,1.17-0.04
		c3.87,3.64,8.92,5.65,14.24,5.65c11.46,0,20.78-9.32,20.78-20.78c0-11.46-9.32-20.78-20.78-20.78c-6.27,0-12.14,2.79-16.11,7.65
		c-0.29,0.36-0.81,0.41-1.17,0.12c-0.36-0.29-0.41-0.81-0.12-1.17c4.28-5.25,10.62-8.26,17.39-8.26c12.37,0,22.44,10.07,22.44,22.44
		C67.22,136.04,57.16,146.11,44.78,146.11z"/>
	<linearGradient id="SVGID_1_" gradientUnits="userSpaceOnUse" x1="26.0935" y1="123.6688" x2="29.9725" y2="123.6688">
		<stop  offset="0" style="stop-color:#801E2C"/>
		<stop  offset="1" style="stop-color:#DE1F26"/>
	</linearGradient>
	<circle class="st6" cx="28.03" cy="123.67" r="1.94"/>
	<linearGradient id="SVGID_2_" gradientUnits="userSpaceOnUse" x1="59.5921" y1="123.6688" x2="63.4712" y2="123.6688">
		<stop  offset="0" style="stop-color:#801E2C"/>
		<stop  offset="1" style="stop-color:#DE1F26"/>
	</linearGradient>
	<circle class="st7" cx="61.53" cy="123.67" r="1.94"/>
	<linearGradient id="SVGID_3_" gradientUnits="userSpaceOnUse" x1="42.8428" y1="140.4182" x2="46.7219" y2="140.4182">
		<stop  offset="0" style="stop-color:#801E2C"/>
		<stop  offset="1" style="stop-color:#DE1F26"/>
	</linearGradient>
	<circle class="st8" cx="44.78" cy="140.42" r="1.94"/>
	<linearGradient id="SVGID_4_" gradientUnits="userSpaceOnUse" x1="42.8428" y1="106.9195" x2="46.7219" y2="106.9195">
		<stop  offset="0" style="stop-color:#801E2C"/>
		<stop  offset="1" style="stop-color:#DE1F26"/>
	</linearGradient>
	<circle class="st9" cx="44.78" cy="106.92" r="1.94"/>
	<path class="st2" d="M55.56,124.5H44.78c-0.46,0-0.83-0.37-0.83-0.83v-6.63c0-0.46,0.37-0.83,0.83-0.83c0.46,0,0.83,0.37,0.83,0.83
		v5.8h9.95c0.46,0,0.83,0.37,0.83,0.83S56.02,124.5,55.56,124.5z"/>
	<path class="st2" d="M29.97,115.72h-1.66c-0.46,0-0.83-0.37-0.83-0.83c0-0.46,0.37-0.83,0.83-0.83h1.66c0.46,0,0.83,0.37,0.83,0.83
		C30.8,115.34,30.43,115.72,29.97,115.72z"/>
	<path class="st2" d="M25.04,115.72h-3.27c-0.46,0-0.83-0.37-0.83-0.83c0-0.46,0.37-0.83,0.83-0.83h3.27c0.46,0,0.83,0.37,0.83,0.83
		C25.87,115.34,25.5,115.72,25.04,115.72z M18.5,115.72h-3.27c-0.46,0-0.83-0.37-0.83-0.83c0-0.46,0.37-0.83,0.83-0.83h3.27
		c0.46,0,0.83,0.37,0.83,0.83C19.33,115.34,18.96,115.72,18.5,115.72z"/>
	<path class="st2" d="M11.96,115.72H10.3c-0.46,0-0.83-0.37-0.83-0.83c0-0.46,0.37-0.83,0.83-0.83h1.66c0.46,0,0.83,0.37,0.83,0.83
		C12.79,115.34,12.42,115.72,11.96,115.72z"/>
	<path class="st2" d="M23.22,124.5h-1.66c-0.46,0-0.83-0.37-0.83-0.83s0.37-0.83,0.83-0.83h1.66c0.46,0,0.83,0.37,0.83,0.83
		S23.68,124.5,23.22,124.5z"/>
	<path class="st2" d="M18.29,124.5h-3.27c-0.46,0-0.83-0.37-0.83-0.83s0.37-0.83,0.83-0.83h3.27c0.46,0,0.83,0.37,0.83,0.83
		S18.75,124.5,18.29,124.5z M11.75,124.5H8.48c-0.46,0-0.83-0.37-0.83-0.83s0.37-0.83,0.83-0.83h3.27c0.46,0,0.83,0.37,0.83,0.83
		S12.21,124.5,11.75,124.5z"/>
	<path class="st2" d="M5.21,124.5H3.55c-0.46,0-0.83-0.37-0.83-0.83s0.37-0.83,0.83-0.83h1.66c0.46,0,0.83,0.37,0.83,0.83
		S5.67,124.5,5.21,124.5z"/>
	<path class="st2" d="M29.97,133.28h-1.66c-0.46,0-0.83-0.37-0.83-0.83c0-0.46,0.37-0.83,0.83-0.83h1.66c0.46,0,0.83,0.37,0.83,0.83
		C30.8,132.91,30.43,133.28,29.97,133.28z"/>
	<path class="st2" d="M25.04,133.28h-3.27c-0.46,0-0.83-0.37-0.83-0.83c0-0.46,0.37-0.83,0.83-0.83h3.27c0.46,0,0.83,0.37,0.83,0.83
		C25.87,132.91,25.5,133.28,25.04,133.28z M18.5,133.28h-3.27c-0.46,0-0.83-0.37-0.83-0.83c0-0.46,0.37-0.83,0.83-0.83h3.27
		c0.46,0,0.83,0.37,0.83,0.83C19.33,132.91,18.96,133.28,18.5,133.28z"/>
	<path class="st2" d="M11.96,133.28H10.3c-0.46,0-0.83-0.37-0.83-0.83c0-0.46,0.37-0.83,0.83-0.83h1.66c0.46,0,0.83,0.37,0.83,0.83
		C12.79,132.91,12.42,133.28,11.96,133.28z"/>
</g>
<g>
	<circle class="st10" cx="172.19" cy="170.85" r="100.6"/>
</g>
<g>
	<text transform="matrix(1 0 0 1 148.7327 90.1729)" class="st2 st11 st12">Journeys</text>
</g>
<g>
	<text transform="matrix(1 0 0 1 275.443 152.773)" class="st2 st11 st12">Experiences</text>
</g>
<g>
	<text transform="matrix(1 0 0 1 242.9093 303.1504)" class="st2 st11 st12">Outsources</text>
</g>
<g>
	<text transform="matrix(1 0 0 1 31.5869 303.8374)" class="st2 st11 st12">Ecosystems</text>
</g>
<g>
	<text transform="matrix(1 0 0 1 26.7633 161.4981)" class="st2 st11 st12">Speed</text>
</g>
<g>
	<text transform="matrix(1 0 0 1 149.0197 206.4297)"><tspan x="0" y="0" class="st2 st11 st12">Moments</tspan><tspan x="-13.92" y="10.62" class="st2 st11 st12">of opportunity</tspan></text>
</g>
</svg>
