<?xml version="1.0" encoding="utf-8"?>
<!-- Generator: Adobe Illustrator 25.0.1, SVG Export Plug-In . SVG Version: 6.00 Build 0)  -->
<svg version="1.1" id="Layer_1" xmlns="http://www.w3.org/2000/svg" xmlns:xlink="http://www.w3.org/1999/xlink" x="0px" y="0px"
	 viewBox="0 0 530 490" style="enable-background:new 0 0 530 490;" xml:space="preserve">
<style type="text/css">
	.st0{fill:none;stroke:#E53231;stroke-width:0.8234;stroke-miterlimit:10;}
	.st1{fill:#332D2F;}
	.st2{fill:#FFFFFF;}
</style>
<circle class="st0" cx="264.77" cy="258.86" r="186.37"/>
<polygon class="st1" points="116.45,181.26 43.38,181.26 6.85,244.54 43.38,307.82 116.45,307.82 152.99,244.54 "/>
<polygon class="st1" points="486.62,181.26 413.55,181.26 377.01,244.54 413.55,307.82 486.62,307.82 523.15,244.54 "/>
<polygon class="st1" points="302.3,7.97 229.23,7.97 192.69,71.25 229.23,134.53 302.3,134.53 338.84,71.25 "/>
<polygon class="st1" points="302.3,356.47 229.23,356.47 192.69,419.75 229.23,483.03 302.3,483.03 338.84,419.75 "/>
<g>
	<g>
		<path class="st2" d="M237.95,68.16h4.1c3.3,0,5.58,2.27,5.58,5.22v0.03c0,2.96-2.28,5.25-5.58,5.25h-4.1V68.16z M240.26,70.24
			v6.33h1.79c1.89,0,3.16-1.28,3.16-3.13v-0.03c0-1.86-1.27-3.17-3.16-3.17H240.26z"/>
		<path class="st2" d="M249.3,68.16h7.92v2.06h-5.63v2.13h4.95v2.06h-4.95v2.2h5.7v2.06h-7.99V68.16z"/>
		<path class="st2" d="M258.26,77.13l1.36-1.63c0.95,0.78,1.94,1.27,3.13,1.27c0.95,0,1.52-0.38,1.52-0.99v-0.03
			c0-0.58-0.36-0.88-2.11-1.33c-2.12-0.54-3.48-1.13-3.48-3.21v-0.03c0-1.9,1.53-3.17,3.67-3.17c1.53,0,2.83,0.48,3.9,1.33
			l-1.2,1.74c-0.93-0.64-1.84-1.03-2.73-1.03c-0.89,0-1.35,0.4-1.35,0.92v0.03c0,0.69,0.45,0.92,2.27,1.38
			c2.13,0.56,3.33,1.32,3.33,3.15v0.03c0,2.08-1.59,3.25-3.85,3.25C261.12,78.81,259.52,78.25,258.26,77.13z"/>
		<path class="st2" d="M268.31,68.16h2.31v10.5h-2.31V68.16z"/>
		<path class="st2" d="M272.4,73.44v-0.03c0-2.98,2.33-5.43,5.5-5.43c1.89,0,3.03,0.51,4.13,1.44l-1.46,1.75
			c-0.81-0.68-1.53-1.06-2.75-1.06c-1.68,0-3.01,1.48-3.01,3.27v0.03c0,1.92,1.32,3.33,3.18,3.33c0.84,0,1.59-0.21,2.17-0.63v-1.5
			h-2.32v-2h4.56v4.56c-1.08,0.92-2.56,1.67-4.48,1.67C274.65,78.84,272.4,76.54,272.4,73.44z"/>
		<path class="st2" d="M284.25,68.16h2.13l4.92,6.46v-6.46h2.28v10.5h-1.96l-5.08-6.67v6.67h-2.28V68.16z"/>
	</g>
</g>
<g>
	<g>
		<path class="st2" d="M391.83,240.63h2.49l2.76,4.44l2.76-4.44h2.49v10.5h-2.29v-6.85l-2.96,4.49h-0.06l-2.92-4.44v6.81h-2.26
			V240.63z"/>
		<path class="st2" d="M408.08,240.55h2.13l4.5,10.57h-2.42l-0.96-2.35h-4.44l-0.96,2.35h-2.35L408.08,240.55z M410.5,246.73
			l-1.4-3.4l-1.39,3.4H410.5z"/>
		<path class="st2" d="M415.95,240.63h2.13l4.92,6.46v-6.46h2.28v10.5h-1.96l-5.08-6.67v6.67h-2.28V240.63z"/>
		<path class="st2" d="M427.26,246.63v-6h2.31v5.94c0,1.71,0.86,2.59,2.27,2.59c1.41,0,2.26-0.85,2.26-2.52v-6.01h2.31v5.92
			c0,3.18-1.79,4.74-4.6,4.74C428.98,251.29,427.26,249.72,427.26,246.63z"/>
		<path class="st2" d="M438.39,240.63h7.99v2.1h-5.68v2.23h5.01v2.1h-5.01v4.06h-2.31V240.63z"/>
		<path class="st2" d="M451.45,240.55h2.13l4.5,10.57h-2.42l-0.96-2.35h-4.44l-0.96,2.35h-2.36L451.45,240.55z M453.88,246.73
			l-1.39-3.4l-1.39,3.4H453.88z"/>
		<path class="st2" d="M458.86,245.91v-0.03c0-2.98,2.25-5.43,5.47-5.43c1.98,0,3.17,0.66,4.14,1.62l-1.47,1.7
			c-0.81-0.74-1.63-1.19-2.68-1.19c-1.77,0-3.04,1.47-3.04,3.27v0.03c0,1.8,1.25,3.3,3.04,3.3c1.2,0,1.93-0.48,2.76-1.23l1.47,1.49
			c-1.08,1.15-2.28,1.87-4.3,1.87C461.16,251.31,458.86,248.92,458.86,245.91z"/>
		<path class="st2" d="M472.47,242.76h-3.2v-2.13h8.7v2.13h-3.19v8.37h-2.31V242.76z"/>
		<path class="st2" d="M479.2,246.63v-6h2.31v5.94c0,1.71,0.86,2.59,2.27,2.59c1.41,0,2.26-0.85,2.26-2.52v-6.01h2.31v5.92
			c0,3.18-1.79,4.74-4.6,4.74C480.93,251.29,479.2,249.72,479.2,246.63z"/>
		<path class="st2" d="M490.33,240.63h4.8c1.33,0,2.37,0.37,3.06,1.06c0.58,0.58,0.9,1.41,0.9,2.4v0.03c0,1.69-0.92,2.76-2.25,3.25
			l2.57,3.75h-2.7l-2.25-3.36h-1.81v3.36h-2.31V240.63z M494.98,245.73c1.13,0,1.77-0.6,1.77-1.49v-0.03c0-0.99-0.69-1.5-1.81-1.5
			h-2.29v3.02H494.98z"/>
		<path class="st2" d="M500.8,240.63h7.92v2.05h-5.63v2.13h4.95v2.05h-4.95v2.21h5.7v2.05h-8V240.63z"/>
	</g>
</g>
<g>
	<g>
		<path class="st2" d="M234.02,419.55h4.1c3.3,0,5.58,2.26,5.58,5.22v0.03c0,2.96-2.28,5.25-5.58,5.25h-4.1V419.55z M236.33,421.63
			v6.33h1.79c1.89,0,3.16-1.27,3.16-3.13v-0.03c0-1.86-1.27-3.16-3.16-3.16H236.33z"/>
		<path class="st2" d="M245.38,419.55h7.92v2.05h-5.63v2.13h4.95v2.05h-4.95v2.21h5.7v2.05h-7.99V419.55z"/>
		<path class="st2" d="M255.05,419.55h2.31v8.4h5.23v2.1h-7.54V419.55z"/>
		<path class="st2" d="M264.07,419.55h2.31v10.5h-2.31V419.55z"/>
		<path class="st2" d="M267.73,419.55h2.55l2.75,7.39l2.74-7.39h2.49l-4.25,10.57h-2.04L267.73,419.55z"/>
		<path class="st2" d="M279.5,419.55h7.92v2.05h-5.63v2.13h4.95v2.05h-4.95v2.21h5.7v2.05h-8V419.55z"/>
		<path class="st2" d="M289.18,419.55h4.8c1.33,0,2.37,0.38,3.06,1.06c0.58,0.58,0.9,1.41,0.9,2.4v0.03c0,1.7-0.92,2.76-2.25,3.25
			l2.56,3.75h-2.7l-2.25-3.36h-1.82v3.36h-2.31V419.55z M293.83,424.65c1.13,0,1.77-0.6,1.77-1.49v-0.03c0-0.99-0.69-1.5-1.82-1.5
			h-2.29v3.01H293.83z"/>
	</g>
</g>
<g>
	<g>
		<path class="st2" d="M40.66,245.91v-0.03c0-2.98,2.35-5.43,5.59-5.43s5.56,2.41,5.56,5.4v0.03c0,2.98-2.35,5.43-5.59,5.43
			C42.98,251.31,40.66,248.89,40.66,245.91z M49.4,245.91v-0.03c0-1.8-1.32-3.3-3.18-3.3s-3.15,1.47-3.15,3.27v0.03
			c0,1.8,1.32,3.3,3.18,3.3S49.4,247.71,49.4,245.91z"/>
		<path class="st2" d="M53.5,240.63h4.29c2.5,0,4.02,1.48,4.02,3.63v0.03c0,2.43-1.89,3.69-4.25,3.69h-1.75v3.15H53.5V240.63z
			 M57.64,245.92c1.15,0,1.83-0.69,1.83-1.59v-0.03c0-1.04-0.72-1.59-1.87-1.59h-1.79v3.21H57.64z"/>
		<path class="st2" d="M63.14,240.63h7.92v2.05h-5.63v2.13h4.95v2.05h-4.95v2.21h5.7v2.05h-7.99V240.63z"/>
		<path class="st2" d="M72.82,240.63h4.8c1.33,0,2.37,0.37,3.06,1.06c0.58,0.58,0.9,1.41,0.9,2.4v0.03c0,1.69-0.92,2.76-2.25,3.25
			l2.56,3.75h-2.7l-2.25-3.36h-1.81v3.36h-2.31V240.63z M77.47,245.73c1.13,0,1.77-0.6,1.77-1.49v-0.03c0-0.99-0.69-1.5-1.81-1.5
			h-2.29v3.02H77.47z"/>
		<path class="st2" d="M86.89,240.55h2.13l4.5,10.57H91.1l-0.96-2.35H85.7l-0.96,2.35h-2.35L86.89,240.55z M89.32,246.73l-1.4-3.4
			l-1.39,3.4H89.32z"/>
		<path class="st2" d="M97.21,242.76h-3.2v-2.13h8.7v2.13h-3.19v8.37h-2.31V242.76z"/>
		<path class="st2" d="M104.11,240.63h7.92v2.05h-5.63v2.13h4.95v2.05h-4.95v2.21h5.7v2.05h-7.99V240.63z"/>
	</g>
</g>
<rect x="186.49" y="167" transform="matrix(0.7071 0.7071 -0.7071 0.7071 251.1901 -115.4624)" class="st0" width="156.96" height="156.96"/>
<line class="st0" x1="153.98" y1="245.48" x2="375.96" y2="245.48"/>
<line class="st0" x1="264.97" y1="134.5" x2="264.97" y2="356.47"/>
</svg>
