<?xml version="1.0" encoding="utf-8"?>
<!-- Generator: Adobe Illustrator 25.1.0, SVG Export Plug-In . SVG Version: 6.00 Build 0)  -->
<svg version="1.1" id="Layer_1" xmlns="http://www.w3.org/2000/svg" xmlns:xlink="http://www.w3.org/1999/xlink" x="0px" y="0px"
	 viewBox="0 0 1140 90" style="enable-background:new 0 0 1140 90;" xml:space="preserve">
<style type="text/css">
	.st0{fill:#01040C;}
	.st1{fill:none;stroke:#01040C;stroke-width:1.0136;stroke-miterlimit:10;}
</style>
<g>
	<g>
		<path class="st0" d="M112.29,39.53h5.46c4.4,0,7.44,3.02,7.44,6.96v0.04c0,3.94-3.04,7-7.44,7h-5.46V39.53z M115.37,42.31v8.44
			h2.38c2.52,0,4.22-1.7,4.22-4.18v-0.04c0-2.48-1.7-4.22-4.22-4.22H115.37z"/>
		<path class="st0" d="M127.43,39.53H138v2.74h-7.5v2.84h6.6v2.74h-6.6v2.94h7.6v2.74h-10.66V39.53z"/>
		<path class="st0" d="M139.37,51.49l1.82-2.18c1.26,1.04,2.58,1.7,4.18,1.7c1.26,0,2.02-0.5,2.02-1.32v-0.04
			c0-0.78-0.48-1.18-2.82-1.78c-2.82-0.72-4.64-1.5-4.64-4.28v-0.04c0-2.54,2.04-4.22,4.9-4.22c2.04,0,3.78,0.64,5.2,1.78l-1.6,2.32
			c-1.24-0.86-2.46-1.38-3.64-1.38c-1.18,0-1.8,0.54-1.8,1.22v0.04c0,0.92,0.6,1.22,3.02,1.84c2.84,0.74,4.44,1.76,4.44,4.2v0.04
			c0,2.78-2.12,4.34-5.14,4.34C143.19,53.73,141.05,52.99,139.37,51.49z"/>
		<path class="st0" d="M152.77,39.53h3.08v14h-3.08V39.53z"/>
		<path class="st0" d="M158.23,46.57v-0.04c0-3.98,3.1-7.24,7.34-7.24c2.52,0,4.04,0.68,5.5,1.92l-1.94,2.34
			c-1.08-0.9-2.04-1.42-3.66-1.42c-2.24,0-4.02,1.98-4.02,4.36v0.04c0,2.56,1.76,4.44,4.24,4.44c1.12,0,2.12-0.28,2.9-0.84v-2h-3.1
			v-2.66h6.08v6.08c-1.44,1.22-3.42,2.22-5.98,2.22C161.23,53.77,158.23,50.71,158.23,46.57z"/>
		<path class="st0" d="M174.03,39.53h2.84l6.56,8.62v-8.62h3.04v14h-2.62l-6.78-8.9v8.9h-3.04V39.53z"/>
	</g>
</g>
<g>
	<g>
		<path class="st0" d="M341.78,39.53h3.32l3.68,5.92l3.68-5.92h3.32v14h-3.06v-9.14l-3.94,5.98h-0.08l-3.9-5.92v9.08h-3.02V39.53z"
			/>
		<path class="st0" d="M363.44,39.43h2.84l6,14.1h-3.22l-1.28-3.14h-5.92l-1.28,3.14h-3.14L363.44,39.43z M366.68,47.67l-1.86-4.54
			l-1.86,4.54H366.68z"/>
		<path class="st0" d="M373.93,39.53h2.84l6.56,8.62v-8.62h3.04v14h-2.62l-6.78-8.9v8.9h-3.04V39.53z"/>
		<path class="st0" d="M389.01,47.53v-8h3.08v7.92c0,2.28,1.14,3.46,3.02,3.46c1.88,0,3.02-1.14,3.02-3.36v-8.02h3.08v7.9
			c0,4.24-2.38,6.32-6.14,6.32S389.01,51.65,389.01,47.53z"/>
		<path class="st0" d="M403.85,39.53h10.66v2.8h-7.58v2.98h6.68v2.8h-6.68v5.42h-3.08V39.53z"/>
		<path class="st0" d="M421.28,39.43h2.84l6,14.1h-3.22l-1.28-3.14h-5.92l-1.28,3.14h-3.14L421.28,39.43z M424.52,47.67l-1.86-4.54
			l-1.86,4.54H424.52z"/>
		<path class="st0" d="M431.15,46.57v-0.04c0-3.98,3-7.24,7.3-7.24c2.64,0,4.22,0.88,5.52,2.16l-1.96,2.26
			c-1.08-0.98-2.18-1.58-3.58-1.58c-2.36,0-4.06,1.96-4.06,4.36v0.04c0,2.4,1.66,4.4,4.06,4.4c1.6,0,2.58-0.64,3.68-1.64l1.96,1.98
			c-1.44,1.54-3.04,2.5-5.74,2.5C434.21,53.77,431.15,50.59,431.15,46.57z"/>
		<path class="st0" d="M449.29,42.37h-4.26v-2.84h11.6v2.84h-4.26v11.16h-3.08V42.37z"/>
		<path class="st0" d="M458.27,47.53v-8h3.08v7.92c0,2.28,1.14,3.46,3.02,3.46c1.88,0,3.02-1.14,3.02-3.36v-8.02h3.08v7.9
			c0,4.24-2.38,6.32-6.14,6.32S458.27,51.65,458.27,47.53z"/>
		<path class="st0" d="M473.11,39.53h6.4c1.78,0,3.16,0.5,4.08,1.42c0.78,0.78,1.2,1.88,1.2,3.2v0.04c0,2.26-1.22,3.68-3,4.34
			l3.42,5h-3.6l-3-4.48h-2.42v4.48h-3.08V39.53z M479.32,46.33c1.5,0,2.36-0.8,2.36-1.98v-0.04c0-1.32-0.92-2-2.42-2h-3.06v4.02
			H479.32z"/>
		<path class="st0" d="M487.07,39.53h10.56v2.74h-7.5v2.84h6.6v2.74h-6.6v2.94h7.6v2.74h-10.66V39.53z"/>
	</g>
</g>
<g>
	<g>
		<path class="st0" d="M647.19,39.53h5.46c4.4,0,7.44,3.02,7.44,6.96v0.04c0,3.94-3.04,7-7.44,7h-5.46V39.53z M650.27,42.31v8.44
			h2.38c2.52,0,4.22-1.7,4.22-4.18v-0.04c0-2.48-1.7-4.22-4.22-4.22H650.27z"/>
		<path class="st0" d="M662.33,39.53h10.56v2.74h-7.5v2.84h6.6v2.74h-6.6v2.94h7.6v2.74h-10.66V39.53z"/>
		<path class="st0" d="M675.23,39.53h3.08v11.2h6.98v2.8h-10.06V39.53z"/>
		<path class="st0" d="M687.25,39.53h3.08v14h-3.08V39.53z"/>
		<path class="st0" d="M692.13,39.53h3.4l3.66,9.86l3.66-9.86h3.32l-5.66,14.1h-2.72L692.13,39.53z"/>
		<path class="st0" d="M707.83,39.53h10.56v2.74h-7.5v2.84h6.6v2.74h-6.6v2.94h7.6v2.74h-10.66V39.53z"/>
		<path class="st0" d="M720.73,39.53h6.4c1.78,0,3.16,0.5,4.08,1.42c0.78,0.78,1.2,1.88,1.2,3.2v0.04c0,2.26-1.22,3.68-3,4.34
			l3.42,5h-3.6l-3-4.48h-2.42v4.48h-3.08V39.53z M726.93,46.33c1.5,0,2.36-0.8,2.36-1.98v-0.04c0-1.32-0.92-2-2.42-2h-3.06v4.02
			H726.93z"/>
	</g>
</g>
<g>
	<g>
		<path class="st0" d="M911.94,46.57v-0.04c0-3.98,3.14-7.24,7.46-7.24c4.32,0,7.42,3.22,7.42,7.2v0.04c0,3.98-3.14,7.24-7.46,7.24
			C915.04,53.77,911.94,50.55,911.94,46.57z M923.6,46.57v-0.04c0-2.4-1.76-4.4-4.24-4.4s-4.2,1.96-4.2,4.36v0.04
			c0,2.4,1.76,4.4,4.24,4.4S923.6,48.97,923.6,46.57z"/>
		<path class="st0" d="M929.06,39.53h5.72c3.34,0,5.36,1.98,5.36,4.84v0.04c0,3.24-2.52,4.92-5.66,4.92h-2.34v4.2h-3.08V39.53z
			 M934.58,46.59c1.54,0,2.44-0.92,2.44-2.12v-0.04c0-1.38-0.96-2.12-2.5-2.12h-2.38v4.28H934.58z"/>
		<path class="st0" d="M941.92,39.53h10.56v2.74h-7.5v2.84h6.6v2.74h-6.6v2.94h7.6v2.74h-10.66V39.53z"/>
		<path class="st0" d="M954.82,39.53h6.4c1.78,0,3.16,0.5,4.08,1.42c0.78,0.78,1.2,1.88,1.2,3.2v0.04c0,2.26-1.22,3.68-3,4.34
			l3.42,5h-3.6l-3-4.48h-2.42v4.48h-3.08V39.53z M961.02,46.33c1.5,0,2.36-0.8,2.36-1.98v-0.04c0-1.32-0.92-2-2.42-2h-3.06v4.02
			H961.02z"/>
		<path class="st0" d="M973.58,39.43h2.84l6,14.1h-3.22l-1.28-3.14H972l-1.28,3.14h-3.14L973.58,39.43z M976.82,47.67l-1.86-4.54
			l-1.86,4.54H976.82z"/>
		<path class="st0" d="M987.34,42.37h-4.26v-2.84h11.6v2.84h-4.26v11.16h-3.08V42.37z"/>
		<path class="st0" d="M996.54,39.53h10.56v2.74h-7.5v2.84h6.6v2.74h-6.6v2.94h7.6v2.74h-10.66V39.53z"/>
	</g>
</g>
<polygon class="st1" points="292.05,7.65 8.99,7.65 31.14,45 8.99,82.35 292.05,82.35 314.2,45 "/>
<polygon class="st1" points="563.4,7.65 280.34,7.65 302.5,45 280.34,82.35 563.4,82.35 585.56,45 "/>
<polygon class="st1" points="835.81,7.65 552.75,7.65 574.91,45 552.75,82.35 835.81,82.35 857.97,45 "/>
<polygon class="st1" points="1109.16,7.65 826.1,7.65 848.25,45 826.1,82.35 1109.16,82.35 1131.32,45 "/>
</svg>
