<?xml version="1.0" encoding="utf-8"?>
<!-- Generator: Adobe Illustrator 25.0.1, SVG Export Plug-In . SVG Version: 6.00 Build 0)  -->
<svg version="1.1" id="Layer_1" xmlns="http://www.w3.org/2000/svg" xmlns:xlink="http://www.w3.org/1999/xlink" x="0px" y="0px"
	 viewBox="0 0 180 150" style="enable-background:new 0 0 180 150;" xml:space="preserve">
<style type="text/css">
	.st0{fill:#332D2F;}
	.st1{fill:none;}
	.st2{enable-background:new    ;}
	.st3{fill:#FFFFFF;}
	.st4{fill:#FFFFFF;stroke:#332D2F;stroke-width:0.9848;stroke-linecap:round;stroke-linejoin:round;stroke-miterlimit:10;}
	.st5{fill:#E33231;stroke:#332D2F;stroke-width:0.9848;stroke-linecap:round;stroke-linejoin:round;stroke-miterlimit:10;}
</style>
<g>
	<polygon class="st0" points="130.41,5 49.59,5 9.18,75 49.59,145 130.41,145 170.82,75 	"/>
	<g>
		<g>
			<polygon class="st1" points="41.32,122.94 41.32,109.13 139.21,109.13 139.21,122.89 			"/>
			<g class="st2">
				<path class="st3" d="M67.2,109.54h4.25c1.08,0,1.94,0.3,2.48,0.84c0.42,0.42,0.64,0.93,0.64,1.57v0.03
					c0,1.14-0.65,1.75-1.35,2.11c1.11,0.38,1.88,1.02,1.88,2.3v0.03c0,1.69-1.39,2.6-3.51,2.6H67.2V109.54z M71.11,113.53
					c1.07,0,1.79-0.42,1.79-1.29v-0.03c0-0.75-0.6-1.21-1.66-1.21h-2.4v2.52H71.11z M71.6,117.53c1.14,0,1.83-0.45,1.83-1.3v-0.03
					c0-0.8-0.64-1.27-1.95-1.27h-2.64v2.6H71.6z"/>
				<path class="st3" d="M76.82,114.99v-5.46h1.66v5.39c0,1.76,0.91,2.71,2.4,2.71c1.48,0,2.38-0.89,2.38-2.64v-5.46h1.66v5.37
					c0,2.83-1.6,4.25-4.07,4.25C78.39,119.16,76.82,117.74,76.82,114.99z"/>
				<path class="st3" d="M90.01,115.27l-3.76-5.74h1.96l2.65,4.2l2.68-4.2h1.91l-3.76,5.7v3.78h-1.68V115.27z"/>
				<path class="st3" d="M96.91,109.54h7.02v1.49h-5.36v2.46h4.75v1.49h-4.75v2.54H104v1.49h-7.09V109.54z"/>
				<path class="st3" d="M105.98,109.54h4.22c1.19,0,2.13,0.35,2.73,0.95c0.5,0.51,0.79,1.22,0.79,2.04v0.03
					c0,1.56-0.93,2.49-2.26,2.87l2.56,3.59h-1.96l-2.33-3.3h-2.08v3.3h-1.67V109.54z M110.08,114.23c1.19,0,1.95-0.62,1.95-1.58
					v-0.03c0-1.01-0.73-1.57-1.96-1.57h-2.42v3.18H110.08z"/>
			</g>
		</g>
		<g>
			<g>
				<g>
					<g>
						<path class="st4" d="M124.83,91.44H55.7c-0.81,0-1.47-0.66-1.47-1.47V45.42c0-0.81,0.66-1.47,1.47-1.47h69.12
							c0.81,0,1.47,0.66,1.47,1.47v42.35c0,0.81-0.66,1.47-1.47,1.47s-1.47-0.66-1.47-1.47V46.89H57.17v41.62h67.65
							c0.81,0,1.47,0.66,1.47,1.47S125.64,91.44,124.83,91.44z"/>
					</g>
					<g>
						<path class="st4" d="M136.1,104.62H44.43c-1.37,0-2.53-0.84-2.95-2.15c-0.41-1.29,0.01-2.63,1.09-3.43l12.2-10.18
							c0.26-0.22,0.6-0.34,0.94-0.34h69.12c0.34,0,0.68,0.12,0.94,0.34l12.2,10.18c1.08,0.81,1.51,2.15,1.09,3.43
							C138.63,103.77,137.47,104.62,136.1,104.62z M56.24,91.44l-11.82,9.87c-0.03,0.02-0.05,0.04-0.08,0.06
							c-0.04,0.03-0.1,0.07-0.06,0.19c0.04,0.12,0.11,0.12,0.16,0.12h91.68c0.05,0,0.12,0,0.16-0.12c0.04-0.12-0.02-0.16-0.06-0.19
							c-0.03-0.02-0.06-0.04-0.08-0.06l-11.82-9.87H56.24z"/>
					</g>
					<g>
						<path class="st4" d="M125.27,99.55H54.73c-0.81,0-1.47-0.66-1.47-1.47s0.66-1.47,1.47-1.47h70.54c0.81,0,1.47,0.66,1.47,1.47
							S126.08,99.55,125.27,99.55z"/>
					</g>
				</g>
				<g>
					<g>
						<path class="st4" d="M73.48,65.45H63.44c-0.81,0-1.47-0.66-1.47-1.47V53.93c0-0.81,0.66-1.47,1.47-1.47h10.04
							c0.81,0,1.47,0.66,1.47,1.47s-0.66,1.47-1.47,1.47H64.9v7.11h7.11v-2.07c0-0.81,0.66-1.47,1.47-1.47s1.47,0.66,1.47,1.47v3.53
							C74.95,64.79,74.29,65.45,73.48,65.45z"/>
					</g>
					<g>
						<path class="st5" d="M69.14,60.84c-0.39,0-0.76-0.15-1.04-0.43l-1.3-1.3c-0.57-0.57-0.57-1.5,0-2.08
							c0.57-0.57,1.5-0.57,2.08,0l0.16,0.16l4.49-5.46c0.51-0.63,1.44-0.72,2.07-0.2c0.63,0.51,0.72,1.44,0.2,2.07l-5.52,6.71
							c-0.26,0.32-0.65,0.51-1.06,0.53C69.18,60.84,69.16,60.84,69.14,60.84z"/>
					</g>
				</g>
				<g>
					<g>
						<path class="st4" d="M73.48,84.43H63.44c-0.81,0-1.47-0.66-1.47-1.47V72.92c0-0.81,0.66-1.47,1.47-1.47h10.04
							c0.81,0,1.47,0.66,1.47,1.47s-0.66,1.47-1.47,1.47H64.9v7.11h7.11v-2.07c0-0.81,0.66-1.47,1.47-1.47s1.47,0.66,1.47,1.47v3.53
							C74.95,83.77,74.29,84.43,73.48,84.43z"/>
					</g>
					<g>
						<path class="st5" d="M69.14,79.82c-0.39,0-0.76-0.15-1.04-0.43l-1.3-1.3c-0.57-0.57-0.57-1.5,0-2.08
							c0.57-0.57,1.5-0.57,2.08,0l0.16,0.16l4.49-5.46c0.51-0.63,1.44-0.72,2.07-0.2c0.63,0.51,0.72,1.44,0.2,2.07l-5.52,6.71
							c-0.26,0.32-0.65,0.51-1.06,0.53C69.18,79.82,69.16,79.82,69.14,79.82z"/>
					</g>
				</g>
				<g>
					<g>
						<path class="st5" d="M116.94,55.4H83.06c-0.81,0-1.47-0.66-1.47-1.47s0.66-1.47,1.47-1.47h33.88c0.81,0,1.47,0.66,1.47,1.47
							S117.75,55.4,116.94,55.4z"/>
					</g>
					<g>
						<path class="st5" d="M97.67,62.59H83.06c-0.81,0-1.47-0.66-1.47-1.47s0.66-1.47,1.47-1.47h14.61c0.81,0,1.47,0.66,1.47,1.47
							S98.48,62.59,97.67,62.59z"/>
					</g>
				</g>
				<g>
					<g>
						<path class="st5" d="M99.29,74.39H83.06c-0.81,0-1.47-0.66-1.47-1.47s0.66-1.47,1.47-1.47h16.23c0.81,0,1.47,0.66,1.47,1.47
							C100.75,73.73,100.1,74.39,99.29,74.39z"/>
					</g>
					<g>
						<path class="st5" d="M91.8,81.57h-8.74c-0.81,0-1.47-0.66-1.47-1.47s0.66-1.47,1.47-1.47h8.74c0.81,0,1.47,0.66,1.47,1.47
							S92.61,81.57,91.8,81.57z"/>
					</g>
				</g>
			</g>
		</g>
	</g>
</g>
</svg>
