<?xml version="1.0" encoding="utf-8"?>
<!-- Generator: Adobe Illustrator 25.0.1, SVG Export Plug-In . SVG Version: 6.00 Build 0)  -->
<svg version="1.1" id="Layer_1" xmlns="http://www.w3.org/2000/svg" xmlns:xlink="http://www.w3.org/1999/xlink" x="0px" y="0px"
	 viewBox="0 0 130 112.58" style="enable-background:new 0 0 130 112.58;" xml:space="preserve">
<style type="text/css">
	.st0{fill:#342D2F;}
	.st1{fill:none;stroke:#FFFFFF;stroke-width:1.0706;stroke-miterlimit:10;}
</style>
<g>
	<g>
		<polygon class="st0" points="96.81,1.19 33.19,1.19 1.38,56.29 33.19,111.39 96.81,111.39 128.62,56.29 		"/>
	</g>
	<g>
		<g>
			<g>
				<g>
					<g>
						<g>
							<path class="st1" d="M75.55,47.63c-2.31-1.56-4.78-2.77-7.15-3.4v8.76c8.76,2.36,12.51,5.88,12.51,12.34v0.12
								c0,6.46-4.96,10.61-12.22,11.36v5.71h-6v-5.82c-4.96-0.63-9.8-2.6-13.61-5.48l4.5-6.57c3.11,2.36,6,3.98,9.4,4.67v-9.17
								c-8.3-2.25-12.4-5.36-12.4-12.22V47.8c0-6.34,4.84-10.55,12.11-11.3v-3.35h6v3.52c4.09,0.52,7.55,2.02,10.72,4.21
								L75.55,47.63z M62.98,51.55v-7.84C60.16,44.05,59,45.44,59,47.28v0.12C59,49.24,59.81,50.39,62.98,51.55z M68.4,61.52v8.07
								c2.71-0.4,4.09-1.61,4.09-3.69v-0.12C72.5,63.89,71.51,62.67,68.4,61.52z"/>
						</g>
					</g>
				</g>
			</g>
		</g>
	</g>
</g>
</svg>
