<?xml version="1.0" encoding="utf-8"?>
<!-- Generator: Adobe Illustrator 25.0.1, SVG Export Plug-In . SVG Version: 6.00 Build 0)  -->
<svg version="1.1" id="Layer_1" xmlns="http://www.w3.org/2000/svg" xmlns:xlink="http://www.w3.org/1999/xlink" x="0px" y="0px"
	 viewBox="0 0 100 86.6" style="enable-background:new 0 0 100 86.6;" xml:space="preserve">
<style type="text/css">
	.st0{fill:#342D2F;}
	.st1{fill:#FFFFFF;}
</style>
<g>
	<g>
		<polygon class="st0" points="72.9,3.63 27.1,3.63 4.2,43.3 27.1,82.97 72.9,82.97 95.8,43.3 		"/>
	</g>
	<g>
		<path class="st1" d="M59.5,62.08H41.19c-1.41,0-2.55-1.14-2.55-2.55V34.07c0-0.34,0.27-0.61,0.61-0.61c0.34,0,0.61,0.27,0.61,0.61
			v25.46c0,0.74,0.6,1.34,1.34,1.34H59.5c0.74,0,1.34-0.6,1.34-1.34V27.07c0-0.74-0.6-1.34-1.34-1.34H41.19
			c-0.74,0-1.34,0.6-1.34,1.34v2.32c0,0.34-0.27,0.61-0.61,0.61c-0.34,0-0.61-0.27-0.61-0.61v-2.32c0-1.41,1.15-2.55,2.55-2.55H59.5
			c1.41,0,2.55,1.14,2.55,2.55v32.46C62.05,60.94,60.91,62.08,59.5,62.08z"/>
		<path class="st1" d="M59.34,57.82H41.35c-0.34,0-0.61-0.27-0.61-0.61V45.25c0-0.34,0.27-0.61,0.61-0.61
			c0.34,0,0.61,0.27,0.61,0.61v11.36h16.77V29.99H42.81c-0.34,0-0.61-0.27-0.61-0.61c0-0.34,0.27-0.61,0.61-0.61h16.53
			c0.34,0,0.61,0.27,0.61,0.61v27.83C59.94,57.55,59.67,57.82,59.34,57.82z"/>
		<path class="st1" d="M54.53,44.39H42.8c-0.32,0-0.58-0.25-0.61-0.57l-0.61-9.01c-0.01-0.17,0.05-0.33,0.16-0.46
			c0.11-0.12,0.28-0.19,0.44-0.19h12.95c0.17,0,0.33,0.07,0.44,0.19c0.11,0.12,0.17,0.29,0.16,0.46l-0.61,9.01
			C55.12,44.15,54.85,44.39,54.53,44.39z M43.37,43.18h10.6l0.52-7.8H42.84L43.37,43.18z"/>
		<path class="st1" d="M54.74,41.52H42.59c-0.34,0-0.61-0.27-0.61-0.61c0-0.34,0.27-0.61,0.61-0.61h12.15
			c0.34,0,0.61,0.27,0.61,0.61C55.35,41.25,55.08,41.52,54.74,41.52z"/>
		<path class="st1" d="M54.96,38.25H42.37c-0.34,0-0.61-0.27-0.61-0.61s0.27-0.61,0.61-0.61h12.59c0.34,0,0.61,0.27,0.61,0.61
			S55.3,38.25,54.96,38.25z"/>
		<path class="st1" d="M42.19,35.38c-0.31,0-0.58-0.24-0.61-0.56l-0.22-2.7h-2.81c-0.34,0-0.61-0.27-0.61-0.61s0.27-0.61,0.61-0.61
			h3.37c0.32,0,0.58,0.24,0.61,0.56l0.26,3.26c0.03,0.33-0.22,0.63-0.56,0.66C42.22,35.38,42.21,35.38,42.19,35.38z"/>
		<path class="st1" d="M44.92,49.35c-1.09,0-1.97-0.88-1.97-1.97c0-1.09,0.88-1.97,1.97-1.97c1.09,0,1.97,0.88,1.97,1.97
			C46.89,48.47,46,49.35,44.92,49.35z M44.92,46.63c-0.42,0-0.76,0.34-0.76,0.76c0,0.42,0.34,0.76,0.76,0.76
			c0.42,0,0.76-0.34,0.76-0.76C45.67,46.97,45.33,46.63,44.92,46.63z"/>
		<path class="st1" d="M51.76,49.35c-1.09,0-1.97-0.88-1.97-1.97c0-1.09,0.88-1.97,1.97-1.97c1.09,0,1.97,0.88,1.97,1.97
			C53.73,48.47,52.85,49.35,51.76,49.35z M51.76,46.63c-0.42,0-0.76,0.34-0.76,0.76c0,0.42,0.34,0.76,0.76,0.76s0.76-0.34,0.76-0.76
			C52.52,46.97,52.18,46.63,51.76,46.63z"/>
		<path class="st1" d="M54.01,54.93h-7.45c-1.36,0-2.47-1.11-2.47-2.47c0-1.36,1.11-2.47,2.47-2.47h7.45c1.36,0,2.47,1.11,2.47,2.47
			C56.48,53.82,55.37,54.93,54.01,54.93z M46.56,51.21c-0.69,0-1.26,0.56-1.26,1.26c0,0.69,0.56,1.26,1.26,1.26h7.45
			c0.69,0,1.26-0.56,1.26-1.26c0-0.69-0.56-1.26-1.26-1.26H46.56z"/>
	</g>
</g>
</svg>
