<?xml version="1.0" encoding="UTF-8"?>
<svg xmlns="http://www.w3.org/2000/svg" xmlns:xlink="http://www.w3.org/1999/xlink" width="70px" height="67px" viewBox="0 0 69 67" version="1.1">
<g id="surface1">
<path style=" stroke:none;fill-rule:evenodd;fill:rgb(81.176471%,13.333333%,15.686275%);fill-opacity:1;" d="M 56.765625 16.019531 L 57.984375 17.316406 L 68.972656 16.15625 L 58.34375 14.394531 Z M 56.765625 16.019531 "/>
<path style=" stroke:none;fill-rule:evenodd;fill:rgb(72.156863%,12.54902%,14.901961%);fill-opacity:1;" d="M 13.578125 22.898438 L 28.996094 16.417969 L 0.0664062 8.046875 Z M 13.578125 22.898438 "/>
<path style=" stroke:none;fill-rule:evenodd;fill:rgb(72.156863%,12.54902%,14.901961%);fill-opacity:1;" d="M 12.304688 26.230469 L 27.410156 31.269531 L 26.957031 21.007812 Z M 12.304688 26.230469 "/>
<path style=" stroke:none;fill-rule:evenodd;fill:rgb(92.941176%,18.431373%,16.862745%);fill-opacity:1;" d="M 28.996094 16.417969 L 36.789062 11.96875 L 0.0664062 8.046875 Z M 28.996094 16.417969 "/>
<path style=" stroke:none;fill-rule:evenodd;fill:rgb(94.117647%,38.431373%,38.431373%);fill-opacity:1;" d="M 28.996094 16.417969 L 34.847656 21.867188 L 40.273438 15.457031 L 36.789062 11.96875 Z M 28.996094 16.417969 "/>
<path style=" stroke:none;fill-rule:evenodd;fill:rgb(72.156863%,12.54902%,14.901961%);fill-opacity:1;" d="M 29.6875 32.203125 L 34.847656 21.867188 L 28.996094 16.417969 Z M 29.6875 32.203125 "/>
<path style=" stroke:none;fill-rule:evenodd;fill:rgb(92.941176%,18.431373%,16.862745%);fill-opacity:1;" d="M 29.6875 32.203125 L 38.082031 33.992188 L 34.847656 21.867188 Z M 29.6875 32.203125 "/>
<path style=" stroke:none;fill-rule:evenodd;fill:rgb(92.941176%,18.431373%,16.862745%);fill-opacity:1;" d="M 34.847656 21.867188 L 44.25 19.609375 L 40.273438 15.457031 Z M 34.847656 21.867188 "/>
<path style=" stroke:none;fill-rule:evenodd;fill:rgb(94.117647%,38.431373%,38.431373%);fill-opacity:1;" d="M 40.273438 15.457031 L 44.25 19.609375 L 48 15.355469 L 47.179688 10.9375 Z M 40.273438 15.457031 "/>
<path style=" stroke:none;fill-rule:evenodd;fill:rgb(65.098039%,11.764706%,13.333333%);fill-opacity:1;" d="M 47.179688 10.9375 L 48 15.355469 L 56.765625 16.019531 L 58.34375 14.394531 L 53.886719 11.070312 Z M 47.179688 10.9375 "/>
<path style=" stroke:none;fill-rule:evenodd;fill:rgb(38.039216%,38.431373%,39.215686%);fill-opacity:1;" d="M 48 15.355469 L 52.042969 20.640625 L 57.984375 17.316406 L 56.765625 16.019531 Z M 48 15.355469 "/>
<path style=" stroke:none;fill-rule:evenodd;fill:rgb(34.509804%,34.901961%,35.686275%);fill-opacity:1;" d="M 44.25 19.609375 L 49.917969 24.128906 L 52.042969 20.640625 L 48 15.355469 Z M 44.25 19.609375 "/>
<path style=" stroke:none;fill-rule:evenodd;fill:rgb(38.039216%,38.431373%,39.215686%);fill-opacity:1;" d="M 43.203125 27.230469 L 49.855469 33.492188 L 49.917969 24.128906 L 44.25 19.609375 Z M 43.203125 27.230469 "/>
<path style=" stroke:none;fill-rule:evenodd;fill:rgb(41.176471%,41.568627%,42.352941%);fill-opacity:1;" d="M 38.082031 33.992188 L 42.246094 41.769531 L 49.855469 33.492188 L 43.203125 27.230469 Z M 38.082031 33.992188 "/>
<path style=" stroke:none;fill-rule:evenodd;fill:rgb(72.156863%,12.54902%,14.901961%);fill-opacity:1;" d="M 29.488281 42.300781 L 38.082031 33.992188 L 29.6875 32.203125 Z M 29.488281 42.300781 "/>
<path style=" stroke:none;fill-rule:evenodd;fill:rgb(64.313725%,65.490196%,66.27451%);fill-opacity:1;" d="M 37.742188 48.378906 L 38.082031 33.992188 L 29.488281 42.300781 Z M 37.742188 48.378906 "/>
<path style=" stroke:none;fill-rule:evenodd;fill:rgb(31.764706%,32.156863%,32.941176%);fill-opacity:1;" d="M 37.742188 48.378906 L 42.246094 41.769531 L 38.082031 33.992188 Z M 37.742188 48.378906 "/>
<path style=" stroke:none;fill-rule:evenodd;fill:rgb(42.745098%,43.137255%,43.921569%);fill-opacity:1;" d="M 37.742188 48.378906 L 47.792969 50.945312 L 42.246094 41.769531 Z M 37.742188 48.378906 "/>
<path style=" stroke:none;fill-rule:evenodd;fill:rgb(69.803922%,70.588235%,71.764706%);fill-opacity:1;" d="M 43.234375 63.164062 L 47.792969 50.945312 L 37.742188 48.378906 Z M 43.234375 63.164062 "/>
<path style=" stroke:none;fill-rule:evenodd;fill:rgb(72.156863%,12.54902%,14.901961%);fill-opacity:1;" d="M 15.925781 9.730469 L 30.40625 11.28125 L 10.3125 2.972656 Z M 15.925781 9.730469 "/>
<path style=" stroke:none;fill-rule:evenodd;fill:rgb(81.176471%,13.333333%,15.686275%);fill-opacity:1;" d="M 30.40625 11.28125 L 36.789062 11.96875 L 40.339844 8.644531 L 10.3125 2.972656 Z M 30.40625 11.28125 "/>
<path style=" stroke:none;fill-rule:evenodd;fill:rgb(65.098039%,11.764706%,13.333333%);fill-opacity:1;" d="M 36.789062 11.96875 L 40.273438 15.457031 L 42.964844 14.054688 L 40.339844 8.644531 Z M 36.789062 11.96875 "/>
<path style=" stroke:none;fill-rule:evenodd;fill:rgb(72.156863%,12.54902%,14.901961%);fill-opacity:1;" d="M 38.082031 33.992188 L 43.203125 27.230469 L 44.25 19.609375 L 34.847656 21.867188 Z M 38.082031 33.992188 "/>
<path style=" stroke:none;fill-rule:evenodd;fill:rgb(94.117647%,38.431373%,38.431373%);fill-opacity:1;" d="M 31.390625 55.058594 L 37.792969 67 L 36.855469 51.234375 Z M 31.390625 55.058594 "/>
<path style=" stroke:none;fill-rule:evenodd;fill:rgb(92.941176%,18.431373%,16.862745%);fill-opacity:1;" d="M 29.464844 53.085938 L 31.761719 47.722656 L 23.492188 44.457031 Z M 29.464844 53.085938 "/>
<path style=" stroke:none;fill-rule:evenodd;fill:rgb(81.176471%,13.333333%,15.686275%);fill-opacity:1;" d="M 19.582031 43.316406 L 20.695312 37.015625 L 14.125 34.078125 Z M 19.582031 43.316406 "/>
<path style=" stroke:none;fill-rule:evenodd;fill:rgb(94.117647%,38.431373%,38.431373%);fill-opacity:1;" d="M 0.0273438 23.625 L 8.773438 22.894531 L 5.285156 18.890625 Z M 0.0273438 23.625 "/>
<path style=" stroke:none;fill-rule:evenodd;fill:rgb(72.156863%,12.54902%,14.901961%);fill-opacity:1;" d="M 22.886719 59.011719 L 23.996094 52.710938 L 20.15625 54.394531 Z M 22.886719 59.011719 "/>
<path style=" stroke:none;fill-rule:evenodd;fill:rgb(72.156863%,12.54902%,14.901961%);fill-opacity:1;" d="M 0.777344 3.6875 L 8.691406 5.890625 L 0.984375 0 Z M 0.777344 3.6875 "/>
</g>
</svg>
