<svg xmlns="http://www.w3.org/2000/svg" viewBox="0 0 210.35 182.17"><defs><style>.cls-1{fill:#353132;}.cls-2{fill:#f6f6f6;}</style></defs><title>Recurso 3</title><g id="Capa_2" data-name="Capa 2"><g id="Capa_1-2" data-name="Capa 1"><polygon class="cls-1" points="157.76 0 52.59 0 0 91.08 52.59 182.16 157.76 182.16 210.35 91.08 157.76 0"/><path class="cls-2" d="M58.23,96.19a14.72,14.72,0,0,1,3.16-6.78A13.16,13.16,0,0,1,71.58,84.6q35.1,0,70.2,0A13.57,13.57,0,0,1,155.19,98q0,9.36,0,18.73a13.54,13.54,0,0,1-13.29,13.41c-6.62.05-13.24,0-19.86,0H103.79c-5.83,0-11.66-.07-17.49,0-4.85.07-9.7,0-14.56,0a13.6,13.6,0,0,1-13.37-11.06,5.36,5.36,0,0,0-.14-.54ZM106.73,127c9.27,0,18.55,0,27.82,0a78.68,78.68,0,0,0,8.41-.14,10.52,10.52,0,0,0,8.94-9.08,74.48,74.48,0,0,0,.12-7.47c0-4.38.24-8.76-.14-13.14a10.25,10.25,0,0,0-8.15-9.06,22.49,22.49,0,0,0-4.33-.31c-6,0-11.92,0-17.87,0H77.27c-1.48,0-3,.1-4.44.06a13.69,13.69,0,0,0-3,.2,10.48,10.48,0,0,0-8.47,10.52c-.06,5.8,0,11.6,0,17.41a10.8,10.8,0,0,0,2.63,7.4A10.68,10.68,0,0,0,72.39,127q17.17,0,34.34,0"/><path class="cls-2" d="M58.23,65.91a14.22,14.22,0,0,1,3.19-6.76c3.75-4.14,8.4-5.78,13.82-4.36A13,13,0,0,1,85.31,65.64a13.69,13.69,0,0,1-26.56,6.44c-.18-.6-.35-1.21-.52-1.82Zm24,2.17A10.44,10.44,0,1,0,71.79,78.51,10.32,10.32,0,0,0,82.26,68.08"/><path class="cls-2" d="M106.73,81.76a16.78,16.78,0,1,1,16.72-17.22,16.86,16.86,0,0,1-16.72,17.22m-.1-3.23a13.54,13.54,0,1,0-13.51-13.6,13.54,13.54,0,0,0,13.51,13.6"/><path class="cls-2" d="M141.55,81.76a13.73,13.73,0,1,1,13.68-14.22,13.78,13.78,0,0,1-13.68,14.22M131.1,68.06a10.45,10.45,0,1,0,10.36-10.45A10.41,10.41,0,0,0,131.1,68.06"/><path class="cls-2" d="M106.68,90.64q17.37,0,34.73,0a7.65,7.65,0,0,1,7.49,5.56,7.08,7.08,0,0,1,.25,2.15c0,5.77-.14,11.55,0,17.31a8,8,0,0,1-8.48,8.53c-3.84,0-7.69-.09-11.54-.1q-9.69,0-19.38,0H74.91c-1.23,0-2.45.12-3.68,0a7.63,7.63,0,0,1-7-7.32q-.08-9.51,0-19a7.56,7.56,0,0,1,7.35-7.13c8.27,0,16.53,0,24.79,0h10.31m-.08,30.28q17.18,0,34.35,0c3.09,0,5-1.76,5-4.81.06-5.9,0-11.8,0-17.7a4.27,4.27,0,0,0-4.08-4.49c-3-.34-6.11,0-9.17-.08-6-.12-11.91,0-17.87,0-5.39,0-10.78,0-16.17,0-4.73,0-9.46.07-14.18.06-4,0-7.95-.05-11.92-.05-3.44,0-5.18,1.8-5.18,5.21q0,8.37,0,16.75c0,3.34,1.81,5.14,5.15,5.14H106.6"/><path class="cls-2" d="M72,73.63a5.33,5.33,0,0,0,4-1.72,1.69,1.69,0,0,1,2-.5,1.62,1.62,0,0,1,.41,2.69,8.5,8.5,0,0,1-7.43,2.75A8.74,8.74,0,0,1,63,68.64a8.33,8.33,0,0,1,2.79-7A1.61,1.61,0,1,1,68,63.89a5.7,5.7,0,0,0,.14,8.4A5.5,5.5,0,0,0,72,73.63"/><path class="cls-2" d="M70.28,65c0-1,0-2,0-3a1.57,1.57,0,1,1,3.14,0c0,1,0,2,0,3,0,1.41,0,1.41,1.46,1.41.59,0,1.19,0,1.79,0a1.58,1.58,0,0,1,1.61,1.43A1.55,1.55,0,0,1,77,69.58a19.47,19.47,0,0,1-5.55,0,1.38,1.38,0,0,1-1.18-1.5c0-1,0-2,0-3"/><path class="cls-2" d="M117.36,65.58a10.37,10.37,0,0,1-6.68,9.34,10.63,10.63,0,0,1-11.53-2.36l-.26-.27a1.61,1.61,0,0,1-.1-2.36,1.57,1.57,0,0,1,2.35.1,8.36,8.36,0,0,0,4.92,2.36,7.46,7.46,0,0,0,5.75-12.82,1.67,1.67,0,0,1-.15-2.51,1.61,1.61,0,0,1,2.42.21,10.64,10.64,0,0,1,3.28,8.31"/><path class="cls-2" d="M108.26,61.18c0,1.2,0,2.4,0,3.59s-.55,1.76-1.72,1.78q-2.88,0-5.76,0a1.59,1.59,0,1,1,0-3.16c1.17,0,2.33,0,3.5,0,.67,0,.88-.25.86-.89,0-1.61,0-3.21,0-4.82,0-1.21.61-1.89,1.62-1.87s1.53.7,1.54,1.87,0,2.33,0,3.49"/><path class="cls-2" d="M141.6,73.67a5.58,5.58,0,0,0,3.63-1.42c.2-.16.37-.35.56-.51a1.61,1.61,0,0,1,2.3,0,1.56,1.56,0,0,1-.08,2.29,8.56,8.56,0,0,1-8.35,2.65,8.88,8.88,0,0,1-4.43-14.91c.91-.94,1.82-1,2.57-.31s.66,1.59-.23,2.58c-3,3.37-1.66,8.36,2.63,9.41a10.72,10.72,0,0,0,1.4.19"/><path class="cls-2" d="M139.94,65c0-1,0-2,0-2.93a1.6,1.6,0,0,1,1.58-1.66,1.57,1.57,0,0,1,1.57,1.66c0,1.16,0,2.33,0,3.49,0,.64.2.93.87.89s1.51,0,2.26,0a1.61,1.61,0,1,1,.22,3.21,26.73,26.73,0,0,1-4.9,0,1.6,1.6,0,0,1-1.6-1.84c0-.94,0-1.89,0-2.83Z"/><path class="cls-2" d="M99.16,107.45c0,2.84,0,5.68,0,8.52,0,1.48-.49,2-2,2.07-2.93.26-5.85-.1-8.79,0-1.07,0-1.6-.71-1.61-2,0-2.52,0-5,0-7.57q0-4.72,0-9.46c0-1.72.55-2.25,2.27-2.25q4.08,0,8.14,0c1.38,0,2,.58,2,2q0,4.41,0,8.8m-9.08-.15c0,2.21,0,4.41,0,6.61,0,.75.25,1,1,1,1.33,0,2.65,0,4,0,.59,0,.86-.18.86-.81q0-6.6,0-13.22c0-.58-.22-.83-.82-.88-1.35-.13-2.71,0-4.06-.11-.7,0-.93.25-.92.94,0,2.17,0,4.34,0,6.51"/><path class="cls-2" d="M114.29,107.45c0,2.78,0,5.55,0,8.33,0,1.73-.58,2.35-2.33,2.35-2.81,0-5.61-.06-8.41-.11a1.57,1.57,0,1,1,0-3.14c2.15,0,4.29,0,6.43,0,.78,0,1.07-.23,1-1,0-1.29-.06-2.59,0-3.88,0-.87-.3-1.08-1.1-1-1.83.07-3.66.11-5.48.11-2,0-2.52-.53-2.52-2.53,0-2.58,0-5.17,0-7.75,0-1.52.55-2.07,2-2.07,2.71,0,5.43,0,8.14,0,1.62,0,2.19.57,2.19,2.24q0,4.26,0,8.51M111,102.88h0c0-.76,0-1.51,0-2.27,0-.51-.17-.75-.71-.75-1.45,0-2.89,0-4.34,0-.52,0-.74.22-.74.74,0,1.47,0,3,0,4.43,0,.51.19.75.73.75,1.44,0,2.89,0,4.34,0,.52,0,.74-.21.73-.73,0-.72,0-1.45,0-2.17"/><path class="cls-2" d="M117,107.31c0-2.9,0-5.8,0-8.7,0-1.37.52-1.9,1.87-1.91q4.25,0,8.51,0c1.3,0,1.85.55,1.86,1.84q0,8.88,0,17.78a1.56,1.56,0,0,1-1.77,1.73q-4.35,0-8.7,0c-1.23,0-1.76-.57-1.77-1.83,0-3,0-5.92,0-8.89m3.16.14c0,2.17,0,4.35,0,6.52,0,.63.17.92.85.9,1.42,0,2.84,0,4.26,0,.61,0,.83-.21.83-.82q0-6.67,0-13.34c0-.68-.27-.87-.9-.86-1.36,0-2.71.05-4.07,0-.74,0-1,.23-1,1,0,2.2,0,4.41,0,6.62"/><path class="cls-2" d="M71.79,111.84c0-1.42,0-2.84,0-4.26,0-1.23.56-1.79,1.79-1.8,2.12,0,4.23,0,6.34,0,.75,0,1-.23,1-1q-.08-1.94,0-3.87c0-.77-.29-1-1-1-2,0-4.1-.06-6.14-.1-1.27,0-1.93-.55-2-1.55s.67-1.61,2-1.61H82c1.52,0,2,.51,2,2.06V107c0,1.48-.51,2-2,2-2,0-4.1,0-6.14,0-.69,0-1,.19-1,.91,0,1.39,0,2.77,0,4.16,0,.67.26.87.9.86,2.17,0,4.35,0,6.52,0a1.6,1.6,0,0,1,1,2.87,1.78,1.78,0,0,1-1.07.3c-2.93.11-5.86.09-8.79,0-1.19,0-1.73-.57-1.75-1.75,0-1.48,0-3,0-4.44Z"/><path class="cls-2" d="M137,118a1.51,1.51,0,0,1-1.35-.75c-.95-1.4-1.92-2.8-2.84-4.23a1.62,1.62,0,0,1,.36-2.47,1.71,1.71,0,0,1,2.36.68c.52.69.8,2,1.54,2s1-1.25,1.47-1.93c.7-1,1.61-1.24,2.42-.69s.92,1.47.25,2.49c-.88,1.35-1.78,2.68-2.67,4A1.68,1.68,0,0,1,137,118"/><path class="cls-2" d="M141.68,102.75a1.63,1.63,0,0,1-1,1.54,1.52,1.52,0,0,1-1.87-.5c-.5-.68-1-1.39-1.43-2.1-.24-.38-.42-.39-.67,0-.4.64-.82,1.27-1.26,1.88a1.67,1.67,0,0,1-2.3.6,1.62,1.62,0,0,1-.36-2.4c.93-1.43,1.86-2.85,2.84-4.24a1.58,1.58,0,0,1,2.7-.13c1.12,1.52,2.12,3.12,3.15,4.7a2.27,2.27,0,0,1,.22.65"/></g></g></svg>