<svg id="Layer_1" data-name="Layer 1" xmlns="http://www.w3.org/2000/svg" viewBox="0 0 53.72 49.05"><defs><style>.cls-1{fill:#414042;}</style></defs><path class="cls-1" d="M48.61,49.05H39.27a.77.77,0,0,1-.78-.77v-19a2.82,2.82,0,0,1-1.29.31H37a2.86,2.86,0,0,1-2.85-2.85V16.5A4.87,4.87,0,0,1,39,11.64h9.84a4.87,4.87,0,0,1,4.86,4.86V26.75a2.86,2.86,0,0,1-2.85,2.85h-.19a2.82,2.82,0,0,1-1.29-.31v19A.77.77,0,0,1,48.61,49.05ZM40,47.5h7.8V26.75a.77.77,0,0,1,.77-.77.78.78,0,0,1,.78.77,1.3,1.3,0,0,0,1.29,1.3h.19a1.3,1.3,0,0,0,1.3-1.3V16.5a3.31,3.31,0,0,0-3.31-3.31H39a3.31,3.31,0,0,0-3.31,3.31V26.75a1.3,1.3,0,0,0,1.3,1.3h.19a1.3,1.3,0,0,0,1.29-1.3.78.78,0,0,1,.78-.77.77.77,0,0,1,.77.77Z"/><path class="cls-1" d="M39.27,27.53a.78.78,0,0,1-.78-.78v-7a.77.77,0,0,1,.78-.77.76.76,0,0,1,.77.77v7A.77.77,0,0,1,39.27,27.53Z"/><path class="cls-1" d="M48.61,27.53a.77.77,0,0,1-.77-.78v-7a.76.76,0,0,1,.77-.77.77.77,0,0,1,.78.77v7A.78.78,0,0,1,48.61,27.53Z"/><path class="cls-1" d="M43.94,10.75a5.2,5.2,0,0,1-5.07-5.32A5.08,5.08,0,1,1,49,5.43,5.2,5.2,0,0,1,43.94,10.75Zm0-9.08a3.65,3.65,0,0,0-3.52,3.76,3.53,3.53,0,1,0,7,0A3.65,3.65,0,0,0,43.94,1.67Z"/><path class="cls-1" d="M43.94,49.05a.77.77,0,0,1-.78-.77V32.43a.78.78,0,0,1,1.56,0V48.28A.77.77,0,0,1,43.94,49.05Z"/><path class="cls-1" d="M5.11,23.1a.78.78,0,0,1-.78-.78V19.68a.78.78,0,0,1,1.56,0v2.64A.78.78,0,0,1,5.11,23.1Z"/><path class="cls-1" d="M14.46,27.43a.78.78,0,0,1-.78-.78v-7a.78.78,0,1,1,1.56,0v7A.78.78,0,0,1,14.46,27.43Z"/><path class="cls-1" d="M9.79,10.64A5.21,5.21,0,0,1,4.71,5.32,5.21,5.21,0,0,1,9.79,0a5.21,5.21,0,0,1,5.07,5.32A5.21,5.21,0,0,1,9.79,10.64Zm0-9.09A3.66,3.66,0,0,0,6.27,5.32,3.65,3.65,0,0,0,9.79,9.08,3.64,3.64,0,0,0,13.3,5.32,3.65,3.65,0,0,0,9.79,1.55Z"/><path class="cls-1" d="M9.79,49A.77.77,0,0,1,9,48.19V32.34a.78.78,0,1,1,1.55,0V48.19A.77.77,0,0,1,9.79,49Z"/><path class="cls-1" d="M8.35,27.43H5.11A5.11,5.11,0,0,1,0,22.32a.78.78,0,0,1,.78-.78.77.77,0,0,1,.77.78,3.57,3.57,0,0,0,3.56,3.56H8.35a1.39,1.39,0,0,0,0-2.78H5.11a.78.78,0,1,1,0-1.56H8.35a2.95,2.95,0,0,1,0,5.89Z"/><path class="cls-1" d="M14.46,49H5.11a.77.77,0,0,1-.78-.77V26.65a.78.78,0,0,1,1.56,0V47.41h7.79V26.65a.78.78,0,0,1,1.56,0A1.3,1.3,0,0,0,16.53,28h.19a1.3,1.3,0,0,0,1.3-1.3V16.39a3.32,3.32,0,0,0-3.31-3.31H4.86a3.32,3.32,0,0,0-3.31,3.31v5.93a.77.77,0,0,1-.77.78A.78.78,0,0,1,0,22.32V16.39a4.87,4.87,0,0,1,4.86-4.86h9.85a4.87,4.87,0,0,1,4.86,4.86V26.65a2.85,2.85,0,0,1-2.85,2.85h-.19a2.82,2.82,0,0,1-1.29-.31v19A.77.77,0,0,1,14.46,49Z"/><path class="cls-1" d="M18.79,49H.78A.77.77,0,0,1,0,48.19a.78.78,0,0,1,.78-.78h18a.78.78,0,0,1,.78.78A.77.77,0,0,1,18.79,49Z"/><path class="cls-1" d="M31.13,26.16H21.68a.77.77,0,0,1-.78-.77.78.78,0,0,1,.78-.78h7.74l-1.53-1.75a.78.78,0,0,1,1.17-1l2.65,3a.77.77,0,0,1-.58,1.28Z"/><path class="cls-1" d="M28.48,29.2A.8.8,0,0,1,28,29a.78.78,0,0,1-.08-1.1l1.53-1.75H21.68a.78.78,0,1,1,0-1.55h9.45a.77.77,0,0,1,.7.45.78.78,0,0,1-.12.84l-2.65,3A.76.76,0,0,1,28.48,29.2Z"/></svg>