<svg id="Layer_1" data-name="Layer 1" xmlns="http://www.w3.org/2000/svg" viewBox="0 0 211.11 54.92"><defs><style>.cls-1{font-size:16.05px;font-family:Gotham-Book, Gotham;}.cls-1,.cls-2{fill:#fff;}</style></defs><text class="cls-1" transform="translate(78.22 21.31)">“Find me a <tspan x="0" y="20.17">resource with...”</tspan></text><path class="cls-2" d="M24.7,28.29a.84.84,0,0,1-.54-.2,5.94,5.94,0,0,1-1.55-2.53,7.87,7.87,0,0,1-5.33,0,6,6,0,0,1-1.55,2.53A.83.83,0,0,1,14.58,28a.81.81,0,0,1,.07-1.15A5.25,5.25,0,0,0,16,24.26a.81.81,0,0,1,1.15-.53,6.27,6.27,0,0,0,5.63,0,.82.82,0,0,1,.7,0,.84.84,0,0,1,.45.54,5.17,5.17,0,0,0,1.33,2.61A.82.82,0,0,1,25.3,28,.8.8,0,0,1,24.7,28.29Z"/><path class="cls-2" d="M28,18.08a2.62,2.62,0,0,1-1.28-.33.84.84,0,0,1-.43-.72V12.16a.81.81,0,0,1,.43-.71A2.53,2.53,0,0,1,28,11.11a3.27,3.27,0,0,1,3,3.49A3.27,3.27,0,0,1,28,18.08Zm-.08-1.62c.76.05,1.45-.82,1.45-1.86s-.69-1.92-1.45-1.86Z"/><path class="cls-2" d="M11.94,18.08A3.27,3.27,0,0,1,9,14.6a3.27,3.27,0,0,1,3-3.49,2.58,2.58,0,0,1,1.28.34.8.8,0,0,1,.42.71V17a.83.83,0,0,1-.42.72A2.68,2.68,0,0,1,11.94,18.08Zm0-5.34c-.74,0-1.37.85-1.37,1.86s.68,1.91,1.45,1.86V12.74Z"/><path class="cls-2" d="M19.94,26A7.93,7.93,0,0,1,12,18.1V10.5a.84.84,0,0,1,.32-.65.81.81,0,0,1,.71-.13s3,.83,4.95,1.43c3.18,1,7.89-.7,8.51-1.26a.83.83,0,0,1,.88-.13.81.81,0,0,1,.48.74v7.6A7.94,7.94,0,0,1,19.94,26Zm-6.3-14.46V18.1a6.3,6.3,0,0,0,12.6,0V11.85c-2,.86-5.75,1.77-8.72.85C16.32,12.33,14.69,11.86,13.64,11.57Z"/><path class="cls-2" d="M30.13,15.41a.81.81,0,0,1-.81-.81c0-1.24-1-2.22-1.87-1.73a.81.81,0,0,1-1.21-.71v-.31c-2,.86-5.75,1.77-8.72.85-1.2-.37-2.83-.84-3.88-1.13v.59a.81.81,0,0,1-1.2.71c-.91-.49-1.87.49-1.87,1.73A.81.81,0,0,1,9,14.6V6.51A.66.66,0,0,1,9,6.23c.32-1.6,2.24-2.77,4.56-2.77a5.15,5.15,0,0,1,.55,0A4.24,4.24,0,0,1,18.23,0a4.18,4.18,0,0,1,3.86,2.64,3.8,3.8,0,0,1,2-.59,3.74,3.74,0,0,1,3.1,1.61,3.09,3.09,0,0,1,.8-.11,2.81,2.81,0,0,1,2.91,2.69V14.6A.81.81,0,0,1,30.13,15.41ZM28,11.11a2.63,2.63,0,0,1,1.37.39V6.24A1.19,1.19,0,0,0,28,5.18a1.48,1.48,0,0,0-.75.2.82.82,0,0,1-.67.07A.84.84,0,0,1,26.12,5a2.16,2.16,0,0,0-3.81-.3.82.82,0,0,1-.9.35.81.81,0,0,1-.6-.76,2.59,2.59,0,1,0-5.17.06s0,.06,0,.08a.84.84,0,0,1-.31.64.81.81,0,0,1-.69.15,4.92,4.92,0,0,0-1.09-.12c-1.67,0-2.89.79-3,1.53,0,0,0,0,0,.06V11.5A2.7,2.7,0,0,1,12,11.11V10.5a.84.84,0,0,1,.32-.65.81.81,0,0,1,.71-.13s3,.83,4.95,1.43c3.18,1,7.89-.7,8.51-1.26a.83.83,0,0,1,.88-.13.81.81,0,0,1,.48.74v.61Z"/><path class="cls-2" d="M31.49,47.33H9.13a.81.81,0,0,1-.81-.73L7,32.21a.79.79,0,0,1,.21-.62.8.8,0,0,1,.6-.27H32.84a.82.82,0,0,1,.81.89L32.3,46.6A.81.81,0,0,1,31.49,47.33ZM9.87,45.71H30.75L32,33H8.67Z"/><path class="cls-2" d="M32.35,50.14H8.27A2,2,0,0,1,6.34,48.7l-.12-.42a2,2,0,0,1,1.92-2.57H32.47a2,2,0,0,1,1.93,2.57l-.12.42A2,2,0,0,1,32.35,50.14ZM8.14,47.33a.4.4,0,0,0-.31.16.38.38,0,0,0-.06.33l.13.42a.4.4,0,0,0,.37.28H32.35a.4.4,0,0,0,.37-.28l.12-.41a.34.34,0,0,0-.06-.34.37.37,0,0,0-.31-.16Z"/><path class="cls-2" d="M39.08,50.14H.81A.81.81,0,0,1,0,49.33V38.61A12,12,0,0,1,11.94,26.67h3.25A.81.81,0,0,1,15.78,28a1.49,1.49,0,0,0-.45,1c0,1.06,1.6,2.08,3.63,2.32a.81.81,0,1,1-.19,1.61c-3-.35-5.06-2-5.06-3.93a2.55,2.55,0,0,1,.1-.72H11.94A10.33,10.33,0,0,0,1.62,38.61v9.91H38.26V38.61A10.33,10.33,0,0,0,27.94,28.29H26.08a3,3,0,0,1,.1.72c0,2-2.08,3.58-5.06,3.93a.81.81,0,0,1-.19-1.61c2-.24,3.62-1.26,3.62-2.32a1.44,1.44,0,0,0-.45-1,.8.8,0,0,1-.15-.87.81.81,0,0,1,.75-.49h3.24a12,12,0,0,1,12,11.94V49.33A.81.81,0,0,1,39.08,50.14Z"/></svg>