<svg xmlns="http://www.w3.org/2000/svg" viewBox="0 0 118.85 102.93"><defs><style>.cls-1{fill:#353132;}.cls-2{fill:#f6f6f6;}</style></defs><title>Recurso 23</title><g id="Capa_2" data-name="Capa 2"><g id="Capa_1-2" data-name="Capa 1"><polygon class="cls-1" points="89.14 0 29.71 0 0 51.47 29.71 102.93 89.14 102.93 118.85 51.47 89.14 0"/><path class="cls-2" d="M78.44,34.58h-38a.51.51,0,0,1-.51-.51V22.15a.51.51,0,0,1,.51-.51h38a.51.51,0,0,1,.51.51V34.07a.51.51,0,0,1-.51.51m-37.52-1h37V22.66h-37Z"/><path class="cls-2" d="M78.44,57.93h-38a.51.51,0,0,1-.51-.51V45.51a.51.51,0,0,1,.51-.51h38a.5.5,0,0,1,.51.51V57.42a.5.5,0,0,1-.51.51m-37.52-1h37V46h-37Z"/><path class="cls-2" d="M78.44,81.29h-38a.51.51,0,0,1-.51-.51V68.86a.51.51,0,0,1,.51-.51h38a.51.51,0,0,1,.51.51V80.78a.51.51,0,0,1-.51.51m-37.52-1h37V69.37h-37Z"/><path class="cls-2" d="M49.12,30.77a2.66,2.66,0,1,1,2.65-2.66,2.66,2.66,0,0,1-2.65,2.66m0-4.3a1.64,1.64,0,1,0,1.63,1.64,1.64,1.64,0,0,0-1.63-1.64"/><path class="cls-2" d="M59.43,30.77a2.66,2.66,0,1,1,2.66-2.66,2.66,2.66,0,0,1-2.66,2.66m0-4.3a1.64,1.64,0,1,0,1.63,1.64,1.64,1.64,0,0,0-1.63-1.64"/><path class="cls-2" d="M69.74,30.77a2.66,2.66,0,1,1,2.66-2.66,2.66,2.66,0,0,1-2.66,2.66m0-4.3a1.64,1.64,0,1,0,1.64,1.64,1.65,1.65,0,0,0-1.64-1.64"/><path class="cls-2" d="M49.12,54.12a2.66,2.66,0,1,1,2.65-2.65,2.66,2.66,0,0,1-2.65,2.65m0-4.29a1.64,1.64,0,1,0,1.63,1.64,1.63,1.63,0,0,0-1.63-1.64"/><path class="cls-2" d="M59.43,54.12a2.66,2.66,0,1,1,2.66-2.65,2.66,2.66,0,0,1-2.66,2.65m0-4.29a1.64,1.64,0,1,0,1.63,1.64,1.63,1.63,0,0,0-1.63-1.64"/><path class="cls-2" d="M69.74,54.12a2.66,2.66,0,1,1,2.66-2.65,2.66,2.66,0,0,1-2.66,2.65m0-4.29a1.64,1.64,0,1,0,1.64,1.64,1.64,1.64,0,0,0-1.64-1.64"/><path class="cls-2" d="M49.12,77.47a2.66,2.66,0,1,1,2.65-2.65,2.66,2.66,0,0,1-2.65,2.65m0-4.29a1.64,1.64,0,1,0,1.63,1.64,1.64,1.64,0,0,0-1.63-1.64"/><path class="cls-2" d="M59.43,77.47a2.66,2.66,0,1,1,2.66-2.65,2.66,2.66,0,0,1-2.66,2.65m0-4.29a1.64,1.64,0,1,0,1.63,1.64,1.64,1.64,0,0,0-1.63-1.64"/><path class="cls-2" d="M69.74,77.47a2.66,2.66,0,1,1,2.66-2.65,2.66,2.66,0,0,1-2.66,2.65m0-4.29a1.64,1.64,0,1,0,1.64,1.64,1.65,1.65,0,0,0-1.64-1.64"/><path class="cls-2" d="M59.43,46a.51.51,0,0,1-.51-.51V34.07a.51.51,0,0,1,.51-.51.51.51,0,0,1,.51.51V45.51a.51.51,0,0,1-.51.51"/><path class="cls-2" d="M59.43,69.37a.51.51,0,0,1-.51-.51V57.42a.51.51,0,0,1,.51-.51.51.51,0,0,1,.51.51V68.86a.51.51,0,0,1-.51.51"/></g></g></svg>