<svg id="Layer_1" data-name="Layer 1" xmlns="http://www.w3.org/2000/svg" viewBox="0 0 58.43 58.42"><defs><style>.cls-1{fill:#414042;}</style></defs><path class="cls-1" d="M38.29,34.45c-4.58,0-8.17-6.44-8.17-14.67S33.71,5.12,38.29,5.12s8.17,6.44,8.17,14.66S42.87,34.45,38.29,34.45Zm0-27.82c-3.62,0-6.67,6-6.67,13.15s3.05,13.16,6.67,13.16S45,26.92,45,19.78,41.9,6.63,38.29,6.63Z"/><path class="cls-1" d="M38.29,28c-8.23,0-14.67-3.58-14.67-8.17s6.44-8.17,14.67-8.17S53,15.2,53,19.78,46.51,28,38.29,28Zm0-14.83c-7.14,0-13.16,3.05-13.16,6.66s6,6.67,13.16,6.67,13.15-3.05,13.15-6.67S45.42,13.12,38.29,13.12Z"/><path class="cls-1" d="M38.29,34.45a.76.76,0,0,1-.76-.76V5.87a.76.76,0,0,1,1.51,0V33.69A.76.76,0,0,1,38.29,34.45Z"/><path class="cls-1" d="M52.2,20.54H24.38a.76.76,0,1,1,0-1.51H52.2a.76.76,0,0,1,0,1.51Z"/><path class="cls-1" d="M38.45,39.94A20,20,0,1,1,52.57,34.1,19.93,19.93,0,0,1,38.45,39.94Zm0-38A18,18,0,1,0,51.2,7.22,18,18,0,0,0,38.45,1.94Z"/><path class="cls-1" d="M51.53,12.93a1,1,0,0,1-.82-.46,14.21,14.21,0,0,0-.83-1.2,1,1,0,0,1,1.55-1.18c.33.44.64.9.93,1.37A1,1,0,0,1,52,12.79.94.94,0,0,1,51.53,12.93Z"/><path class="cls-1" d="M47,8.22a1,1,0,0,1-.55-.17,13.66,13.66,0,0,0-2-1.15,1,1,0,1,1,.81-1.77,16.16,16.16,0,0,1,2.33,1.31,1,1,0,0,1,.26,1.35A1,1,0,0,1,47,8.22Z"/><path class="cls-1" d="M40,5.68h-.1a14.09,14.09,0,0,0-1.45-.08,1,1,0,1,1,0-1.94c.55,0,1.1,0,1.65.08A1,1,0,0,1,40,5.68Z"/><path class="cls-1" d="M38.45,36.27a16.31,16.31,0,1,1,0-32.61,1,1,0,0,1,0,1.94,14.37,14.37,0,1,0,12.26,6.87,1,1,0,1,1,1.65-1A16.3,16.3,0,0,1,38.45,36.27Z"/><path class="cls-1" d="M9.47,54.26A1,1,0,0,1,8.78,54L4.44,49.63a1,1,0,0,1,0-1.37L7.5,45.2a1,1,0,0,1,1.37,1.37L6.5,49l3,3L22.34,39.05l-3-3-7.83,7.84a1,1,0,1,1-1.38-1.38L18.68,34a1,1,0,0,1,1.37,0l4.35,4.35a1,1,0,0,1,.28.68,1,1,0,0,1-.28.69L10.15,54A.93.93,0,0,1,9.47,54.26Z"/><path class="cls-1" d="M7.71,58.42A2.37,2.37,0,0,1,6,57.71L.7,52.41A2.42,2.42,0,0,1,.7,49l1.23-1.23a2.4,2.4,0,0,1,3.4,0l5.31,5.31a2.38,2.38,0,0,1,.7,1.7,2.42,2.42,0,0,1-.7,1.7L9.41,57.71A2.38,2.38,0,0,1,7.71,58.42ZM3.63,49a.46.46,0,0,0-.33.13L2.08,50.38a.46.46,0,0,0,0,.65l5.3,5.31a.47.47,0,0,0,.33.14A.44.44,0,0,0,8,56.34l1.23-1.23a.44.44,0,0,0,.14-.32.47.47,0,0,0-.14-.33L4,49.15A.46.46,0,0,0,3.63,49Z"/><path class="cls-1" d="M25.78,41.3a2.89,2.89,0,0,1-2-.83L18,34.67a2.87,2.87,0,0,1,0-4.06l2.82-2.82a1,1,0,0,1,1.56.25,17.87,17.87,0,0,0,3.36,4.68,18.07,18.07,0,0,0,4.68,3.37,1,1,0,0,1,.26,1.55L27.8,40.47A2.88,2.88,0,0,1,25.78,41.3ZM21.23,30.08,19.32,32a.92.92,0,0,0,0,1.3l5.8,5.8a.93.93,0,0,0,1.31,0l1.9-1.9a19.84,19.84,0,0,1-4-3.09A19.55,19.55,0,0,1,21.23,30.08Z"/></svg>