<svg xmlns="http://www.w3.org/2000/svg" viewBox="0 0 41.75 53.45"><defs><style>.cls-1{fill:#e03232;}.cls-2{fill:#f5f5f5;}</style></defs><g id="Capa_2" data-name="Capa 2"><g id="Capa_1-2" data-name="Capa 1"><path class="cls-1" d="M20.88,53.05a.92.92,0,0,1-.68-.3c-.65-.73-16-18.13-16.71-35.33a17.39,17.39,0,1,1,34.77,0C37.52,34.62,22.2,52,21.55,52.75A.91.91,0,0,1,20.88,53.05Zm0-51.25A15.6,15.6,0,0,0,5.3,17.38c.62,14.51,12.58,29.78,15.58,33.38,3-3.6,15-18.87,15.58-33.42A15.59,15.59,0,0,0,20.88,1.8Z"/><path class="cls-2" d="M20.88,45.5a115.39,115.39,0,0,1-14.25-.78C1.13,44,0,43.08,0,41.94s1-2.19,8.28-3a.9.9,0,0,1,1,.8.91.91,0,0,1-.8,1A26.54,26.54,0,0,0,2.2,42c1.93.81,8.67,1.75,18.68,1.75S37.62,42.76,39.55,42a26.42,26.42,0,0,0-6.27-1.19.9.9,0,1,1,.2-1.79c7.27.78,8.27,1.89,8.27,3s-1.13,2-6.63,2.78A115.33,115.33,0,0,1,20.88,45.5Z"/><path class="cls-2" d="M20.88,53.45a88,88,0,0,1-11-.61C5.5,52.25,4.6,51.48,4.6,50.49c0-.73,0-2.11,9.34-2.73a.9.9,0,0,1,.12,1.8,36.19,36.19,0,0,0-6.9.94c2,.56,6.87,1.14,13.72,1.14s11.73-.58,13.71-1.14a36.19,36.19,0,0,0-6.9-.94.9.9,0,0,1-.84-1,.89.89,0,0,1,1-.84c9.34.63,9.34,2,9.34,2.73,0,1-.9,1.76-5.28,2.35A88.21,88.21,0,0,1,20.88,53.45Z"/><circle class="cls-2" cx="20.88" cy="18.88" r="6.31"/></g></g></svg>