<svg xmlns="http://www.w3.org/2000/svg" viewBox="0 0 117.69 51.07"><defs><style>.cls-1{fill:#c43535;}.cls-2{fill:#353132;}</style></defs><title>Recurso 19</title><g id="Capa_2" data-name="Capa 2"><g id="Capa_1-2" data-name="Capa 1"><path class="cls-1" d="M84.65.14V0H3.71A3.72,3.72,0,0,0,0,3.71V32.59A3.72,3.72,0,0,0,3.71,36.3h80a3.71,3.71,0,0,0,3.71-3.71V3.71A3.7,3.7,0,0,0,84.65.14m-.08,32.45a.87.87,0,0,1-.86.86h-80a.87.87,0,0,1-.86-.86V3.71a.87.87,0,0,1,.86-.86H84.47l.1-1.42V32.59Z"/><path class="cls-2" d="M114.92,8.62V8.49H96.22a3.71,3.71,0,0,0-3.71,3.71V32.59a3.71,3.71,0,0,0,3.71,3.71H114a3.72,3.72,0,0,0,3.71-3.71V12.2a3.72,3.72,0,0,0-2.77-3.58m-.09,24a.86.86,0,0,1-.85.86H96.22a.87.87,0,0,1-.86-.86V12.2a.86.86,0,0,1,.86-.86h18.52l.09-1.42V32.59Z"/><path class="cls-1" d="M19.22,13.39H14.46a1.43,1.43,0,0,1,0-2.86h4.76a1.43,1.43,0,0,1,0,2.86"/><path class="cls-2" d="M114.11,23.11h-7.59a1.43,1.43,0,0,1,0-2.86h7.59a1.43,1.43,0,1,1,0,2.86"/><path class="cls-2" d="M108,14.23v7.59a1.43,1.43,0,1,1-2.85,0V14.23a1.43,1.43,0,0,1,2.85,0"/><path class="cls-2" d="M22.08,44.77a6.31,6.31,0,1,1-6.3-6.31,6.3,6.3,0,0,1,6.3,6.31"/><path class="cls-2" d="M82.82,44.77a6.31,6.31,0,1,1-6.31-6.31,6.3,6.3,0,0,1,6.31,6.31"/><path class="cls-2" d="M111.4,44.77a6.31,6.31,0,1,1-6.3-6.31,6.3,6.3,0,0,1,6.3,6.31"/></g></g></svg>