<svg xmlns="http://www.w3.org/2000/svg" xmlns:xlink="http://www.w3.org/1999/xlink" viewBox="0 0 134.99 116.91"><defs><style>.cls-1{fill:#332d2f;}.cls-2{fill:#fff;}.cls-3{fill:url(#linear-gradient);}.cls-4{fill:url(#linear-gradient-2);}.cls-5{fill:url(#linear-gradient-3);}.cls-6{fill:url(#linear-gradient-4);}.cls-7{fill:url(#linear-gradient-5);}</style><linearGradient id="linear-gradient" x1="48.35" y1="49.03" x2="56.76" y2="49.03" gradientUnits="userSpaceOnUse"><stop offset="0" stop-color="#7f1d2b"/><stop offset="1" stop-color="#df1719"/></linearGradient><linearGradient id="linear-gradient-2" x1="38.12" y1="49.03" x2="44.54" y2="49.03" xlink:href="#linear-gradient"/><linearGradient id="linear-gradient-3" x1="38.12" y1="69.35" x2="44.54" y2="69.35" xlink:href="#linear-gradient"/><linearGradient id="linear-gradient-4" x1="48.35" y1="69.35" x2="56.76" y2="69.35" xlink:href="#linear-gradient"/><linearGradient id="linear-gradient-5" x1="27.78" y1="59.19" x2="34.2" y2="59.19" xlink:href="#linear-gradient"/></defs><g id="Capa_2" data-name="Capa 2"><g id="Capa_1-2" data-name="Capa 1"><polygon class="cls-1" points="101.24 0 33.75 0 0 58.45 33.75 116.91 101.24 116.91 134.99 58.45 101.24 0"/><path class="cls-2" d="M65.57,50.45H62a1.43,1.43,0,1,1,0-2.85h3.56a1.43,1.43,0,1,1,0,2.85Z"/><path class="cls-3" d="M55.34,50.45H49.78a1.43,1.43,0,1,1,0-2.85h5.56a1.43,1.43,0,0,1,0,2.85Z"/><path class="cls-4" d="M43.11,50.45H39.55a1.43,1.43,0,1,1,0-2.85h3.56a1.43,1.43,0,1,1,0,2.85Z"/><path class="cls-2" d="M83.75,78.26a1.43,1.43,0,0,1-1.42-1.43V70.77H65.57a1.43,1.43,0,0,1,0-2.85H83.75a1.43,1.43,0,0,1,1.43,1.43v4.52l18.39-14.68L85.18,44.5V49a1.43,1.43,0,0,1-1.43,1.42H65.57a1.43,1.43,0,0,1,0-2.85H82.33V41.54a1.42,1.42,0,0,1,2.31-1.11l22.11,17.64a1.44,1.44,0,0,1,0,2.23L84.64,78A1.44,1.44,0,0,1,83.75,78.26Z"/><path class="cls-5" d="M43.11,70.77H39.55a1.43,1.43,0,1,1,0-2.85h3.56a1.43,1.43,0,1,1,0,2.85Z"/><path class="cls-6" d="M55.34,70.77H49.78a1.43,1.43,0,1,1,0-2.85h5.56a1.43,1.43,0,0,1,0,2.85Z"/><path class="cls-2" d="M65.57,70.77H62a1.43,1.43,0,1,1,0-2.85h3.56a1.43,1.43,0,1,1,0,2.85Z"/><path class="cls-2" d="M60.58,60.61H57a1.43,1.43,0,1,1,0-2.85h3.56a1.43,1.43,0,1,1,0,2.85Z"/><path class="cls-2" d="M48.46,60.61H41.33a1.43,1.43,0,1,1,0-2.85h7.13a1.43,1.43,0,1,1,0,2.85Z"/><path class="cls-7" d="M32.77,60.61H29.21a1.43,1.43,0,1,1,0-2.85h3.56a1.43,1.43,0,1,1,0,2.85Z"/></g></g></svg>