<svg id="Layer_1" data-name="Layer 1" xmlns="http://www.w3.org/2000/svg" viewBox="0 0 72.51 49.75"><defs><style>.cls-1{fill:#27aae1;}.cls-2{fill:none;stroke:#000;stroke-miterlimit:10;stroke-width:1.71px;}</style></defs><path d="M66.8.05,5.71,0a.6.6,0,0,0-.44.18.6.6,0,0,0-.18.44v41a.62.62,0,0,0,.62.62H66.8a.62.62,0,0,0,.62-.62V.67A.62.62,0,0,0,66.8.05ZM66.18,41H6.33V1.24l15.46,0,28.93,0H66.18Z"/><path d="M68.12,49.75H4.39A4.4,4.4,0,0,1,0,45.36v-2.7A1.69,1.69,0,0,1,1.69,41H70.82a1.69,1.69,0,0,1,1.69,1.69v2.7A4.4,4.4,0,0,1,68.12,49.75ZM1.69,42.21a.45.45,0,0,0-.45.45v2.7a3.16,3.16,0,0,0,3.15,3.15H68.12a3.15,3.15,0,0,0,3.15-3.15v-2.7a.45.45,0,0,0-.45-.45Z"/><path class="cls-1" d="M36.26,48.14A2.78,2.78,0,1,1,39,45.36,2.79,2.79,0,0,1,36.26,48.14Zm0-4.32a1.54,1.54,0,1,0,1.54,1.54A1.54,1.54,0,0,0,36.26,43.82Z"/><rect class="cls-2" x="8.58" y="3.3" width="55.24" height="36.13"/></svg>