<svg xmlns="http://www.w3.org/2000/svg" viewBox="0 0 69.94 79.77"><defs><style>.cls-1{fill:#f5f5f5;}.cls-2{fill:#e03232;}.cls-3{fill:none;stroke:#e03232;stroke-miterlimit:10;}</style></defs><g id="Capa_2" data-name="Capa 2"><g id="Capa_1-2" data-name="Capa 1"><path class="cls-1" d="M67.66,69.86V76.8a.68.68,0,0,1-.68.68H3a.68.68,0,0,1-.69-.68V53.69A.68.68,0,0,1,3,53H50.31l.16-2.29H3a3,3,0,0,0-3,3V76.8a3,3,0,0,0,3,3H67a3,3,0,0,0,3-3V67A3,3,0,0,1,67.66,69.86Z"/><path class="cls-1" d="M67,0H56.6a3,3,0,0,0-3,3L50.47,50.72h2.28L55.92,3a.68.68,0,0,1,.68-.69H67a.69.69,0,0,1,.68.69V50.81a3,3,0,0,1,2.28,2.88V3A3,3,0,0,0,67,0Z"/><path class="cls-1" d="M67.66,50.81v19A3,3,0,0,0,69.94,67V53.69A3,3,0,0,0,67.66,50.81Z"/><polygon class="cls-1" points="52.6 53.01 52.75 50.72 50.47 50.72 50.31 53.01 52.6 53.01"/><path class="cls-1" d="M58.37,61.44h-3.8a1.15,1.15,0,0,1,0-2.29h3.8a1.15,1.15,0,1,1,0,2.29Z"/><path class="cls-1" d="M15.38,61.44H11.57a1.15,1.15,0,0,1,0-2.29h3.81a1.15,1.15,0,0,1,0,2.29Z"/><path class="cls-2" d="M14.24,49.2a.7.7,0,0,1-.5-.2L4.19,39.46a.72.72,0,0,1,0-1,.7.7,0,0,1,1,0L14.74,48a.72.72,0,0,1,0,1A.74.74,0,0,1,14.24,49.2Z"/><path class="cls-2" d="M25.55,49.2a.74.74,0,0,1-.5-.2l-9.54-9.54a.72.72,0,0,1,0-1,.7.7,0,0,1,1,0L26.05,48a.7.7,0,0,1,0,1A.74.74,0,0,1,25.55,49.2Z"/><path class="cls-2" d="M36.87,49.2a.74.74,0,0,1-.5-.2l-9.54-9.54a.71.71,0,0,1,1-1L37.37,48a.7.7,0,0,1,0,1A.74.74,0,0,1,36.87,49.2Z"/><path class="cls-2" d="M48.19,49.2a.72.72,0,0,1-.5-.2l-9.54-9.54a.71.71,0,0,1,1-1L48.69,48a.72.72,0,0,1,0,1A.74.74,0,0,1,48.19,49.2Z"/><path class="cls-3" d="M13.91,16.47a17.48,17.48,0,0,1,24.7,0"/><path class="cls-3" d="M8.5,11.06a25.11,25.11,0,0,1,35.52,0"/></g></g></svg>