<svg xmlns="http://www.w3.org/2000/svg" viewBox="0 0 119.42 26.87"><defs><style>.cls-1{fill:#4e7bbb;}</style></defs><title>Recurso 5</title><g id="Capa_2" data-name="Capa 2"><g id="Capa_1-2" data-name="Capa 1"><path class="cls-1" d="M0,26.48c0-.17.11-.29.19-.43Q6.48,14.62,12.76,3.19A6.35,6.35,0,0,1,15.41.63,5.12,5.12,0,0,1,21.91,2a10.66,10.66,0,0,1,1,1.56q4.32,7.94,8.66,15.86L35,25.8a1.13,1.13,0,0,1,.23.55c-.12.1-.27.06-.41.06-2.56,0-5.12,0-7.68,0a.6.6,0,0,1-.63-.41c-.56-1.15-1.15-2.28-1.71-3.44a.59.59,0,0,0-.62-.41q-6.57,0-13.15,0a.63.63,0,0,0-.64.4c-.65,1.18-1.33,2.34-2,3.51a.53.53,0,0,1-.52.35c-2.54,0-5.09.07-7.63.1a.37.37,0,0,1-.29,0M17.61,9.39a.43.43,0,0,0-.18.2l-3.72,7.09s0,0,0,0,0,0,0,0h7.89l-4-7.36"/><path class="cls-1" d="M78.81,9.58c1.2,0,2.4,0,3.6,0a13.43,13.43,0,0,1,4.87,1.05,4.45,4.45,0,0,1,2.6,2.84,14.53,14.53,0,0,1,.54,3.39A21.82,21.82,0,0,1,90.19,21c0,.38-.1.75-.14,1.12a4.16,4.16,0,0,1-3,3.79,13.75,13.75,0,0,1-2.63.6c-1.35.19-2.7.3-4.06.36h-.3a55.52,55.52,0,0,1-6-.3,18,18,0,0,1-2.52-.36,7.92,7.92,0,0,1-1.34-.48,4.73,4.73,0,0,1-2.71-3.85,34.84,34.84,0,0,1-.3-6,7.86,7.86,0,0,1,.61-2.76A4.38,4.38,0,0,1,70,10.75a13,13,0,0,1,3.39-1A15.12,15.12,0,0,1,76,9.56h2.8Zm-.09,12c.71,0,1.41,0,2.12,0a3.72,3.72,0,0,0,1.79-.43,1.52,1.52,0,0,0,.81-.88,7,7,0,0,0,.27-3.64A2.1,2.1,0,0,0,82.44,15a5.38,5.38,0,0,0-1.81-.43c-.41,0-.81-.06-1.22-.1a6.32,6.32,0,0,0-1.23,0c-.47.06-1,.07-1.42.11a4.52,4.52,0,0,0-2,.56,1.88,1.88,0,0,0-1,1.64,18.16,18.16,0,0,0,.12,2.95A1.86,1.86,0,0,0,75,21.22a3.5,3.5,0,0,0,1.62.37c.7,0,1.41,0,2.11,0"/><path class="cls-1" d="M98,11.51c.13,0,.19,0,.26-.11A7.7,7.7,0,0,1,103,9.61a21.92,21.92,0,0,1,4.13.06,11.87,11.87,0,0,1,3.64,1A5,5,0,0,1,113,12.56a3.51,3.51,0,0,1,.51,1.67c0,.18,0,.36,0,.54v11c0,.11,0,.22,0,.34s-.08.27-.27.26a1.21,1.21,0,0,0-.19,0h-5.57c-.5,0-.47,0-.47-.49,0-2.77,0-5.55,0-8.32a6.07,6.07,0,0,0-.07-1.13,1.83,1.83,0,0,0-.94-1.31,4.11,4.11,0,0,0-1.86-.59,15.24,15.24,0,0,0-3.24.11A3.47,3.47,0,0,0,98,18.14c0,2.57,0,5.15,0,7.73,0,.64,0,.54-.53.54H92a1.21,1.21,0,0,0-.19,0c-.23,0-.35-.05-.33-.3s0-.23,0-.34V10.1c0-.51,0-.51.5-.51h5.47c.54,0,.55-.11.55.56,0,.35,0,.69,0,1,0,.11,0,.23.06.32"/><path class="cls-1" d="M60,17.55a4.2,4.2,0,0,0-.27-1.4A2,2,0,0,0,58.59,15a4.4,4.4,0,0,0-.84-.29,10.24,10.24,0,0,0-3.17-.22,14.82,14.82,0,0,0-2.1.23A2.36,2.36,0,0,0,50.4,17a7,7,0,0,0,.32,3.2,1.62,1.62,0,0,0,.82.94,3.71,3.71,0,0,0,1.76.42c1.46,0,2.92.07,4.38,0a11.54,11.54,0,0,0,8-3.44c.07-.08.12-.2.27-.2,0,.25,0,.51,0,.77l-.24,3.83a4,4,0,0,1-3,3.67,11.42,11.42,0,0,1-2.53.35c-1.66.08-3.3.27-5,.26s-3.07-.19-4.61-.26a12,12,0,0,1-2.53-.35,6.48,6.48,0,0,1-1.9-.79,4,4,0,0,1-1.84-2.58,21.67,21.67,0,0,1-.61-6,20.12,20.12,0,0,1,.35-2.78,4.47,4.47,0,0,1,3.28-3.52,19.3,19.3,0,0,1,4.53-.86,54.35,54.35,0,0,1,7,0,12.71,12.71,0,0,1,3.66.67,5.34,5.34,0,0,1,1.87,1.16.26.26,0,0,1,0,.41c-1.45,1.84-2.9,3.69-4.36,5.53,0,0-.05,0-.14.1"/><path class="cls-1" d="M35.79,14.69V3.76a2.8,2.8,0,0,1,0-.29c0-.38,0-.38.39-.38h5.75c.36,0,.36,0,.37.35V26c0,.42,0,.43-.44.43H36.3c-.52,0-.51.05-.51-.5V14.69"/><path class="cls-1" d="M113.78,7.91a2.82,2.82,0,1,1,2.82,2.82,2.82,2.82,0,0,1-2.82-2.82m.57,0a2.25,2.25,0,1,0,4.5.08,2.26,2.26,0,1,0-4.5-.08"/><path class="cls-1" d="M117.08,8.11,118,9.53c-.35.13-.57.06-.72-.25s-.35-.56-.5-.85a.43.43,0,0,0-.47-.25c-.17,0-.25.07-.24.23V9.2c0,.2,0,.41-.28.39s-.29,0-.3-.37c0-.67,0-1.35,0-2,0-.32-.15-.72.08-.94s.6,0,.91,0a2.91,2.91,0,0,1,.59,0,.85.85,0,0,1,.82.88c0,.4-.1.83-.62.91a.71.71,0,0,0-.17.09m-1-.9c0,.6-.13.56.64.56a1.35,1.35,0,0,0,.29,0c.34-.07.44-.19.46-.47a.52.52,0,0,0-.41-.58,2.48,2.48,0,0,0-.72-.06c-.19,0-.27.07-.26.26v.33"/></g></g></svg>