<svg xmlns="http://www.w3.org/2000/svg" viewBox="0 0 53.14 69.75"><defs><style>.cls-1{fill:#332d2f;}.cls-2{fill:#28a8df;}.cls-3{fill:none;stroke:#332d2f;stroke-miterlimit:10;}</style></defs><g id="Capa_2" data-name="Capa 2"><g id="Capa_1-2" data-name="Capa 1"><rect class="cls-1" width="2.14" height="69.75"/><rect class="cls-1" x="51" width="2.14" height="69.75"/><rect class="cls-1" x="24.88" y="33.57" width="2.14" height="49.75" transform="translate(-32.5 84.39) rotate(-90)"/><rect class="cls-1" x="24.88" y="12.57" width="2.14" height="49.75" transform="translate(-11.5 63.39) rotate(-90)"/><rect class="cls-1" x="24.88" y="-8.43" width="2.14" height="49.75" transform="translate(9.5 42.39) rotate(-90)"/><rect class="cls-2" x="6.77" y="3.72" width="11.26" height="11.26" rx="2.01"/><rect class="cls-2" x="20.77" y="3.72" width="11.26" height="11.26" rx="2.01"/><rect class="cls-2" x="34.77" y="3.72" width="11.26" height="11.26" rx="2.01"/><rect class="cls-3" x="6.77" y="24.72" width="11.26" height="11.26" rx="2.01"/><rect class="cls-3" x="20.77" y="24.72" width="11.26" height="11.26" rx="2.01"/><rect class="cls-3" x="34.77" y="24.72" width="11.26" height="11.26" rx="2.01"/><rect class="cls-3" x="6.77" y="45.72" width="11.26" height="11.26" rx="2.01"/><rect class="cls-3" x="20.77" y="45.72" width="11.26" height="11.26" rx="2.01"/><rect class="cls-3" x="34.77" y="45.72" width="11.26" height="11.26" rx="2.01"/></g></g></svg>