<svg id="Layer_1" data-name="Layer 1" xmlns="http://www.w3.org/2000/svg" viewBox="0 0 76.89 61.96"><defs><style>.cls-1{stroke:#000;stroke-miterlimit:10;stroke-width:0.49px;}.cls-2{fill:#27aae1;}</style></defs><path class="cls-1" d="M44.24,61.72H.77a.53.53,0,0,1-.53-.53V5.52A.52.52,0,0,1,.77,5H11.28a.52.52,0,0,1,.53.52V12H33.2V5.52A.52.52,0,0,1,33.73,5H44.24a.52.52,0,0,1,.52.52V61.19A.52.52,0,0,1,44.24,61.72Zm-42.94-1H43.71V6.05H34.25v6.51a.52.52,0,0,1-.52.53H11.28a.53.53,0,0,1-.53-.53V6.05H1.3Z"/><path class="cls-1" d="M40.32,57.81H4.69a.53.53,0,0,1-.53-.53V9.44a.53.53,0,0,1,.53-.53h6.59a.53.53,0,0,1,.53.53V12H33.2V9.44a.53.53,0,0,1,.53-.53h6.59a.53.53,0,0,1,.53.53V57.28A.53.53,0,0,1,40.32,57.81ZM5.22,56.75H39.79V10H34.25v2.59a.52.52,0,0,1-.52.53H11.28a.53.53,0,0,1-.53-.53V10H5.22Z"/><path class="cls-2" d="M33.73,13.09H11.28a.53.53,0,0,1-.53-.53V4.5A.53.53,0,0,1,11.28,4h3V.53A.53.53,0,0,1,14.85,0H30.16a.52.52,0,0,1,.52.53V4h3a.52.52,0,0,1,.52.53v8.06A.52.52,0,0,1,33.73,13.09ZM11.81,12H33.2V5h-3a.53.53,0,0,1-.53-.53V1.06H15.38V4.5a.53.53,0,0,1-.53.53h-3Z"/><path class="cls-2" d="M22.5,9a2.77,2.77,0,1,1,2.78-2.77A2.78,2.78,0,0,1,22.5,9Zm0-4.49a1.72,1.72,0,1,0,1.72,1.72A1.72,1.72,0,0,0,22.5,4.52Z"/><path class="cls-1" d="M33.89,26.34H11.12a.53.53,0,1,1,0-1.06H33.89a.53.53,0,0,1,0,1.06Z"/><path class="cls-1" d="M17.1,31.67h-6a.52.52,0,0,1-.53-.52.53.53,0,0,1,.53-.53h6a.53.53,0,0,1,.53.53A.52.52,0,0,1,17.1,31.67Z"/><path class="cls-1" d="M27.15,37h-16a.53.53,0,1,1,0-1h16a.53.53,0,1,1,0,1Z"/><path class="cls-1" d="M30.09,42.35h-19a.53.53,0,1,1,0-1.06h19a.53.53,0,0,1,0,1.06Z"/><path class="cls-1" d="M33.89,47.69H11.12a.53.53,0,0,1-.53-.53.52.52,0,0,1,.53-.52H33.89a.52.52,0,0,1,.53.52A.53.53,0,0,1,33.89,47.69Z"/><path d="M49.45,39.83a1.25,1.25,0,0,0,1.25-1.25V34.8a11.86,11.86,0,0,1,23.7,0v3.75a1.25,1.25,0,1,0,2.49,0V34.8a14.35,14.35,0,0,0-28.69,0v3.82A1.25,1.25,0,0,0,49.45,39.83Z"/><path d="M55.37,11.92a7.18,7.18,0,1,1,7.18,7.18A7.2,7.2,0,0,1,55.37,11.92Zm2.49,0a4.69,4.69,0,1,0,4.69-4.69A4.69,4.69,0,0,0,57.86,11.92Z"/><path d="M68.59,39.83a1.25,1.25,0,0,0,1.25-1.25V33.27a1.25,1.25,0,1,0-2.49,0v5.31A1.24,1.24,0,0,0,68.59,39.83Z"/><path d="M56.5,39.83a1.25,1.25,0,0,0,1.25-1.25V33.27a1.25,1.25,0,1,0-2.49,0v5.31A1.24,1.24,0,0,0,56.5,39.83Z"/><path class="cls-2" d="M51.2,56.94H72a1.25,1.25,0,0,0,1.25-1.25V46.07a1.25,1.25,0,1,0-2.5,0v8.38H51.2a1.25,1.25,0,1,0,0,2.49Z"/><path class="cls-2" d="M54.55,60a1.25,1.25,0,0,0,.76-2.24l-2.74-2.09,2.74-2.08a1.25,1.25,0,0,0-1.51-2l-4,3.08a1.26,1.26,0,0,0-.5,1,1.27,1.27,0,0,0,.5,1l4,3.07A1.18,1.18,0,0,0,54.55,60Z"/></svg>