<svg id="Layer_1" data-name="Layer 1" xmlns="http://www.w3.org/2000/svg" viewBox="0 0 45.5 45.53"><defs><style>.cls-1{fill:#414042;}</style></defs><path class="cls-1" d="M18.48,28.28a.77.77,0,0,1-.77-.78V24.22a.76.76,0,0,1,.77-.77.77.77,0,0,1,.78.77V27.5A.78.78,0,0,1,18.48,28.28Z"/><path class="cls-1" d="M21.07,28.28a.78.78,0,0,1-.78-.78v-6a.78.78,0,0,1,1.56,0v6A.78.78,0,0,1,21.07,28.28Z"/><path class="cls-1" d="M23.66,28.25a.78.78,0,0,1-.78-.78v-6a.78.78,0,0,1,1.56,0v6A.78.78,0,0,1,23.66,28.25Z"/><path class="cls-1" d="M26.25,32.78a.78.78,0,0,1-.78-.78V27a.78.78,0,0,1,.78-.78A.77.77,0,0,1,27,27v5A.77.77,0,0,1,26.25,32.78Z"/><path class="cls-1" d="M26.25,41.79H17a.78.78,0,0,1-.78-.78V39.16a11.8,11.8,0,0,0-.55-3.59l-.14-.46a9.37,9.37,0,0,1-.42-2.78v-8a2.11,2.11,0,0,1,1.58-2.08,2,2,0,0,1,1,0v-.64a2.07,2.07,0,0,1,2.73-2,2.05,2.05,0,0,1,3.21-.89,2,2,0,0,1,.65.89,2.06,2.06,0,0,1,2.72,2V24.7a2.51,2.51,0,0,1,1-.16,2.56,2.56,0,0,1,2.31,2.53v5a4.7,4.7,0,0,1-1.27,3.22l-1.87,2a.71.71,0,0,0-.19.48V41A.77.77,0,0,1,26.25,41.79Zm-8.47-1.56h7.69V37.79a2.26,2.26,0,0,1,.6-1.54l1.87-2a3.17,3.17,0,0,0,.86-2.16v-5a1,1,0,0,0-.84-1,1,1,0,0,0-.66.25A.86.86,0,0,0,27,27a.77.77,0,0,1-.77.78.78.78,0,0,1-.78-.78v-5.4a.57.57,0,0,0-.38-.57.54.54,0,0,0-.46.1.51.51,0,0,0-.19.4.78.78,0,0,1-1.56,0V20.28a.53.53,0,0,0-.19-.41.58.58,0,0,0-.46-.09.57.57,0,0,0-.38.57v1.16a.78.78,0,0,1-1.56,0,.51.51,0,0,0-.19-.4.54.54,0,0,0-.46-.1.58.58,0,0,0-.38.57v2.64a.78.78,0,0,1-.78.78.77.77,0,0,1-.77-.78.49.49,0,0,0-.2-.4.53.53,0,0,0-.46-.1.58.58,0,0,0-.38.57v8A7.6,7.6,0,0,0,17,34.65l.14.45a13.69,13.69,0,0,1,.61,4.06Z"/><path class="cls-1" d="M23.06,18.82a.81.81,0,0,1-.39-.1l-2.3-1.34a.78.78,0,0,1-.29-1.06A.77.77,0,0,1,21.14,16l2.31,1.33a.77.77,0,0,1,.28,1.06A.76.76,0,0,1,23.06,18.82Z"/><path class="cls-1" d="M21.07,20.66a.81.81,0,0,1-.39-.1l-1.61-.93a.78.78,0,0,1,.78-1.35l1.61.93a.78.78,0,0,1,.29,1.06A.79.79,0,0,1,21.07,20.66Z"/><path class="cls-1" d="M16.24,23.84a.76.76,0,0,1-.39-.1l-3.26-1.88a.78.78,0,0,1,.78-1.35l3.25,1.88a.78.78,0,0,1,.29,1.06A.79.79,0,0,1,16.24,23.84Z"/><path class="cls-1" d="M15.88,27.44a.77.77,0,0,1-.25,0,2.48,2.48,0,0,1-.44-.2l-4.33-2.5A4.74,4.74,0,0,1,8.7,22l-.8-2.62a.68.68,0,0,0-.32-.4L4.79,17.36a.79.79,0,0,1-.36-.48.72.72,0,0,1,.08-.59l4.62-8a.74.74,0,0,1,.47-.36.72.72,0,0,1,.59.08l1.6.92a12,12,0,0,0,3.38,1.33l.47.1a9.23,9.23,0,0,1,2.62,1l4.86,2.8a.78.78,0,0,1,.29,1.07.77.77,0,0,1-1.06.28l-4.87-2.81a7.84,7.84,0,0,0-2.18-.85l-.47-.11A13.51,13.51,0,0,1,11,10.27l-.93-.53L6.24,16.4l2.12,1.22a2.22,2.22,0,0,1,1,1.29l.81,2.62a3.19,3.19,0,0,0,1.45,1.83L16,25.86l.17.07a.78.78,0,0,1-.26,1.51Z"/><path class="cls-1" d="M26.43,26.31a.78.78,0,0,1-.67-.38A.79.79,0,0,1,26,24.86l2.54-1.46a.78.78,0,0,1,.77,1.35l-2.53,1.46A.76.76,0,0,1,26.43,26.31Z"/><path class="cls-1" d="M26.43,23.33a.76.76,0,0,1-.67-.39A.78.78,0,0,1,26,21.88l1.24-.72a.78.78,0,1,1,.78,1.35l-1.24.71A.77.77,0,0,1,26.43,23.33Z"/><path class="cls-1" d="M25.58,20.83a.76.76,0,0,1-.67-.39.77.77,0,0,1,.28-1.06l.77-.44a.78.78,0,0,1,.78,1.34l-.77.45A.78.78,0,0,1,25.58,20.83Z"/><path class="cls-1" d="M24.63,18.39A.76.76,0,0,1,24,18a.77.77,0,0,1,.28-1.06l4.35-2.51a.78.78,0,0,1,.78,1.35L25,18.29A.78.78,0,0,1,24.63,18.39Z"/><path class="cls-1" d="M29.65,27.44A.78.78,0,0,1,29.26,26l4.79-2.76a7.63,7.63,0,0,0,1.83-1.47l.33-.35a13.65,13.65,0,0,1,3.2-2.56l.93-.53L36.5,11.66l-2.12,1.22a2.22,2.22,0,0,1-1.63.25l-2.68-.62a3.14,3.14,0,0,0-2.3.35l-4.33,2.5A1,1,0,0,0,23,16.57a.87.87,0,0,0,.54.45.88.88,0,0,0,.69-.08A.78.78,0,0,1,25,18.29l-2.15,1.24a.78.78,0,0,1-.78-1.35l.18-.1a2.32,2.32,0,0,1-.65-.8,2.56,2.56,0,0,1,1-3.27L27,11.51A4.72,4.72,0,0,1,30.42,11l2.68.61a.67.67,0,0,0,.5-.07l2.79-1.61A.72.72,0,0,1,37,9.85a.74.74,0,0,1,.47.36l4.62,8a.78.78,0,0,1-.28,1.07l-1.6.92a12,12,0,0,0-2.84,2.27l-.33.35a9.79,9.79,0,0,1-2.19,1.76L30,27.34A.78.78,0,0,1,29.65,27.44Z"/><path class="cls-1" d="M41.71,19.92a.69.69,0,0,1-.2,0,.74.74,0,0,1-.47-.36L35.8,10.45a.77.77,0,0,1,.28-1.06L39,7.72a.77.77,0,0,1,1,.16,22.84,22.84,0,0,1,4.94,9.68.77.77,0,0,1-.36.85l-2.43,1.4A.77.77,0,0,1,41.71,19.92Zm-4.18-9.57L42,18.08l1.24-.72a21.22,21.22,0,0,0-4.05-8Z"/><path class="cls-1" d="M4.87,18a.79.79,0,0,1-.39-.11l-2.9-1.67a.79.79,0,0,1-.35-.93A22.88,22.88,0,0,1,7.15,6.18a.77.77,0,0,1,.92-.11l2.43,1.4a.74.74,0,0,1,.36.47.76.76,0,0,1-.08.59L5.54,17.61A.76.76,0,0,1,4.87,18ZM2.92,15.2l1.66,1L9.05,8.43,7.8,7.71A21.39,21.39,0,0,0,2.92,15.2Z"/><path class="cls-1" d="M22.74,45.53a22.84,22.84,0,0,1-6.58-1,.77.77,0,0,1-.55-.75V41a.78.78,0,0,1,.78-.78H26.87a.77.77,0,0,1,.77.78v3.35a.77.77,0,0,1-.63.76A23,23,0,0,1,22.74,45.53Zm-5.58-2.3a21.32,21.32,0,0,0,8.93.47V41.79H17.16Z"/><path class="cls-1" d="M22.74,45.53A22.75,22.75,0,0,1,0,23.92a.78.78,0,0,1,.74-.82.76.76,0,0,1,.81.74,21.21,21.21,0,0,0,34,15.82.78.78,0,0,1,.94,1.24A22.53,22.53,0,0,1,22.74,45.53Z"/><path class="cls-1" d="M1.07,19.76H.94a.77.77,0,0,1-.63-.9A22.88,22.88,0,0,1,9.8,4a.78.78,0,0,1,.89,1.28A21.29,21.29,0,0,0,1.84,19.12.78.78,0,0,1,1.07,19.76Z"/><path class="cls-1" d="M18.4,2A.78.78,0,0,1,18.25.44c.42-.08.84-.15,1.27-.21a.77.77,0,0,1,.88.66.78.78,0,0,1-.66.87c-.4.06-.79.13-1.18.21Z"/><path class="cls-1" d="M14,3.35a.78.78,0,0,1-.31-1.49c.48-.21,1-.4,1.48-.58a.78.78,0,1,1,.51,1.47Q15,3,14.32,3.29A.8.8,0,0,1,14,3.35Z"/><path class="cls-1" d="M10.24,5.45a.8.8,0,0,1-.64-.34A.78.78,0,0,1,9.8,4c.35-.25.71-.48,1.08-.7a.77.77,0,1,1,.81,1.32c-.34.21-.68.43-1,.66A.82.82,0,0,1,10.24,5.45Z"/><path class="cls-1" d="M44.72,23.54a.78.78,0,0,1-.78-.78,21.22,21.22,0,0,0-24.2-21A.77.77,0,1,1,19.52.23,23,23,0,0,1,22.74,0,22.79,22.79,0,0,1,45.5,22.76.78.78,0,0,1,44.72,23.54Z"/><path class="cls-1" d="M36,41.06a.8.8,0,0,1-.62-.31.78.78,0,0,1,.15-1.09c.32-.24.63-.49.94-.75a.77.77,0,0,1,1,1.18c-.32.28-.66.55-1,.81A.74.74,0,0,1,36,41.06Z"/><path class="cls-1" d="M40.06,37.08a.78.78,0,0,1-.48-.17.77.77,0,0,1-.13-1.09,21.17,21.17,0,0,0,1.23-1.75A.78.78,0,0,1,42,34.9a22.72,22.72,0,0,1-1.33,1.88A.76.76,0,0,1,40.06,37.08Zm3.26-5.79a.66.66,0,0,1-.28-.05.78.78,0,0,1-.45-1,20.17,20.17,0,0,0,.65-2,.78.78,0,0,1,.95-.55.77.77,0,0,1,.55,1,20.66,20.66,0,0,1-.7,2.19A.76.76,0,0,1,43.32,31.29Z"/><path class="cls-1" d="M44.69,24.78h0a.77.77,0,0,1-.73-.82q0-.59,0-1.2a.78.78,0,0,1,1.56,0c0,.44,0,.86,0,1.29A.77.77,0,0,1,44.69,24.78Z"/></svg>