<svg xmlns="http://www.w3.org/2000/svg" viewBox="0 0 98.05 35.07"><defs><style>.cls-1,.cls-2{fill:none;}.cls-1{stroke:#fff;stroke-miterlimit:10;}.cls-2{stroke:#e23231;stroke-linecap:round;stroke-linejoin:round;}.cls-3{fill:#f5f5f5;}</style></defs><g id="Capa_2" data-name="Capa 2"><g id="Capa_1-2" data-name="Capa 1"><rect class="cls-1" x="0.98" y="0.5" width="29.7" height="19.59" rx="4.78"/><rect class="cls-2" x="34.7" y="0.5" width="29.7" height="19.59" rx="4.78"/><rect class="cls-1" x="67.76" y="0.5" width="29.7" height="19.59" rx="4.78"/><rect class="cls-1" x="0.5" y="23.15" width="97.05" height="11.41" rx="2.76"/><polygon class="cls-3" points="14.45 3.51 12.75 5.21 17.47 9.93 12.75 14.65 14.45 16.36 20.88 9.93 14.45 3.51"/><polygon class="cls-3" points="47.21 3.51 45.51 5.21 50.23 9.93 45.51 14.65 47.21 16.36 53.64 9.93 47.21 3.51"/><polygon class="cls-3" points="81.72 3.51 80.02 5.21 84.74 9.93 80.02 14.65 81.72 16.36 88.15 9.93 81.72 3.51"/></g></g></svg>