<svg xmlns="http://www.w3.org/2000/svg" viewBox="0 0 133.41 57.11"><defs><style>.cls-1{fill:#f5f5f5;}.cls-2{fill:#e03232;}</style></defs><g id="Capa_2" data-name="Capa 2"><g id="Capa_1-2" data-name="Capa 1"><path class="cls-1" d="M28.56,52.23A23.68,23.68,0,1,1,52.23,28.56c0,.46,0,.91,0,1.36a1,1,0,0,1-1,.91,1,1,0,0,1-.91-1c0-.41,0-.83,0-1.25A21.76,21.76,0,1,0,28.56,50.31q.82,0,1.65-.06a1,1,0,0,1,1,.88,1,1,0,0,1-.89,1C29.76,52.21,29.15,52.23,28.56,52.23Z"/><path class="cls-1" d="M44.14,57.11H28.56a28.56,28.56,0,1,1,10.7-55,1,1,0,0,1-.72,1.79,26.35,26.35,0,0,0-10-1.94,26.64,26.64,0,1,0,0,53.27H44.14a1,1,0,1,1,0,1.92Z"/><path class="cls-1" d="M28.56,14.6a1,1,0,0,1-1-1V11.37a1,1,0,0,1,1.92,0v2.27A1,1,0,0,1,28.56,14.6Z"/><path class="cls-1" d="M37.77,20.3a1,1,0,0,1-.68-.28,1,1,0,0,1,0-1.36L40,15.73a1,1,0,0,1,1.36,1.35L38.45,20A.93.93,0,0,1,37.77,20.3Z"/><path class="cls-1" d="M28.56,46.7a1,1,0,0,1-1-1V43.47a1,1,0,0,1,1.92,0v2.27A1,1,0,0,1,28.56,46.7Z"/><path class="cls-1" d="M16.4,41.67a.92.92,0,0,1-.67-.28,1,1,0,0,1,0-1.36l2.93-2.94A1,1,0,0,1,20,38.45l-2.94,2.94A.93.93,0,0,1,16.4,41.67Z"/><path class="cls-1" d="M13.64,29.52H11.37a1,1,0,0,1,0-1.92h2.27a1,1,0,1,1,0,1.92Z"/><path class="cls-1" d="M19.34,20.3a.94.94,0,0,1-.68-.28l-2.93-2.94a1,1,0,0,1,1.35-1.35L20,18.66A1,1,0,0,1,20,20,.94.94,0,0,1,19.34,20.3Z"/><path class="cls-1" d="M32,29.52H28.56a1,1,0,0,1-1-1v-5a1,1,0,0,1,1.92,0V27.6H32a1,1,0,0,1,0,1.92Z"/><path class="cls-2" d="M74.25,34.73v-.06H38.86a1.63,1.63,0,0,0-1.62,1.62V48.92a1.63,1.63,0,0,0,1.62,1.62h35a1.63,1.63,0,0,0,1.62-1.62V36.29A1.63,1.63,0,0,0,74.25,34.73Zm0,14.19a.37.37,0,0,1-.37.37h-35a.37.37,0,0,1-.37-.37V36.29a.38.38,0,0,1,.37-.37H74.17l0-.62V48.92Z"/><path class="cls-1" d="M87.48,38.44v-.06H79.3A1.63,1.63,0,0,0,77.68,40v8.92a1.63,1.63,0,0,0,1.62,1.62h7.77a1.63,1.63,0,0,0,1.62-1.62V40A1.63,1.63,0,0,0,87.48,38.44Zm0,10.48a.37.37,0,0,1-.37.37H79.3a.37.37,0,0,1-.37-.37V40a.38.38,0,0,1,.37-.37h8.1l0-.62v9.91Z"/><path class="cls-2" d="M45.64,40.52H43.56a.62.62,0,0,1-.62-.62.62.62,0,0,1,.62-.62h2.08a.63.63,0,0,1,.63.62A.62.62,0,0,1,45.64,40.52Z"/><path class="cls-1" d="M87.13,44.77H83.81a.62.62,0,1,1,0-1.24h3.32a.62.62,0,1,1,0,1.24Z"/><path class="cls-1" d="M84.43,40.89v3.32a.63.63,0,0,1-1.25,0V40.89a.63.63,0,0,1,1.25,0Z"/><circle class="cls-1" cx="44.14" cy="54.24" r="2.76"/><circle class="cls-1" cx="70.69" cy="54.24" r="2.76"/><circle class="cls-1" cx="83.19" cy="54.24" r="2.76"/><path class="cls-1" d="M129.88,44.72H96a3.53,3.53,0,0,1-3.52-3.52V21.87A3.53,3.53,0,0,1,96,18.34h4a.8.8,0,0,1,.8.8.79.79,0,0,1-.8.79H96a1.94,1.94,0,0,0-1.93,1.94V41.2A1.94,1.94,0,0,0,96,43.13h33.88a1.94,1.94,0,0,0,1.94-1.93V30a.79.79,0,0,1,.79-.79.79.79,0,0,1,.8.79V41.2A3.53,3.53,0,0,1,129.88,44.72Z"/><path class="cls-1" d="M119.5,51.42H106.39a.79.79,0,0,1-.8-.79V44a.8.8,0,0,1,.8-.8H119.5a.8.8,0,0,1,.8.8v6.59A.79.79,0,0,1,119.5,51.42Zm-12.32-1.59h11.53v-5H107.18Z"/><path class="cls-1" d="M122.73,56H103.15A.81.81,0,0,1,102.4,55L104,50.37a.8.8,0,0,1,.75-.54h16.41a.8.8,0,0,1,.75.54L123.49,55a.81.81,0,0,1-.76,1.06Zm-18.46-1.59h17.35l-1-3H105.31Z"/><path class="cls-1" d="M126.87,56H99a.8.8,0,0,1-.79-.8.79.79,0,0,1,.79-.79h27.86a.79.79,0,0,1,.8.79A.8.8,0,0,1,126.87,56Z"/><path class="cls-1" d="M132.61,40.24H93.27a.8.8,0,0,1,0-1.6h39.34a.8.8,0,1,1,0,1.6Z"/><path class="cls-2" d="M113.79,16.42,104.59,31a2.08,2.08,0,0,0,1.76,3.19h18.4A2.08,2.08,0,0,0,126.51,31l-9.2-14.62A2.08,2.08,0,0,0,113.79,16.42Z"/><path class="cls-1" d="M114.24,21.48v-.3h2.63v.3l-.7,6.53h-1.24Zm.12,7.68h2.39v2.37h-2.39Z"/></g></g></svg>