<svg xmlns="http://www.w3.org/2000/svg" viewBox="0 0 74.79 51.44"><defs><style>.cls-1{fill:#c43535;}.cls-2{fill:#353132;}</style></defs><title>Recurso 15</title><g id="Capa_2" data-name="Capa 2"><g id="Capa_1-2" data-name="Capa 1"><path class="cls-1" d="M69.19,30.79a5.61,5.61,0,0,1-5.29-3.74L57,7.58A5.62,5.62,0,0,1,60.46.43l.31-.11A5.6,5.6,0,0,1,68,3.83L74.5,23.41a5.62,5.62,0,0,1-3.45,7.06,5.47,5.47,0,0,1-1.86.32M62.64,2.41a3.29,3.29,0,0,0-1.07.18l-.31.11a3.2,3.2,0,0,0-1.95,4.08l6.86,19.47a3.2,3.2,0,0,0,6-2.08L65.67,4.59A3.2,3.2,0,0,0,64,2.74a3.16,3.16,0,0,0-1.4-.33"/><path class="cls-2" d="M6.13,35.43A5.74,5.74,0,0,1,3.9,35l-.52-.23a5.62,5.62,0,0,1-3.06-7L6.73,9.55a5.61,5.61,0,0,1,7.51-3.28l.52.22a5.63,5.63,0,0,1,3.06,7L11.41,31.69a5.61,5.61,0,0,1-5.28,3.74M12,8.21a3.21,3.21,0,0,0-3,2.14L2.59,28.53a3.21,3.21,0,0,0,1.74,4l.53.23a3.21,3.21,0,0,0,4.28-1.87L15.55,12.7a3.21,3.21,0,0,0-1.74-4l-.53-.22A3.15,3.15,0,0,0,12,8.21"/><path class="cls-2" d="M47.11,49.53a5,5,0,0,1-2.19-.5l-4.56-2.19a1.2,1.2,0,0,1,1-2.17L46,46.86a2.68,2.68,0,0,0,2.5-4.74,1.21,1.21,0,0,1,.44-2.24H49a1.16,1.16,0,0,1,.69.11,2.68,2.68,0,0,0,3.58-1.27,2.68,2.68,0,0,0-.84-3.33,1.2,1.2,0,0,1-.33-1.59l.06-.1a1.2,1.2,0,0,1,1.52-.48A2.58,2.58,0,0,0,57,31.83a2.66,2.66,0,0,0-.62-3.2,1.87,1.87,0,0,0-.45-.29L44.16,22.69a3.69,3.69,0,0,0-4.23,1.46,1.2,1.2,0,0,1-2.17-1,6,6,0,0,1,7.44-2.6L57,26.17a4.41,4.41,0,0,1,.88.55l.09.07a5,5,0,0,1,1.23,6.08,5.13,5.13,0,0,1-3.58,2.85,5.08,5.08,0,0,1-3.06,6.64,4.38,4.38,0,0,1-.71.19,5.08,5.08,0,0,1-4.73,7"/><path class="cls-2" d="M40.88,47a1.25,1.25,0,0,1-.58-.15l-7-3.86a1.2,1.2,0,0,1,1.16-2.11l7,3.86a1.21,1.21,0,0,1,.47,1.64,1.2,1.2,0,0,1-1.06.62"/><path class="cls-2" d="M49.06,42.28a1.24,1.24,0,0,1-.56-.13l-11.17-5.8a1.2,1.2,0,1,1,1.1-2.14L49.61,40a1.2,1.2,0,0,1-.55,2.27"/><path class="cls-2" d="M53.2,35.51a1.23,1.23,0,0,1-.55-.13L42.91,30.3A1.21,1.21,0,0,1,44,28.16l9.73,5.08a1.21,1.21,0,0,1,.51,1.63,1.19,1.19,0,0,1-1.07.64"/><path class="cls-2" d="M39.64,51.44a4.52,4.52,0,0,1-1.1-.15c-3.59-.93-16.38-7-23.82-14.15a21.57,21.57,0,0,1-1.82-2,9.39,9.39,0,0,0-3.14-2.77,1.2,1.2,0,1,1,1-2.17,11.47,11.47,0,0,1,3.94,3.39,22.55,22.55,0,0,0,1.64,1.81C23.61,42.3,36.12,48.18,39.15,49a1.24,1.24,0,0,0,1.22-.2,1.18,1.18,0,0,0,.38-1A1.53,1.53,0,0,0,40,46.54L35,43.9a1.21,1.21,0,0,1,1.14-2.13l4.94,2.64a3.94,3.94,0,0,1,2.06,3.05,3.53,3.53,0,0,1-1.22,3.13,3.47,3.47,0,0,1-2.29.85"/><path class="cls-2" d="M24,16.11a15.83,15.83,0,0,1-6.54-1.31l-1.25-.58a1.21,1.21,0,0,1,1-2.19l1.27.59a14.26,14.26,0,0,0,7.91.88,1.21,1.21,0,0,1,1.4,1,1.2,1.2,0,0,1-1,1.4,15.37,15.37,0,0,1-2.83.24"/><path class="cls-2" d="M14.6,36.48a1.18,1.18,0,0,1-.41-.07,1.2,1.2,0,0,1-.72-1.55l5-13.57a1.21,1.21,0,0,1,2.27.82l-5,13.58a1.19,1.19,0,0,1-1.13.79"/><path class="cls-1" d="M56.27,21.58a1.2,1.2,0,0,1-1.13-.79l-3.7-10.23a1.2,1.2,0,1,1,2.26-.82L57.4,20a1.2,1.2,0,0,1-1.13,1.61"/><path class="cls-1" d="M35,29a4.72,4.72,0,0,1-3.18-1.23,5.55,5.55,0,0,1-1.34-1.81l-4.69-10a5.69,5.69,0,0,1,2.74-7.56c5.83-2.54,15-.78,21.1.39l.23,0a11.66,11.66,0,0,0,7.15-1l1.12-.52a1.2,1.2,0,0,1,1,2.18L58,10a14,14,0,0,1-8.62,1.14l-.23,0C43.35,10,34.6,8.29,29.48,10.53a3.28,3.28,0,0,0-1.55,4.34l4.69,10a3.25,3.25,0,0,0,.77,1.05,2.36,2.36,0,0,0,2.56.4,2.74,2.74,0,0,0,1.69-2.46,14.2,14.2,0,0,0-1.77-6.45A1.21,1.21,0,1,1,38,16.36,16.5,16.5,0,0,1,40,24a5.19,5.19,0,0,1-3.15,4.61A4.87,4.87,0,0,1,35,29"/></g></g></svg>