<svg xmlns="http://www.w3.org/2000/svg" viewBox="0 0 210.35 182.17"><defs><style>.cls-1{fill:#353132;}.cls-2{fill:#fff;}</style></defs><title>Recurso 1</title><g id="Capa_2" data-name="Capa 2"><g id="Capa_1-2" data-name="Capa 1"><polygon class="cls-1" points="157.76 0 52.59 0 0 91.08 52.59 182.16 157.76 182.16 210.35 91.08 157.76 0"/><path class="cls-2" d="M99,137.47c-1.31-.11-2.63-.21-3.94-.33-5.31-.49-10.59-1.12-15.66-2.94a12.94,12.94,0,0,1-3.8-2.08c-2.21-1.79-2.34-4.16-.2-6a2.71,2.71,0,0,0,1-2.32q0-32.76,0-65.52a2.69,2.69,0,0,0-1-2.31c-1.9-1.66-1.87-3.67-.09-5.47a11.93,11.93,0,0,1,4.6-2.58,52.09,52.09,0,0,1,11.29-2.39,112.43,112.43,0,0,1,18-.72,83.77,83.77,0,0,1,18.51,2.33,17.05,17.05,0,0,1,6.74,3c2.16,1.75,2.28,3.94.23,5.82a2.5,2.5,0,0,0-.87,2q0,32.72,0,65.43a3,3,0,0,0,1.12,2.62c2.24,1.87,2.12,4.2-.13,6.09a15.6,15.6,0,0,1-6.06,2.83A70.91,70.91,0,0,1,115,137.15l-3.68.32Zm31-21.82c0-3.41,0-6.81,0-10.22,0-.8-.16-1-.95-.74a89.38,89.38,0,0,1-19.53,3.25,87.24,87.24,0,0,1-13-.26,88.53,88.53,0,0,1-15.41-2.9c-1.12-.31-1.15-.3-1.15.88,0,6.51,0,13,0,19.54,0,1.5-.24,2.63-1.73,3.27-.81.35-.76.87,0,1.34a12.66,12.66,0,0,0,2.79,1.1c7.24,2.13,14.67,2.67,22.15,2.88,3.46.1,6.93-.08,10.39-.32a76.75,76.75,0,0,0,14.45-2.23,14.43,14.43,0,0,0,4-1.47c.76-.47.74-.85,0-1.32a2.16,2.16,0,0,0-.47-.26,2.33,2.33,0,0,1-1.6-2.59c0-3.31,0-6.63,0-9.95M80,68.23c0,2.92,0,5.85,0,8.77a1.12,1.12,0,0,0,1,1.31c1.83.46,3.64,1,5.47,1.41a77.35,77.35,0,0,0,17.66,2.07,80.18,80.18,0,0,0,12.66-.87,96.06,96.06,0,0,0,12.42-2.68c.52-.15.89-.32.89-1q0-9,0-17.92c0-.56-.17-.79-.74-.57-.41.15-.84.27-1.27.38a87.47,87.47,0,0,1-19.91,2.49,108,108,0,0,1-13.93-.48,62.93,62.93,0,0,1-13.26-2.35c-.8-.25-1,0-1,.76,0,2.89,0,5.79,0,8.69m50.05,23h0c0-2.78,0-5.55,0-8.33,0-.75-.18-1-.92-.75a94.25,94.25,0,0,1-19.8,3.28,86.72,86.72,0,0,1-13.39-.3,83.23,83.23,0,0,1-15.14-3c-.62-.18-.83,0-.83.64q0,8.42,0,16.83a1,1,0,0,0,.84,1.16,84.11,84.11,0,0,0,21.63,3.49,82.36,82.36,0,0,0,9.42-.31,90.91,90.91,0,0,0,17.24-3.19,1.08,1.08,0,0,0,.95-1.24c0-2.77,0-5.55,0-8.32M105.58,57.8c1.57-.07,3.77,0,6-.14a88.49,88.49,0,0,0,12.68-1.52,24.12,24.12,0,0,0,7.39-2.33c.86-.49.86-.89,0-1.39a13.59,13.59,0,0,0-3.3-1.25c-6.88-1.94-13.94-2.49-21-2.7A111.18,111.18,0,0,0,94.54,49a70.78,70.78,0,0,0-13.61,2.44,10.19,10.19,0,0,0-2.69,1.11c-.67.43-.66.77,0,1.22a5.45,5.45,0,0,0,.62.35,25.29,25.29,0,0,0,6.92,2.06,95.45,95.45,0,0,0,19.84,1.67"/></g></g></svg>