<svg id="Layer_1" data-name="Layer 1" xmlns="http://www.w3.org/2000/svg" viewBox="0 0 81.96 48.96"><defs><style>.cls-1{fill:#414042;}</style></defs><path class="cls-1" d="M5.11,23.1a.78.78,0,0,1-.78-.78V19.68a.78.78,0,0,1,1.56,0v2.64A.78.78,0,0,1,5.11,23.1Z"/><path class="cls-1" d="M14.46,27.43a.78.78,0,0,1-.78-.78v-7a.78.78,0,1,1,1.56,0v7A.78.78,0,0,1,14.46,27.43Z"/><path class="cls-1" d="M9.79,10.64A5.21,5.21,0,0,1,4.71,5.32,5.21,5.21,0,0,1,9.79,0a5.21,5.21,0,0,1,5.07,5.32A5.21,5.21,0,0,1,9.79,10.64Zm0-9.09A3.66,3.66,0,0,0,6.27,5.32,3.65,3.65,0,0,0,9.79,9.08,3.64,3.64,0,0,0,13.3,5.32,3.65,3.65,0,0,0,9.79,1.55Z"/><path class="cls-1" d="M9.79,49A.77.77,0,0,1,9,48.19V32.34a.78.78,0,1,1,1.55,0V48.19A.77.77,0,0,1,9.79,49Z"/><path class="cls-1" d="M8.35,27.43H5.11A5.11,5.11,0,0,1,0,22.32a.78.78,0,0,1,.78-.78.77.77,0,0,1,.77.78,3.57,3.57,0,0,0,3.56,3.56H8.35a1.39,1.39,0,0,0,0-2.78H5.11a.78.78,0,1,1,0-1.56H8.35a2.95,2.95,0,0,1,0,5.89Z"/><path class="cls-1" d="M14.46,49H5.11a.77.77,0,0,1-.78-.77V26.65a.78.78,0,0,1,1.56,0V47.41h7.79V26.65a.78.78,0,0,1,1.56,0A1.3,1.3,0,0,0,16.53,28h.19a1.3,1.3,0,0,0,1.3-1.3V16.39a3.32,3.32,0,0,0-3.31-3.31H4.86a3.32,3.32,0,0,0-3.31,3.31v5.93a.77.77,0,0,1-.77.78A.78.78,0,0,1,0,22.32V16.39a4.87,4.87,0,0,1,4.86-4.86h9.85a4.87,4.87,0,0,1,4.86,4.86V26.65a2.85,2.85,0,0,1-2.85,2.85h-.19a2.82,2.82,0,0,1-1.29-.31v19A.77.77,0,0,1,14.46,49Z"/><path class="cls-1" d="M18.79,49H.78A.77.77,0,0,1,0,48.19a.78.78,0,0,1,.78-.78h18a.78.78,0,0,1,.78.78A.77.77,0,0,1,18.79,49Z"/><path class="cls-1" d="M31.13,26.16H21.68a.77.77,0,0,1-.78-.77.78.78,0,0,1,.78-.78h7.74l-1.53-1.75a.78.78,0,0,1,1.17-1l2.65,3a.77.77,0,0,1-.58,1.28Z"/><path class="cls-1" d="M28.48,29.2A.8.8,0,0,1,28,29a.78.78,0,0,1-.08-1.1l1.53-1.75H21.68a.78.78,0,1,1,0-1.55h9.45a.77.77,0,0,1,.7.45.78.78,0,0,1-.12.84l-2.65,3A.76.76,0,0,1,28.48,29.2Z"/><path class="cls-1" d="M62.51,48.19H53.38a.94.94,0,0,1-.94-.94V29a3,3,0,0,1-1.09.2h-.18a3,3,0,0,1-3-3v-10a4.93,4.93,0,0,1,4.92-4.93h9.62a4.93,4.93,0,0,1,4.93,4.93v10a3,3,0,0,1-3,3h-.19a3.06,3.06,0,0,1-1.09-.2V47.25A.93.93,0,0,1,62.51,48.19Zm-8.2-1.87h7.27V26.22a.93.93,0,1,1,1.86,0,1.09,1.09,0,0,0,1.09,1.09h.19a1.09,1.09,0,0,0,1.09-1.09v-10a3.06,3.06,0,0,0-3.06-3.06H53.13a3.06,3.06,0,0,0-3.05,3.06v10a1.09,1.09,0,0,0,1.09,1.09h.18a1.09,1.09,0,0,0,1.09-1.09.94.94,0,1,1,1.87,0Z"/><path class="cls-1" d="M53.38,27.15a.94.94,0,0,1-.94-.93V19.4a.94.94,0,0,1,1.87,0v6.82A.93.93,0,0,1,53.38,27.15Z"/><path class="cls-1" d="M62.51,27.15a.93.93,0,0,1-.93-.93V19.4a.93.93,0,0,1,1.86,0v6.82A.93.93,0,0,1,62.51,27.15Z"/><path class="cls-1" d="M57.94,10.74a5.26,5.26,0,0,1-5.13-5.37,5.14,5.14,0,1,1,10.26,0A5.26,5.26,0,0,1,57.94,10.74Zm0-8.87a3.39,3.39,0,0,0-3.26,3.5,3.27,3.27,0,1,0,6.53,0A3.4,3.4,0,0,0,57.94,1.87Z"/><path class="cls-1" d="M57.94,48.19a.94.94,0,0,1-.93-.94V31.77a.94.94,0,1,1,1.87,0V47.25A.94.94,0,0,1,57.94,48.19Z"/><path class="cls-1" d="M77.41,48.19h-7.8a.94.94,0,0,1-.93-.94V31.84a2.61,2.61,0,0,1-.79.12.94.94,0,1,1,0-1.87.79.79,0,0,0,.79-.79.94.94,0,0,1,1.87,0v17h5.93v-17a.93.93,0,1,1,1.86,0,.79.79,0,0,0,.8.79h.16a.79.79,0,0,0,.79-.79V20.74a2.48,2.48,0,0,0-2.48-2.47h-8.2a.94.94,0,1,1,0-1.87h8.2A4.35,4.35,0,0,1,82,20.74V29.3A2.67,2.67,0,0,1,79.3,32h-.16a2.63,2.63,0,0,1-.8-.12V47.25A.93.93,0,0,1,77.41,48.19Z"/><path class="cls-1" d="M69.61,30.23a.93.93,0,0,1-.93-.93V23.49a.94.94,0,1,1,1.87,0V29.3A.93.93,0,0,1,69.61,30.23Z"/><path class="cls-1" d="M77.41,30.23a.92.92,0,0,1-.93-.93V23.49a.93.93,0,1,1,1.86,0V29.3A.92.92,0,0,1,77.41,30.23Z"/><path class="cls-1" d="M73.51,15.8A4.62,4.62,0,0,1,69,11.08a4.52,4.52,0,1,1,9,0A4.63,4.63,0,0,1,73.51,15.8Zm0-7.58a2.76,2.76,0,0,0-2.65,2.86,2.66,2.66,0,1,0,5.3,0A2.76,2.76,0,0,0,73.51,8.22Z"/><path class="cls-1" d="M73.51,48.19a.94.94,0,0,1-.93-.94V34a.94.94,0,1,1,1.87,0V47.25A.94.94,0,0,1,73.51,48.19Z"/><path class="cls-1" d="M46.27,48.19H38.48a.94.94,0,0,1-.94-.94V31.84a2.56,2.56,0,0,1-.79.12h-.16a2.66,2.66,0,0,1-2.66-2.66V20.74a4.35,4.35,0,0,1,4.34-4.34h8.21a.94.94,0,0,1,0,1.87H38.27a2.48,2.48,0,0,0-2.47,2.47V29.3a.79.79,0,0,0,.79.79h.16a.79.79,0,0,0,.79-.79.94.94,0,0,1,1.87,0v17h5.93v-17a.94.94,0,0,1,1.87,0,.79.79,0,0,0,.79.79A.94.94,0,0,1,48,32a2.56,2.56,0,0,1-.79-.12V47.25A.94.94,0,0,1,46.27,48.19Z"/><path class="cls-1" d="M46.27,30.23a.93.93,0,0,1-.93-.93V23.49a.94.94,0,1,1,1.87,0V29.3A.93.93,0,0,1,46.27,30.23Z"/><path class="cls-1" d="M38.48,30.23a.93.93,0,0,1-.94-.93V23.49a.94.94,0,1,1,1.87,0V29.3A.93.93,0,0,1,38.48,30.23Z"/><path class="cls-1" d="M42.37,15.8a4.62,4.62,0,0,1-4.51-4.72,4.52,4.52,0,1,1,9,0A4.63,4.63,0,0,1,42.37,15.8Zm0-7.58a2.76,2.76,0,0,0-2.64,2.86,2.65,2.65,0,1,0,5.29,0A2.76,2.76,0,0,0,42.37,8.22Z"/><path class="cls-1" d="M42.37,48.19a.94.94,0,0,1-.93-.94V34a.94.94,0,1,1,1.87,0V47.25A.94.94,0,0,1,42.37,48.19Z"/></svg>