<svg xmlns="http://www.w3.org/2000/svg" viewBox="0 0 210.35 182.17"><defs><style>.cls-1{fill:#332d2f;}.cls-2{fill:#f5f5f5;}.cls-3{fill:none;stroke:#f5f5f5;stroke-miterlimit:10;}</style></defs><g id="Capa_2" data-name="Capa 2"><g id="Capa_1-2" data-name="Capa 1"><polygon class="cls-1" points="157.76 0 52.59 0 0 91.08 52.59 182.16 157.76 182.16 210.35 91.08 157.76 0"/><rect class="cls-2" x="34.7" y="101.4" width="140.35" height="16.5" rx="3.99"/><path class="cls-3" d="M71.43,68.63H42.29a6.93,6.93,0,0,0-6.91,6.91V90.05A6.93,6.93,0,0,0,42.29,97H71.43a6.93,6.93,0,0,0,6.91-6.91V75.54A6.93,6.93,0,0,0,71.43,68.63ZM54.87,91.57,52.41,89.1l6.83-6.83-6.83-6.83L54.87,73l9.3,9.29Z"/><path class="cls-3" d="M119.74,68.63H90.6a6.93,6.93,0,0,0-6.91,6.91V90.05A6.93,6.93,0,0,0,90.6,97h29.14a6.93,6.93,0,0,0,6.91-6.91V75.54A6.93,6.93,0,0,0,119.74,68.63ZM103.19,91.57l-2.47-2.47,6.83-6.83-6.83-6.83L103.19,73l9.29,9.29Z"/><path class="cls-3" d="M168.14,68.63H139a6.93,6.93,0,0,0-6.9,6.91V90.05A6.93,6.93,0,0,0,139,97h29.15a6.93,6.93,0,0,0,6.91-6.91V75.54A6.93,6.93,0,0,0,168.14,68.63ZM151.58,91.57l-2.47-2.47,6.83-6.83-6.83-6.83L151.58,73l9.29,9.29Z"/></g></g></svg>