<svg id="Layer_1" data-name="Layer 1" xmlns="http://www.w3.org/2000/svg" xmlns:xlink="http://www.w3.org/1999/xlink" viewBox="0 0 50.57 46.18"><defs><style>.cls-1{fill:none;}.cls-2{fill:#fff;}.cls-3{clip-path:url(#clip-path);}.cls-4{fill:#e73231;}</style><clipPath id="clip-path"><rect class="cls-1" x="98.56" y="-9.22" width="35.27" height="62.8"/></clipPath></defs><path class="cls-2" d="M45.76,46.18H37a.74.74,0,0,1-.74-.73V27.58a2.73,2.73,0,0,1-1.21.29h-.18a2.68,2.68,0,0,1-2.68-2.68V15.53A4.58,4.58,0,0,1,36.73,11H46a4.58,4.58,0,0,1,4.57,4.58v9.66a2.68,2.68,0,0,1-2.68,2.68h-.18a2.73,2.73,0,0,1-1.21-.29V45.45A.74.74,0,0,1,45.76,46.18ZM37.7,44.72H45V25.19a.74.74,0,0,1,1.47,0,1.21,1.21,0,0,0,1.21,1.21h.18a1.22,1.22,0,0,0,1.22-1.21V15.53A3.11,3.11,0,0,0,46,12.42H36.73a3.11,3.11,0,0,0-3.11,3.11v9.66a1.22,1.22,0,0,0,1.22,1.21H35a1.21,1.21,0,0,0,1.21-1.21.74.74,0,0,1,1.47,0Z"/><path class="cls-2" d="M37,25.92a.74.74,0,0,1-.74-.73V18.62a.74.74,0,0,1,1.47,0v6.57A.73.73,0,0,1,37,25.92Z"/><path class="cls-2" d="M45.76,25.92a.73.73,0,0,1-.73-.73V18.62a.74.74,0,0,1,1.47,0v6.57A.74.74,0,0,1,45.76,25.92Z"/><path class="cls-2" d="M41.37,10.12a4.9,4.9,0,0,1-4.78-5,4.78,4.78,0,1,1,9.55,0A4.9,4.9,0,0,1,41.37,10.12Zm0-8.55a3.43,3.43,0,0,0-3.31,3.54,3.32,3.32,0,1,0,6.62,0A3.44,3.44,0,0,0,41.37,1.57Z"/><path class="cls-2" d="M41.37,46.18a.74.74,0,0,1-.74-.73V30.53a.74.74,0,0,1,1.47,0V45.45A.73.73,0,0,1,41.37,46.18Z"/><path class="cls-2" d="M4.81,21.75A.74.74,0,0,1,4.08,21V18.53a.73.73,0,1,1,1.46,0V21A.73.73,0,0,1,4.81,21.75Z"/><path class="cls-2" d="M13.61,25.82a.73.73,0,0,1-.73-.73V18.53a.73.73,0,1,1,1.46,0v6.56A.72.72,0,0,1,13.61,25.82Z"/><path class="cls-2" d="M9.21,10A4.9,4.9,0,0,1,4.44,5,4.9,4.9,0,0,1,9.21,0,4.91,4.91,0,0,1,14,5,4.91,4.91,0,0,1,9.21,10Zm0-8.56A3.44,3.44,0,0,0,5.9,5,3.44,3.44,0,0,0,9.21,8.55,3.43,3.43,0,0,0,12.52,5,3.44,3.44,0,0,0,9.21,1.46Z"/><path class="cls-2" d="M9.21,46.1a.74.74,0,0,1-.73-.74V30.44a.73.73,0,1,1,1.46,0V45.36A.73.73,0,0,1,9.21,46.1Z"/><path class="cls-2" d="M7.86,25.82H4.81A4.81,4.81,0,0,1,0,21a.73.73,0,0,1,1.46,0,3.35,3.35,0,0,0,3.35,3.35H7.86a1.31,1.31,0,1,0,0-2.61H4.81a.74.74,0,0,1,0-1.47H7.86a2.77,2.77,0,0,1,0,5.54Z"/><path class="cls-2" d="M13.61,46.1H4.81a.74.74,0,0,1-.73-.74V25.09a.73.73,0,0,1,1.46,0V44.63h7.34V25.09a.73.73,0,0,1,1.46,0,1.22,1.22,0,0,0,1.22,1.22h.18A1.22,1.22,0,0,0,17,25.09V15.43a3.11,3.11,0,0,0-3.11-3.11H4.58a3.12,3.12,0,0,0-3.12,3.11V21A.73.73,0,1,1,0,21V15.43a4.59,4.59,0,0,1,4.58-4.58h9.27a4.58,4.58,0,0,1,4.57,4.58v9.66a2.68,2.68,0,0,1-2.68,2.68h-.18a2.64,2.64,0,0,1-1.22-.29V45.36A.73.73,0,0,1,13.61,46.1Z"/><path class="cls-2" d="M17.69,46.1H.73a.74.74,0,0,1,0-1.47h17a.74.74,0,0,1,0,1.47Z"/><path class="cls-2" d="M29.3,24.63H20.41a.73.73,0,1,1,0-1.46h7.28l-1.43-1.65a.72.72,0,0,1,.07-1,.74.74,0,0,1,1,.07l2.49,2.86a.72.72,0,0,1,.12.78A.74.74,0,0,1,29.3,24.63Z"/><path class="cls-2" d="M26.81,27.49a.73.73,0,0,1-.55-1.22l1.43-1.64H20.41a.73.73,0,1,1,0-1.46H29.3a.73.73,0,0,1,.55,1.21l-2.49,2.86A.75.75,0,0,1,26.81,27.49Z"/><g class="cls-3"><polygon class="cls-4" points="86.41 1.93 53.13 22.73 86.41 43.53 86.41 50.46 42.03 22.73 86.41 -5.01 86.41 1.93"/><polygon class="cls-4" points="86.41 1.93 53.13 22.73 86.41 43.53 86.41 50.46 42.03 22.73 86.41 -5.01 86.41 1.93"/></g></svg>