<svg xmlns="http://www.w3.org/2000/svg" viewBox="0 0 118.85 102.93"><defs><style>.cls-1{fill:#353132;}.cls-2{fill:#f6f6f6;}</style></defs><title>icon24</title><g id="Capa_2" data-name="Capa 2"><g id="Capa_1-2" data-name="Capa 1"><polygon class="cls-1" points="89.14 0 29.71 0 0 51.47 29.71 102.93 89.14 102.93 118.85 51.47 89.14 0"/><path class="cls-2" d="M55.2,70.53H40.11a3.45,3.45,0,0,1-3.44-3.44V38.88a3.45,3.45,0,0,1,3.44-3.45H55.2a3.46,3.46,0,0,1,3.45,3.45v5a.82.82,0,0,1-1.64,0v-5a1.81,1.81,0,0,0-1.81-1.81H40.11a1.81,1.81,0,0,0-1.8,1.81V67.09a1.81,1.81,0,0,0,1.8,1.8H55.2A1.81,1.81,0,0,0,57,67.09v-2a.82.82,0,1,1,1.64,0v2a3.45,3.45,0,0,1-3.45,3.44"/><path class="cls-2" d="M53,40.46H42.3a.82.82,0,0,1-.82-.82V36.25a.82.82,0,0,1,.82-.82H53a.82.82,0,0,1,.82.82v3.39a.82.82,0,0,1-.82.82m-9.89-1.64h9.07V37.07H43.12Z"/><path class="cls-2" d="M83.85,70.53H68.76a3.45,3.45,0,0,1-3.44-3.44v-2a.82.82,0,0,1,1.64,0v2a1.8,1.8,0,0,0,1.8,1.8H83.85a1.81,1.81,0,0,0,1.8-1.8V38.88a1.81,1.81,0,0,0-1.8-1.81H68.76A1.8,1.8,0,0,0,67,38.88v5a.82.82,0,0,1-1.64,0v-5a3.45,3.45,0,0,1,3.44-3.45H83.85a3.45,3.45,0,0,1,3.44,3.45V67.09a3.45,3.45,0,0,1-3.44,3.44"/><path class="cls-2" d="M81.66,40.46H71a.82.82,0,0,1-.82-.82V36.25a.82.82,0,0,1,.82-.82H81.66a.82.82,0,0,1,.82.82v3.39a.82.82,0,0,1-.82.82m-9.89-1.64h9.07V37.07H71.77Z"/><path class="cls-2" d="M49.76,52.65H42.05a.82.82,0,0,1,0-1.64h7.71a.82.82,0,1,1,0,1.64"/><path class="cls-2" d="M49.76,57.57H42.05a.82.82,0,0,1,0-1.64h7.71a.82.82,0,1,1,0,1.64"/><path class="cls-2" d="M81.91,52.65H74.2a.82.82,0,1,1,0-1.64h7.71a.82.82,0,1,1,0,1.64"/><path class="cls-2" d="M81.91,57.57H74.2a.82.82,0,0,1,0-1.64h7.71a.82.82,0,1,1,0,1.64"/><path class="cls-2" d="M43.34,53.75a.82.82,0,0,1-.53-.19l-1.31-1.1a.82.82,0,0,1-.29-.63.85.85,0,0,1,.29-.63l1.31-1.09a.82.82,0,1,1,1,1.26l-.55.46.55.47a.82.82,0,0,1-.52,1.45"/><path class="cls-2" d="M80.6,58.67a.8.8,0,0,1-.63-.3.81.81,0,0,1,.1-1.15l.56-.47-.56-.46A.82.82,0,0,1,81.12,55l1.31,1.09a.83.83,0,0,1,.3.63.8.8,0,0,1-.3.63l-1.31,1.1a.8.8,0,0,1-.52.19"/><path class="cls-2" d="M68.69,63.53a.64.64,0,0,1-.64-.64V61a6.07,6.07,0,0,0-12.14,0v1.92a.64.64,0,1,1-1.27,0V61a7.35,7.35,0,0,1,14.69,0v2a.64.64,0,0,1-.64.64"/><path class="cls-2" d="M62,52.91a3.68,3.68,0,1,1,3.68-3.68A3.68,3.68,0,0,1,62,52.91m0-6.08a2.4,2.4,0,1,0,2.4,2.4,2.41,2.41,0,0,0-2.4-2.4"/><path class="cls-2" d="M58.89,63.53a.64.64,0,0,1-.64-.64V60.17a.64.64,0,1,1,1.27,0v2.72a.64.64,0,0,1-.63.64"/><path class="cls-2" d="M65.08,63.53a.64.64,0,0,1-.64-.64V60.17a.64.64,0,0,1,1.28,0v2.72a.64.64,0,0,1-.64.64"/></g></g></svg>