<svg id="Layer_1" data-name="Layer 1" xmlns="http://www.w3.org/2000/svg" viewBox="0 0 120.4 104.27"><defs><style>.cls-1{fill:#332d2f;}.cls-2{fill:#fff;}</style></defs><polygon class="cls-1" points="90.3 0 30.1 0 0 52.13 30.1 104.27 90.3 104.27 120.4 52.13 90.3 0"/><path class="cls-2" d="M44.8,86.2A9.71,9.71,0,0,1,42.73,86a9.74,9.74,0,0,1-7.47-11.55A10.1,10.1,0,0,1,36.14,72a8.65,8.65,0,0,1-2.79-8.36c0-.11,0-.22.09-.33a11,11,0,0,1,2-18.54,9.86,9.86,0,0,1,4.92-15.9,6.23,6.23,0,0,1,0-.74,7.1,7.1,0,0,1,14.2,0l-.18,50.08a.76.76,0,0,1,0,.21.59.59,0,0,1,0,.11A9.74,9.74,0,0,1,44.8,86.2Zm2.61-63.06a5,5,0,0,0-5,5,4.9,4.9,0,0,0,.19,1.28,1.06,1.06,0,0,1-.13.85,1,1,0,0,1-.73.47A7.75,7.75,0,0,0,38,44.34a1,1,0,0,1,.37,1,1.07,1.07,0,0,1-.72.8,8.93,8.93,0,0,0-2.35,15.9,1.06,1.06,0,0,1,.4,1.23l-.07.2a4.18,4.18,0,0,0-.19.6,6.55,6.55,0,0,0,2.7,6.79,1,1,0,0,1,.28,1.44,7.62,7.62,0,1,0,13.81,5.81l.19-50A5,5,0,0,0,47.41,23.14Z"/><path class="cls-2" d="M40.52,47.9a.92.92,0,0,1-.29,0,9.86,9.86,0,0,1,2.71-19.34,9.79,9.79,0,0,1,4.1.89,1.06,1.06,0,0,1-.88,1.92,7.59,7.59,0,0,0-3.22-.7,7.75,7.75,0,0,0-2.13,15.2,1.06,1.06,0,0,1,.72,1.31A1,1,0,0,1,40.52,47.9Z"/><path class="cls-2" d="M40.31,65.72a11,11,0,0,1-7.4-2.85,1.06,1.06,0,1,1,1.41-1.57,9,9,0,0,0,7.36,2.2A1.06,1.06,0,0,1,42,65.59,12,12,0,0,1,40.31,65.72Z"/><path class="cls-2" d="M53.28,76.14a1.05,1.05,0,0,1-1-.91,7.22,7.22,0,0,0-3.79-5.43,1.06,1.06,0,1,1,1-1.85,9.29,9.29,0,0,1,4.86,7,1.06,1.06,0,0,1-.9,1.19Z"/><path class="cls-2" d="M44.7,86.2a9.37,9.37,0,0,1-2-.22A9.72,9.72,0,0,1,39.1,68.57a1.06,1.06,0,0,1,1.23,1.72,7.61,7.61,0,0,0,2.85,13.63,7.17,7.17,0,0,0,1.53.17,1.06,1.06,0,1,1,0,2.11Z"/><path class="cls-2" d="M44.78,58.78a3.8,3.8,0,0,1-3.65-2.69,1.06,1.06,0,1,1,2-.62,1.7,1.7,0,0,0,3.33-.5,1.06,1.06,0,1,1,2.11,0A3.82,3.82,0,0,1,44.78,58.78Z"/><path class="cls-2" d="M46.76,42.59a1.06,1.06,0,0,1-.29-2.07A2.16,2.16,0,0,0,48,38.46,2.19,2.19,0,0,0,47.48,37a1.05,1.05,0,0,1,1.58-1.39,4.23,4.23,0,0,1,1.06,2.81,4.29,4.29,0,0,1-3.06,4.09A1,1,0,0,1,46.76,42.59Z"/><path class="cls-2" d="M75.6,86.2a9.73,9.73,0,0,1-9.49-7.69.43.43,0,0,1,0-.12.55.55,0,0,1,0-.18l-.18-50.08a7.1,7.1,0,0,1,14.2,0,4.68,4.68,0,0,1,0,.74A9.85,9.85,0,0,1,85,44.76a11,11,0,0,1,2,18.55c0,.11.06.22.08.33A8.64,8.64,0,0,1,84.26,72a9.73,9.73,0,0,1-6.6,14A9.55,9.55,0,0,1,75.6,86.2Zm-7.42-8.08a7.62,7.62,0,0,0,14.89-3.25A7.77,7.77,0,0,0,82,72.31a1.05,1.05,0,0,1,.29-1.44A6.55,6.55,0,0,0,85,64.08a6,6,0,0,0-.19-.6l-.08-.2a1.09,1.09,0,0,1,.4-1.23,8.93,8.93,0,0,0-2.34-15.9,1,1,0,0,1-.36-1.81,7.74,7.74,0,0,0-3.77-13.61,1,1,0,0,1-.72-.47,1.06,1.06,0,0,1-.13-.85A4.84,4.84,0,0,0,78,28.13a5,5,0,0,0-10,0Z"/><path class="cls-2" d="M79.88,47.9a1.05,1.05,0,0,1-.29-2.07,7.75,7.75,0,0,0-2.13-15.2,7.56,7.56,0,0,0-3.22.7,1.06,1.06,0,1,1-.88-1.92,9.87,9.87,0,0,1,14,9,9.9,9.9,0,0,1-7.15,9.48A1,1,0,0,1,79.88,47.9Z"/><path class="cls-2" d="M80.09,65.72a11.79,11.79,0,0,1-1.69-.13,1.06,1.06,0,0,1,.32-2.09,9,9,0,0,0,7.35-2.2,1.06,1.06,0,0,1,1.42,1.57A11,11,0,0,1,80.09,65.72Z"/><path class="cls-2" d="M67.11,75.83l-.21,0a1.05,1.05,0,0,1-.82-1.25A9.67,9.67,0,0,1,70.93,68a1.05,1.05,0,0,1,1.43.41A1.06,1.06,0,0,1,72,69.8,7.56,7.56,0,0,0,68.15,75,1.06,1.06,0,0,1,67.11,75.83Z"/><path class="cls-2" d="M77.44,86a1.06,1.06,0,0,1-.22-2.09,7.62,7.62,0,0,0,2.85-13.63,1.06,1.06,0,1,1,1.23-1.72,9.74,9.74,0,0,1,2.49,13.18A9.62,9.62,0,0,1,77.66,86,.83.83,0,0,1,77.44,86Z"/><path class="cls-2" d="M75.62,58.78A3.82,3.82,0,0,1,71.8,55a1.06,1.06,0,0,1,2.12,0,1.7,1.7,0,0,0,3.33.5,1.06,1.06,0,0,1,1.32-.7,1.07,1.07,0,0,1,.7,1.32A3.81,3.81,0,0,1,75.62,58.78Z"/><path class="cls-2" d="M73.64,42.59a1,1,0,0,1-.3,0,4.26,4.26,0,0,1-2-6.9A1.06,1.06,0,0,1,72.92,37a2.19,2.19,0,0,0-.53,1.42,2.15,2.15,0,0,0,1.54,2.06,1.06,1.06,0,0,1-.29,2.07Z"/><path class="cls-2" d="M63,74.38H57.38a1.06,1.06,0,0,1-1.06-1.06V32.11a1.05,1.05,0,0,1,1.06-1.06H63a1.06,1.06,0,0,1,1.06,1.06V73.32A1.07,1.07,0,0,1,63,74.38Zm-4.59-2.12H62V33.16H58.43Z"/><path class="cls-2" d="M63,78.3H57.38a1.05,1.05,0,0,1-1.06-1.06V73.32a1.06,1.06,0,0,1,1.06-1.06H63a1.07,1.07,0,0,1,1.06,1.06v3.92A1.06,1.06,0,0,1,63,78.3Zm-4.59-2.11H62V74.38H58.43Z"/><path class="cls-2" d="M60.2,82.61A3.18,3.18,0,0,1,57,79.43V77.24a1,1,0,0,1,1-1h4.25a1.05,1.05,0,0,1,1.06,1v2.19A3.18,3.18,0,0,1,60.2,82.61ZM59.13,78.3v1.13a1.07,1.07,0,1,0,2.14,0V78.3Z"/><path class="cls-2" d="M63,33.16H57.38a1.06,1.06,0,0,1-.9-.49,1.09,1.09,0,0,1-.06-1l2.82-5.95a1.08,1.08,0,0,1,1-.6,1.05,1.05,0,0,1,.95.6L64,31.65a1.06,1.06,0,0,1-.06,1A1,1,0,0,1,63,33.16Zm-4-2.11h2.3L60.2,28.62Z"/></svg>