<svg id="Layer_1" data-name="Layer 1" xmlns="http://www.w3.org/2000/svg" viewBox="0 0 123.16 106.66"><defs><style>.cls-1{fill:#332d2f;}.cls-2{fill:#fff;}.cls-3{fill:none;stroke:#fff;stroke-miterlimit:10;stroke-width:1.75px;}</style></defs><polygon class="cls-1" points="92.37 0 30.79 0 0 53.33 30.79 106.66 92.37 106.66 123.16 53.33 92.37 0"/><path class="cls-2" d="M61.58,84.36c-9.69,0-17.28-13.63-17.28-31s7.59-31,17.28-31,17.29,13.63,17.29,31S71.27,84.36,61.58,84.36Zm0-58.87c-7.64,0-14.1,12.75-14.1,27.84s6.46,27.84,14.1,27.84,14.1-12.75,14.1-27.84S69.22,25.49,61.58,25.49Z"/><path class="cls-2" d="M61.58,70.62c-17.4,0-31-7.6-31-17.29s13.63-17.28,31-17.28,31,7.59,31,17.28S79,70.62,61.58,70.62Zm0-31.39c-15.09,0-27.84,6.46-27.84,14.1s12.75,14.1,27.84,14.1S89.42,61,89.42,53.33,76.67,39.23,61.58,39.23Z"/><path class="cls-2" d="M61.58,84.36A1.6,1.6,0,0,1,60,82.76V23.9a1.6,1.6,0,1,1,3.19,0V82.76A1.6,1.6,0,0,1,61.58,84.36Z"/><path class="cls-2" d="M91,54.92H32.15a1.59,1.59,0,1,1,0-3.18H91a1.59,1.59,0,1,1,0,3.18Z"/><circle class="cls-3" cx="61.58" cy="53.33" r="31.03"/></svg>