<svg id="Layer_1" data-name="Layer 1" xmlns="http://www.w3.org/2000/svg" viewBox="0 0 48.41 32.86"><defs><style>.cls-1{fill:#414042;}</style></defs><path class="cls-1" d="M26.88,24.36H2.66a2.66,2.66,0,1,1,0-5.31H26.88a2.66,2.66,0,0,1,0,5.31ZM2.66,20.6a1.11,1.11,0,1,0,0,2.21H26.88a1.11,1.11,0,0,0,0-2.21Z"/><path class="cls-1" d="M25.85,27.16H3.68a.78.78,0,0,1-.78-.78v-2.8a.77.77,0,0,1,.78-.77H25.85a.77.77,0,0,1,.78.77v2.8A.78.78,0,0,1,25.85,27.16ZM4.46,25.6H25.08V24.36H4.46Z"/><path class="cls-1" d="M9.66,32.86h-3a.78.78,0,0,1-.78-.78v-5.7a.78.78,0,0,1,.78-.78H9.66a.78.78,0,0,1,.78.78v5.7A.78.78,0,0,1,9.66,32.86ZM7.38,31.3H8.89V27.16H7.38Z"/><path class="cls-1" d="M22.93,32.86H19.87a.78.78,0,0,1-.78-.78v-5.7a.78.78,0,0,1,.78-.78h3.06a.77.77,0,0,1,.77.78v5.7A.77.77,0,0,1,22.93,32.86ZM20.65,31.3h1.5V27.16h-1.5Z"/><path class="cls-1" d="M10.57,20.6a.77.77,0,0,1-.78-.77V18a.78.78,0,0,1,1.56,0v1.85A.77.77,0,0,1,10.57,20.6Z"/><path class="cls-1" d="M19,20.6a.77.77,0,0,1-.78-.77V18a.78.78,0,0,1,1.56,0v1.85A.77.77,0,0,1,19,20.6Z"/><path class="cls-1" d="M14.77,9.71a4.76,4.76,0,0,1-4.64-4.86A4.76,4.76,0,0,1,14.77,0,4.75,4.75,0,0,1,19.4,4.85,4.76,4.76,0,0,1,14.77,9.71Zm0-8.16a3.2,3.2,0,0,0-3.08,3.3,3.2,3.2,0,0,0,3.08,3.3,3.2,3.2,0,0,0,3.07-3.3A3.2,3.2,0,0,0,14.77,1.55Z"/><path class="cls-1" d="M22.85,20.6H6.68a.76.76,0,0,1-.77-.77V15a4.44,4.44,0,0,1,4.44-4.44h8.83A4.45,4.45,0,0,1,23.63,15v4.8A.77.77,0,0,1,22.85,20.6ZM7.46,19.05H22.07V15a2.89,2.89,0,0,0-2.89-2.89H10.35A2.9,2.9,0,0,0,7.46,15Z"/><path class="cls-1" d="M46,25.24H30.52a.78.78,0,0,1-.78-.78.77.77,0,0,1,.78-.77H46a.91.91,0,0,0,0-1.82H31.33a.77.77,0,0,1-.78-.77.78.78,0,0,1,.78-.78H46a2.46,2.46,0,0,1,0,4.92Z"/><path class="cls-1" d="M45,27.75H27.78a.78.78,0,0,1,0-1.56H44.25v-1H30.52a.78.78,0,0,1-.78-.78.77.77,0,0,1,.78-.77H45a.77.77,0,0,1,.78.77V27A.78.78,0,0,1,45,27.75Z"/><path class="cls-1" d="M30.52,32.86H27.78a.78.78,0,0,1-.78-.78V27a.78.78,0,0,1,.78-.78h2.74a.77.77,0,0,1,.77.78v5.11A.77.77,0,0,1,30.52,32.86Zm-2-1.56h1.18V27.75H28.56Z"/><path class="cls-1" d="M42.41,32.86H39.67a.78.78,0,0,1-.78-.78V27a.78.78,0,0,1,.78-.78h2.74a.77.77,0,0,1,.77.78v5.11A.77.77,0,0,1,42.41,32.86Zm-2-1.56h1.19V27.75H40.44Z"/><path class="cls-1" d="M31.33,21.87a.77.77,0,0,1-.78-.77V19.45a.78.78,0,1,1,1.56,0V21.1A.77.77,0,0,1,31.33,21.87Z"/><path class="cls-1" d="M38.85,21.87a.77.77,0,0,1-.78-.77V19.45a.78.78,0,1,1,1.56,0V21.1A.77.77,0,0,1,38.85,21.87Z"/><path class="cls-1" d="M35.09,12.11a4.34,4.34,0,0,1-4.23-4.43,4.23,4.23,0,1,1,8.46,0A4.34,4.34,0,0,1,35.09,12.11Zm0-7.31a2.79,2.79,0,0,0-2.68,2.88,2.69,2.69,0,1,0,5.36,0A2.79,2.79,0,0,0,35.09,4.8Z"/><path class="cls-1" d="M42.34,21.87h-11a.77.77,0,0,1-.78-.77.78.78,0,0,1,.78-.78H41.56V16.8a2.52,2.52,0,0,0-2.51-2.51H31.13a2.52,2.52,0,0,0-2.51,2.51.77.77,0,0,1-.77.78.78.78,0,0,1-.78-.78,4.06,4.06,0,0,1,4.06-4.06h7.92a4.06,4.06,0,0,1,4.06,4.06v4.3A.76.76,0,0,1,42.34,21.87Z"/></svg>