<svg id="Layer_1" data-name="Layer 1" xmlns="http://www.w3.org/2000/svg" viewBox="0 0 120.4 104.27"><defs><style>.cls-1{fill:#332d2f;}.cls-2{fill:#fff;}</style></defs><polygon class="cls-1" points="90.3 0 30.1 0 0 52.13 30.1 104.27 90.3 104.27 120.4 52.13 90.3 0"/><path class="cls-2" d="M74.76,86.64H62.71a1,1,0,0,1-1-1V61.16a3.61,3.61,0,0,1-1.67.4H59.8a3.67,3.67,0,0,1-3.67-3.67V44.67a6.27,6.27,0,0,1,6.26-6.27H75.07a6.27,6.27,0,0,1,6.27,6.27V57.89a3.67,3.67,0,0,1-3.67,3.67h-.25a3.6,3.6,0,0,1-1.66-.4V85.63A1,1,0,0,1,74.76,86.64Zm-11.05-2h10V57.89a1,1,0,0,1,2,0,1.67,1.67,0,0,0,1.66,1.67h.25a1.67,1.67,0,0,0,1.67-1.67V44.67a4.27,4.27,0,0,0-4.27-4.26H62.39a4.26,4.26,0,0,0-4.26,4.26V57.89a1.67,1.67,0,0,0,1.67,1.67H60a1.67,1.67,0,0,0,1.67-1.67,1,1,0,0,1,2,0Z"/><path class="cls-2" d="M62.71,58.89a1,1,0,0,1-1-1v-9a1,1,0,1,1,2,0v9A1,1,0,0,1,62.71,58.89Z"/><path class="cls-2" d="M74.76,58.89a1,1,0,0,1-1-1v-9a1,1,0,1,1,2,0v9A1,1,0,0,1,74.76,58.89Z"/><path class="cls-2" d="M68.73,37.26a6.86,6.86,0,1,1,6.54-6.86A6.71,6.71,0,0,1,68.73,37.26Zm0-11.71a4.86,4.86,0,1,0,4.53,4.85A4.7,4.7,0,0,0,68.73,25.55Z"/><path class="cls-2" d="M68.73,86.64a1,1,0,0,1-1-1V65.21a1,1,0,0,1,2,0V85.63A1,1,0,0,1,68.73,86.64Z"/><path class="cls-2" d="M43.7,85.06a8.79,8.79,0,0,1,0-17.58,7.88,7.88,0,0,1,1.2.09,1,1,0,1,1-.27,2,7,7,0,0,0-.93-.06,6.79,6.79,0,1,0,6.79,6.78A6.68,6.68,0,0,0,50,73.62a1,1,0,0,1,1.85-.78,8.8,8.8,0,0,1-8.1,12.22Z"/><path class="cls-2" d="M43.6,80.14a1,1,0,0,1-.92-.61l-4-9.45a1,1,0,0,1,.53-1.32,1,1,0,0,1,1.31.53l3,7c1.09-2.86,3.31-7.35,7.14-9.57a1,1,0,0,1,1,1.74c-5,2.92-7,10.84-7,10.92a1,1,0,0,1-.9.77Z"/><path class="cls-2" d="M43.7,64.76a8.79,8.79,0,0,1,0-17.58,9.42,9.42,0,0,1,1.2.08,1,1,0,1,1-.27,2,7,7,0,0,0-.93-.06A6.78,6.78,0,1,0,50,53.31a1,1,0,0,1,1.85-.78,8.81,8.81,0,0,1-8.1,12.23Z"/><path class="cls-2" d="M43.6,59.83a1,1,0,0,1-.92-.6l-4-9.46A1,1,0,0,1,40.47,49l3,7c1.09-2.87,3.31-7.35,7.14-9.57a1,1,0,1,1,1,1.73c-5,2.92-7,10.85-7,10.93a1,1,0,0,1-.89.76Z"/><path class="cls-2" d="M43.7,44.45a8.79,8.79,0,1,1,0-17.58,9.42,9.42,0,0,1,1.2.08,1,1,0,0,1-.27,2,7,7,0,0,0-.93-.06,6.79,6.79,0,1,0,6.79,6.78A6.68,6.68,0,0,0,50,33a1,1,0,0,1,1.85-.78,8.8,8.8,0,0,1-8.1,12.22Z"/><path class="cls-2" d="M43.6,39.53a1,1,0,0,1-.92-.61l-4-9.45a1,1,0,0,1,.53-1.32,1,1,0,0,1,1.31.53l3,7c1.09-2.87,3.31-7.35,7.14-9.57a1,1,0,0,1,1,1.74c-5,2.92-7,10.84-7,10.92a1,1,0,0,1-.9.76Z"/></svg>