<svg xmlns="http://www.w3.org/2000/svg" viewBox="0 0 118.85 102.93"><defs><style>.cls-1{fill:#353132;}.cls-2{fill:#f6f6f6;}</style></defs><title>Recurso 23</title><g id="Capa_2" data-name="Capa 2"><g id="Capa_1-2" data-name="Capa 1"><polygon class="cls-1" points="89.14 0 29.71 0 0 51.47 29.71 102.93 89.14 102.93 118.85 51.47 89.14 0"/><path class="cls-2" d="M59.2,29.64a1.55,1.55,0,1,1,1.55-1.55,1.56,1.56,0,0,1-1.55,1.55m0-2.17a.62.62,0,0,0-.62.62.62.62,0,0,0,1.23,0,.62.62,0,0,0-.61-.62"/><path class="cls-2" d="M59.2,29.79a1.71,1.71,0,1,1,1.7-1.7,1.71,1.71,0,0,1-1.7,1.7m0-3.1a1.4,1.4,0,1,0,0,2.79,1.4,1.4,0,0,0,0-2.79m0,2.17a.77.77,0,1,1,0-1.54.77.77,0,0,1,0,1.54m0-1.23a.46.46,0,0,0-.47.46.47.47,0,0,0,.93,0,.46.46,0,0,0-.46-.46"/><path class="cls-2" d="M61,33.46H57.44A.46.46,0,0,1,57,33V31.78a1.67,1.67,0,0,1,1.67-1.67h1.09a1.68,1.68,0,0,1,1.68,1.67V33a.47.47,0,0,1-.47.47m-3-.93h2.57v-.75a.74.74,0,0,0-.74-.74H58.65a.74.74,0,0,0-.74.74Z"/><path class="cls-2" d="M61,33.62H57.44a.63.63,0,0,1-.62-.63V31.78A1.83,1.83,0,0,1,58.65,30h1.09a1.83,1.83,0,0,1,1.83,1.83V33a.63.63,0,0,1-.62.63m-2.3-3.36a1.52,1.52,0,0,0-1.52,1.52V33a.31.31,0,0,0,.31.32H61a.31.31,0,0,0,.31-.32V31.78a1.52,1.52,0,0,0-1.52-1.52Zm2,2.42H57.76v-.9a.89.89,0,0,1,.89-.89h1.09a.9.9,0,0,1,.9.89Zm-2.58-.31h2.27v-.59a.59.59,0,0,0-.59-.58H58.65a.59.59,0,0,0-.59.58Z"/><path class="cls-2" d="M59.2,50.81a2.65,2.65,0,1,1,2.65-2.64,2.65,2.65,0,0,1-2.65,2.64m0-4.36a1.72,1.72,0,1,0,1.71,1.72,1.72,1.72,0,0,0-1.71-1.72"/><path class="cls-2" d="M59.2,51a2.81,2.81,0,1,1,2.8-2.8A2.81,2.81,0,0,1,59.2,51m0-5.3a2.5,2.5,0,1,0,2.5,2.5,2.5,2.5,0,0,0-2.5-2.5m0,4.36a1.87,1.87,0,1,1,1.87-1.86A1.87,1.87,0,0,1,59.2,50m0-3.43a1.56,1.56,0,1,0,1.56,1.57A1.57,1.57,0,0,0,59.2,46.6"/><path class="cls-2" d="M62.73,57.28H55.66a.47.47,0,0,1-.47-.46V54.37a2.91,2.91,0,0,1,2.91-2.9h2.19a2.91,2.91,0,0,1,2.91,2.9v2.45a.47.47,0,0,1-.47.46m-6.6-.93h6.14v-2a2,2,0,0,0-2-2H58.1a2,2,0,0,0-2,2Z"/><path class="cls-2" d="M62.73,57.44H55.66a.62.62,0,0,1-.62-.62V54.37a3.07,3.07,0,0,1,3.06-3.06h2.19a3.07,3.07,0,0,1,3.06,3.06v2.45a.62.62,0,0,1-.62.62M58.1,51.62a2.75,2.75,0,0,0-2.75,2.75v2.45a.31.31,0,0,0,.31.31h7.07a.31.31,0,0,0,.32-.31V54.37a2.76,2.76,0,0,0-2.76-2.75Zm4.32,4.88H56V54.37a2.13,2.13,0,0,1,2.13-2.12h2.19a2.13,2.13,0,0,1,2.13,2.12Zm-6.14-.3h5.83V54.37a1.83,1.83,0,0,0-1.82-1.82H58.1a1.83,1.83,0,0,0-1.82,1.82Z"/><path class="cls-2" d="M59.2,62.91a.53.53,0,0,1-.24-.06L49.34,57.3c-.14-.08-.23-.23-.1.28V46.48c-.13-.85,0-1,.1-1.09l4.81-2.77L59,39.84a.49.49,0,0,1,.47,0l4.81,2.78,4.81,2.77a.49.49,0,0,1,.23.41V56.9a.46.46,0,0,1-.23.4l-9.62,5.55a.46.46,0,0,1-.23.06M50,56.63l9.16,5.28,9.15-5.28V46.07l-4.58-2.64L59.2,40.79,50,46.07Z"/><path class="cls-2" d="M59.2,63.22a.76.76,0,0,1-.39-.1L49.5,57.75a.33.33,0,0,1-.22.14.32.32,0,0,1-.34-.23c-.06-.26-.12-.47,0-.62V46.48c-.11-.72-.11-1.14.26-1.35l9.62-5.56a.81.81,0,0,1,.77,0l9.62,5.56a.77.77,0,0,1,.39.67V56.9a.77.77,0,0,1-.39.67l-9.62,5.55a.72.72,0,0,1-.38.1m-9.65-6.16,9.57,5.53a.18.18,0,0,0,.16,0L68.89,57A.16.16,0,0,0,69,56.9V45.8a.16.16,0,0,0-.08-.14l-9.62-5.55a.14.14,0,0,0-.15,0L49.5,45.66s0,.14,0,.77Zm9.65,5.16a.42.42,0,0,1-.16,0L49.89,56.9a.32.32,0,0,1-.16-.27V46.07a.32.32,0,0,1,.16-.27L59,40.52a.29.29,0,0,1,.31,0L68.5,45.8a.32.32,0,0,1,.16.27V56.63a.32.32,0,0,1-.16.27l-9.15,5.28a.42.42,0,0,1-.15,0m-8.85-5.77,8.85,5.1L68,56.45V46.25L59.2,41.14l-8.85,5.11Z"/><path class="cls-2" d="M59.2,40.71a.47.47,0,0,1-.47-.46V35.38a.47.47,0,1,1,.93,0v4.87a.47.47,0,0,1-.46.46"/><path class="cls-2" d="M59.2,40.87a.63.63,0,0,1-.63-.62V35.37a.63.63,0,0,1,1.25,0v4.88a.62.62,0,0,1-.62.62m0-5.81a.31.31,0,0,0-.32.31v4.88a.32.32,0,0,0,.63,0V35.37a.31.31,0,0,0-.31-.31"/><path class="cls-2" d="M68.92,46.32a.48.48,0,0,1-.41-.23.47.47,0,0,1,.17-.64L72.9,43a.47.47,0,1,1,.47.81l-4.22,2.43a.46.46,0,0,1-.23.06"/><path class="cls-2" d="M68.92,46.48a.63.63,0,0,1-.54-.31.62.62,0,0,1,.23-.85l4.22-2.44a.63.63,0,0,1,.85.23.64.64,0,0,1,.06.47.62.62,0,0,1-.29.38l-4.22,2.43a.59.59,0,0,1-.31.09m4.22-3.37a.29.29,0,0,0-.16,0l-4.22,2.43a.32.32,0,0,0,.31.55l4.22-2.44a.29.29,0,0,0,.15-.19.31.31,0,0,0,0-.23.33.33,0,0,0-.27-.16"/><path class="cls-2" d="M73.14,60a.53.53,0,0,1-.24-.06l-4.22-2.43a.47.47,0,0,1,.47-.81l4.22,2.43a.47.47,0,0,1,.17.64.45.45,0,0,1-.4.23"/><path class="cls-2" d="M73.14,60.13a.65.65,0,0,1-.31-.08l-4.22-2.44a.62.62,0,1,1,.62-1.07L73.45,59a.66.66,0,0,1,.29.38.64.64,0,0,1-.06.47.63.63,0,0,1-.54.31m-4.22-3.37a.3.3,0,0,0-.27.16.31.31,0,0,0,.11.43L73,59.78a.32.32,0,0,0,.43-.12.31.31,0,0,0,0-.23.29.29,0,0,0-.15-.19L69.07,56.8a.28.28,0,0,0-.15,0"/><path class="cls-2" d="M59.2,68a.47.47,0,0,1-.47-.47V62.68a.47.47,0,0,1,.93,0v4.87a.47.47,0,0,1-.46.47"/><path class="cls-2" d="M59.2,68.17a.63.63,0,0,1-.63-.62V62.68a.63.63,0,0,1,1.25,0v4.87a.62.62,0,0,1-.62.62m0-5.8a.31.31,0,0,0-.32.31v4.87a.32.32,0,0,0,.63,0V62.68a.31.31,0,0,0-.31-.31"/><path class="cls-2" d="M45.25,60a.45.45,0,0,1-.4-.23A.47.47,0,0,1,45,59.1l4.22-2.43a.47.47,0,1,1,.47.81l-4.22,2.43a.53.53,0,0,1-.24.06"/><path class="cls-2" d="M45.25,60.13a.63.63,0,0,1-.54-.31.62.62,0,0,1,.23-.85l4.22-2.43a.62.62,0,0,1,.48-.07.61.61,0,0,1,.37.3.57.57,0,0,1,.06.46.59.59,0,0,1-.29.38l-4.22,2.44a.65.65,0,0,1-.31.08m4.22-3.37a.42.42,0,0,0-.15,0L45.1,59.24a.29.29,0,0,0-.15.19.31.31,0,0,0,0,.23.32.32,0,0,0,.43.12l4.22-2.43a.4.4,0,0,0,.15-.19.33.33,0,0,0,0-.24.3.3,0,0,0-.18-.15h-.09"/><path class="cls-2" d="M49.47,46.32a.46.46,0,0,1-.23-.06L45,43.82a.47.47,0,0,1,.47-.81l4.22,2.44a.47.47,0,0,1,.17.64.48.48,0,0,1-.41.23"/><path class="cls-2" d="M49.47,46.48a.59.59,0,0,1-.31-.09L44.94,44a.64.64,0,0,1-.23-.85.61.61,0,0,1,.38-.29.59.59,0,0,1,.47.06l4.22,2.44a.57.57,0,0,1,.29.37.62.62,0,0,1-.06.48.63.63,0,0,1-.54.31M45.25,43.1l-.08,0a.3.3,0,0,0-.19.14.32.32,0,0,0,.12.43l4.22,2.44a.31.31,0,0,0,.42-.12.29.29,0,0,0,0-.24.4.4,0,0,0-.15-.19l-4.22-2.43a.3.3,0,0,0-.16,0"/><path class="cls-2" d="M59.2,35.84A5.84,5.84,0,1,1,65,30a5.85,5.85,0,0,1-5.84,5.84m0-10.75A4.91,4.91,0,1,0,64.11,30a4.92,4.92,0,0,0-4.91-4.91"/><path class="cls-2" d="M59.2,36a6,6,0,1,1,6-6,6,6,0,0,1-6,6m0-11.69A5.69,5.69,0,1,0,64.89,30a5.7,5.7,0,0,0-5.69-5.69m0,10.75A5.06,5.06,0,1,1,64.26,30a5.07,5.07,0,0,1-5.06,5.06m0-9.81A4.75,4.75,0,1,0,64,30a4.76,4.76,0,0,0-4.75-4.75"/><path class="cls-2" d="M77.8,46.58a5.89,5.89,0,0,1-5.07-2.92,5.86,5.86,0,0,1,2.14-8,5.86,5.86,0,0,1,8,2.14,5.85,5.85,0,0,1-5.06,8.77m0-10.76a4.92,4.92,0,0,0-2.45.66,4.91,4.91,0,0,0-1.8,6.71,5,5,0,0,0,4.26,2.45A4.89,4.89,0,0,0,80.25,45a4.9,4.9,0,0,0,1.8-6.7,4.92,4.92,0,0,0-4.26-2.46"/><path class="cls-2" d="M77.8,46.73a6,6,0,0,1-3-11.19,5.94,5.94,0,0,1,3-.81,6,6,0,0,1,5.21,3,6,6,0,0,1-2.2,8.2,6.07,6.07,0,0,1-3,.8m0-11.69A5.7,5.7,0,0,0,75,35.8a5.7,5.7,0,0,0-2.08,7.78,5.71,5.71,0,0,0,4.93,2.84,5.69,5.69,0,0,0,4.93-8.53A5.72,5.72,0,0,0,77.79,35m0,10.76a5.09,5.09,0,0,1-4.39-2.53,5.07,5.07,0,0,1,1.85-6.93,5.1,5.1,0,0,1,6.93,1.86,5.07,5.07,0,0,1-4.39,7.6m0-9.83a4.81,4.81,0,0,0-2.37.64A4.75,4.75,0,1,0,77.79,36"/><path class="cls-2" d="M77.8,68a5.89,5.89,0,0,1-2.93-.78,5.86,5.86,0,0,1-2.14-8,5.89,5.89,0,0,1,5.07-2.92,5.85,5.85,0,0,1,5.06,8.77A5.86,5.86,0,0,1,77.8,68m0-10.75a4.91,4.91,0,0,0-4.75,6.18,4.87,4.87,0,0,0,2.29,3,5,5,0,0,0,2.46.66A4.91,4.91,0,0,0,80.25,58a4.79,4.79,0,0,0-2.45-.66"/><path class="cls-2" d="M77.79,68.19a6,6,0,0,1-5.19-9,6,6,0,0,1,11,1.44A6,6,0,0,1,83,65.2a6,6,0,0,1-5.21,3m0-11.68a5.71,5.71,0,0,0-4.93,2.84A5.68,5.68,0,0,0,75,67.12,5.68,5.68,0,0,0,82.73,65a5.69,5.69,0,0,0-4.93-8.53m0,10.75a5.06,5.06,0,0,1-4.38-7.6,5.07,5.07,0,1,1,4.38,7.6m0-9.82a4.76,4.76,0,0,0-4.12,2.38A4.76,4.76,0,0,0,77.79,67a4.78,4.78,0,0,0,4.13-2.38,4.76,4.76,0,0,0-1.74-6.49,4.77,4.77,0,0,0-2.38-.64"/><path class="cls-2" d="M59.2,78.77A5.85,5.85,0,1,1,65,72.93a5.85,5.85,0,0,1-5.84,5.84M59.2,68a4.91,4.91,0,1,0,4.91,4.91A4.92,4.92,0,0,0,59.2,68"/><path class="cls-2" d="M59.2,78.93a6,6,0,1,1,6-6,6,6,0,0,1-6,6m0-11.69a5.69,5.69,0,1,0,5.69,5.69,5.7,5.7,0,0,0-5.69-5.69M59.2,78a5.07,5.07,0,1,1,5.06-5.06A5.07,5.07,0,0,1,59.2,78m0-9.82A4.76,4.76,0,1,0,64,72.93a4.76,4.76,0,0,0-4.75-4.76"/><path class="cls-2" d="M40.6,68a5.87,5.87,0,0,1-5.07-2.92,5.85,5.85,0,0,1,5.06-8.77,5.84,5.84,0,0,1,5.65,7.36,5.79,5.79,0,0,1-2.72,3.55A5.88,5.88,0,0,1,40.6,68m0-10.75a4.79,4.79,0,0,0-2.45.66,4.9,4.9,0,0,0-1.8,6.7,4.91,4.91,0,0,0,6.71,1.8,4.91,4.91,0,0,0,1.8-6.71,5,5,0,0,0-4.26-2.45"/><path class="cls-2" d="M40.6,68.19a6,6,0,0,1-5.2-3A6,6,0,0,1,37.59,57a6,6,0,0,1,8.2,2.2,6,6,0,0,1-5.19,9m0-11.68A5.69,5.69,0,0,0,35.66,65a5.68,5.68,0,0,0,7.78,2.08,5.68,5.68,0,0,0,2.08-7.77,5.71,5.71,0,0,0-4.93-2.84m0,10.75a5.08,5.08,0,0,1-4.39-2.53,5.06,5.06,0,0,1,1.85-6.92A5.07,5.07,0,0,1,45,59.66a5.06,5.06,0,0,1-4.38,7.6m0-9.82a4.76,4.76,0,0,0-4.12,7.13A4.78,4.78,0,0,0,40.6,67a4.76,4.76,0,0,0,0-9.51"/><path class="cls-2" d="M40.59,46.58a5.85,5.85,0,0,1-5.06-8.77,5.85,5.85,0,1,1,5.06,8.77m0-10.76a4.92,4.92,0,0,0-4.26,2.46,4.9,4.9,0,0,0,1.8,6.7,4.89,4.89,0,0,0,2.45.66,4.91,4.91,0,0,0,0-9.82"/><path class="cls-2" d="M40.59,46.73a6.07,6.07,0,0,1-3-.8,6,6,0,0,1-2.79-3.65,5.9,5.9,0,0,1,.6-4.55,6,6,0,0,1,5.2-3,5.94,5.94,0,0,1,3,.81,6,6,0,0,1-3,11.19M40.6,35a5.72,5.72,0,0,0-4.94,2.85,5.69,5.69,0,0,0,2.08,7.77A5.69,5.69,0,1,0,40.6,35m0,10.76a5.1,5.1,0,0,1-2.53-.68A5.08,5.08,0,0,1,36.2,38.2a5.07,5.07,0,1,1,4.39,7.6m0-9.82a4.78,4.78,0,0,0-4.13,2.38,4.76,4.76,0,0,0,1.74,6.49A4.76,4.76,0,1,0,40.6,36"/><path class="cls-2" d="M77.8,40.37a1.55,1.55,0,1,1,1.55-1.55,1.55,1.55,0,0,1-1.55,1.55m0-2.16a.61.61,0,1,0,0,1.22.61.61,0,0,0,0-1.22"/><path class="cls-2" d="M77.8,40.52a1.7,1.7,0,1,1,1.7-1.7,1.71,1.71,0,0,1-1.7,1.7m0-3.09a1.39,1.39,0,1,0,1.39,1.39,1.4,1.4,0,0,0-1.39-1.39m0,2.16a.77.77,0,1,1,.77-.77.77.77,0,0,1-.77.77m0-1.23a.46.46,0,1,0,0,.92.46.46,0,1,0,0-.92"/><path class="cls-2" d="M79.55,44.2h-3.5a.47.47,0,0,1-.47-.47V42.51a1.68,1.68,0,0,1,1.68-1.67h1.08A1.68,1.68,0,0,1,80,42.51v1.22a.47.47,0,0,1-.47.47m-3-.94h2.57v-.75a.74.74,0,0,0-.74-.73H77.26a.74.74,0,0,0-.75.73Z"/><path class="cls-2" d="M79.55,44.35H76a.62.62,0,0,1-.62-.62V42.51a1.84,1.84,0,0,1,1.84-1.82h1.08a1.83,1.83,0,0,1,1.83,1.82v1.22a.62.62,0,0,1-.62.62M77.26,41a1.53,1.53,0,0,0-1.53,1.52v1.22A.31.31,0,0,0,76,44h3.51a.31.31,0,0,0,.31-.31V42.51A1.53,1.53,0,0,0,78.34,41Zm2,2.42H76.36v-.9a.89.89,0,0,1,.9-.89h1.08a.9.9,0,0,1,.9.89Zm-2.57-.3h2.26v-.6a.59.59,0,0,0-.59-.58H77.26a.58.58,0,0,0-.59.58Z"/><path class="cls-2" d="M40.59,61.84a1.56,1.56,0,1,1,1.55-1.55,1.56,1.56,0,0,1-1.55,1.55m0-2.17a.62.62,0,0,0,0,1.23.62.62,0,1,0,0-1.23"/><path class="cls-2" d="M40.59,62a1.71,1.71,0,0,1,0-3.41,1.71,1.71,0,1,1,0,3.41m0-3.1a1.4,1.4,0,1,0,1.4,1.4,1.4,1.4,0,0,0-1.4-1.4m0,2.17a.77.77,0,1,1,0-1.54.77.77,0,1,1,0,1.54m0-1.24a.47.47,0,1,0,.47.47.47.47,0,0,0-.47-.47"/><path class="cls-2" d="M42.35,65.66H38.84a.47.47,0,0,1-.47-.47V64a1.69,1.69,0,0,1,1.68-1.68h1.08A1.68,1.68,0,0,1,42.81,64v1.21a.47.47,0,0,1-.46.47m-3-.94h2.57V64a.75.75,0,0,0-.75-.74H40.05a.74.74,0,0,0-.74.74Z"/><path class="cls-2" d="M42.35,65.81H38.84a.62.62,0,0,1-.62-.62V64a1.83,1.83,0,0,1,1.83-1.83h1.09A1.83,1.83,0,0,1,43,64v1.21a.62.62,0,0,1-.62.62m-2.3-3.35A1.52,1.52,0,0,0,38.53,64v1.21a.31.31,0,0,0,.31.31h3.51a.31.31,0,0,0,.31-.31V64a1.52,1.52,0,0,0-1.52-1.52Zm2,2.42H39.15V64a.91.91,0,0,1,.9-.9h1.09A.9.9,0,0,1,42,64Zm-2.57-.31h2.26V64a.59.59,0,0,0-.58-.59H40.05a.6.6,0,0,0-.59.59Z"/><path class="cls-2" d="M77.8,61.84a1.56,1.56,0,1,1,1.55-1.55,1.55,1.55,0,0,1-1.55,1.55m0-2.17a.62.62,0,1,0,0,1.23.62.62,0,0,0,0-1.23"/><path class="cls-2" d="M77.8,62a1.71,1.71,0,1,1,1.7-1.7A1.71,1.71,0,0,1,77.8,62m0-3.1a1.4,1.4,0,1,0,0,2.79,1.4,1.4,0,0,0,0-2.79m0,2.17a.77.77,0,1,1,.77-.77.77.77,0,0,1-.77.77m0-1.24a.47.47,0,1,0,.46.47.47.47,0,0,0-.46-.47"/><path class="cls-2" d="M79.55,65.66h-3.5a.47.47,0,0,1-.47-.47V64a1.68,1.68,0,0,1,1.68-1.68h1.08A1.68,1.68,0,0,1,80,64v1.21a.47.47,0,0,1-.47.47m-3-.94h2.57V64a.74.74,0,0,0-.74-.74H77.26a.75.75,0,0,0-.75.74Z"/><path class="cls-2" d="M79.55,65.81H76a.62.62,0,0,1-.62-.62V64a1.84,1.84,0,0,1,1.84-1.83h1.08A1.83,1.83,0,0,1,80.17,64v1.21a.62.62,0,0,1-.62.62m-2.29-3.35A1.53,1.53,0,0,0,75.73,64v1.21a.31.31,0,0,0,.31.31h3.51a.31.31,0,0,0,.31-.31V64a1.52,1.52,0,0,0-1.52-1.52Zm2,2.42H76.36V64a.9.9,0,0,1,.9-.9h1.08a.91.91,0,0,1,.9.9Zm-2.57-.31h2.26V64a.59.59,0,0,0-.59-.59H77.26a.59.59,0,0,0-.59.59Z"/><path class="cls-2" d="M59.2,72.57A1.55,1.55,0,1,1,60.75,71a1.56,1.56,0,0,1-1.55,1.55m0-2.17a.62.62,0,0,0-.62.62.62.62,0,0,0,1.23,0,.62.62,0,0,0-.61-.62"/><path class="cls-2" d="M59.2,72.72A1.71,1.71,0,1,1,60.9,71a1.71,1.71,0,0,1-1.7,1.7m0-3.1a1.4,1.4,0,1,0,0,2.79,1.4,1.4,0,0,0,0-2.79m0,2.16A.77.77,0,1,1,60,71a.77.77,0,0,1-.77.76m0-1.22a.46.46,0,0,0-.47.46.47.47,0,0,0,.93,0,.46.46,0,0,0-.46-.46"/><path class="cls-2" d="M61,76.39H57.44a.46.46,0,0,1-.46-.46V74.71A1.67,1.67,0,0,1,58.65,73h1.09a1.67,1.67,0,0,1,1.67,1.67v1.22a.47.47,0,0,1-.46.46m-3-.93h2.57v-.75a.74.74,0,0,0-.74-.74H58.65a.74.74,0,0,0-.74.74Z"/><path class="cls-2" d="M61,76.55H57.44a.62.62,0,0,1-.62-.62V74.71a1.83,1.83,0,0,1,1.83-1.83h1.09a1.83,1.83,0,0,1,1.83,1.83v1.22a.62.62,0,0,1-.62.62m-2.3-3.36a1.52,1.52,0,0,0-1.52,1.52v1.22a.31.31,0,0,0,.31.31H61a.31.31,0,0,0,.31-.31V74.71a1.52,1.52,0,0,0-1.52-1.52Zm2,2.42H57.76v-.9a.89.89,0,0,1,.89-.89h1.09a.89.89,0,0,1,.89.89Zm-2.57-.31h2.27v-.59a.59.59,0,0,0-.59-.58H58.65a.59.59,0,0,0-.59.58Z"/><path class="cls-2" d="M40.59,40.37a1.55,1.55,0,1,1,1.55-1.55,1.56,1.56,0,0,1-1.55,1.55m0-2.16a.61.61,0,1,0,0,1.22.61.61,0,1,0,0-1.22"/><path class="cls-2" d="M40.59,40.52a1.7,1.7,0,1,1,1.71-1.7,1.7,1.7,0,0,1-1.71,1.7m0-3.09A1.39,1.39,0,1,0,42,38.82a1.39,1.39,0,0,0-1.4-1.39m0,2.16a.77.77,0,1,1,.77-.77.78.78,0,0,1-.77.77m0-1.23a.46.46,0,1,0,0,.92.46.46,0,0,0,0-.92"/><path class="cls-2" d="M42.35,44.2H38.84a.47.47,0,0,1-.47-.47V42.51a1.68,1.68,0,0,1,1.68-1.67h1.08a1.68,1.68,0,0,1,1.68,1.67v1.22a.47.47,0,0,1-.46.47m-3-.94h2.57v-.75a.74.74,0,0,0-.75-.73H40.05a.74.74,0,0,0-.74.73Z"/><path class="cls-2" d="M42.35,44.35H38.84a.62.62,0,0,1-.62-.62V42.51a1.83,1.83,0,0,1,1.83-1.82h1.09A1.83,1.83,0,0,1,43,42.51v1.22a.62.62,0,0,1-.62.62M40.05,41a1.53,1.53,0,0,0-1.52,1.52v1.22a.31.31,0,0,0,.31.31h3.51a.31.31,0,0,0,.31-.31V42.51A1.53,1.53,0,0,0,41.14,41Zm2,2.42H39.15v-.9a.9.9,0,0,1,.9-.89h1.09a.89.89,0,0,1,.89.89Zm-2.57-.3h2.26v-.6a.58.58,0,0,0-.58-.58H40.05a.59.59,0,0,0-.59.58Z"/></g></g></svg>