<svg xmlns="http://www.w3.org/2000/svg" viewBox="0 0 139.29 50.19"><defs><style>.cls-1,.cls-2{fill:none;stroke-linecap:round;stroke-linejoin:round;stroke-width:2px;}.cls-1{stroke:#353132;}.cls-2{stroke:#c43535;}.cls-3{fill:#353132;}.cls-4{fill:#c43535;}</style></defs><title>Recurso 17</title><g id="Capa_2" data-name="Capa 2"><g id="Capa_1-2" data-name="Capa 1"><rect class="cls-1" x="1.67" y="1" width="42.02" height="27.71" rx="6.76"/><rect class="cls-2" x="49.39" y="1" width="42.02" height="27.71" rx="6.76"/><rect class="cls-1" x="96.15" y="1" width="42.02" height="27.71" rx="6.76"/><rect class="cls-1" x="1" y="33.05" width="137.29" height="16.14" rx="3.91"/><polygon class="cls-3" points="20.74 5.25 18.33 7.66 25.01 14.34 18.33 21.02 20.74 23.43 29.83 14.34 20.74 5.25"/><polygon class="cls-4" points="67.08 5.25 64.67 7.66 71.35 14.34 64.67 21.02 67.08 23.43 76.17 14.34 67.08 5.25"/><polygon class="cls-3" points="115.9 5.25 113.49 7.66 120.17 14.34 113.49 21.02 115.9 23.43 124.99 14.34 115.9 5.25"/></g></g></svg>