<svg id="Layer_1" data-name="Layer 1" xmlns="http://www.w3.org/2000/svg" viewBox="0 0 58.61 61.91"><defs><style>.cls-1{fill:#01040c;}.cls-2{fill:#27aae1;}.cls-3{font-size:17.49px;fill:#fff;font-family:Gotham-Bold, Gotham;font-weight:700;}</style></defs><path class="cls-1" d="M14.93,59.3a2.47,2.47,0,1,1,2.46-2.47A2.48,2.48,0,0,1,14.93,59.3Zm0-3.28a.81.81,0,1,0,.81.81A.81.81,0,0,0,14.93,56Z"/><path class="cls-1" d="M32.06,27.85a.84.84,0,0,1-.34-.08.81.81,0,0,1-.48-.75V25.28H21.37a.83.83,0,0,1-.83-.83V20.33a.83.83,0,0,1,.83-.83h9.87V17.76a.82.82,0,0,1,.48-.75.83.83,0,0,1,.88.12l5.46,4.63a.81.81,0,0,1,.3.63.85.85,0,0,1-.29.63L32.6,27.65A.82.82,0,0,1,32.06,27.85ZM22.2,23.62h9.86a.83.83,0,0,1,.83.83v.78l3.36-2.84-3.36-2.84v.78a.83.83,0,0,1-.83.83H22.2Z"/><path class="cls-2" d="M26.86,37.11a.82.82,0,0,1-.54-.2l-5.47-4.62a.84.84,0,0,1,0-1.27l5.47-4.63a.81.81,0,0,1,.88-.12.82.82,0,0,1,.48.75v1.74h9.87a.83.83,0,0,1,.82.83v4.12a.83.83,0,0,1-.82.83H27.68v1.74a.81.81,0,0,1-.48.75A.84.84,0,0,1,26.86,37.11Zm-4.19-5.46L26,34.5v-.79a.83.83,0,0,1,.83-.83h9.86V30.42H26.86a.83.83,0,0,1-.83-.83v-.78Z"/><path class="cls-1" d="M29.86,18.21v-.82h0V14.94A4.83,4.83,0,0,0,25,10.12H4.83A4.83,4.83,0,0,0,0,14.94v1.61H0v1.66H0V56.44a5.48,5.48,0,0,0,5.48,5.47H24.39a5.48,5.48,0,0,0,5.47-5.47V36.88a.83.83,0,0,0-1.66,0V51.75H1.66V18.21ZM1.66,14.94a3.18,3.18,0,0,1,3.17-3.17H25a3.18,3.18,0,0,1,3.17,3.17v1.61H1.66ZM28.2,53.4v3a3.82,3.82,0,0,1-3.81,3.82H5.48a3.82,3.82,0,0,1-3.82-3.82v-3Z"/><circle class="cls-2" cx="48.49" cy="10.12" r="10.12"/><text class="cls-3" transform="translate(45.66 16.13)">!</text></svg>