<svg xmlns="http://www.w3.org/2000/svg" viewBox="0 0 117.68 78.89"><defs><style>.cls-1{fill:#e03232;}.cls-2{fill:#f5f5f5;}.cls-3{fill:none;stroke:#e03232;stroke-miterlimit:10;}</style></defs><g id="Capa_2" data-name="Capa 2"><g id="Capa_1-2" data-name="Capa 1"><path class="cls-1" d="M84.65,28v-.13H3.71A3.71,3.71,0,0,0,0,31.53V60.41a3.72,3.72,0,0,0,3.71,3.71h80a3.72,3.72,0,0,0,3.71-3.71V31.53A3.71,3.71,0,0,0,84.65,28Zm-.08,32.46a.86.86,0,0,1-.86.85h-80a.86.86,0,0,1-.86-.85V31.53a.86.86,0,0,1,.86-.86H84.47l.1-1.43V60.41Z"/><path class="cls-2" d="M114.92,36.44V36.3H96.22A3.72,3.72,0,0,0,92.51,40v20.4a3.72,3.72,0,0,0,3.71,3.71H114a3.72,3.72,0,0,0,3.71-3.71V40A3.71,3.71,0,0,0,114.92,36.44Zm-.09,24a.85.85,0,0,1-.86.85H96.22a.86.86,0,0,1-.86-.85V40a.86.86,0,0,1,.86-.85h18.52l.09-1.43V60.41Z"/><path class="cls-1" d="M19.22,41.2H14.46a1.43,1.43,0,1,1,0-2.85h4.76a1.43,1.43,0,0,1,0,2.85Z"/><path class="cls-2" d="M114.11,50.92h-7.59a1.43,1.43,0,0,1,0-2.85h7.59a1.43,1.43,0,1,1,0,2.85Z"/><path class="cls-2" d="M108,42.05v7.59a1.43,1.43,0,0,1-2.85,0V42.05a1.43,1.43,0,1,1,2.85,0Z"/><circle class="cls-2" cx="15.78" cy="72.58" r="6.31"/><circle class="cls-2" cx="76.51" cy="72.58" r="6.31"/><circle class="cls-2" cx="105.1" cy="72.58" r="6.31"/><path class="cls-3" d="M33.12,13.27a17.45,17.45,0,0,1,24.69,0"/><path class="cls-3" d="M27.7,7.86a25.13,25.13,0,0,1,35.53,0"/></g></g></svg>