<svg xmlns="http://www.w3.org/2000/svg" viewBox="0 0 58.52 70.37"><defs><style>.cls-1{fill:#353132;}.cls-2{fill:#c43535;}</style></defs><title>Recurso 18</title><g id="Capa_2" data-name="Capa 2"><g id="Capa_1-2" data-name="Capa 1"><path class="cls-1" d="M27,39.47a7.95,7.95,0,1,1,0-15.89,1.13,1.13,0,1,1,0,2.25,5.7,5.7,0,1,0,5.69,5.69,1.13,1.13,0,0,1,2.26,0,8,8,0,0,1-7.95,8"/><path class="cls-1" d="M27,51.53A1.14,1.14,0,0,1,25.9,50.4V12.64a1.13,1.13,0,0,1,2.26,0V50.4A1.14,1.14,0,0,1,27,51.53"/><path class="cls-1" d="M45.91,32.65H8.15a1.13,1.13,0,1,1,0-2.25H45.91a1.13,1.13,0,0,1,0,2.25"/><path class="cls-1" d="M40.91,70.37H13.15a1.11,1.11,0,0,1-1-.56,1.1,1.1,0,0,1,0-1.12l3.27-5.81a1.13,1.13,0,0,1,1-.57H37.64a1.13,1.13,0,0,1,1,.57l3.27,5.81a1.13,1.13,0,0,1-1,1.68M15.07,68.12H39l-2-3.56H17.08Z"/><path class="cls-1" d="M45.09,70.37H9a1.13,1.13,0,1,1,0-2.25H45.09a1.13,1.13,0,1,1,0,2.25"/><path class="cls-1" d="M34.37,64.56H19.69a1.13,1.13,0,0,1-1.13-1.12V56.37a1.14,1.14,0,0,1,.46-.91,1.09,1.09,0,0,1,1-.17,24.84,24.84,0,0,0,14,0,1.09,1.09,0,0,1,1,.17,1.13,1.13,0,0,1,.45.91v7.07a1.12,1.12,0,0,1-1.12,1.12M20.82,62.31H33.24V57.83a27.14,27.14,0,0,1-12.42,0Z"/><path class="cls-2" d="M31.39,28.29a1.14,1.14,0,0,1-.92-.47,1.12,1.12,0,0,1,.12-1.45L47.73,9.23a1.12,1.12,0,1,1,1.59,1.59L35.86,24.29a1.15,1.15,0,0,1,.43.47,1.13,1.13,0,0,1-.52,1.51l-3.89,1.91a1.24,1.24,0,0,1-.49.11"/><path class="cls-2" d="M31.39,28.29a1.15,1.15,0,0,1-.66-.21,1.11,1.11,0,0,1-.35-1.41l1.91-3.89a1.12,1.12,0,0,1,1.5-.52,1.06,1.06,0,0,1,.47.44L47.73,9.23a1.12,1.12,0,1,1,1.59,1.59L32.18,28a1.09,1.09,0,0,1-.79.33"/><path class="cls-2" d="M51,14.88a.9.9,0,0,1-.28,0l-4.91-1.28a1.13,1.13,0,0,1-.81-.81L43.68,7.84A1.13,1.13,0,0,1,44,6.76L50.4.33A1.12,1.12,0,0,1,51.55.06a1.1,1.1,0,0,1,.76.91L53,5.55l4.58.66a1.13,1.13,0,0,1,.64,1.91l-6.43,6.43a1.15,1.15,0,0,1-.8.33m-4-3.33,3.65.95L55,8.12l-3.17-.45a1.13,1.13,0,0,1-.64-.33,1.29,1.29,0,0,1-.35-.66L50.4,3.51,46,7.9Z"/><path class="cls-1" d="M27,51.53a20,20,0,1,1,10.49-37,1.13,1.13,0,0,1-1.19,1.91,17.79,17.79,0,1,0,5.8,5.8A1.12,1.12,0,1,1,44,21,20,20,0,0,1,27,51.53"/><path class="cls-1" d="M27,58.55A27,27,0,1,1,42.65,9.47a1.13,1.13,0,1,1-1.3,1.84,24.81,24.81,0,1,0,5.89,5.89,1.13,1.13,0,0,1,1.84-1.3A27,27,0,0,1,27,58.55"/></g></g></svg>