<svg id="Layer_1" data-name="Layer 1" xmlns="http://www.w3.org/2000/svg" viewBox="0 0 43.92 43.97"><defs><style>.cls-1{fill:#fff;}</style></defs><path class="cls-1" d="M22,40.53A18.54,18.54,0,1,1,40.42,20a.78.78,0,0,1-.7.86.79.79,0,0,1-.87-.7A17,17,0,1,0,22,39a.79.79,0,0,1,0,1.58Z"/><path class="cls-1" d="M22,44A22,22,0,1,1,43.92,20.5a.79.79,0,0,1-.73.84.8.8,0,0,1-.84-.74A20.41,20.41,0,1,0,22,42.39c.31,0,.63,0,.94,0A.79.79,0,0,1,23,44Z"/><path class="cls-1" d="M22,25.78a.75.75,0,0,1-.56-.23l-3-3a.78.78,0,0,1,0-1.11l3-3a.78.78,0,0,1,1.11,0l3,3a.78.78,0,0,1,0,1.11l-3,3A.74.74,0,0,1,22,25.78ZM20.09,22,22,23.88,23.88,22,22,20.09Z"/><path class="cls-1" d="M22,19.76A.79.79,0,0,1,21.2,19V11.75a.79.79,0,1,1,1.57,0V19A.78.78,0,0,1,22,19.76Z"/><path class="cls-1" d="M23.56,21.34A.83.83,0,0,1,22.9,21a.8.8,0,0,1,.22-1.1L32.6,13.6a.79.79,0,0,1,.87,1.32L24,21.21A.8.8,0,0,1,23.56,21.34Z"/><path class="cls-1" d="M33.82,43.19a10.1,10.1,0,0,1,0-20.2,10.43,10.43,0,0,1,1.38.09,1.17,1.17,0,0,1,1,1.3,1.15,1.15,0,0,1-1.3,1,9.45,9.45,0,0,0-1.07-.07A7.8,7.8,0,1,0,41,30a1.17,1.17,0,0,1,.61-1.51,1.15,1.15,0,0,1,1.51.61,10.11,10.11,0,0,1-9.3,14Z"/><path class="cls-1" d="M33.71,37.53a1.14,1.14,0,0,1-1.06-.7L28,26a1.15,1.15,0,1,1,2.12-.9l3.44,8c1.25-3.3,3.8-8.44,8.21-11a1.15,1.15,0,1,1,1.15,2c-5.79,3.35-8.07,12.46-8.09,12.55a1.15,1.15,0,0,1-1,.87Z"/></svg>