<svg xmlns="http://www.w3.org/2000/svg" viewBox="0 0 178.74 54.18"><defs><style>.cls-1{fill:#28a8df;}.cls-2{fill:#332d2f;}</style></defs><g id="Capa_2" data-name="Capa 2"><g id="Capa_1-2" data-name="Capa 1"><path class="cls-1" d="M84.65,2V1.91H3.71A3.71,3.71,0,0,0,0,5.62V34.5a3.72,3.72,0,0,0,3.71,3.71h80a3.72,3.72,0,0,0,3.71-3.71V5.62A3.71,3.71,0,0,0,84.65,2ZM84.57,34.5a.86.86,0,0,1-.86.85h-80a.86.86,0,0,1-.86-.85V5.62a.86.86,0,0,1,.86-.86H84.47l.1-1.43V34.5Z"/><path class="cls-2" d="M114.92,10.53v-.14H96.22a3.72,3.72,0,0,0-3.71,3.71V34.5a3.72,3.72,0,0,0,3.71,3.71H114a3.72,3.72,0,0,0,3.71-3.71V14.1A3.71,3.71,0,0,0,114.92,10.53Zm-.09,24a.85.85,0,0,1-.86.85H96.22a.86.86,0,0,1-.86-.85V14.1a.86.86,0,0,1,.86-.85h18.52l.09-1.43V34.5Z"/><path class="cls-1" d="M19.22,15.29H14.46a1.43,1.43,0,1,1,0-2.85h4.76a1.43,1.43,0,0,1,0,2.85Z"/><path class="cls-2" d="M114.11,25h-7.59a1.43,1.43,0,0,1,0-2.85h7.59a1.43,1.43,0,1,1,0,2.85Z"/><path class="cls-2" d="M108,16.14v7.59a1.43,1.43,0,0,1-2.85,0V16.14a1.43,1.43,0,1,1,2.85,0Z"/><circle class="cls-2" cx="15.78" cy="46.67" r="6.31"/><circle class="cls-2" cx="76.51" cy="46.67" r="6.31"/><circle class="cls-2" cx="105.1" cy="46.67" r="6.31"/><path class="cls-2" d="M173.22,37.12c-2.07-.52-6.55-1.32-7.73-1.52-1.35-1.33-8.63-8.16-15.06-8.16-1.1,0-3,.08-4.92.15s-3.43.14-4.3.14c-5.46,0-9,4.29-10.74,6.35-.23.28-.48.58-.64.75-1.3,0-4.28.13-4.41.14l-.56,0-.24.5a15.54,15.54,0,0,0-1.22,6.07c0,3.36,0,8.43,4.56,8.43h2.56a5.13,5.13,0,0,0,10.12-.19V50h19.12a5.13,5.13,0,0,0,10.09,0c.9,0,2.52-.1,4.42-.1,3.39,0,3.67-1.52,4.08-3.82.09-.54.2-1.16.36-1.86l0-.1V44C178.74,40.7,175.88,37.79,173.22,37.12Zm3.32,8.59c-.38,2.18-.41,2.31-2.27,2.31s-3.49.06-4.42.1a5.14,5.14,0,0,0-10.11,0h-19.1v.12a5.13,5.13,0,0,0-10.13-.12H128c-2.53,0-2.73-2.86-2.73-6.6a14.18,14.18,0,0,1,.85-4.79c1.06,0,3.24-.12,4-.12.6,0,1-.44,1.76-1.4,1.54-1.85,4.74-5.69,9.34-5.69.91,0,2.59-.07,4.37-.14s3.78-.15,4.85-.15c4.41,0,9.56,3.9,12.2,6.19H150.52V32.19H148.7v3.27h-6.29c-3.48,0-4.08-2.45-4.14-2.73l-1.8.33c.27,1.47,1.86,4.23,5.94,4.23H164.6l.29.05c.06,0,5.6,1,7.88,1.55a5.87,5.87,0,0,1,4.14,5C176.75,44.57,176.64,45.17,176.54,45.71Z"/><path class="cls-1" d="M149.31,1l-9.2,14.62a2.08,2.08,0,0,0,1.76,3.19h18.4A2.08,2.08,0,0,0,162,15.59L152.83,1A2.08,2.08,0,0,0,149.31,1Z"/><path class="cls-2" d="M149.75,6V5.74h2.63V6l-.69,6.54h-1.24Zm.12,7.69h2.4v2.36h-2.4Z"/></g></g></svg>