<svg xmlns="http://www.w3.org/2000/svg" viewBox="0 0 211.46 171.35"><defs><style>.cls-1{font-size:14.82px;fill:#fff;font-family:Raleway, sans-serif;font-weight:700;}.cls-2{fill:#e62f29;}.cls-3{fill:#f6f6f6;}.cls-4{fill:none;stroke:#e62f29;stroke-miterlimit:10;}</style></defs><g id="Capa_2" data-name="Capa 2"><g id="Capa_1-2" data-name="Capa 1"><text class="cls-1" transform="translate(9.12 89.4)">Serve the Segment <tspan x="45.81" y="17.97">as One</tspan></text><polygon class="cls-2" points="194.87 78.58 190.46 82.98 202.66 95.18 190.46 107.38 194.87 111.78 211.46 95.18 194.87 78.58"/><path class="cls-3" d="M80.68,6.38a1.76,1.76,0,1,1,1.75-1.76A1.76,1.76,0,0,1,80.68,6.38Zm0-2.45a.7.7,0,1,0,.69.69A.69.69,0,0,0,80.68,3.93Z"/><path class="cls-3" d="M80.68,6.55a1.93,1.93,0,1,1,1.93-1.93A1.92,1.92,0,0,1,80.68,6.55Zm0-3.51a1.58,1.58,0,1,0,1.58,1.58A1.58,1.58,0,0,0,80.68,3Zm0,2.45a.87.87,0,1,1,.87-.87A.88.88,0,0,1,80.68,5.49Zm0-1.39a.53.53,0,1,0,.52.52A.53.53,0,0,0,80.68,4.1Z"/><path class="cls-3" d="M82.66,10.7h-4a.53.53,0,0,1-.53-.53V8.81a1.91,1.91,0,0,1,1.9-1.9h1.23a1.9,1.9,0,0,1,1.9,1.9v1.36A.53.53,0,0,1,82.66,10.7Zm-3.44-1h2.91V8.81A.85.85,0,0,0,81.29,8H80.06a.85.85,0,0,0-.84.85Z"/><path class="cls-3" d="M82.66,10.88h-4a.71.71,0,0,1-.7-.71V8.81a2.08,2.08,0,0,1,2.07-2.08h1.23a2.08,2.08,0,0,1,2.07,2.08v1.36A.7.7,0,0,1,82.66,10.88Zm-2.6-3.8a1.73,1.73,0,0,0-1.72,1.73v1.36a.36.36,0,0,0,.35.36h4a.36.36,0,0,0,.36-.36V8.81a1.74,1.74,0,0,0-1.73-1.73Zm2.25,2.74H79.05v-1a1,1,0,0,1,1-1h1.23a1,1,0,0,1,1,1ZM79.4,9.47H82V8.81a.67.67,0,0,0-.67-.67H80.06a.67.67,0,0,0-.66.67Z"/><path class="cls-3" d="M80.68,30.34a3,3,0,1,1,3-3A3,3,0,0,1,80.68,30.34Zm0-4.94a1.94,1.94,0,1,0,1.94,1.94A1.94,1.94,0,0,0,80.68,25.4Z"/><path class="cls-4" d="M80.68,30.51a3.17,3.17,0,1,1,3.17-3.17A3.17,3.17,0,0,1,80.68,30.51Zm0-6a2.82,2.82,0,1,0,2.82,2.82A2.83,2.83,0,0,0,80.68,24.52Zm0,4.94a2.12,2.12,0,1,1,2.12-2.12A2.12,2.12,0,0,1,80.68,29.46Zm0-3.89a1.77,1.77,0,1,0,1.77,1.77A1.77,1.77,0,0,0,80.68,25.57Z"/><path class="cls-3" d="M84.68,37.66h-8a.52.52,0,0,1-.52-.53V34.37a3.29,3.29,0,0,1,3.29-3.29h2.47a3.29,3.29,0,0,1,3.3,3.29v2.76A.53.53,0,0,1,84.68,37.66ZM77.2,36.6h7V34.37a2.24,2.24,0,0,0-2.24-2.24H79.44a2.25,2.25,0,0,0-2.24,2.24Z"/><path class="cls-4" d="M84.68,37.84h-8a.71.71,0,0,1-.7-.71V34.37a3.48,3.48,0,0,1,3.47-3.47h2.47a3.47,3.47,0,0,1,3.47,3.47v2.76A.7.7,0,0,1,84.68,37.84Zm-5.24-6.59a3.12,3.12,0,0,0-3.12,3.12v2.76a.36.36,0,0,0,.35.36h8a.36.36,0,0,0,.35-.36V34.37a3.12,3.12,0,0,0-3.12-3.12Zm4.89,5.53H77V34.37A2.41,2.41,0,0,1,79.44,32h2.47a2.42,2.42,0,0,1,2.42,2.41Zm-7-.35H84V34.37a2.07,2.07,0,0,0-2.07-2.06H79.44a2.06,2.06,0,0,0-2.06,2.06Z"/><path class="cls-3" d="M80.68,44a.52.52,0,0,1-.27-.07L69.53,37.68c-.17-.09-.27-.27-.12.32V25.43c-.15-.95,0-1.13.12-1.22L75,21.06l5.44-3.14a.55.55,0,0,1,.53,0l5.44,3.14,5.45,3.15a.52.52,0,0,1,.26.45V37.23a.51.51,0,0,1-.27.45L80.94,44A.48.48,0,0,1,80.68,44ZM70.32,36.92l10.36,6,10.35-6V25l-5.18-3-5.17-3L70.32,25Z"/><path class="cls-3" d="M80.68,44.38a.83.83,0,0,1-.44-.12L69.7,38.19a.33.33,0,0,1-.24.15.35.35,0,0,1-.39-.26c-.07-.29-.13-.53,0-.7v-12c-.13-.8-.12-1.29.29-1.53l10.89-6.28a.87.87,0,0,1,.88,0L92,23.9a.89.89,0,0,1,.44.76V37.23A.89.89,0,0,1,92,38L81.12,44.26A.88.88,0,0,1,80.68,44.38Zm-10.92-7,10.83,6.25a.19.19,0,0,0,.18,0l10.88-6.28a.16.16,0,0,0,.09-.15V24.66a.16.16,0,0,0-.09-.15L80.77,18.23a.15.15,0,0,0-.18,0L69.7,24.51a2.62,2.62,0,0,0,.06.87Zm10.92,5.83a.39.39,0,0,1-.18,0l-10.35-6a.34.34,0,0,1-.18-.3V25a.34.34,0,0,1,.18-.3l10.35-6a.36.36,0,0,1,.35,0l10.36,6a.36.36,0,0,1,.17.3v12a.35.35,0,0,1-.17.3l-10.36,6A.33.33,0,0,1,80.68,43.24Zm-10-6.52,10,5.77,10-5.77V25.17l-10-5.78-10,5.78Z"/><path class="cls-3" d="M80.68,18.91a.53.53,0,0,1-.53-.53V12.87a.53.53,0,0,1,1.06,0v5.51A.53.53,0,0,1,80.68,18.91Z"/><path class="cls-3" d="M80.68,19.08a.7.7,0,0,1-.71-.7V12.87a.71.71,0,0,1,1.41,0v5.51A.7.7,0,0,1,80.68,19.08Zm0-6.56a.35.35,0,0,0-.36.35v5.51a.36.36,0,1,0,.71,0V12.87A.35.35,0,0,0,80.68,12.52Z"/><path class="cls-3" d="M91.68,25.26a.53.53,0,0,1-.27-1l4.78-2.75a.53.53,0,0,1,.53.91l-4.78,2.76A.59.59,0,0,1,91.68,25.26Z"/><path class="cls-3" d="M91.68,25.43a.7.7,0,0,1-.35-1.31l4.77-2.75a.7.7,0,0,1,1,.25.69.69,0,0,1,.07.54.66.66,0,0,1-.33.42L92,25.34A.73.73,0,0,1,91.68,25.43Zm4.77-3.81a.34.34,0,0,0-.17.05L91.5,24.42a.36.36,0,0,0-.13.49.37.37,0,0,0,.48.13l4.78-2.76a.39.39,0,0,0,.17-.21.36.36,0,0,0,0-.27A.36.36,0,0,0,96.45,21.62Z"/><path class="cls-3" d="M96.45,40.71a.59.59,0,0,1-.26-.07l-4.78-2.76a.53.53,0,1,1,.53-.91l4.78,2.75a.52.52,0,0,1,.19.72A.53.53,0,0,1,96.45,40.71Z"/><path class="cls-3" d="M96.45,40.88a.73.73,0,0,1-.35-.09L91.33,38a.69.69,0,0,1-.26-1,.71.71,0,0,1,1-.26l4.77,2.76a.66.66,0,0,1,.33.42.68.68,0,0,1-.07.54A.69.69,0,0,1,96.45,40.88Zm-4.77-3.81a.35.35,0,0,0-.18.66l4.78,2.75a.35.35,0,0,0,.48-.13.34.34,0,0,0,0-.26.38.38,0,0,0-.17-.22l-4.78-2.75A.26.26,0,0,0,91.68,37.07Z"/><path class="cls-3" d="M80.68,49.81a.53.53,0,0,1-.53-.53V43.77a.53.53,0,0,1,1.06,0v5.51A.53.53,0,0,1,80.68,49.81Z"/><path class="cls-3" d="M80.68,50a.7.7,0,0,1-.71-.7V43.77a.71.71,0,0,1,1.41,0v5.51A.7.7,0,0,1,80.68,50Zm0-6.56a.36.36,0,0,0-.36.35v5.51a.36.36,0,0,0,.71,0V43.77A.35.35,0,0,0,80.68,43.42Z"/><path class="cls-3" d="M64.9,40.71a.54.54,0,0,1-.46-.27.53.53,0,0,1,.2-.72L69.41,37a.53.53,0,0,1,.53.91l-4.78,2.76A.59.59,0,0,1,64.9,40.71Z"/><path class="cls-3" d="M64.9,40.88a.69.69,0,0,1-.61-.35.73.73,0,0,1-.07-.54.7.7,0,0,1,.33-.42l4.77-2.76a.73.73,0,0,1,.54-.06.65.65,0,0,1,.42.32.66.66,0,0,1,.07.53A.64.64,0,0,1,70,38l-4.78,2.76A.73.73,0,0,1,64.9,40.88Zm4.77-3.81a.34.34,0,0,0-.17,0l-4.78,2.75a.34.34,0,0,0-.16.21.36.36,0,0,0,0,.27.36.36,0,0,0,.49.13l4.77-2.75a.38.38,0,0,0,.17-.22.34.34,0,0,0,0-.26.39.39,0,0,0-.21-.17Z"/><path class="cls-3" d="M69.67,25.26a.63.63,0,0,1-.26-.07l-4.78-2.76a.53.53,0,0,1-.19-.72.53.53,0,0,1,.72-.2l4.78,2.76a.53.53,0,0,1,.19.72A.52.52,0,0,1,69.67,25.26Z"/><path class="cls-3" d="M69.67,25.43a.73.73,0,0,1-.35-.09l-4.77-2.76a.71.71,0,0,1-.26-1,.69.69,0,0,1,.43-.33.7.7,0,0,1,.53.07L70,24.12a.67.67,0,0,1,.32.43.66.66,0,0,1-.07.53A.68.68,0,0,1,69.67,25.43ZM64.9,21.62h-.09a.36.36,0,0,0-.22.16.36.36,0,0,0,.13.49L69.5,25a.37.37,0,0,0,.48-.13.37.37,0,0,0,0-.27.41.41,0,0,0-.17-.22l-4.77-2.76A.39.39,0,0,0,64.9,21.62Z"/><path class="cls-3" d="M80.68,13.4a6.62,6.62,0,1,1,6.61-6.61A6.63,6.63,0,0,1,80.68,13.4Zm0-12.17a5.56,5.56,0,1,0,5.56,5.56A5.56,5.56,0,0,0,80.68,1.23Z"/><path class="cls-3" d="M80.68,13.57a6.79,6.79,0,1,1,6.79-6.78A6.8,6.8,0,0,1,80.68,13.57Zm0-13.22a6.44,6.44,0,1,0,6.44,6.44A6.45,6.45,0,0,0,80.68.35Zm0,12.17a5.73,5.73,0,1,1,5.73-5.73A5.74,5.74,0,0,1,80.68,12.52Zm0-11.11a5.38,5.38,0,1,0,5.38,5.38A5.39,5.39,0,0,0,80.68,1.41Z"/><path class="cls-3" d="M101.73,25.54a6.61,6.61,0,1,1,5.73-9.91,6.61,6.61,0,0,1-5.73,9.91Zm0-12.17a5.57,5.57,0,0,0-4.81,8.34,5.59,5.59,0,0,0,4.82,2.78,5.56,5.56,0,0,0,4.81-8.34A5.59,5.59,0,0,0,101.72,13.37Z"/><path class="cls-3" d="M101.73,25.72a6.78,6.78,0,0,1-6.56-8.55,6.75,6.75,0,0,1,3.16-4.12,6.79,6.79,0,0,1,9.28,2.49,6.78,6.78,0,0,1-2.49,9.27A6.83,6.83,0,0,1,101.73,25.72Zm0-13.23a6.52,6.52,0,0,0-3.22.86,6.44,6.44,0,0,0,3.23,12,6.5,6.5,0,0,0,3.22-.86,6.44,6.44,0,0,0-3.23-12Zm0,12.17a5.75,5.75,0,0,1-5-2.86,5.74,5.74,0,0,1,5-8.6,5.76,5.76,0,0,1,5,2.87,5.73,5.73,0,0,1-5,8.59Zm0-11.11a5.38,5.38,0,0,0-5.2,4,5.34,5.34,0,0,0,.54,4.08,5.39,5.39,0,0,0,9.87-1.3,5.34,5.34,0,0,0-.54-4.08A5.41,5.41,0,0,0,101.72,13.55Z"/><path class="cls-3" d="M101.72,49.83a6.61,6.61,0,1,1,0-13.22,6.48,6.48,0,0,1,3.3.89,6.6,6.6,0,0,1-3.31,12.33Zm0-12.17a5.59,5.59,0,0,0-4.82,2.78,5.57,5.57,0,0,0,4.81,8.34,5.56,5.56,0,0,0,2.78-10.37A5.51,5.51,0,0,0,101.73,37.66Z"/><path class="cls-3" d="M101.72,50a6.86,6.86,0,0,1-3.39-.91,6.81,6.81,0,0,1-2.49-9.28,6.8,6.8,0,0,1,9.28-2.48A6.79,6.79,0,0,1,101.72,50Zm0-13.23a6.45,6.45,0,0,0-6.23,8.11,6.44,6.44,0,1,0,6.23-8.11Zm0,12.17a5.76,5.76,0,0,1-2.86-.77,5.73,5.73,0,0,1-2.1-7.83,5.73,5.73,0,0,1,7.83-2.09,5.74,5.74,0,0,1,2.1,7.83A5.76,5.76,0,0,1,101.72,49Zm0-11.11a5.38,5.38,0,1,0,4.66,8.07,5.29,5.29,0,0,0,.53-4.08,5.35,5.35,0,0,0-2.5-3.27A5.42,5.42,0,0,0,101.73,37.84Z"/><path class="cls-3" d="M80.68,62a6.62,6.62,0,1,1,6.61-6.62A6.63,6.63,0,0,1,80.68,62Zm0-12.17a5.56,5.56,0,1,0,5.56,5.55A5.56,5.56,0,0,0,80.68,49.81Z"/><path class="cls-3" d="M80.68,62.15a6.79,6.79,0,1,1,6.79-6.79A6.8,6.8,0,0,1,80.68,62.15Zm0-13.23a6.44,6.44,0,1,0,6.44,6.44A6.45,6.45,0,0,0,80.68,48.92Zm0,12.18a5.74,5.74,0,1,1,5.73-5.74A5.75,5.75,0,0,1,80.68,61.1Zm0-11.12a5.39,5.39,0,1,0,5.38,5.38A5.4,5.4,0,0,0,80.68,50Z"/><path class="cls-3" d="M59.63,49.83a6.61,6.61,0,0,1-5.73-3.3,6.62,6.62,0,0,1,2.42-9,6.61,6.61,0,1,1,3.31,12.34Zm0-12.17A5.57,5.57,0,0,0,54.81,46a5.56,5.56,0,1,0,4.81-8.34Z"/><path class="cls-3" d="M59.63,50A6.81,6.81,0,1,1,63,49.1,6.79,6.79,0,0,1,59.63,50Zm0-13.23a6.49,6.49,0,0,0-6.22,4.77,6.45,6.45,0,1,0,6.22-4.77Zm0,12.17a5.77,5.77,0,0,1-5-2.86,5.7,5.7,0,0,1-.57-4.35,5.64,5.64,0,0,1,2.67-3.48,5.73,5.73,0,0,1,7.83,2.09,5.74,5.74,0,0,1-2.1,7.83A5.76,5.76,0,0,1,59.63,49Zm0-11.11a5.38,5.38,0,0,0-5.19,4A5.29,5.29,0,0,0,55,45.91a5.39,5.39,0,0,0,9.87-1.3,5.35,5.35,0,0,0-.54-4.08A5.41,5.41,0,0,0,59.62,37.84Z"/><path class="cls-3" d="M59.62,25.54a6.59,6.59,0,0,1-6.38-4.9,6.51,6.51,0,0,1,.66-5,6.61,6.61,0,1,1,5.72,9.91Zm0-12.17a5.59,5.59,0,0,0-4.82,2.78,5.57,5.57,0,0,0,2,7.59,5.56,5.56,0,1,0,2.79-10.37Z"/><path class="cls-3" d="M59.62,25.72a6.83,6.83,0,0,1-3.39-.91,6.79,6.79,0,0,1,3.4-12.67,6.79,6.79,0,1,1,0,13.58Zm0-13.23A6.45,6.45,0,0,0,53.4,20.6a6.42,6.42,0,0,0,3,3.91,6.44,6.44,0,1,0,3.23-12Zm0,12.17a5.73,5.73,0,0,1-5-8.59,5.73,5.73,0,1,1,5,8.59Zm0-11.11A5.41,5.41,0,0,0,55,16.24a5.29,5.29,0,0,0-.53,4.08,5.35,5.35,0,0,0,2.5,3.27,5.38,5.38,0,1,0,2.7-10Z"/><path class="cls-3" d="M101.73,18.52a1.75,1.75,0,1,1,1.75-1.76A1.76,1.76,0,0,1,101.73,18.52Zm0-2.45a.7.7,0,1,0,.69.69A.69.69,0,0,0,101.73,16.07Z"/><path class="cls-3" d="M101.73,18.69a1.93,1.93,0,1,1,1.92-1.93A1.92,1.92,0,0,1,101.73,18.69Zm0-3.5a1.58,1.58,0,1,0,1.58,1.57A1.57,1.57,0,0,0,101.73,15.19Zm0,2.45a.89.89,0,0,1-.88-.88.88.88,0,0,1,.88-.86.87.87,0,0,1,.87.86A.88.88,0,0,1,101.73,17.64Zm0-1.39a.52.52,0,0,0-.53.51.53.53,0,1,0,1,0A.52.52,0,0,0,101.73,16.25Z"/><path class="cls-3" d="M103.71,22.85h-4a.53.53,0,0,1-.53-.53V21a1.91,1.91,0,0,1,1.9-1.9h1.23a1.9,1.9,0,0,1,1.9,1.9v1.37A.53.53,0,0,1,103.71,22.85Zm-3.44-1.06h2.91V21a.85.85,0,0,0-.84-.84h-1.23a.85.85,0,0,0-.84.84Z"/><path class="cls-3" d="M103.71,23h-4a.7.7,0,0,1-.7-.7V21a2.07,2.07,0,0,1,2.07-2.07h1.23A2.07,2.07,0,0,1,104.41,21v1.37A.7.7,0,0,1,103.71,23Zm-2.6-3.79A1.72,1.72,0,0,0,99.39,21v1.37a.36.36,0,0,0,.35.36h4a.36.36,0,0,0,.35-.36V21a1.72,1.72,0,0,0-1.72-1.72ZM103.35,22H100.1V21a1,1,0,0,1,1-1h1.23a1,1,0,0,1,1,1Zm-2.9-.35H103V21a.65.65,0,0,0-.66-.66h-1.23a.66.66,0,0,0-.66.66Z"/><path class="cls-3" d="M59.63,42.81a1.76,1.76,0,1,1,1.75-1.75A1.75,1.75,0,0,1,59.63,42.81Zm0-2.45a.7.7,0,1,0,.69.7A.7.7,0,0,0,59.63,40.36Z"/><path class="cls-3" d="M59.63,43a1.93,1.93,0,1,1,1.92-1.93A1.93,1.93,0,0,1,59.63,43Zm0-3.51a1.58,1.58,0,1,0,1.58,1.58A1.58,1.58,0,0,0,59.63,39.48Zm0,2.45a.87.87,0,1,1,.87-.87A.87.87,0,0,1,59.63,41.93Zm0-1.4a.53.53,0,0,0-.53.53.52.52,0,0,0,.53.52.52.52,0,0,0,.52-.52A.52.52,0,0,0,59.63,40.53Z"/><path class="cls-3" d="M61.61,47.14h-4a.52.52,0,0,1-.52-.53V45.24A1.9,1.9,0,0,1,59,43.34h1.23a1.9,1.9,0,0,1,1.9,1.9v1.37A.53.53,0,0,1,61.61,47.14Zm-3.44-1.06h2.91v-.84a.85.85,0,0,0-.84-.84H59a.85.85,0,0,0-.84.84Z"/><path class="cls-3" d="M61.61,47.31h-4a.7.7,0,0,1-.7-.7V45.24A2.07,2.07,0,0,1,59,43.17h1.23a2.07,2.07,0,0,1,2.07,2.07v1.37A.7.7,0,0,1,61.61,47.31ZM59,43.52a1.72,1.72,0,0,0-1.72,1.72v1.37a.35.35,0,0,0,.35.35h4a.35.35,0,0,0,.35-.35V45.24a1.72,1.72,0,0,0-1.72-1.72Zm2.24,2.74H58v-1a1,1,0,0,1,1-1h1.23a1,1,0,0,1,1,1Zm-2.9-.35h2.56v-.67a.67.67,0,0,0-.67-.67H59a.67.67,0,0,0-.66.67Z"/><path class="cls-3" d="M101.73,42.81a1.76,1.76,0,1,1,1.75-1.75A1.75,1.75,0,0,1,101.73,42.81Zm0-2.45a.7.7,0,1,0,.69.7A.7.7,0,0,0,101.73,40.36Z"/><path class="cls-3" d="M101.73,43a1.93,1.93,0,1,1,1.92-1.93A1.93,1.93,0,0,1,101.73,43Zm0-3.51a1.58,1.58,0,1,0,1.58,1.58A1.58,1.58,0,0,0,101.73,39.48Zm0,2.45a.87.87,0,1,1,.87-.87A.88.88,0,0,1,101.73,41.93Zm0-1.4a.53.53,0,0,0-.53.53.53.53,0,0,0,1,0A.53.53,0,0,0,101.73,40.53Z"/><path class="cls-3" d="M103.71,47.14h-4a.53.53,0,0,1-.53-.53V45.24a1.91,1.91,0,0,1,1.9-1.9h1.23a1.9,1.9,0,0,1,1.9,1.9v1.37A.53.53,0,0,1,103.71,47.14Zm-3.44-1.06h2.91v-.84a.85.85,0,0,0-.84-.84h-1.23a.85.85,0,0,0-.84.84Z"/><path class="cls-3" d="M103.71,47.31h-4a.7.7,0,0,1-.7-.7V45.24a2.07,2.07,0,0,1,2.07-2.07h1.23a2.07,2.07,0,0,1,2.07,2.07v1.37A.7.7,0,0,1,103.71,47.31Zm-2.6-3.79a1.72,1.72,0,0,0-1.72,1.72v1.37a.35.35,0,0,0,.35.35h4a.35.35,0,0,0,.35-.35V45.24a1.72,1.72,0,0,0-1.72-1.72Zm2.25,2.74H100.1v-1a1,1,0,0,1,1-1h1.23a1,1,0,0,1,1,1Zm-2.91-.35H103v-.67a.67.67,0,0,0-.67-.67h-1.23a.67.67,0,0,0-.66.67Z"/><path class="cls-3" d="M80.68,55a1.75,1.75,0,1,1,1.75-1.75A1.75,1.75,0,0,1,80.68,55Zm0-2.44a.7.7,0,1,0,.69.69A.69.69,0,0,0,80.68,52.51Z"/><path class="cls-3" d="M80.68,55.13a1.93,1.93,0,1,1,1.93-1.93A1.93,1.93,0,0,1,80.68,55.13Zm0-3.51a1.58,1.58,0,1,0,1.58,1.58A1.58,1.58,0,0,0,80.68,51.62Zm0,2.45a.87.87,0,1,1,.87-.87A.88.88,0,0,1,80.68,54.07Zm0-1.39a.53.53,0,0,0-.53.52.53.53,0,1,0,.53-.52Z"/><path class="cls-3" d="M82.66,59.28h-4a.52.52,0,0,1-.53-.52V57.38a1.9,1.9,0,0,1,1.9-1.89h1.23a1.9,1.9,0,0,1,1.9,1.89v1.38A.52.52,0,0,1,82.66,59.28Zm-3.44-1.05h2.91v-.85a.85.85,0,0,0-.84-.84H80.06a.85.85,0,0,0-.84.84Z"/><path class="cls-3" d="M82.66,59.46h-4a.71.71,0,0,1-.7-.7V57.38a2.07,2.07,0,0,1,2.07-2.07h1.23a2.07,2.07,0,0,1,2.07,2.07v1.38A.7.7,0,0,1,82.66,59.46Zm-2.6-3.8a1.72,1.72,0,0,0-1.72,1.72v1.38a.35.35,0,0,0,.35.35h4a.35.35,0,0,0,.35-.35V57.38a1.72,1.72,0,0,0-1.72-1.72ZM82.3,58.4H79.05v-1a1,1,0,0,1,1-1h1.23a1,1,0,0,1,1,1Zm-2.9-.35H82v-.67a.67.67,0,0,0-.67-.66H80.06a.67.67,0,0,0-.66.66Z"/><path class="cls-3" d="M59.62,18.52a1.75,1.75,0,1,1,1.76-1.76A1.76,1.76,0,0,1,59.62,18.52Zm0-2.45a.7.7,0,1,0,.7.69A.69.69,0,0,0,59.62,16.07Z"/><path class="cls-3" d="M59.62,18.69a1.93,1.93,0,1,1,1.93-1.93A1.92,1.92,0,0,1,59.62,18.69Zm0-3.5a1.58,1.58,0,1,0,1.58,1.57A1.57,1.57,0,0,0,59.62,15.19Zm0,2.45a.88.88,0,0,1-.86-.88.87.87,0,0,1,1.74,0A.88.88,0,0,1,59.62,17.64Zm0-1.39a.52.52,0,0,0-.52.51.53.53,0,1,0,1,0A.52.52,0,0,0,59.62,16.25Z"/><path class="cls-3" d="M61.61,22.85h-4a.52.52,0,0,1-.52-.53V21A1.9,1.9,0,0,1,59,19.05h1.23a1.9,1.9,0,0,1,1.9,1.9v1.37A.53.53,0,0,1,61.61,22.85Zm-3.44-1.06h2.91V21a.85.85,0,0,0-.84-.84H59a.85.85,0,0,0-.84.84Z"/><path class="cls-3" d="M61.61,23h-4a.7.7,0,0,1-.7-.7V21A2.07,2.07,0,0,1,59,18.88h1.23A2.07,2.07,0,0,1,62.31,21v1.37A.7.7,0,0,1,61.61,23ZM59,19.23A1.72,1.72,0,0,0,57.29,21v1.37a.36.36,0,0,0,.35.36h4a.36.36,0,0,0,.35-.36V21a1.72,1.72,0,0,0-1.72-1.72ZM61.25,22H58V21a1,1,0,0,1,1-1h1.23a1,1,0,0,1,1,1Zm-2.9-.35h2.56V21a.66.66,0,0,0-.67-.66H59a.66.66,0,0,0-.66.66Z"/></g></g></svg>