<svg xmlns="http://www.w3.org/2000/svg" xmlns:xlink="http://www.w3.org/1999/xlink" viewBox="0 0 134.99 116.91"><defs><style>.cls-1{fill:#332d2f;}.cls-2{fill:none;}.cls-2,.cls-3{stroke:#fff;stroke-miterlimit:10;stroke-width:1.64px;}.cls-3{fill:url(#linear-gradient);}</style><linearGradient id="linear-gradient" x1="71.42" y1="60.21" x2="87.13" y2="60.21" gradientUnits="userSpaceOnUse"><stop offset="0" stop-color="#7f1d2b"/><stop offset="1" stop-color="#df1719"/></linearGradient></defs><g id="Capa_2" data-name="Capa 2"><g id="Capa_1-2" data-name="Capa 1"><polygon class="cls-1" points="101.24 0 33.75 0 0 58.45 33.75 116.91 101.24 116.91 134.99 58.45 101.24 0"/><path class="cls-2" d="M64.78,81.38c1,7-15.14,7.18-16.51-3.36-6.65,1.87-11.25-4.56-8-10.23-3.86-2.64-3.79-10.32.23-12.62-3.07-3.28.66-12.45,8.09-10.81-2-7.36,8.71-13.37,16.26-7.5Z"/><path class="cls-2" d="M48.33,42.72A8.2,8.2,0,0,0,55,49.11"/><path class="cls-2" d="M55,40.27c-.76,4.88,7.43,6.93,9.66,3.76"/><path class="cls-2" d="M51,47.47c0,1.72-2.31,3.91-3.6,4.42"/><path class="cls-2" d="M45.87,57.46c2,1,2.07,4,4.25,4.61s3.54-1.85,4.46-3.61a5.67,5.67,0,0,1,6.52-3.29,15.27,15.27,0,0,1,3.27,1.14"/><path class="cls-2" d="M43.58,57.29c1.57,2,4.09-.92,2.46-2.61"/><path class="cls-2" d="M64.86,67.45c-2.15-2.15-5.49.27-6.22,2.59-.85,2.73,1.74,5,.83,7.62A2.88,2.88,0,0,1,56,79.72"/><path class="cls-2" d="M48.33,79.39c-2.52-6.6,10-4.74,4.58-14.73"/><path class="cls-2" d="M40.14,68.1c.9-1.47,3-1.58,4.6-1.48,1.41.09,3,1.15,3.59,1.31"/><path class="cls-2" d="M97.36,64.66l.23-7.2-4.37-.14A21.61,21.61,0,0,0,92,53l4-2.19-3.46-6.32-4.26,2.33a23,23,0,0,0-3-3l2.55-4.3-6.2-3.67L79,40.33a21.83,21.83,0,0,0-4-1V34.09H71.42V86.32H75V83.09a21.6,21.6,0,0,0,3.93-1L80.45,85l6.36-3.38-1.61-3a22.86,22.86,0,0,0,3.26-3.19l3,1.92,3.87-6.08L92.1,69.14a22.19,22.19,0,0,0,1.22-4.61Z"/><path class="cls-3" d="M71.42,44.45v5a10.79,10.79,0,0,1,0,21.57v5a15.76,15.76,0,0,0,0-31.51Z"/></g></g></svg>