<svg xmlns="http://www.w3.org/2000/svg" viewBox="0 0 118.85 102.93"><defs><style>.cls-1{fill:#353132;}.cls-2{fill:#f6f6f6;}</style></defs><title>icon26</title><g id="Capa_2" data-name="Capa 2"><g id="Capa_1-2" data-name="Capa 1"><polygon class="cls-1" points="89.14 0 29.71 0 0 51.47 29.71 102.93 89.14 102.93 118.85 51.47 89.14 0"/><path class="cls-2" d="M66,30a.86.86,0,0,1,0,.27.79.79,0,0,1-1,.47,15.88,15.88,0,0,0-10.82,0,.79.79,0,1,1-.55-1.48,17.29,17.29,0,0,1,11.92,0A.78.78,0,0,1,66,30"/><path class="cls-2" d="M68.09,27a.85.85,0,0,1-.06.31.8.8,0,0,1-1,.42,19.33,19.33,0,0,0-15,0,.79.79,0,1,1-.61-1.46,20.85,20.85,0,0,1,16.21,0,.79.79,0,0,1,.48.73"/><path class="cls-2" d="M69.8,23.75a1,1,0,0,1-.06.32.79.79,0,0,1-1,.4,23,23,0,0,0-18.38,0,.79.79,0,0,1-1.05-.4A.81.81,0,0,1,49.67,23a24.59,24.59,0,0,1,19.66,0,.78.78,0,0,1,.47.73"/><path class="cls-2" d="M82.21,61.33V38.27a1.82,1.82,0,0,0-1.82-1.82l-39.25.11a1.83,1.83,0,0,0-1.82,1.82V75.5a1.83,1.83,0,0,0,1.82,1.82H80.39a1.83,1.83,0,0,0,1.82-1.82v-6a1.81,1.81,0,0,1-1.4,1.76V75.5a.42.42,0,0,1-.42.42H41.14a.42.42,0,0,1-.42-.42V38.38a.42.42,0,0,1,.42-.42l39.25-.11a.42.42,0,0,1,.42.42v21.3a1.82,1.82,0,0,1,1.4,1.76"/><path class="cls-2" d="M80.81,59.57V71.24a1.81,1.81,0,0,0,1.4-1.76V61.33a1.81,1.81,0,0,0-1.4-1.76"/><path class="cls-2" d="M75.11,43.13H72.78a.7.7,0,0,1,0-1.4h2.33a.7.7,0,1,1,0,1.4"/><path class="cls-2" d="M48.75,43.13H46.42a.7.7,0,0,1,0-1.4h2.33a.7.7,0,0,1,0,1.4"/><path class="cls-2" d="M75.11,51.16H72.78a.7.7,0,1,1,0-1.4h2.33a.7.7,0,0,1,0,1.4"/><path class="cls-2" d="M48.75,51.16H46.42a.7.7,0,1,1,0-1.4h2.33a.7.7,0,1,1,0,1.4"/><path class="cls-2" d="M75.11,59.2H72.78a.7.7,0,0,1,0-1.4h2.33a.7.7,0,1,1,0,1.4"/><path class="cls-2" d="M48.75,59.2H46.42a.7.7,0,0,1,0-1.4h2.33a.7.7,0,0,1,0,1.4"/><path class="cls-2" d="M75.11,67.23H72.78a.7.7,0,0,1,0-1.4h2.33a.7.7,0,1,1,0,1.4"/><path class="cls-2" d="M48.75,67.23H46.42a.7.7,0,1,1,0-1.4h2.33a.7.7,0,0,1,0,1.4"/><rect class="cls-2" x="58.49" y="43.56" width="4.55" height="12.4"/><rect class="cls-2" x="54.56" y="47.49" width="12.4" height="4.55"/><polyline class="cls-2" points="55.99 76.03 55.99 66.08 65.94 66.08 65.94 76.03"/></g></g></svg>