<svg id="Layer_1" data-name="Layer 1" xmlns="http://www.w3.org/2000/svg" viewBox="0 0 53.72 49.05"><defs><style>.cls-1{fill:#414042;}</style></defs><path class="cls-1" d="M4.33,48.28v-19A2.82,2.82,0,0,1,3,29.6H2.85A2.86,2.86,0,0,1,0,26.75V16.5a4.87,4.87,0,0,1,4.86-4.86H14.7a4.87,4.87,0,0,1,4.86,4.86V26.75a2.86,2.86,0,0,1-2.85,2.85h-.19a2.82,2.82,0,0,1-1.29-.31v19a.77.77,0,0,1-.78.77H5.11A.77.77,0,0,1,4.33,48.28Zm9.35-21.53a.77.77,0,0,1,.77-.77.78.78,0,0,1,.78.77,1.3,1.3,0,0,0,1.29,1.3h.19a1.3,1.3,0,0,0,1.3-1.3V16.5a3.31,3.31,0,0,0-3.31-3.31H4.86A3.31,3.31,0,0,0,1.55,16.5V26.75a1.3,1.3,0,0,0,1.3,1.3H3a1.3,1.3,0,0,0,1.29-1.3.78.78,0,0,1,1.56,0V47.5h7.79Z"/><path class="cls-1" d="M14.45,27.53a.78.78,0,0,0,.78-.78v-7a.77.77,0,0,0-.78-.77.76.76,0,0,0-.77.77v7A.77.77,0,0,0,14.45,27.53Z"/><path class="cls-1" d="M5.11,27.53a.78.78,0,0,0,.78-.78v-7a.78.78,0,0,0-1.56,0v7A.78.78,0,0,0,5.11,27.53Z"/><path class="cls-1" d="M4.71,5.43A5.21,5.21,0,0,1,9.78.11a5.2,5.2,0,0,1,5.07,5.32,5.2,5.2,0,0,1-5.07,5.32A5.21,5.21,0,0,1,4.71,5.43Zm1.55,0A3.65,3.65,0,0,0,9.78,9.19,3.65,3.65,0,0,0,13.3,5.43,3.65,3.65,0,0,0,9.78,1.67,3.65,3.65,0,0,0,6.26,5.43Z"/><path class="cls-1" d="M9.78,49.05a.77.77,0,0,0,.78-.77V32.43a.78.78,0,0,0-1.56,0V48.28A.77.77,0,0,0,9.78,49.05Z"/><path class="cls-1" d="M48.61,23.1a.78.78,0,0,0,.78-.78V19.68a.78.78,0,1,0-1.56,0v2.64A.78.78,0,0,0,48.61,23.1Z"/><path class="cls-1" d="M39.26,27.43a.78.78,0,0,0,.78-.78v-7a.78.78,0,0,0-1.56,0v7A.78.78,0,0,0,39.26,27.43Z"/><path class="cls-1" d="M38.86,5.32A5.08,5.08,0,1,1,49,5.32a5.08,5.08,0,1,1-10.15,0Zm1.56,0a3.52,3.52,0,1,0,7,0,3.52,3.52,0,1,0-7,0Z"/><path class="cls-1" d="M43.94,49a.77.77,0,0,0,.77-.77V32.34a.78.78,0,1,0-1.55,0V48.19A.77.77,0,0,0,43.94,49Z"/><path class="cls-1" d="M45.37,27.43h3.24a5.11,5.11,0,0,0,5.11-5.11.78.78,0,0,0-.78-.78.77.77,0,0,0-.77.78,3.57,3.57,0,0,1-3.56,3.56H45.37a1.39,1.39,0,1,1,0-2.78h3.24a.78.78,0,0,0,0-1.56H45.37a2.95,2.95,0,0,0,0,5.89Z"/><path class="cls-1" d="M39.26,49h9.35a.77.77,0,0,0,.78-.77V26.65a.78.78,0,0,0-1.56,0V47.41H40V26.65a.78.78,0,0,0-1.56,0A1.3,1.3,0,0,1,37.19,28H37a1.3,1.3,0,0,1-1.3-1.3V16.39A3.32,3.32,0,0,1,39,13.08h9.85a3.32,3.32,0,0,1,3.31,3.31v5.93a.77.77,0,0,0,.77.78.78.78,0,0,0,.78-.78V16.39a4.87,4.87,0,0,0-4.86-4.86H39a4.87,4.87,0,0,0-4.86,4.86V26.65A2.85,2.85,0,0,0,37,29.5h.19a2.82,2.82,0,0,0,1.29-.31v19A.77.77,0,0,0,39.26,49Z"/><path class="cls-1" d="M34.93,49h18a.77.77,0,0,0,.78-.77.78.78,0,0,0-.78-.78h-18a.78.78,0,0,0-.78.78A.77.77,0,0,0,34.93,49Z"/><path class="cls-1" d="M22.59,26.16H32a.77.77,0,0,0,.78-.77.78.78,0,0,0-.78-.78H24.3l1.53-1.75a.78.78,0,0,0-1.17-1l-2.65,3a.77.77,0,0,0,.58,1.28Z"/><path class="cls-1" d="M25.24,29.2a.8.8,0,0,0,.51-.19.78.78,0,0,0,.08-1.1L24.3,26.16H32a.78.78,0,1,0,0-1.55H22.59a.77.77,0,0,0-.7.45.78.78,0,0,0,.12.84l2.65,3A.76.76,0,0,0,25.24,29.2Z"/></svg>