<svg xmlns="http://www.w3.org/2000/svg" viewBox="0 0 273.2 62.27"><defs><style>.cls-1{fill:#f58248;}.cls-2{fill:#439fc1;}</style></defs><g id="Capa_2" data-name="Capa 2"><g id="Capa_1-2" data-name="Capa 1"><g id="SVujrj"><path class="cls-1" d="M245.24,62.27c-.94-1-2.29-.84-3.45-1.14-13.87-3.53-18.24-15.7-17.37-25.8,1.07-12.34,10.27-21.22,22.11-21.9,12.51-.72,23.92,6.16,26.1,20,.06.33.37.61.57.92v5.23c-1.78,1.93-4,2.33-6.56,2.31-10.77-.09-21.54-.05-32.31,0-3,0-3.18.32-2.12,3.17,2.83,7.53,11.19,12,19.64,10.54a23.26,23.26,0,0,0,9.82-4.14,3.08,3.08,0,0,1,4.44.58c1.3,1.49.59,3-.5,4.17A14.12,14.12,0,0,1,259.56,60c-2.24.77-4.5,1.49-6.75,2.23Zm3.44-26.15c5.15,0,10.3,0,15.44,0,1.55,0,2.31-.24,2.05-2.07-1.13-7.92-8.37-14.2-16.68-14.33-9.38-.16-16.73,5.52-18.16,13.94-.33,1.93.24,2.53,2.21,2.48C238.59,36,243.64,36.12,248.68,36.12Z"/><path class="cls-1" d="M132.81,0a8,8,0,0,1,1.66,5.32c-.13,5.22-.05,10.45-.05,15.59.56.41.79.05,1-.25,6.3-9.3,26.05-11,34.53,1.68a22.2,22.2,0,0,1,3.48,12.39c.1,7.54,0,15.09.06,22.64a5.12,5.12,0,0,1-2.81,4.9h-2.33c-1.56-1.76-1.87-3.82-1.84-6.13.11-7,.07-14,0-20.94,0-9.09-6-15.45-14.56-15.51-9.78-.06-17.39,6.64-17.53,15.62q-.16,10.9,0,21.81c0,2.39-.73,4.06-2.82,5.15h-2.33c-1.59-1.62-1.9-3.56-1.89-5.79q.12-26,0-51.95c0-1.85.24-3.44,1.88-4.53Z"/><path class="cls-1" d="M185.82,62.27c-2.2-1.06-3-2.76-3.24-5.23-.94-10.71-2.08-21.4-3.17-32.09-.5-4.87,2.13-7.76,6.66-9.84-2.72-1.41-4.86-2.91-5.5-5.67-.95-4.1.53-6.74,5.25-9.44h4.08c4.53,2.61,6.11,5.38,5.32,9.16-.61,2.92-2.78,4.46-5.66,6.07,6.93,2.57,7.16,7.6,6.4,13.46-1.22,9.4-2.05,18.85-2.79,28.3-.22,2.79-1.33,4.42-3.85,5.28Z"/><path class="cls-2" d="M93.2,62.27C92.07,61,90.38,61.18,89,60.7,78.3,57.06,71.72,46.24,73.19,34.56c1.49-11.83,10.08-20.21,21.59-21.08,14.85-1.12,25.11,7.31,26.8,22,.49,4.32-.28,5.22-4.57,5.22H79.76c-3.48,0-3.48,0-2.49,3.46,3.45,12,16.75,18,29.13,13.06a27.13,27.13,0,0,0,5.34-2.92c1-.66,2-1,2.79.2s-.15,1.79-.9,2.44a22.78,22.78,0,0,1-10.19,4.69c-.54.12-1.2,0-1.5.63Zm4.16-24.55c6.2,0,12.41-.07,18.61,0,2,0,2.56-.55,2.32-2.5-.91-7.42-4.16-13.35-11.1-16.58C94.92,13,78.83,18.27,76.54,35.2c-.27,2,.24,2.58,2.2,2.55C85,37.66,91.15,37.72,97.36,37.72Z"/><path class="cls-2" d="M0,1.75C2.51.22,3.46.69,3.46,3.62c0,18.62,0,37.23,0,55.85a10.42,10.42,0,0,1-.59,2.8H0Z"/><path class="cls-2" d="M15.15,62.27a13.53,13.53,0,0,1-.49-3.7q0-20.49,0-41a12.84,12.84,0,0,1,.1-2.32,1.54,1.54,0,0,1,1.64-1.35A1.49,1.49,0,0,1,18,15.31a19.86,19.86,0,0,1,.06,2.32q0,20.49,0,41a7.18,7.18,0,0,1-.59,3.66Z"/><path class="cls-2" d="M48.29,55.89l8.12-16L68.66,15.84c.57-1.11,1.07-2.66,2.69-1.76,1.46.82.41,2.06-.08,3Q60.68,38.44,50,59.74c-.42.85-.7,1.94-1.91,1.94S46.46,60.5,46,59.59q-10.26-20-20.49-40.06c-.53-1-1.08-2.06-1.6-3.1s-.88-2.08.45-2.73,2,.14,2.55,1.19q3.45,6.7,6.87,13.44L47.05,54.47A2.28,2.28,0,0,0,48.29,55.89Z"/><path class="cls-2" d="M14.63,5.26c0-.58,0-1.16,0-1.74,0-1.31.29-2.39,1.85-2.36s1.65,1.05,1.62,2.23,0,2.32,0,3.48-.2,2.43-1.79,2.38C14.93,9.2,14.6,8.19,14.62,7,14.64,6.42,14.63,5.84,14.63,5.26Z"/><path class="cls-1" d="M208.28,21.17c3.77-5.38,8.4-7.34,14-7.18,2,.06,3.35.92,3.35,3.16s-1.36,3-3.33,3.2c-8.82.82-13.38,5.44-13.72,14.45-.28,7.16-.09,14.33-.13,21.5a11.41,11.41,0,0,1-.23,2.87,3.39,3.39,0,0,1-6.61-.44,6.4,6.4,0,0,1-.05-1.16q0-19.76,0-39.51a5.47,5.47,0,0,1,.15-1.72A3.17,3.17,0,0,1,205.28,14a2.79,2.79,0,0,1,2.8,2.78C208.16,17.93,208.18,19.07,208.28,21.17Z"/></g></g></g></svg>