<svg xmlns="http://www.w3.org/2000/svg" viewBox="0 0 211.46 162.49"><defs><style>.cls-1{font-size:14.82px;font-family:Raleway, sans-serif;font-weight:700;}.cls-1,.cls-3{fill:#fff;}.cls-2{fill:#e62f29;}</style></defs><g id="Capa_2" data-name="Capa 2"><g id="Capa_1-2" data-name="Capa 1"><text class="cls-1" transform="translate(15.25 80.54)">Run Smart Stores</text><polygon class="cls-2" points="194.87 69.72 190.46 74.13 202.66 86.32 190.46 98.52 194.87 102.92 211.46 86.32 194.87 69.72"/><path class="cls-3" d="M104.51,35.64H52.64a1.1,1.1,0,0,1-1.1-1.1V1.1A1.1,1.1,0,0,1,52.64,0h51.87a1.11,1.11,0,0,1,1.11,1.1V17.26a1.11,1.11,0,1,1-2.21,0V2.2H53.74V33.44h50.77a1.1,1.1,0,1,1,0,2.2Z"/><path class="cls-3" d="M113,45.53H44.17a2.33,2.33,0,0,1-1.39-4.19l9.15-7.65a1.14,1.14,0,0,1,.71-.25h51.87a1.14,1.14,0,0,1,.71.25l9.15,7.65A2.33,2.33,0,0,1,113,45.53ZM53,35.64l-8.88,7.41-.06.05s-.07,0,0,.14a.1.1,0,0,0,.11.08H113a.11.11,0,0,0,.12-.08.11.11,0,0,0,0-.14l-.06-.05-8.88-7.41Z"/><path class="cls-3" d="M104.85,41.73H51.91a1.11,1.11,0,0,1,0-2.21h52.94a1.11,1.11,0,0,1,0,2.21Z"/><path class="cls-3" d="M101.34,31.77a1.05,1.05,0,0,1-.77-.32L94,24.86,92.3,26.54a1.1,1.1,0,0,1-1.14.27,1.12,1.12,0,0,1-.74-.92L89.23,15.43a1.11,1.11,0,0,1,1.22-1.22l10.46,1.2a1.1,1.1,0,0,1,.65,1.87L99.88,19l6.59,6.59a1.1,1.1,0,0,1-1.56,1.56l-7.37-7.37a1.1,1.1,0,0,1-.32-.78,1.14,1.14,0,0,1,.32-.78l.85-.84-6.81-.78.77,6.81.85-.84a1.1,1.1,0,0,1,1.56,0l7.36,7.36a1.1,1.1,0,0,1,0,1.56A1.06,1.06,0,0,1,101.34,31.77Z"/><path class="cls-3" d="M66,16.13H58.44a1.1,1.1,0,0,1-1.1-1.1V7.49a1.1,1.1,0,0,1,1.1-1.1H66a1.1,1.1,0,0,1,0,2.2H59.54v5.34h5.34V12.38a1.1,1.1,0,1,1,2.2,0V15A1.1,1.1,0,0,1,66,16.13Z"/><path class="cls-2" d="M62.72,12.67a1.14,1.14,0,0,1-.78-.32l-1-1a1.1,1.1,0,0,1,1.56-1.56l.12.12L66,5.83a1.1,1.1,0,1,1,1.7,1.4l-4.14,5a1.13,1.13,0,0,1-.8.4Z"/><path class="cls-3" d="M66,30.38H58.44a1.1,1.1,0,0,1-1.1-1.1V21.74a1.1,1.1,0,0,1,1.1-1.1H66a1.1,1.1,0,0,1,0,2.2H59.54v5.33h5.34V26.62a1.1,1.1,0,1,1,2.2,0v2.66A1.1,1.1,0,0,1,66,30.38Z"/><path class="cls-2" d="M62.72,26.92a1.14,1.14,0,0,1-.78-.32l-1-1a1.1,1.1,0,0,1,1.56-1.56l.12.12L66,20.08a1.1,1.1,0,1,1,1.7,1.4l-4.14,5a1.13,1.13,0,0,1-.8.4Z"/><path class="cls-2" d="M98.59,8.59H73.17a1.1,1.1,0,1,1,0-2.2H98.59a1.1,1.1,0,0,1,0,2.2Z"/><path class="cls-2" d="M84.13,14h-11a1.1,1.1,0,1,1,0-2.2h11a1.1,1.1,0,1,1,0,2.2Z"/><path class="cls-2" d="M85.35,22.84H73.17a1.1,1.1,0,0,1,0-2.2H85.35a1.1,1.1,0,0,1,0,2.2Z"/><path class="cls-2" d="M79.73,28.23H73.17a1.1,1.1,0,0,1,0-2.2h6.56a1.1,1.1,0,0,1,0,2.2Z"/></g></g></svg>