<svg xmlns="http://www.w3.org/2000/svg" viewBox="0 0 210.35 182.17"><defs><style>.cls-1{fill:#332d2f;}.cls-2{fill:#f6f6f6;}</style></defs><g id="Capa_2" data-name="Capa 2"><g id="Capa_1-2" data-name="Capa 1"><polygon class="cls-1" points="157.76 0 52.59 0 0 91.08 52.59 182.16 157.76 182.16 210.35 91.08 157.76 0"/><path class="cls-2" d="M104.24,50.75a3.12,3.12,0,1,1,3.12-3.12A3.12,3.12,0,0,1,104.24,50.75Zm0-4.35a1.24,1.24,0,1,0,1.24,1.23A1.24,1.24,0,0,0,104.24,46.4Z"/><path class="cls-2" d="M104.24,51.06a3.43,3.43,0,1,1,3.43-3.43A3.43,3.43,0,0,1,104.24,51.06Zm0-6.23a2.81,2.81,0,1,0,2.81,2.8A2.81,2.81,0,0,0,104.24,44.83Zm0,4.35a1.55,1.55,0,1,1,1.55-1.55A1.54,1.54,0,0,1,104.24,49.18Zm0-2.47a.93.93,0,1,0,.93.92A.93.93,0,0,0,104.24,46.71Z"/><path class="cls-2" d="M107.77,58.45h-7.06a.94.94,0,0,1-.94-1V55.07a3.38,3.38,0,0,1,3.38-3.37h2.18a3.38,3.38,0,0,1,3.38,3.37V57.5A.94.94,0,0,1,107.77,58.45Zm-6.12-1.88h5.18v-1.5a1.5,1.5,0,0,0-1.5-1.49h-2.18a1.5,1.5,0,0,0-1.5,1.49Z"/><path class="cls-2" d="M107.77,58.76h-7.06a1.26,1.26,0,0,1-1.25-1.26V55.07a3.69,3.69,0,0,1,3.69-3.68h2.18A3.69,3.69,0,0,1,109,55.07V57.5A1.26,1.26,0,0,1,107.77,58.76ZM103.15,52a3.07,3.07,0,0,0-3.07,3.06V57.5a.64.64,0,0,0,.63.64h7.06a.64.64,0,0,0,.63-.64V55.07A3.07,3.07,0,0,0,105.33,52Zm4,4.87h-5.8V55.07a1.8,1.8,0,0,1,1.81-1.8h2.18a1.8,1.8,0,0,1,1.81,1.8ZM102,56.26h4.56V55.07a1.19,1.19,0,0,0-1.19-1.18h-2.18A1.19,1.19,0,0,0,102,55.07Z"/><path class="cls-2" d="M104.24,93.35A5.33,5.33,0,1,1,109.58,88,5.34,5.34,0,0,1,104.24,93.35Zm0-8.78A3.46,3.46,0,1,0,107.7,88,3.46,3.46,0,0,0,104.24,84.57Z"/><path class="cls-2" d="M104.24,93.66A5.64,5.64,0,1,1,109.89,88,5.64,5.64,0,0,1,104.24,93.66Zm0-10.65a5,5,0,1,0,5,5A5,5,0,0,0,104.24,83Zm0,8.77A3.76,3.76,0,1,1,108,88,3.76,3.76,0,0,1,104.24,91.78Zm0-6.9A3.14,3.14,0,1,0,107.39,88,3.15,3.15,0,0,0,104.24,84.88Z"/><path class="cls-2" d="M111.36,106.37H97.12a1,1,0,0,1-.94-.94v-4.91A5.86,5.86,0,0,1,102,94.67h4.4a5.85,5.85,0,0,1,5.85,5.85v4.91A.94.94,0,0,1,111.36,106.37Zm-13.3-1.88h12.36v-4a4,4,0,0,0-4-4H102a4,4,0,0,0-4,4Z"/><path class="cls-2" d="M111.36,106.68H97.12a1.26,1.26,0,0,1-1.25-1.25v-4.91A6.17,6.17,0,0,1,102,94.36h4.4a6.16,6.16,0,0,1,6.16,6.16v4.91A1.25,1.25,0,0,1,111.36,106.68ZM102,95a5.55,5.55,0,0,0-5.55,5.54v4.91a.63.63,0,0,0,.63.63h14.24a.63.63,0,0,0,.62-.63v-4.91A5.54,5.54,0,0,0,106.44,95Zm8.69,9.82h-13v-4.28A4.3,4.3,0,0,1,102,96.23h4.4a4.3,4.3,0,0,1,4.29,4.29Zm-12.36-.62h11.74v-3.66a3.68,3.68,0,0,0-3.67-3.67H102a3.68,3.68,0,0,0-3.67,3.67Z"/><path class="cls-2" d="M104.24,117.7a.9.9,0,0,1-.47-.13L84.42,106.41c-.29-.17-.47-.48-.21.56V84.63c-.26-1.7-.08-2,.21-2.18l9.68-5.59,9.67-5.58a.93.93,0,0,1,.94,0l9.68,5.58,9.67,5.59a.94.94,0,0,1,.47.81V105.6a.94.94,0,0,1-.47.81l-19.35,11.16A.9.9,0,0,1,104.24,117.7ZM85.83,105.05l18.41,10.63,18.41-10.63V83.81l-9.21-5.32-9.2-5.31L85.83,83.81Z"/><path class="cls-2" d="M104.24,118.32a1.55,1.55,0,0,1-.78-.21l-18.73-10.8a.59.59,0,0,1-.44.27.61.61,0,0,1-.68-.46c-.13-.52-.24-.94,0-1.24V84.63c-.23-1.43-.22-2.29.52-2.72l19.35-11.17a1.58,1.58,0,0,1,1.56,0l19.35,11.17a1.57,1.57,0,0,1,.78,1.35V105.6a1.57,1.57,0,0,1-.78,1.35L105,118.11A1.55,1.55,0,0,1,104.24,118.32ZM84.83,105.93,104.08,117a.36.36,0,0,0,.32,0l19.35-11.16a.33.33,0,0,0,.16-.28V83.26a.32.32,0,0,0-.16-.27L104.4,71.82a.31.31,0,0,0-.32,0L84.73,83a4,4,0,0,0,.1,1.55Zm19.41,10.37a.56.56,0,0,1-.31-.09L85.52,105.59a.61.61,0,0,1-.32-.54V83.81a.62.62,0,0,1,.32-.54l18.41-10.63a.62.62,0,0,1,.62,0L123,83.27a.63.63,0,0,1,.31.54v21.24a.62.62,0,0,1-.31.54l-18.41,10.62A.59.59,0,0,1,104.24,116.3ZM86.45,104.7,104.24,115,122,104.7V84.17L104.24,73.9,86.45,84.17Z"/><path class="cls-2" d="M104.24,73a.94.94,0,0,1-.94-.94v-9.8a.94.94,0,0,1,1.88,0v9.8A.94.94,0,0,1,104.24,73Z"/><path class="cls-2" d="M104.24,73.34A1.25,1.25,0,0,1,103,72.09v-9.8a1.25,1.25,0,0,1,2.5,0v9.8A1.25,1.25,0,0,1,104.24,73.34Zm0-11.67a.63.63,0,0,0-.63.62v9.8a.63.63,0,0,0,1.26,0v-9.8A.63.63,0,0,0,104.24,61.67Z"/><path class="cls-2" d="M123.8,84.32a1,1,0,0,1-.82-.47.94.94,0,0,1,.35-1.28l8.49-4.9a.94.94,0,0,1,.94,1.63l-8.49,4.89A.9.9,0,0,1,123.8,84.32Z"/><path class="cls-2" d="M123.8,84.63a1.25,1.25,0,0,1-.63-2.33l8.49-4.9a1.26,1.26,0,0,1,1.84,1.41,1.28,1.28,0,0,1-.59.76l-8.49,4.89A1.23,1.23,0,0,1,123.8,84.63Zm8.48-6.78a.61.61,0,0,0-.31.09l-8.49,4.89a.64.64,0,0,0-.23.86.66.66,0,0,0,.86.24L132.6,79a.63.63,0,0,0,.3-.38.62.62,0,0,0-.07-.48A.63.63,0,0,0,132.28,77.85Z"/><path class="cls-2" d="M132.29,111.79a1,1,0,0,1-.47-.13l-8.49-4.9a.94.94,0,1,1,.94-1.62l8.49,4.89a.94.94,0,0,1-.47,1.76Z"/><path class="cls-2" d="M132.29,112.1a1.27,1.27,0,0,1-.63-.17l-8.49-4.9a1.25,1.25,0,1,1,1.25-2.16l8.49,4.89a1.28,1.28,0,0,1,.59.76,1.26,1.26,0,0,1-.13,1A1.25,1.25,0,0,1,132.29,112.1Zm-8.5-6.78a.62.62,0,0,0-.54.32.64.64,0,0,0,.23.86l8.49,4.89a.64.64,0,0,0,.86-.23.63.63,0,0,0,.07-.48.63.63,0,0,0-.3-.38l-8.49-4.9A.72.72,0,0,0,123.79,105.32Z"/><path class="cls-2" d="M104.24,128a.94.94,0,0,1-.94-.93v-9.8a.94.94,0,1,1,1.88,0V127A.94.94,0,0,1,104.24,128Z"/><path class="cls-2" d="M104.24,128.28A1.26,1.26,0,0,1,103,127v-9.79a1.25,1.25,0,1,1,2.5,0V127A1.26,1.26,0,0,1,104.24,128.28Zm0-11.68a.64.64,0,0,0-.63.64V127a.63.63,0,0,0,1.26,0v-9.79A.64.64,0,0,0,104.24,116.6Z"/><path class="cls-2" d="M76.19,111.79a.94.94,0,0,1-.47-1.76l8.49-4.89a.94.94,0,0,1,.94,1.62l-8.49,4.9A1,1,0,0,1,76.19,111.79Z"/><path class="cls-2" d="M76.19,112.1A1.25,1.25,0,0,1,75,110.52a1.3,1.3,0,0,1,.58-.76l8.5-4.89a1.25,1.25,0,0,1,1-.13,1.27,1.27,0,0,1,.88,1.53,1.25,1.25,0,0,1-.59.76l-8.49,4.9A1.23,1.23,0,0,1,76.19,112.1Zm8.49-6.78a.65.65,0,0,0-.31.08l-8.5,4.9a.62.62,0,0,0-.29.38.67.67,0,0,0,.06.48.64.64,0,0,0,.86.23L85,106.5a.68.68,0,0,0,.3-.39.6.6,0,0,0-.07-.47.61.61,0,0,0-.38-.3Z"/><path class="cls-2" d="M84.68,84.32a.9.9,0,0,1-.47-.13l-8.49-4.9a.94.94,0,1,1,.94-1.63l8.49,4.91a.94.94,0,0,1-.47,1.75Z"/><path class="cls-2" d="M84.68,84.63a1.27,1.27,0,0,1-.63-.17l-8.49-4.9a1.25,1.25,0,0,1-.45-1.71,1.18,1.18,0,0,1,.75-.58,1.26,1.26,0,0,1,1,.12l8.5,4.91a1.25,1.25,0,0,1,.58.76,1.26,1.26,0,0,1-.13,1A1.25,1.25,0,0,1,84.68,84.63Zm-8.49-6.78a.5.5,0,0,0-.17,0,.65.65,0,0,0-.38.29.63.63,0,0,0,.23.86l8.49,4.9a.65.65,0,0,0,.86-.22.62.62,0,0,0-.22-.86l-8.5-4.91A.55.55,0,0,0,76.19,77.85Z"/><path class="cls-2" d="M104.24,63.24A11.76,11.76,0,1,1,116,51.48,11.78,11.78,0,0,1,104.24,63.24Zm0-21.64a9.88,9.88,0,1,0,9.88,9.88A9.9,9.9,0,0,0,104.24,41.6Z"/><path class="cls-2" d="M104.24,63.55a12.07,12.07,0,1,1,12.07-12.07A12.09,12.09,0,0,1,104.24,63.55Zm0-23.51a11.45,11.45,0,1,0,11.45,11.44A11.46,11.46,0,0,0,104.24,40Zm0,21.63a10.19,10.19,0,1,1,10.19-10.19A10.21,10.21,0,0,1,104.24,61.67Zm0-19.75a9.57,9.57,0,1,0,9.57,9.56A9.58,9.58,0,0,0,104.24,41.92Z"/><path class="cls-2" d="M141.67,84.83A11.74,11.74,0,0,1,130.3,70a11.66,11.66,0,0,1,5.48-7.14A11.76,11.76,0,0,1,153,76.11a11.8,11.8,0,0,1-11.36,8.72Zm0-21.64a9.88,9.88,0,0,0-9.54,7.33,9.81,9.81,0,0,0,1,7.49,9.89,9.89,0,1,0,8.55-14.82Z"/><path class="cls-2" d="M141.67,85.14a12.11,12.11,0,0,1-10.46-6,12.07,12.07,0,0,1,4.41-16.49,12.07,12.07,0,1,1,6,22.52Zm0-23.52a11.46,11.46,0,0,0-9.91,17.18A11.45,11.45,0,0,0,147.39,83a11.43,11.43,0,0,0,4.19-15.63A11.5,11.5,0,0,0,141.65,61.62Zm0,21.64a10.25,10.25,0,0,1-8.84-5.09,10.2,10.2,0,1,1,8.84,5.09Zm0-19.76A9.57,9.57,0,1,0,150,68.29,9.63,9.63,0,0,0,141.65,63.5Z"/><path class="cls-2" d="M141.66,128a11.76,11.76,0,0,1-10.19-17.64,11.83,11.83,0,0,1,10.2-5.87,11.64,11.64,0,0,1,5.87,1.58A11.75,11.75,0,0,1,141.66,128Zm0-21.63a9.89,9.89,0,0,0-9.56,12.44,9.92,9.92,0,0,0,9.55,7.31,9.86,9.86,0,0,0,4.94-18.42A9.83,9.83,0,0,0,141.67,106.38Z"/><path class="cls-2" d="M141.66,128.32a12.12,12.12,0,0,1-6-1.62,12.07,12.07,0,0,1-4.42-16.48,12.08,12.08,0,0,1,22.12,2.91,12,12,0,0,1-1.2,9.16A12.11,12.11,0,0,1,141.66,128.32Zm0-23.51a11.5,11.5,0,0,0-9.93,5.72,11.45,11.45,0,1,0,9.93-5.72Zm0,21.63a10.19,10.19,0,1,1,5.1-19,10.2,10.2,0,0,1,3.73,13.91A10.22,10.22,0,0,1,141.66,126.44Zm0-19.75a9.62,9.62,0,0,0-8.3,4.78,9.56,9.56,0,0,0,8.29,14.35,9.57,9.57,0,1,0,0-19.13Z"/><path class="cls-2" d="M104.24,149.6A11.76,11.76,0,1,1,116,137.85,11.77,11.77,0,0,1,104.24,149.6Zm0-21.64a9.88,9.88,0,1,0,9.88,9.89A9.91,9.91,0,0,0,104.24,128Z"/><path class="cls-2" d="M104.24,149.91a12.07,12.07,0,1,1,12.07-12.06A12.08,12.08,0,0,1,104.24,149.91Zm0-23.51a11.45,11.45,0,1,0,11.45,11.45A11.46,11.46,0,0,0,104.24,126.4Zm0,21.63a10.19,10.19,0,1,1,10.19-10.18A10.21,10.21,0,0,1,104.24,148Zm0-19.75a9.57,9.57,0,1,0,9.57,9.57A9.59,9.59,0,0,0,104.24,128.28Z"/><path class="cls-2" d="M66.82,128a11.8,11.8,0,1,1,5.87-1.58A11.79,11.79,0,0,1,66.82,128Zm0-21.63a10,10,0,0,0-4.93,1.32,9.9,9.9,0,0,0-3.62,13.5,9.91,9.91,0,0,0,13.51,3.61,9.88,9.88,0,0,0-5-18.43Z"/><path class="cls-2" d="M66.82,128.32a12.11,12.11,0,0,1-10.46-6,12.07,12.07,0,0,1,10.44-18.1,12.07,12.07,0,0,1,11.68,15.19,12.1,12.1,0,0,1-11.66,8.94Zm0-23.51a11.45,11.45,0,0,0-11,8.48A11.34,11.34,0,0,0,56.9,122a11.45,11.45,0,1,0,9.9-17.17Zm0,21.63A10.22,10.22,0,0,1,58,121.35a10.19,10.19,0,0,1,3.73-13.92,10.19,10.19,0,0,1,14.94,11.46,10.21,10.21,0,0,1-9.84,7.55Zm0-19.75a9.56,9.56,0,1,0,8.31,4.78A9.62,9.62,0,0,0,66.8,106.69Z"/><path class="cls-2" d="M66.8,84.83a11.8,11.8,0,0,1-5.87-1.58,11.75,11.75,0,0,1-4.3-16.06A11.76,11.76,0,1,1,66.8,84.83Zm0-21.64a9.93,9.93,0,0,0-8.57,5,9.89,9.89,0,0,0,3.62,13.49,9.89,9.89,0,1,0,4.95-18.44Z"/><path class="cls-2" d="M66.8,85.14a12.09,12.09,0,0,1-6-1.62A12.06,12.06,0,0,1,56.36,67,12.07,12.07,0,1,1,66.8,85.14Zm0-23.52a11.5,11.5,0,0,0-9.93,5.73,11.45,11.45,0,0,0,9.9,17.17,11.45,11.45,0,0,0,0-22.9Zm0,21.64a10.19,10.19,0,1,1,8.84-5.09A10.15,10.15,0,0,1,66.8,83.26Zm0-19.76a9.57,9.57,0,0,0-9.26,12,9.57,9.57,0,1,0,14-10.77A9.69,9.69,0,0,0,66.83,63.5Z"/><path class="cls-2" d="M141.66,72.34a3.12,3.12,0,1,1,3.12-3.12A3.12,3.12,0,0,1,141.66,72.34Zm0-4.35a1.24,1.24,0,1,0,1.24,1.23A1.24,1.24,0,0,0,141.66,68Z"/><path class="cls-2" d="M141.66,72.65a3.43,3.43,0,1,1,3.43-3.43A3.44,3.44,0,0,1,141.66,72.65Zm0-6.23a2.81,2.81,0,1,0,2.81,2.8A2.81,2.81,0,0,0,141.66,66.42Zm0,4.35a1.55,1.55,0,1,1,1.55-1.55A1.56,1.56,0,0,1,141.66,70.77Zm0-2.47a.93.93,0,1,0,.93.92A.93.93,0,0,0,141.66,68.3Z"/><path class="cls-2" d="M145.19,80h-7.05a.94.94,0,0,1-.94-.94V76.66a3.37,3.37,0,0,1,3.37-3.37h2.18a3.38,3.38,0,0,1,3.38,3.37V79.1A.94.94,0,0,1,145.19,80Zm-6.11-1.88h5.17v-1.5a1.5,1.5,0,0,0-1.5-1.49h-2.18a1.49,1.49,0,0,0-1.49,1.49Z"/><path class="cls-2" d="M145.19,80.35h-7.05a1.25,1.25,0,0,1-1.25-1.25V76.66A3.68,3.68,0,0,1,140.57,73h2.18a3.69,3.69,0,0,1,3.69,3.68V79.1A1.25,1.25,0,0,1,145.19,80.35Zm-4.62-6.75a3.06,3.06,0,0,0-3.06,3.06V79.1a.63.63,0,0,0,.63.63h7.05a.63.63,0,0,0,.63-.63V76.66a3.07,3.07,0,0,0-3.07-3.06Zm4,4.87h-5.79V76.66a1.81,1.81,0,0,1,1.8-1.8h2.18a1.81,1.81,0,0,1,1.81,1.8Zm-5.17-.62h4.55V76.66a1.19,1.19,0,0,0-1.19-1.18h-2.18a1.18,1.18,0,0,0-1.18,1.18Z"/><path class="cls-2" d="M66.82,115.53a3.12,3.12,0,1,1,3.11-3.12A3.12,3.12,0,0,1,66.82,115.53Zm0-4.36a1.24,1.24,0,1,0,1.23,1.24A1.24,1.24,0,0,0,66.82,111.17Z"/><path class="cls-2" d="M66.82,115.84a3.43,3.43,0,1,1,3.42-3.43A3.43,3.43,0,0,1,66.82,115.84Zm0-6.24a2.81,2.81,0,1,0,2.8,2.81A2.81,2.81,0,0,0,66.82,109.6Zm0,4.36a1.55,1.55,0,1,1,1.54-1.55A1.54,1.54,0,0,1,66.82,114Zm0-2.48a.93.93,0,1,0,.92.93A.93.93,0,0,0,66.82,111.48Z"/><path class="cls-2" d="M70.34,123.22H63.29a.94.94,0,0,1-.94-.94v-2.43a3.38,3.38,0,0,1,3.38-3.38H67.9a3.38,3.38,0,0,1,3.38,3.38v2.43A.94.94,0,0,1,70.34,123.22Zm-6.11-1.88H69.4v-1.49a1.5,1.5,0,0,0-1.5-1.5H65.73a1.5,1.5,0,0,0-1.5,1.5Z"/><path class="cls-2" d="M70.34,123.53H63.29A1.25,1.25,0,0,1,62,122.28v-2.43a3.69,3.69,0,0,1,3.69-3.69H67.9a3.69,3.69,0,0,1,3.69,3.69v2.43A1.25,1.25,0,0,1,70.34,123.53Zm-4.61-6.75a3.08,3.08,0,0,0-3.07,3.07v2.43a.63.63,0,0,0,.63.63h7.05a.63.63,0,0,0,.63-.63v-2.43a3.08,3.08,0,0,0-3.07-3.07Zm4,4.87H63.92v-1.8A1.81,1.81,0,0,1,65.73,118H67.9a1.81,1.81,0,0,1,1.81,1.81ZM64.54,121h4.55v-1.18a1.19,1.19,0,0,0-1.19-1.19H65.73a1.19,1.19,0,0,0-1.19,1.19Z"/><path class="cls-2" d="M141.66,115.53a3.12,3.12,0,1,1,3.12-3.12A3.12,3.12,0,0,1,141.66,115.53Zm0-4.36a1.24,1.24,0,1,0,1.24,1.24A1.25,1.25,0,0,0,141.66,111.17Z"/><path class="cls-2" d="M141.66,115.84a3.43,3.43,0,1,1,3.43-3.43A3.44,3.44,0,0,1,141.66,115.84Zm0-6.24a2.81,2.81,0,1,0,2.81,2.81A2.81,2.81,0,0,0,141.66,109.6Zm0,4.36a1.55,1.55,0,1,1,1.55-1.55A1.55,1.55,0,0,1,141.66,114Zm0-2.48a.93.93,0,1,0,.93.93A.93.93,0,0,0,141.66,111.48Z"/><path class="cls-2" d="M145.19,123.22h-7.05a.94.94,0,0,1-.94-.94v-2.43a3.37,3.37,0,0,1,3.37-3.38h2.18a3.38,3.38,0,0,1,3.38,3.38v2.43A.94.94,0,0,1,145.19,123.22Zm-6.11-1.88h5.17v-1.49a1.5,1.5,0,0,0-1.5-1.5h-2.18a1.5,1.5,0,0,0-1.49,1.5Z"/><path class="cls-2" d="M145.19,123.53h-7.05a1.25,1.25,0,0,1-1.25-1.25v-2.43a3.69,3.69,0,0,1,3.68-3.69h2.18a3.69,3.69,0,0,1,3.69,3.69v2.43A1.25,1.25,0,0,1,145.19,123.53Zm-4.62-6.75a3.07,3.07,0,0,0-3.06,3.07v2.43a.63.63,0,0,0,.63.63h7.05a.63.63,0,0,0,.63-.63v-2.43a3.08,3.08,0,0,0-3.07-3.07Zm4,4.87h-5.79v-1.8a1.81,1.81,0,0,1,1.8-1.81h2.18a1.81,1.81,0,0,1,1.81,1.81Zm-5.17-.62h4.55v-1.18a1.19,1.19,0,0,0-1.19-1.19h-2.18a1.18,1.18,0,0,0-1.18,1.19Z"/><path class="cls-2" d="M104.24,137.11a3.12,3.12,0,1,1,3.12-3.11A3.12,3.12,0,0,1,104.24,137.11Zm0-4.35a1.24,1.24,0,1,0,1.24,1.24A1.25,1.25,0,0,0,104.24,132.76Z"/><path class="cls-2" d="M104.24,137.43a3.43,3.43,0,1,1,3.43-3.43A3.44,3.44,0,0,1,104.24,137.43Zm0-6.24a2.81,2.81,0,1,0,2.81,2.81A2.81,2.81,0,0,0,104.24,131.19Zm0,4.36a1.55,1.55,0,1,1,1.55-1.55A1.55,1.55,0,0,1,104.24,135.55Zm0-2.48a.93.93,0,1,0,.93.93A.93.93,0,0,0,104.24,133.07Z"/><path class="cls-2" d="M107.76,144.81h-7.05a.94.94,0,0,1-.94-.93v-2.45a3.38,3.38,0,0,1,3.38-3.36h2.18a3.37,3.37,0,0,1,3.37,3.36v2.45A.94.94,0,0,1,107.76,144.81Zm-6.11-1.87h5.17v-1.51a1.49,1.49,0,0,0-1.49-1.48h-2.18a1.49,1.49,0,0,0-1.5,1.48Z"/><path class="cls-2" d="M107.76,145.12h-7.05a1.25,1.25,0,0,1-1.25-1.25v-2.44a3.68,3.68,0,0,1,3.69-3.67h2.18a3.67,3.67,0,0,1,3.68,3.67v2.44A1.25,1.25,0,0,1,107.76,145.12Zm-4.61-6.74a3.07,3.07,0,0,0-3.07,3.05v2.44a.63.63,0,0,0,.63.63h7.05a.63.63,0,0,0,.63-.63v-2.44a3.06,3.06,0,0,0-3.06-3.05Zm4,4.87h-5.79v-1.82a1.81,1.81,0,0,1,1.81-1.8h2.18a1.81,1.81,0,0,1,1.8,1.8Zm-5.17-.62h4.55v-1.2a1.17,1.17,0,0,0-1.18-1.17h-2.18a1.18,1.18,0,0,0-1.19,1.17Z"/><path class="cls-2" d="M66.81,72.34a3.12,3.12,0,1,1,3.12-3.12A3.12,3.12,0,0,1,66.81,72.34Zm0-4.35a1.24,1.24,0,0,0,0,2.47,1.24,1.24,0,1,0,0-2.47Z"/><path class="cls-2" d="M66.81,72.65a3.43,3.43,0,1,1,3.43-3.43A3.43,3.43,0,0,1,66.81,72.65Zm0-6.23a2.81,2.81,0,1,0,2.81,2.8A2.8,2.8,0,0,0,66.81,66.42Zm0,4.35a1.55,1.55,0,1,1,1.55-1.55A1.55,1.55,0,0,1,66.81,70.77Zm0-2.47a.93.93,0,0,0,0,1.85.93.93,0,1,0,0-1.85Z"/><path class="cls-2" d="M70.34,80H63.29a.94.94,0,0,1-.94-.94V76.66a3.37,3.37,0,0,1,3.38-3.37H67.9a3.38,3.38,0,0,1,3.38,3.37V79.1A.94.94,0,0,1,70.34,80Zm-6.11-1.88H69.4v-1.5a1.5,1.5,0,0,0-1.5-1.49H65.73a1.5,1.5,0,0,0-1.5,1.49Z"/><path class="cls-2" d="M70.34,80.35H63.29A1.25,1.25,0,0,1,62,79.1V76.66A3.69,3.69,0,0,1,65.73,73H67.9a3.69,3.69,0,0,1,3.69,3.68V79.1A1.25,1.25,0,0,1,70.34,80.35ZM65.73,73.6a3.07,3.07,0,0,0-3.07,3.06V79.1a.63.63,0,0,0,.63.63h7.05A.63.63,0,0,0,71,79.1V76.66A3.07,3.07,0,0,0,67.9,73.6Zm4,4.87H63.92V76.66a1.81,1.81,0,0,1,1.81-1.8H67.9a1.81,1.81,0,0,1,1.81,1.8Zm-5.17-.62h4.55V76.66a1.18,1.18,0,0,0-1.19-1.18H65.73a1.18,1.18,0,0,0-1.19,1.18Z"/></g></g></svg>