<svg xmlns="http://www.w3.org/2000/svg" viewBox="0 0 134.99 116.91"><defs><style>.cls-1{fill:#332d2f;}.cls-2{fill:#fff;}.cls-3{fill:#cf181d;}</style></defs><g id="Capa_2" data-name="Capa 2"><g id="Capa_1-2" data-name="Capa 1"><polygon class="cls-1" points="101.24 0 33.75 0 0 58.45 33.75 116.91 101.24 116.91 134.99 58.45 101.24 0"/><path class="cls-2" d="M85.24,58.22c-.65-2.39-2-4.62-1.53-7.25.68-11-10.47-17.23-18.64-16.09C53.75,36.47,47.14,50.16,53.56,60c3.48,5.36,5.53,10.07,3,16.17-.54,1.32.11,2.31,1.59,2.67,4.28,1,8.55,2.1,12.81,3.18,1.6.4,2.26-.3,2.32-1.83s0-3,.23-4.4c.45-3.36,1.1-3.75,4.34-2.85,1.55.43,3.55.86,3.93-1.09.52-2.71,2.64-5.15,1.52-8.18A1.23,1.23,0,0,1,84.05,62C86.34,61.29,85.65,59.75,85.24,58.22Zm-2.51,2.56a1.83,1.83,0,0,0-1,2.19c.81,2.6-.51,4.88-.82,7.3-.2,1.55-1,1.77-2.36,1.43-4.9-1.22-6-.34-6.43,4.76-.06.86-.17,1.71-.28,2.57s-.33,1.52-1.45,1.3l-5.9-1.39c-6.61-1.55-6.73-1.52-5.16-7.91.88-3.57-.49-6.22-2.65-8.74a15.87,15.87,0,0,1-3.94-11.21c.2-6.3,4-12,9.41-14,5.25-2,12.68-.13,16.68,4.24C80.74,43.47,82.24,46,82,49a21.16,21.16,0,0,0,1.51,8.85C84,59,84.44,60.12,82.73,60.78Z"/><path class="cls-3" d="M85.66,29.59s2.74,10.47-4,14.31c0,0-18.94-10.49-28.51,3.78a8.58,8.58,0,0,1-2.1-9c1.78-5.74,15-10.69,24.24-7.39S85.66,29.59,85.66,29.59Z"/></g></g></svg>