<svg id="Layer_1" data-name="Layer 1" xmlns="http://www.w3.org/2000/svg" viewBox="0 0 76.41 44.75"><defs><style>.cls-1{fill:#414042;}</style></defs><path class="cls-1" d="M20,44.75a.81.81,0,0,1-.37-.09.78.78,0,0,1-.41-.68V37.44A4,4,0,0,1,23.2,33.5H34.59a.78.78,0,0,1,.74.55.79.79,0,0,1-.31.88L20.47,44.62A.75.75,0,0,1,20,44.75Zm3.16-9.69a2.37,2.37,0,0,0-2.38,2.38v5.08L32,35.06Z"/><path class="cls-1" d="M28.06,9.84H7.3a.78.78,0,0,1-.78-.77V5.71a.78.78,0,0,1,.78-.78H28.06a.78.78,0,0,1,.78.78V9.07A.78.78,0,0,1,28.06,9.84Zm-20-1.55H27.29V6.48H8.08Z"/><path class="cls-1" d="M20.84,14.05H14.53a.77.77,0,0,1-.78-.77.78.78,0,0,1,.78-.78h6.31a.78.78,0,0,1,.77.78A.77.77,0,0,1,20.84,14.05Z"/><path class="cls-1" d="M28.25,18.27H7.3a.78.78,0,1,1,0-1.56h21a.78.78,0,0,1,0,1.56Z"/><path class="cls-1" d="M24.15,22.48H7.3a.78.78,0,1,1,0-1.56H24.15a.78.78,0,0,1,0,1.56Z"/><path class="cls-1" d="M19.75,26.69H7.3a.78.78,0,0,1-.78-.78.77.77,0,0,1,.78-.77H19.75a.77.77,0,0,1,.78.77A.78.78,0,0,1,19.75,26.69Z"/><path class="cls-1" d="M15.55,30.9H7.3a.78.78,0,1,1,0-1.55h8.25a.78.78,0,1,1,0,1.55Z"/><path class="cls-1" d="M20,44.75H3.94A3.94,3.94,0,0,1,0,40.82V39.27a.77.77,0,0,1,.78-.77.76.76,0,0,1,.77.77v1.55A2.39,2.39,0,0,0,3.94,43.2H19.8l14-9.34V8.33a.78.78,0,0,1,.78-.78.77.77,0,0,1,.77.78v26a.8.8,0,0,1-.34.65L20.47,44.62A.75.75,0,0,1,20,44.75Z"/><path class="cls-1" d="M.78,40.29A.78.78,0,0,1,0,39.51V3.94A4,4,0,0,1,3.94,0H31.43a3.94,3.94,0,0,1,3.93,3.94V7.39a.76.76,0,0,1-.77.77.77.77,0,0,1-.78-.77V3.94a2.39,2.39,0,0,0-2.38-2.39H3.94A2.39,2.39,0,0,0,1.55,3.94V39.51A.77.77,0,0,1,.78,40.29Z"/><path class="cls-1" d="M61.08,44.75a.77.77,0,0,1-.36-.09.76.76,0,0,1-.41-.68V37.44a3.94,3.94,0,0,1,3.93-3.94H75.63a.78.78,0,0,1,.43,1.43L61.51,44.62A.75.75,0,0,1,61.08,44.75Zm3.16-9.69a2.38,2.38,0,0,0-2.38,2.38v5.08l11.2-7.46Z"/><path class="cls-1" d="M69.11,9.84H48.34a.77.77,0,0,1-.77-.77V5.71a.77.77,0,0,1,.77-.78H69.11a.78.78,0,0,1,.78.78V9.07A.78.78,0,0,1,69.11,9.84Zm-20-1.55H68.33V6.48H49.12Z"/><path class="cls-1" d="M61.88,14.05H55.57a.77.77,0,0,1-.78-.77.78.78,0,0,1,.78-.78h6.31a.78.78,0,0,1,.78.78A.77.77,0,0,1,61.88,14.05Z"/><path class="cls-1" d="M69.29,18.27h-21a.78.78,0,0,1,0-1.56h21a.78.78,0,1,1,0,1.56Z"/><path class="cls-1" d="M65.2,22.48H48.34a.78.78,0,0,1,0-1.56H65.2a.78.78,0,0,1,0,1.56Z"/><path class="cls-1" d="M60.8,26.69H48.34a.77.77,0,0,1-.77-.78.76.76,0,0,1,.77-.77H60.8a.77.77,0,0,1,.78.77A.78.78,0,0,1,60.8,26.69Z"/><path class="cls-1" d="M56.59,30.9H48.34a.78.78,0,0,1,0-1.55h8.25a.78.78,0,1,1,0,1.55Z"/><path class="cls-1" d="M61.08,44.75H45A3.94,3.94,0,0,1,41,40.82V39.27a.78.78,0,0,1,1.56,0v1.55A2.39,2.39,0,0,0,45,43.2H60.85l14-9.34V8.33a.78.78,0,1,1,1.56,0v26a.78.78,0,0,1-.35.65L61.51,44.62A.71.71,0,0,1,61.08,44.75Z"/><path class="cls-1" d="M41.82,40.29a.78.78,0,0,1-.78-.78V3.94A4,4,0,0,1,45,0H72.47a4,4,0,0,1,3.94,3.94V7.39a.78.78,0,0,1-1.56,0V3.94a2.39,2.39,0,0,0-2.38-2.39H45A2.39,2.39,0,0,0,42.6,3.94V39.51A.78.78,0,0,1,41.82,40.29Z"/></svg>