<svg xmlns="http://www.w3.org/2000/svg" viewBox="0 0 211.46 154"><defs><style>.cls-1{font-size:14.82px;fill:#fff;font-family:Raleway, sans-serif;font-weight:700;}.cls-2{fill:#e62f29;}.cls-3,.cls-4{fill:none;stroke-linecap:round;stroke-linejoin:round;}.cls-3{stroke:#f6f6f6;}.cls-4{stroke:#e72f29;}.cls-5{fill:#606060;}</style></defs><g id="Capa_2" data-name="Capa 2"><g id="Capa_1-2" data-name="Capa 1"><text class="cls-1" transform="translate(12.95 72.05)">Implement Digital <tspan x="14.46" y="17.97">Supply Chains</tspan></text><polygon class="cls-2" points="194.87 61.23 190.46 65.63 202.66 77.83 190.46 90.02 194.87 94.42 211.46 77.83 194.87 61.23"/><rect class="cls-3" x="35.44" y="0.5" width="29.7" height="19.59" rx="4.78"/><rect class="cls-4" x="69.17" y="0.5" width="29.7" height="19.59" rx="4.78"/><rect class="cls-3" x="102.23" y="0.5" width="29.7" height="19.59" rx="4.78"/><rect class="cls-3" x="34.97" y="23.15" width="97.05" height="11.41" rx="2.76"/><polygon class="cls-5" points="48.92 3.51 47.22 5.21 51.94 9.93 47.22 14.65 48.92 16.36 55.35 9.93 48.92 3.51"/><polygon class="cls-5" points="81.68 3.51 79.98 5.21 84.7 9.93 79.98 14.65 81.68 16.36 88.11 9.93 81.68 3.51"/><polygon class="cls-5" points="116.19 3.51 114.49 5.21 119.21 9.93 114.49 14.65 116.19 16.36 122.62 9.93 116.19 3.51"/></g></g></svg>