<svg xmlns="http://www.w3.org/2000/svg" viewBox="0 0 118.85 102.93"><defs><style>.cls-1{fill:#353132;}.cls-2{fill:#f6f6f6;}</style></defs><title>icon25</title><g id="Capa_2" data-name="Capa 2"><g id="Capa_1-2" data-name="Capa 1"><polygon class="cls-1" points="89.14 0 29.71 0 0 51.47 29.71 102.93 89.14 102.93 118.85 51.47 89.14 0"/><path class="cls-2" d="M77.45,69.45H74.37a.67.67,0,0,1-.67-.67V32H47.89a.67.67,0,0,1-.67-.67V28.62a.67.67,0,0,1,.67-.68H77.45a.67.67,0,0,1,.67.68V68.78a.67.67,0,0,1-.67.67m-2.4-1.35h1.72V29.29H48.57v1.37h25.8a.68.68,0,0,1,.68.68Z"/><path class="cls-2" d="M71.3,74.89H41.74a.67.67,0,0,1-.67-.67V34.06a.68.68,0,0,1,.67-.68H71.3a.68.68,0,0,1,.67.68V74.22a.67.67,0,0,1-.67.67M42.42,73.55h28.2V34.73H42.42Z"/><path class="cls-2" d="M74.37,72.17H71.3a.68.68,0,0,1-.68-.67V34.73H44.82a.67.67,0,0,1-.68-.67V31.34a.68.68,0,0,1,.68-.68H74.37a.68.68,0,0,1,.68.68V71.5a.67.67,0,0,1-.68.67M72,70.82H73.7V32H45.49v1.37H71.3a.68.68,0,0,1,.67.68Z"/><path class="cls-2" d="M51.51,46.65H45.09a.68.68,0,0,1-.68-.67V39.56a.68.68,0,0,1,.68-.68h6.42a.67.67,0,0,1,.67.68V46a.67.67,0,0,1-.67.67M45.76,45.3h5.08V40.23H45.76Z"/><path class="cls-2" d="M47.41,51.6H46.05a.68.68,0,0,1-.68-.67.69.69,0,0,1,.68-.68h1.36a.68.68,0,0,1,.67.68.67.67,0,0,1-.67.67"/><path class="cls-2" d="M51.51,58H45.09a.68.68,0,0,1-.68-.67V55.24a.68.68,0,0,1,.68-.67.67.67,0,0,1,.67.67v1.44h5.08V53.09a.67.67,0,1,1,1.34,0v4.26a.67.67,0,0,1-.67.67"/><path class="cls-2" d="M51.51,70.05H45.09a.68.68,0,0,1-.68-.67V63a.68.68,0,0,1,.68-.68h6.42a.67.67,0,0,1,.67.68v6.42a.67.67,0,0,1-.67.67M45.76,68.7h5.08V63.63H45.76Z"/><path class="cls-2" d="M66.16,45.22H54.89a.68.68,0,0,1-.67-.68.67.67,0,0,1,.67-.67H66.16a.67.67,0,0,1,.67.67.68.68,0,0,1-.67.68"/><path class="cls-2" d="M66.16,41.66H54.89a.67.67,0,1,1,0-1.34H66.16a.67.67,0,1,1,0,1.34"/><path class="cls-2" d="M66.16,56.59H54.89a.68.68,0,0,1,0-1.35H66.16a.68.68,0,0,1,0,1.35"/><path class="cls-2" d="M66.16,53H54.89a.68.68,0,0,1,0-1.35H66.16a.68.68,0,0,1,0,1.35"/><path class="cls-2" d="M66.16,68H54.89a.67.67,0,0,1-.67-.67.68.68,0,0,1,.67-.68H66.16a.68.68,0,0,1,.67.68.67.67,0,0,1-.67.67"/><path class="cls-2" d="M66.16,64.41H54.89a.67.67,0,0,1-.67-.67.68.68,0,0,1,.67-.68H66.16a.68.68,0,0,1,.67.68.67.67,0,0,1-.67.67"/><path class="cls-2" d="M47.34,55.14a.7.7,0,0,1-.41-.14l-3.22-2.45a.66.66,0,0,1-.13-.94.68.68,0,0,1,1-.13l2.68,2,3.31-4.36a.67.67,0,1,1,1.07.82l-3.71,4.89a.64.64,0,0,1-.45.26h-.09"/></g></g></svg>