<svg xmlns="http://www.w3.org/2000/svg" viewBox="0 0 134.99 116.91"><defs><style>.cls-1{fill:#332d2f;}.cls-2{fill:#fff;}.cls-3{fill:#cf181d;}</style></defs><g id="Capa_2" data-name="Capa 2"><g id="Capa_1-2" data-name="Capa 1"><polygon class="cls-1" points="101.24 0 33.75 0 0 58.45 33.75 116.91 101.24 116.91 134.99 58.45 101.24 0"/><path class="cls-2" d="M57.89,69.16h-9.6a.68.68,0,0,1-.69-.68,6.27,6.27,0,0,1,6.26-6.26h4a1.63,1.63,0,0,1,1.63,1.63v3.68A1.63,1.63,0,0,1,57.89,69.16ZM49,67.79h8.86a.26.26,0,0,0,.26-.26V63.85a.26.26,0,0,0-.26-.26h-4A4.88,4.88,0,0,0,49,67.79Z"/><path class="cls-2" d="M88.52,69.16h-9.6a1.63,1.63,0,0,1-1.63-1.63V63.85a1.63,1.63,0,0,1,1.63-1.63h4a6.26,6.26,0,0,1,6.25,6.26A.67.67,0,0,1,88.52,69.16Zm-9.6-5.57a.26.26,0,0,0-.26.26v3.68a.26.26,0,0,0,.26.26h8.86A4.88,4.88,0,0,0,83,63.59Z"/><path class="cls-2" d="M88.81,58.11H48.22a.69.69,0,0,1,0-1.38H88.81a.69.69,0,0,1,0,1.38Z"/><path class="cls-2" d="M65.51,52.07a.67.67,0,0,1-.49-.2.68.68,0,0,1,0-1l4-4a.7.7,0,0,1,1,0,.68.68,0,0,1,0,1l-4,4A.65.65,0,0,1,65.51,52.07Z"/><path class="cls-2" d="M57.53,51.38a.69.69,0,0,1-.48-1.18l4-4a.69.69,0,0,1,1,1l-4,4A.7.7,0,0,1,57.53,51.38Z"/><path class="cls-2" d="M54.55,80.82H52.49a2.74,2.74,0,0,1-2.74-2.74V74.14a.69.69,0,0,1,.68-.69h6.18a.68.68,0,0,1,.68.69v3.94A2.74,2.74,0,0,1,54.55,80.82Zm-3.43-6v3.26a1.38,1.38,0,0,0,1.37,1.37h2.06a1.38,1.38,0,0,0,1.37-1.37V74.82Z"/><path class="cls-2" d="M84.31,80.82h-2a2.75,2.75,0,0,1-2.75-2.74V74.14a.69.69,0,0,1,.69-.69h6.17a.69.69,0,0,1,.69.69v3.94A2.75,2.75,0,0,1,84.31,80.82Zm-3.42-6v3.26a1.37,1.37,0,0,0,1.37,1.37h2a1.38,1.38,0,0,0,1.38-1.37V74.82Z"/><path class="cls-2" d="M74.63,70.54H62.18a.67.67,0,0,1-.68-.68.68.68,0,0,1,.68-.69H74.63a.68.68,0,0,1,.68.69A.67.67,0,0,1,74.63,70.54Z"/><path class="cls-2" d="M74.63,68H62.18a.69.69,0,0,1,0-1.38H74.63a.69.69,0,0,1,0,1.38Z"/><path class="cls-2" d="M93.73,80.82H43.08a.69.69,0,0,1,0-1.37H93.73a.69.69,0,0,1,0,1.37Z"/><path class="cls-2" d="M87.75,55.19H49.28a.69.69,0,0,1,0-1.37H87.75a.69.69,0,0,1,0,1.37Z"/><path class="cls-2" d="M89.68,74.82H47.35a3.46,3.46,0,0,1-3.45-3.45V60.44A3.46,3.46,0,0,1,47.35,57a.93.93,0,0,0,.92-.77l2.16-11.7a4,4,0,0,1,4-3.3H74.22a.67.67,0,0,1,.65.48A10.54,10.54,0,0,0,85,49.09a10.38,10.38,0,0,0,1.77-.16.68.68,0,0,1,.79.55l1.24,6.74a.94.94,0,0,0,.92.77,3.46,3.46,0,0,1,3.46,3.45V71.37A3.46,3.46,0,0,1,89.68,74.82ZM54.4,42.59a2.67,2.67,0,0,0-2.62,2.18l-2.16,11.7a2.3,2.3,0,0,1-2.27,1.89,2.08,2.08,0,0,0-2.08,2.08V71.37a2.08,2.08,0,0,0,2.08,2.08H89.68a2.08,2.08,0,0,0,2.08-2.08V60.44a2.08,2.08,0,0,0-2.08-2.08,2.31,2.31,0,0,1-2.27-1.89l-1.12-6.09a12.31,12.31,0,0,1-1.33.08,11.89,11.89,0,0,1-11.23-7.87Z"/><path class="cls-3" d="M85.71,47a9.53,9.53,0,0,1-9.26-7.34,1,1,0,0,1,2-.46,7.52,7.52,0,0,0,9,5.6,1,1,0,1,1,.46,1.94A9.7,9.7,0,0,1,85.71,47Z"/><path class="cls-3" d="M90.93,43.82A13.5,13.5,0,0,1,77.81,33.41a1,1,0,1,1,2-.46A11.49,11.49,0,0,0,93.6,41.51a1,1,0,1,1,.45,2A13.77,13.77,0,0,1,90.93,43.82Z"/></g></g></svg>