<svg id="Layer_1" data-name="Layer 1" xmlns="http://www.w3.org/2000/svg" viewBox="0 0 74.06 43.38"><defs><style>.cls-1{fill:#414042;}</style></defs><path class="cls-1" d="M19.42,43.38a.76.76,0,0,1-.75-.75V36.29a3.83,3.83,0,0,1,3.82-3.82h11a.76.76,0,0,1,.72.54.75.75,0,0,1-.31.84l-14.1,9.41A.76.76,0,0,1,19.42,43.38ZM22.49,34a2.31,2.31,0,0,0-2.31,2.31v4.93L31,34Z"/><path class="cls-1" d="M27.2,9.54H7.08a.76.76,0,0,1-.76-.75V5.53a.76.76,0,0,1,.76-.75H27.2a.76.76,0,0,1,.76.75V8.79A.76.76,0,0,1,27.2,9.54ZM7.83,8H26.45V6.29H7.83Z"/><path class="cls-1" d="M20.2,13.62H14.08a.75.75,0,0,1,0-1.5H20.2a.75.75,0,0,1,0,1.5Z"/><path class="cls-1" d="M27.38,17.71H7.08a.76.76,0,1,1,0-1.51h20.3a.76.76,0,1,1,0,1.51Z"/><path class="cls-1" d="M23.41,21.79H7.08a.76.76,0,1,1,0-1.51H23.41a.76.76,0,0,1,0,1.51Z"/><path class="cls-1" d="M19.15,25.87H7.08a.76.76,0,1,1,0-1.51H19.15a.76.76,0,0,1,0,1.51Z"/><path class="cls-1" d="M15.07,30h-8a.75.75,0,1,1,0-1.5h8a.75.75,0,1,1,0,1.5Z"/><path class="cls-1" d="M19.42,43.38H3.82A3.82,3.82,0,0,1,0,39.57v-1.5a.75.75,0,0,1,.75-.75.75.75,0,0,1,.76.75v1.5a2.3,2.3,0,0,0,2.31,2.3H19.2l13.57-9V8.07a.76.76,0,0,1,1.51,0V33.23a.73.73,0,0,1-.34.62l-14.1,9.41A.76.76,0,0,1,19.42,43.38Z"/><path class="cls-1" d="M.75,39.05A.76.76,0,0,1,0,38.3V3.82A3.82,3.82,0,0,1,3.82,0H30.46a3.82,3.82,0,0,1,3.82,3.82V7.16a.76.76,0,0,1-1.51,0V3.82a2.3,2.3,0,0,0-2.31-2.31H3.82A2.3,2.3,0,0,0,1.51,3.82V38.3A.76.76,0,0,1,.75,39.05Z"/><path class="cls-1" d="M59.21,43.38a.8.8,0,0,1-.36-.09.75.75,0,0,1-.39-.66V36.29a3.82,3.82,0,0,1,3.81-3.82h11A.75.75,0,0,1,74,33a.73.73,0,0,1-.3.84l-14.1,9.41A.79.79,0,0,1,59.21,43.38ZM62.27,34A2.32,2.32,0,0,0,60,36.29v4.93L70.82,34Z"/><path class="cls-1" d="M67,9.54H46.86a.75.75,0,0,1-.75-.75V5.53a.75.75,0,0,1,.75-.75H67a.75.75,0,0,1,.75.75V8.79A.75.75,0,0,1,67,9.54ZM47.61,8H66.24V6.29H47.61Z"/><path class="cls-1" d="M60,13.62H53.87a.75.75,0,1,1,0-1.5H60a.75.75,0,1,1,0,1.5Z"/><path class="cls-1" d="M67.17,17.71H46.86a.76.76,0,0,1,0-1.51H67.17a.76.76,0,0,1,0,1.51Z"/><path class="cls-1" d="M63.2,21.79H46.86a.76.76,0,0,1,0-1.51H63.2a.76.76,0,0,1,0,1.51Z"/><path class="cls-1" d="M58.93,25.87H46.86a.76.76,0,0,1,0-1.51H58.93a.76.76,0,1,1,0,1.51Z"/><path class="cls-1" d="M54.86,30h-8a.75.75,0,0,1,0-1.5h8a.75.75,0,0,1,0,1.5Z"/><path class="cls-1" d="M59.21,43.38H43.6a3.82,3.82,0,0,1-3.81-3.81v-1.5a.75.75,0,0,1,1.5,0v1.5a2.31,2.31,0,0,0,2.31,2.3H59l13.58-9V8.07a.75.75,0,1,1,1.5,0V33.23a.73.73,0,0,1-.33.62l-14.1,9.41A.79.79,0,0,1,59.21,43.38Z"/><path class="cls-1" d="M40.54,39.05a.75.75,0,0,1-.75-.75V3.82A3.82,3.82,0,0,1,43.6,0H70.25a3.82,3.82,0,0,1,3.81,3.82V7.16a.75.75,0,0,1-1.5,0V3.82a2.31,2.31,0,0,0-2.31-2.31H43.6a2.31,2.31,0,0,0-2.31,2.31V38.3A.75.75,0,0,1,40.54,39.05Z"/></svg>