<svg xmlns="http://www.w3.org/2000/svg" viewBox="0 0 211.46 160.17"><defs><style>.cls-1{font-size:14.82px;fill:#fff;font-family:Raleway, sans-serif;font-weight:700;}.cls-2{fill:#e62f29;}.cls-3{fill:#f5f5f5;}</style></defs><g id="Capa_2" data-name="Capa 2"><g id="Capa_1-2" data-name="Capa 1"><text class="cls-1" transform="translate(30.59 78.21)">Be Consumer<tspan x="22.86" y="17.97">Centric</tspan></text><polygon class="cls-2" points="194.87 67.4 190.46 71.8 202.66 83.99 190.46 96.19 194.87 100.59 211.46 83.99 194.87 67.4"/><path class="cls-3" d="M69.43,5.61a.71.71,0,0,1-.71-.71v-1A3.88,3.88,0,0,1,72.6,0H89.7a3.88,3.88,0,0,1,3.88,3.88v.86a.72.72,0,0,1-1.43,0V3.88A2.46,2.46,0,0,0,89.7,1.42H72.6a2.46,2.46,0,0,0-2.46,2.46v1A.71.71,0,0,1,69.43,5.61Z"/><path class="cls-3" d="M89.7,45.56H72.6a3.88,3.88,0,0,1-3.88-3.88V33.15a.71.71,0,0,1,1.42,0v8.53a2.46,2.46,0,0,0,2.46,2.46H89.7a2.46,2.46,0,0,0,2.45-2.46V33.94a.72.72,0,0,1,1.43,0v7.74A3.88,3.88,0,0,1,89.7,45.56Z"/><path class="cls-3" d="M92.86,39H69.43a.71.71,0,1,1,0-1.42H92.86a.71.71,0,1,1,0,1.42Z"/><path class="cls-3" d="M82.85,42.15H79.44a.71.71,0,0,1,0-1.42h3.41a.71.71,0,1,1,0,1.42Z"/><path class="cls-3" d="M81.41,4.33h-.52a.71.71,0,0,1,0-1.42h.52a.71.71,0,0,1,0,1.42Z"/><path class="cls-3" d="M92,21.64a.77.77,0,0,1-.32-.07.73.73,0,0,1-.39-.64V19.72a3.68,3.68,0,0,1-3.13-3.64v-5.7A3.68,3.68,0,0,1,91.85,6.7h9.67a3.68,3.68,0,0,1,3.68,3.68v5.7a3.68,3.68,0,0,1-3.68,3.68H94.8l-2.36,1.75A.75.75,0,0,1,92,21.64ZM91.85,8.12a2.26,2.26,0,0,0-2.26,2.26v5.7a2.26,2.26,0,0,0,2.26,2.26H92a.71.71,0,0,1,.72.71v.47l1.41-1a.71.71,0,0,1,.42-.14h7a2.26,2.26,0,0,0,2.26-2.26v-5.7a2.26,2.26,0,0,0-2.26-2.26Z"/><path class="cls-2" d="M100.84,12.43H92.57a.71.71,0,0,1,0-1.42h8.27a.71.71,0,1,1,0,1.42Z"/><path class="cls-2" d="M97.17,15.69h-4.6a.71.71,0,0,1,0-1.42h4.6a.71.71,0,1,1,0,1.42Z"/><path class="cls-3" d="M86.82,33.86a.72.72,0,0,1-.32-.08.7.7,0,0,1-.39-.63V31.93A3.68,3.68,0,0,1,83,28.29V22.05a3.68,3.68,0,0,1,3.68-3.68.71.71,0,0,1,0,1.42,2.26,2.26,0,0,0-2.26,2.26v6.24a2.26,2.26,0,0,0,2.26,2.26h.17a.71.71,0,0,1,.71.71v.48l1.41-1a.71.71,0,0,1,.42-.14h7a2.26,2.26,0,0,0,2.26-2.26V21.72a.71.71,0,1,1,1.42,0v6.57A3.68,3.68,0,0,1,96.32,32H89.6l-2.36,1.75A.71.71,0,0,1,86.82,33.86Z"/><path class="cls-2" d="M95.64,24.64H87.37a.71.71,0,1,1,0-1.42h8.27a.71.71,0,1,1,0,1.42Z"/><path class="cls-2" d="M92,27.9h-4.6a.71.71,0,0,1,0-1.42H92a.71.71,0,0,1,0,1.42Z"/><path class="cls-3" d="M70.88,21.64a.72.72,0,0,1-.42-.13L68.1,19.76H61.38a3.68,3.68,0,0,1-3.68-3.68v-5.7A3.68,3.68,0,0,1,61.38,6.7h9.67a3.68,3.68,0,0,1,3.68,3.68v5.7a3.68,3.68,0,0,1-3.14,3.64v1.21a.69.69,0,0,1-.71.71ZM61.38,8.12a2.26,2.26,0,0,0-2.26,2.26v5.7a2.26,2.26,0,0,0,2.26,2.26h7a.71.71,0,0,1,.42.14l1.41,1v-.47a.71.71,0,0,1,.71-.71h.17a2.26,2.26,0,0,0,2.26-2.26v-5.7a2.27,2.27,0,0,0-2.26-2.26Z"/><path class="cls-2" d="M70.33,12.43H62.06a.71.71,0,0,1,0-1.42h8.27a.71.71,0,0,1,0,1.42Z"/><path class="cls-2" d="M66.66,15.69h-4.6a.71.71,0,0,1,0-1.42h4.6a.71.71,0,0,1,0,1.42Z"/><path class="cls-3" d="M76.08,33.86a.71.71,0,0,1-.42-.14L73.3,32H66.58a3.69,3.69,0,0,1-3.69-3.68V21.72a.72.72,0,0,1,1.43,0v6.57a2.26,2.26,0,0,0,2.26,2.26h7a.74.74,0,0,1,.43.14l1.41,1v-.48a.71.71,0,0,1,.71-.71h.17a2.26,2.26,0,0,0,2.26-2.26V22.05a2.26,2.26,0,0,0-2.26-2.26.71.71,0,0,1,0-1.42,3.68,3.68,0,0,1,3.68,3.68v6.24a3.68,3.68,0,0,1-3.14,3.64v1.22a.7.7,0,0,1-.39.63A.72.72,0,0,1,76.08,33.86Z"/><path class="cls-2" d="M75.53,24.64H67.26a.71.71,0,1,1,0-1.42h8.27a.71.71,0,1,1,0,1.42Z"/><path class="cls-2" d="M71.86,27.9h-4.6a.71.71,0,0,1,0-1.42h4.6a.71.71,0,1,1,0,1.42Z"/></g></g></svg>