<svg xmlns="http://www.w3.org/2000/svg" viewBox="0 0 124.04 111.2"><defs><style>.cls-1{fill:#f5f5f5;}.cls-2{fill:#e03232;}</style></defs><g id="Capa_2" data-name="Capa 2"><g id="Capa_1-2" data-name="Capa 1"><path class="cls-1" d="M90,48.85H75.73a2.42,2.42,0,0,1-2.42-2.42V17.79a2.41,2.41,0,0,1,2.42-2.41H90a2.41,2.41,0,0,1,2.41,2.41.58.58,0,0,1-1.16,0A1.26,1.26,0,0,0,90,16.53H75.73a1.26,1.26,0,0,0-1.26,1.26V46.43a1.26,1.26,0,0,0,1.26,1.26H90a1.26,1.26,0,0,0,1.25-1.26V22a.58.58,0,1,1,1.16,0V46.43A2.42,2.42,0,0,1,90,48.85Z"/><path class="cls-1" d="M87.6,19.56H78.14a1.5,1.5,0,0,1-1.5-1.5V16a.57.57,0,0,1,.58-.57h11.3a.57.57,0,0,1,.58.57v2.11A1.5,1.5,0,0,1,87.6,19.56Zm-9.8-3v1.53a.34.34,0,0,0,.34.34H87.6a.34.34,0,0,0,.34-.34V16.53Z"/><path class="cls-1" d="M84.59,45.94H81.16a.58.58,0,0,1,0-1.16h3.43a.58.58,0,0,1,0,1.16Z"/><path class="cls-1" d="M82.78,31.83a3.14,3.14,0,0,1-2.7-2A6.2,6.2,0,0,1,79.39,27v-.1a2.31,2.31,0,0,1,1.19-2,4.8,4.8,0,0,1,2.28-.62,4.52,4.52,0,0,1,2.43.8A2.31,2.31,0,0,1,86.35,27a6.13,6.13,0,0,1-.7,2.91,3.08,3.08,0,0,1-2.8,1.94Zm.08-6.44a3.71,3.71,0,0,0-1.72.47,1.16,1.16,0,0,0-.59,1V27a5,5,0,0,0,.55,2.35c.48.91,1.06,1.36,1.75,1.34s1.3-.43,1.78-1.33A5,5,0,0,0,85.19,27a1.16,1.16,0,0,0-.53-1A3.41,3.41,0,0,0,82.86,25.39Z"/><path class="cls-1" d="M88.46,37.17H77.28a.55.55,0,0,1-.41-.17.61.61,0,0,1-.17-.42c.07-2.48,1.65-4.43,3.61-4.43h5.12c2,0,3.54,2,3.61,4.43a.6.6,0,0,1-.16.42A.59.59,0,0,1,88.46,37.17ZM77.91,36h9.92c-.24-1.54-1.24-2.71-2.4-2.71H80.31C79.15,33.31,78.16,34.48,77.91,36Z"/><path class="cls-1" d="M80.33,37.17a.58.58,0,0,1-.58-.58V35.54a.58.58,0,0,1,1.16,0v1.05A.58.58,0,0,1,80.33,37.17Z"/><path class="cls-1" d="M85.41,37.17a.58.58,0,0,1-.58-.58V35.54a.58.58,0,0,1,1.16,0v1.05A.58.58,0,0,1,85.41,37.17Z"/><path class="cls-2" d="M91,60.26v-.13H10.07a3.71,3.71,0,0,0-3.71,3.71V92.72a3.72,3.72,0,0,0,3.71,3.71h80a3.72,3.72,0,0,0,3.71-3.71V63.84A3.71,3.71,0,0,0,91,60.26Zm-.09,32.46a.85.85,0,0,1-.85.85h-80a.86.86,0,0,1-.86-.85V63.84a.86.86,0,0,1,.86-.86H90.83l.09-1.43V92.72Z"/><path class="cls-1" d="M121.27,68.75v-.14h-18.7a3.72,3.72,0,0,0-3.71,3.71v20.4a3.72,3.72,0,0,0,3.71,3.71h17.75A3.72,3.72,0,0,0,124,92.72V72.32A3.71,3.71,0,0,0,121.27,68.75Zm-.08,24a.86.86,0,0,1-.86.85H102.58a.85.85,0,0,1-.86-.85V72.32a.85.85,0,0,1,.86-.85h18.51l.1-1.43V92.72Z"/><path class="cls-2" d="M25.57,73.52H20.82a1.43,1.43,0,0,1,0-2.86h4.75a1.43,1.43,0,0,1,0,2.86Z"/><path class="cls-1" d="M120.47,83.24h-7.59a1.43,1.43,0,0,1,0-2.86h7.59a1.43,1.43,0,0,1,0,2.86Z"/><path class="cls-1" d="M114.31,74.36V82a1.43,1.43,0,0,1-2.86,0V74.36a1.43,1.43,0,0,1,2.86,0Z"/><circle class="cls-1" cx="22.13" cy="104.89" r="6.31"/><circle class="cls-1" cx="82.87" cy="104.89" r="6.31"/><circle class="cls-1" cx="111.45" cy="104.89" r="6.31"/><path class="cls-1" d="M59.09,31.29V4.19A2.14,2.14,0,0,0,57,2.05l-46.12.13A2.14,2.14,0,0,0,8.7,4.32V47.94a2.14,2.14,0,0,0,2.13,2.14H57a2.14,2.14,0,0,0,2.14-2.14V40.87a2.13,2.13,0,0,1-1.64,2.07v5a.5.5,0,0,1-.5.5H10.83a.5.5,0,0,1-.49-.5V4.32a.49.49,0,0,1,.49-.49L57,3.69a.5.5,0,0,1,.5.5v25A2.12,2.12,0,0,1,59.09,31.29Z"/><line class="cls-1" x1="45.06" y1="2.18" x2="46.7" y2="2.18"/><path class="cls-1" d="M57.45,29.22V42.94a2.13,2.13,0,0,0,1.64-2.07V31.29A2.12,2.12,0,0,0,57.45,29.22Z"/><polyline class="cls-1" points="39.21 48.57 39.21 28.87 50.9 28.87 50.9 48.57"/><path class="cls-1" d="M64.76,22.32H3A2.94,2.94,0,0,1,.22,18.27L6.85,1.85A2.94,2.94,0,0,1,9.58,0H58.13a3,3,0,0,1,2.74,1.85L67.5,18.27A3,3,0,0,1,64.76,22.32Z"/><rect class="cls-1" x="14.34" y="28.51" width="19.52" height="11.51"/></g></g></svg>