<svg xmlns="http://www.w3.org/2000/svg" xmlns:xlink="http://www.w3.org/1999/xlink" viewBox="0 0 134.99 116.91"><defs><style>.cls-1{fill:#332d2f;}.cls-2{fill:#fff;}.cls-3{fill:url(#linear-gradient);}.cls-4{fill:url(#linear-gradient-2);}.cls-5{fill:url(#linear-gradient-3);}.cls-6{fill:url(#linear-gradient-4);}</style><linearGradient id="linear-gradient" x1="53.51" y1="60.39" x2="57.39" y2="60.39" gradientUnits="userSpaceOnUse"><stop offset="0" stop-color="#7f1d2b"/><stop offset="1" stop-color="#df1719"/></linearGradient><linearGradient id="linear-gradient-2" x1="87.01" y1="60.39" x2="90.89" y2="60.39" xlink:href="#linear-gradient"/><linearGradient id="linear-gradient-3" x1="70.26" y1="77.14" x2="74.14" y2="77.14" xlink:href="#linear-gradient"/><linearGradient id="linear-gradient-4" x1="70.26" y1="43.64" x2="74.14" y2="43.64" xlink:href="#linear-gradient"/></defs><g id="Capa_2" data-name="Capa 2"><g id="Capa_1-2" data-name="Capa 1"><polygon class="cls-1" points="101.24 0 33.75 0 0 58.45 33.75 116.91 101.24 116.91 134.99 58.45 101.24 0"/><path class="cls-2" d="M72.2,82.83a22.33,22.33,0,0,1-15.38-6.1.82.82,0,0,1,0-1.17.83.83,0,0,1,1.17,0A20.78,20.78,0,1,0,56.1,47.26a.83.83,0,0,1-1.29-1A22.44,22.44,0,1,1,72.2,82.83Z"/><circle class="cls-3" cx="55.45" cy="60.39" r="1.94"/><circle class="cls-4" cx="88.95" cy="60.39" r="1.94"/><circle class="cls-5" cx="72.2" cy="77.14" r="1.94"/><circle class="cls-6" cx="72.2" cy="43.64" r="1.94"/><path class="cls-2" d="M83,61.22H72.2a.83.83,0,0,1-.83-.83V53.76a.83.83,0,0,1,1.66,0v5.8H83a.83.83,0,0,1,0,1.66Z"/><path class="cls-2" d="M57.39,52.44H55.73a.83.83,0,0,1,0-1.66h1.66a.83.83,0,0,1,0,1.66Z"/><path class="cls-2" d="M52.46,52.44H49.19a.83.83,0,0,1,0-1.66h3.27a.83.83,0,0,1,0,1.66Zm-6.54,0H42.65a.83.83,0,1,1,0-1.66h3.27a.83.83,0,0,1,0,1.66Z"/><path class="cls-2" d="M39.38,52.44H37.72a.83.83,0,0,1,0-1.66h1.66a.83.83,0,1,1,0,1.66Z"/><path class="cls-2" d="M50.64,61.22H49a.83.83,0,0,1,0-1.66h1.66a.83.83,0,0,1,0,1.66Z"/><path class="cls-2" d="M45.71,61.22H42.44a.83.83,0,0,1,0-1.66h3.27a.83.83,0,0,1,0,1.66Zm-6.54,0H35.9a.83.83,0,1,1,0-1.66h3.27a.83.83,0,0,1,0,1.66Z"/><path class="cls-2" d="M32.63,61.22H31a.83.83,0,0,1,0-1.66h1.66a.83.83,0,1,1,0,1.66Z"/><path class="cls-2" d="M57.39,70H55.73a.83.83,0,0,1,0-1.66h1.66a.83.83,0,0,1,0,1.66Z"/><path class="cls-2" d="M52.46,70H49.19a.83.83,0,0,1,0-1.66h3.27a.83.83,0,0,1,0,1.66Zm-6.54,0H42.65a.83.83,0,0,1,0-1.66h3.27a.83.83,0,0,1,0,1.66Z"/><path class="cls-2" d="M39.38,70H37.72a.83.83,0,1,1,0-1.66h1.66a.83.83,0,0,1,0,1.66Z"/></g></g></svg>