<svg xmlns="http://www.w3.org/2000/svg" viewBox="0 0 210.35 182.17"><defs><style>.cls-1{fill:#353132;}.cls-2{fill:#f6f6f6;}</style></defs><title>Recurso 3</title><g id="Capa_2" data-name="Capa 2"><g id="Capa_1-2" data-name="Capa 1"><polygon class="cls-1" points="157.76 0 52.59 0 0 91.08 52.59 182.16 157.76 182.16 210.35 91.08 157.76 0"/><path class="cls-2" d="M105.17,47.48a3.43,3.43,0,1,1,3.43-3.43,3.44,3.44,0,0,1-3.43,3.43m0-6.24A2.81,2.81,0,1,0,108,44.05a2.81,2.81,0,0,0-2.81-2.81m0,4.36a1.55,1.55,0,1,1,1.55-1.55,1.55,1.55,0,0,1-1.55,1.55m0-2.48a.93.93,0,1,0,.93.93.93.93,0,0,0-.93-.93"/><path class="cls-2" d="M108.7,55.17h-7a1.25,1.25,0,0,1-1.25-1.25V51.49a3.69,3.69,0,0,1,3.68-3.69h2.19A3.69,3.69,0,0,1,110,51.49v2.43a1.25,1.25,0,0,1-1.25,1.25m-4.62-6.75A3.07,3.07,0,0,0,101,51.49v2.43a.63.63,0,0,0,.63.63h7a.63.63,0,0,0,.63-.63V51.49a3.07,3.07,0,0,0-3.06-3.07Zm4,4.87h-5.79v-1.8a1.81,1.81,0,0,1,1.8-1.81h2.19a1.81,1.81,0,0,1,1.8,1.81Zm-5.17-.62h4.55V51.49a1.18,1.18,0,0,0-1.18-1.19h-2.19a1.18,1.18,0,0,0-1.18,1.19Z"/><path class="cls-2" d="M105.17,90.08a5.64,5.64,0,1,1,5.65-5.63,5.64,5.64,0,0,1-5.65,5.63m0-10.66a5,5,0,1,0,5,5,5,5,0,0,0-5-5m0,8.78a3.76,3.76,0,1,1,3.77-3.75,3.76,3.76,0,0,1-3.77,3.75m0-6.9a3.14,3.14,0,1,0,3.15,3.15,3.15,3.15,0,0,0-3.15-3.15"/><path class="cls-2" d="M112.29,103.1H98.06a1.25,1.25,0,0,1-1.25-1.25V96.93A6.18,6.18,0,0,1,103,90.77h4.39a6.18,6.18,0,0,1,6.17,6.16v4.92a1.25,1.25,0,0,1-1.25,1.25M103,91.39a5.55,5.55,0,0,0-5.55,5.54v4.92a.63.63,0,0,0,.63.63h14.23a.63.63,0,0,0,.63-.63V96.93a5.55,5.55,0,0,0-5.55-5.54Zm8.68,9.83h-13V96.93A4.29,4.29,0,0,1,103,92.65h4.39a4.29,4.29,0,0,1,4.29,4.28Zm-12.35-.62H111V96.93a3.68,3.68,0,0,0-3.67-3.66H103a3.67,3.67,0,0,0-3.67,3.66Z"/><path class="cls-2" d="M105.17,114.74a1.55,1.55,0,0,1-.78-.21l-18.73-10.8a.62.62,0,0,1-1.11-.19c-.14-.52-.25-1,0-1.24V81.05c-.24-1.44-.22-2.29.51-2.72l19.35-11.17a1.55,1.55,0,0,1,1.56,0l19.36,11.17a1.57,1.57,0,0,1,.77,1.35V102a1.55,1.55,0,0,1-.78,1.35L106,114.53a1.5,1.5,0,0,1-.78.21m-19.4-12.4L105,113.45a.31.31,0,0,0,.32,0l19.35-11.16a.3.3,0,0,0,.16-.27V79.68a.3.3,0,0,0-.16-.27L105.33,68.24a.31.31,0,0,0-.32,0L85.66,79.41a4.28,4.28,0,0,0,.1,1.55Zm19.4,10.37a.6.6,0,0,1-.31-.08L86.45,102a.63.63,0,0,1-.31-.54V80.23a.62.62,0,0,1,.31-.54l18.41-10.63a.62.62,0,0,1,.62,0L123.9,79.69a.62.62,0,0,1,.31.54v21.24a.62.62,0,0,1-.32.54l-18.41,10.62a.55.55,0,0,1-.31.08m-17.79-11.6,17.79,10.27L123,101.11V80.58L105.17,70.31,87.38,80.58Z"/><path class="cls-2" d="M105.17,69.76a1.25,1.25,0,0,1-1.25-1.25v-9.8a1.25,1.25,0,1,1,2.5,0v9.8a1.25,1.25,0,0,1-1.25,1.25m0-11.68a.64.64,0,0,0-.63.63v9.8a.63.63,0,0,0,.63.63.63.63,0,0,0,.63-.63v-9.8a.63.63,0,0,0-.63-.63"/><path class="cls-2" d="M124.73,81.05a1.25,1.25,0,0,1-.62-2.34l8.49-4.89A1.25,1.25,0,0,1,133.85,76l-8.5,4.89a1.2,1.2,0,0,1-.62.17m8.49-6.78a.65.65,0,0,0-.31.08l-8.49,4.9a.64.64,0,0,0-.24.86.65.65,0,0,0,.86.23l8.5-4.89a.64.64,0,0,0,.23-.86.65.65,0,0,0-.55-.32"/><path class="cls-2" d="M133.22,108.51a1.22,1.22,0,0,1-.62-.16l-8.49-4.9a1.25,1.25,0,0,1,1.24-2.17l8.5,4.9a1.24,1.24,0,0,1,.58.76,1.26,1.26,0,0,1-.12,1,1.28,1.28,0,0,1-1.09.62m-8.49-6.77a.62.62,0,0,0-.31,1.17l8.49,4.9a.64.64,0,0,0,.86-.23.67.67,0,0,0,.06-.48.62.62,0,0,0-.29-.38l-8.49-4.9a.66.66,0,0,0-.32-.08"/><path class="cls-2" d="M105.17,124.69a1.25,1.25,0,0,1-1.25-1.25v-9.79a1.25,1.25,0,0,1,2.5,0v9.79a1.25,1.25,0,0,1-1.25,1.25m0-11.67a.63.63,0,0,0-.63.63v9.79a.63.63,0,0,0,.63.63.63.63,0,0,0,.63-.63v-9.79a.63.63,0,0,0-.63-.63"/><path class="cls-2" d="M77.12,108.51a1.26,1.26,0,0,1-1.08-.62,1.22,1.22,0,0,1-.12-1,1.2,1.2,0,0,1,.58-.76l8.49-4.9a1.26,1.26,0,0,1,1-.12,1.28,1.28,0,0,1,.76.59,1.25,1.25,0,0,1-.46,1.7l-8.49,4.9a1.26,1.26,0,0,1-.63.16m8.49-6.77a.71.71,0,0,0-.31.08l-8.49,4.9a.63.63,0,0,0-.3.38.63.63,0,0,0,.07.48.64.64,0,0,0,.86.23l8.49-4.9a.62.62,0,0,0,.29-.38.64.64,0,0,0-.06-.47.63.63,0,0,0-.38-.3l-.17,0"/><path class="cls-2" d="M85.61,81.05a1.23,1.23,0,0,1-.62-.17L76.5,76A1.26,1.26,0,0,1,76,74.27a1.2,1.2,0,0,1,.76-.58,1.22,1.22,0,0,1,1,.12l8.49,4.9a1.23,1.23,0,0,1,.58.76,1.26,1.26,0,0,1-1.21,1.58m-8.49-6.79a.45.45,0,0,0-.16,0,.59.59,0,0,0-.38.29.62.62,0,0,0,.23.86l8.49,4.9a.64.64,0,0,0,.86-.23.61.61,0,0,0,.06-.48.65.65,0,0,0-.29-.38l-8.49-4.9a.62.62,0,0,0-.32-.09"/><path class="cls-2" d="M105.17,60A12.07,12.07,0,1,1,117.25,47.9,12.08,12.08,0,0,1,105.17,60m0-23.51A11.45,11.45,0,1,0,116.63,47.9a11.47,11.47,0,0,0-11.46-11.45m0,21.63a10.19,10.19,0,1,1,10.2-10.18,10.19,10.19,0,0,1-10.2,10.18m0-19.75a9.57,9.57,0,1,0,9.58,9.57,9.58,9.58,0,0,0-9.58-9.57"/><path class="cls-2" d="M142.61,81.56a12.07,12.07,0,1,1,10.45-18.1,12.08,12.08,0,0,1-10.45,18.1m0-23.52a11.44,11.44,0,0,0-11.06,8.49A11.46,11.46,0,1,0,142.59,58m0,21.64a10.24,10.24,0,0,1-8.84-5.09,10.2,10.2,0,0,1,3.73-13.93,10.21,10.21,0,0,1,13.93,3.74,10.2,10.2,0,0,1-8.82,15.28m0-19.76a9.59,9.59,0,0,0-4.78,1.28,9.57,9.57,0,0,0-3.5,13.08,9.55,9.55,0,0,0,13.07,3.49,9.57,9.57,0,0,0,3.51-13.06,9.61,9.61,0,0,0-8.3-4.79"/><path class="cls-2" d="M142.59,124.74a12.07,12.07,0,1,1,6-22.51,12.08,12.08,0,0,1,4.43,16.48,12.12,12.12,0,0,1-10.47,6m0-23.51a11.45,11.45,0,0,0-11.08,14.41,11.48,11.48,0,0,0,11.06,8.48,11.5,11.5,0,0,0,9.93-5.72,11.45,11.45,0,0,0-9.91-17.17m0,21.63a10.17,10.17,0,1,1,8.84-5.09,10.15,10.15,0,0,1-8.84,5.09m0-19.75a9.56,9.56,0,0,0-9.26,12,9.47,9.47,0,0,0,4.46,5.8,9.56,9.56,0,1,0,4.8-17.84"/><path class="cls-2" d="M105.17,146.33a12.07,12.07,0,1,1,12.08-12.07,12.08,12.08,0,0,1-12.08,12.07m0-23.52a11.45,11.45,0,1,0,11.46,11.45,11.47,11.47,0,0,0-11.46-11.45m0,21.64a10.19,10.19,0,1,1,10.2-10.19,10.2,10.2,0,0,1-10.2,10.19m0-19.76a9.57,9.57,0,1,0,9.58,9.57,9.58,9.58,0,0,0-9.58-9.57"/><path class="cls-2" d="M67.75,124.74a12.11,12.11,0,0,1-10.46-6,12.08,12.08,0,0,1,4.42-16.49,12.1,12.1,0,0,1,16.5,4.42,12.08,12.08,0,0,1-10.46,18.1m0-23.51A11.5,11.5,0,0,0,62,102.76a11.46,11.46,0,0,0-4.19,15.64,11.44,11.44,0,0,0,15.64,4.18A11.43,11.43,0,0,0,77.67,107a11.5,11.5,0,0,0-9.93-5.72m0,21.63a10.19,10.19,0,1,1,8.83-15.28,10.19,10.19,0,0,1-8.83,15.28m0-19.75A9.57,9.57,0,1,0,72.54,121,9.57,9.57,0,0,0,76,107.89a9.6,9.6,0,0,0-8.3-4.78"/><path class="cls-2" d="M67.74,81.56a12.06,12.06,0,1,1,10.47-6,12.06,12.06,0,0,1-10.47,6m0-23.52a11.51,11.51,0,0,0-9.93,5.73A11.45,11.45,0,0,0,62,79.4,11.45,11.45,0,1,0,67.76,58m0,21.64a10.19,10.19,0,1,1,0-20.38,10.19,10.19,0,1,1,0,20.38m0-19.76a9.58,9.58,0,0,0-8.3,4.79,9.58,9.58,0,0,0,8.28,14.35,9.57,9.57,0,1,0,0-19.14"/><path class="cls-2" d="M142.6,69.07A3.43,3.43,0,1,1,146,65.64a3.44,3.44,0,0,1-3.43,3.43m0-6.23a2.81,2.81,0,1,0,2.81,2.8,2.8,2.8,0,0,0-2.81-2.8m0,4.35a1.55,1.55,0,1,1,1.55-1.55,1.55,1.55,0,0,1-1.55,1.55m0-2.47a.93.93,0,1,0,.93.92.93.93,0,0,0-.93-.92"/><path class="cls-2" d="M146.12,76.77h-7.05a1.25,1.25,0,0,1-1.25-1.25V73.07a3.68,3.68,0,0,1,3.69-3.67h2.17a3.68,3.68,0,0,1,3.69,3.67v2.45a1.25,1.25,0,0,1-1.25,1.25M141.51,70a3.07,3.07,0,0,0-3.07,3v2.45a.63.63,0,0,0,.63.63h7.05a.63.63,0,0,0,.63-.63V73.07a3.07,3.07,0,0,0-3.07-3Zm4,4.87H139.7V73.07a1.8,1.8,0,0,1,1.81-1.79h2.17a1.8,1.8,0,0,1,1.81,1.79Zm-5.17-.62h4.55v-1.2a1.18,1.18,0,0,0-1.19-1.17h-2.17a1.18,1.18,0,0,0-1.19,1.17Z"/><path class="cls-2" d="M67.75,112.26a3.43,3.43,0,1,1,3.43-3.43,3.44,3.44,0,0,1-3.43,3.43m0-6.24a2.81,2.81,0,1,0,2.81,2.81A2.81,2.81,0,0,0,67.75,106m0,4.36a1.55,1.55,0,1,1,1.55-1.55,1.56,1.56,0,0,1-1.55,1.55m0-2.48a.93.93,0,1,0,.93.93.93.93,0,0,0-.93-.93"/><path class="cls-2" d="M71.27,120h-7A1.26,1.26,0,0,1,63,118.7v-2.44a3.69,3.69,0,0,1,3.69-3.68h2.18a3.68,3.68,0,0,1,3.68,3.68v2.44A1.25,1.25,0,0,1,71.27,120m-4.61-6.75a3.06,3.06,0,0,0-3.06,3.06v2.44a.63.63,0,0,0,.62.63h7a.63.63,0,0,0,.63-.63v-2.44a3.06,3.06,0,0,0-3.06-3.06Zm4,4.87H64.85v-1.81a1.81,1.81,0,0,1,1.81-1.8h2.18a1.81,1.81,0,0,1,1.8,1.8Zm-5.17-.62H70v-1.19a1.18,1.18,0,0,0-1.18-1.18H66.66a1.19,1.19,0,0,0-1.19,1.18Z"/><path class="cls-2" d="M142.6,112.26a3.43,3.43,0,1,1,3.43-3.43,3.44,3.44,0,0,1-3.43,3.43m0-6.24a2.81,2.81,0,1,0,2.81,2.81A2.81,2.81,0,0,0,142.6,106m0,4.36a1.55,1.55,0,1,1,1.55-1.55,1.55,1.55,0,0,1-1.55,1.55m0-2.48a.93.93,0,1,0,.93.93.93.93,0,0,0-.93-.93"/><path class="cls-2" d="M146.13,120h-7.06a1.25,1.25,0,0,1-1.25-1.25v-2.44a3.69,3.69,0,0,1,3.69-3.68h2.18a3.68,3.68,0,0,1,3.68,3.68v2.44a1.25,1.25,0,0,1-1.24,1.25m-4.62-6.75a3.07,3.07,0,0,0-3.07,3.06v2.44a.63.63,0,0,0,.63.63h7.06a.63.63,0,0,0,.62-.63v-2.44a3.06,3.06,0,0,0-3.06-3.06Zm4,4.87h-5.8v-1.81a1.81,1.81,0,0,1,1.81-1.8h2.18a1.81,1.81,0,0,1,1.81,1.8Zm-5.18-.62h4.56v-1.19a1.19,1.19,0,0,0-1.19-1.18h-2.18a1.18,1.18,0,0,0-1.19,1.18Z"/><path class="cls-2" d="M105.17,133.84a3.43,3.43,0,1,1,3.43-3.42,3.43,3.43,0,0,1-3.43,3.42m0-6.23a2.81,2.81,0,1,0,2.81,2.81,2.81,2.81,0,0,0-2.81-2.81m0,4.35a1.55,1.55,0,1,1,1.55-1.54,1.55,1.55,0,0,1-1.55,1.54m0-2.47a.93.93,0,1,0,.93.93.93.93,0,0,0-.93-.93"/><path class="cls-2" d="M108.7,141.54h-7a1.25,1.25,0,0,1-1.25-1.25v-2.44a3.68,3.68,0,0,1,3.68-3.68h2.18a3.69,3.69,0,0,1,3.69,3.68v2.44a1.25,1.25,0,0,1-1.25,1.25m-4.62-6.75a3.07,3.07,0,0,0-3.06,3.06v2.44a.63.63,0,0,0,.63.63h7a.63.63,0,0,0,.63-.63v-2.44a3.07,3.07,0,0,0-3.07-3.06Zm4,4.87h-5.79v-1.81a1.81,1.81,0,0,1,1.8-1.8h2.18a1.81,1.81,0,0,1,1.81,1.8ZM102.9,139h4.55v-1.19a1.18,1.18,0,0,0-1.19-1.18h-2.18a1.18,1.18,0,0,0-1.18,1.18Z"/><path class="cls-2" d="M67.75,69.07a3.43,3.43,0,1,1,3.42-3.43,3.44,3.44,0,0,1-3.42,3.43m0-6.23a2.81,2.81,0,1,0,2.8,2.8,2.8,2.8,0,0,0-2.8-2.8m0,4.35a1.55,1.55,0,1,1,1.54-1.55,1.55,1.55,0,0,1-1.54,1.55m0-2.47a.93.93,0,1,0,.92.92.93.93,0,0,0-.92-.92"/><path class="cls-2" d="M71.27,76.77h-7A1.26,1.26,0,0,1,63,75.52V73.07a3.69,3.69,0,0,1,3.69-3.67h2.18a3.68,3.68,0,0,1,3.68,3.67v2.45a1.25,1.25,0,0,1-1.25,1.25M66.66,70a3.06,3.06,0,0,0-3.06,3v2.45a.63.63,0,0,0,.62.63h7a.63.63,0,0,0,.63-.63V73.07a3.06,3.06,0,0,0-3.06-3Zm4,4.87H64.85V73.07a1.8,1.8,0,0,1,1.81-1.79h2.18a1.8,1.8,0,0,1,1.8,1.79Zm-5.17-.62H70v-1.2a1.18,1.18,0,0,0-1.18-1.17H66.66a1.19,1.19,0,0,0-1.19,1.17Z"/></g></g></svg>