<svg xmlns="http://www.w3.org/2000/svg" viewBox="0 0 210.35 182.17"><defs><style>.cls-1{fill:#353132;}.cls-2{fill:#fff;}</style></defs><title>Recurso 2</title><g id="Capa_2" data-name="Capa 2"><g id="Capa_1-2" data-name="Capa 1"><polygon class="cls-1" points="157.76 0 52.59 0 0 91.08 52.59 182.16 157.76 182.16 210.35 91.08 157.76 0"/><path class="cls-2" d="M89.12,62.26c0,2.64,0,5.28,0,7.92,0,1.43-.57,2-2,2a18.93,18.93,0,0,0-18.35,16,18.87,18.87,0,0,0,17,21.62c.54.06,1.09.09,1.64.12a1.62,1.62,0,0,1,1.7,1.78c0,1.88,0,3.76,0,5.64,0,3.36,0,6.71,0,10.07A2.84,2.84,0,0,1,86,130.6c-1,0-1.91,0-2.86,0a3.16,3.16,0,0,1-3.39-3.38c0-2.24,0-4.48,0-6.72a.94.94,0,0,0-.82-1.09A25.77,25.77,0,0,1,73.25,117a.73.73,0,0,0-1,.13c-1.55,1.58-3.15,3.12-4.69,4.7s-3.41,1.69-5,.11q-3.07-3-6.1-6.1a3.21,3.21,0,0,1,.16-4.75c1.66-1.59,3.25-3.24,4.89-4.86a.62.62,0,0,0,.11-.87,27.07,27.07,0,0,1-2.49-6,.77.77,0,0,0-.91-.66q-3.36,0-6.71,0a3.18,3.18,0,0,1-3.51-3.49c0-2.76,0-5.53,0-8.29a3.2,3.2,0,0,1,3.55-3.54c2.21,0,4.43,0,6.64,0a.83.83,0,0,0,.95-.71,27,27,0,0,1,2.4-5.8.85.85,0,0,0-.22-1.22c-1.61-1.58-3.24-3.16-4.79-4.8a3.1,3.1,0,0,1,.09-4.79q3-3.09,6.08-6.13a3.22,3.22,0,0,1,4.57,0c1.58,1.58,3.17,3.15,4.72,4.76a1.11,1.11,0,0,0,1.6.24,24.64,24.64,0,0,1,5.6-2.3c.53-.14.66-.42.66-.92,0-2.19,0-4.38,0-6.57,0-2.45,1.22-3.65,3.64-3.65h3.07a2.42,2.42,0,0,1,2.63,2.69c0,2.66,0,5.33,0,8m-3.36-.33c0-2.07,0-4.14,0-6.21,0-.56-.14-.82-.76-.8-2.08.06-1.77-.28-1.79,1.77,0,2.33,0,4.67,0,7,0,1-.4,1.58-1.31,1.79A27,27,0,0,0,73.36,69a1.82,1.82,0,0,1-2.29-.28c-1.72-1.73-3.43-3.47-5.16-5.2-1.11-1.11-.79-1.16-2,.06-.12.11-.27.22-.22.42s-.1.4-.34.43a1.36,1.36,0,0,0-.82.52l-2.92,2.93c-.68.68-.68.69,0,1.39l5,5C65.93,75.6,66,76,65,77.55a25.49,25.49,0,0,0-3,7.15c-.45,1.88-.83,2.17-2.74,2.17-2.38,0-4.76,0-7.14,0-.62,0-.83.13-.82.78,0,2.24,0,4.48,0,6.72,0,.93,0,1,1,1,2.45,0,4.9,0,7.35,0,1.46,0,2,.37,2.27,1.74a25.83,25.83,0,0,0,3.34,8,1.65,1.65,0,0,1-.29,2.42c-1.86,1.88-3.72,3.75-5.6,5.6-.4.39-.43.63,0,1,1.66,1.61,3.3,3.24,4.9,4.9.48.51.82.51,1.25,0,.09-.1.2-.2.3-.3L71,113.57a1.77,1.77,0,0,1,2.45-.4c.6.39,1.23.7,1.84,1a23.25,23.25,0,0,0,6.11,2.34c1.43.36,1.83.84,1.83,2.35,0,2.19,0,4.38,0,6.57,0,1.89-.24,1.65,1.75,1.69.58,0,.8-.17.8-.78q0-6.17,0-12.35c0-.56-.18-.79-.76-.85A22.24,22.24,0,0,1,69.66,77.72,21.67,21.67,0,0,1,85,69c.59-.07.81-.3.8-.91,0-2,0-4.09,0-6.14"/><path class="cls-2" d="M131.31,87.35c-1.36,0-2.71,0-4.07,0a2.86,2.86,0,0,1-2.95-3c0-2.73,0-5.47,0-8.21,0-.61-.14-.82-.78-.81-2.72,0-5.43,0-8.15,0a2.88,2.88,0,0,1-3.06-3c0-2.69,0-5.38,0-8.07a2.81,2.81,0,0,1,2.71-3c2.2-.2,4.42-.05,6.63-.07a12.39,12.39,0,0,1,2.28.06,2.85,2.85,0,0,1,2.56,2.88c0,2.86,0,5.72,0,8.57,0,.54.12.54.58.53,2.83,0,5.66-.08,8.49,0a2.73,2.73,0,0,1,2.84,2.72,65.81,65.81,0,0,1,0,8.77,2.73,2.73,0,0,1-3,2.66h-4.07m-15.62-19c0,1,0,2,0,3,0,.47.12.7.64.69,2,0,4,0,6.07,0,.48,0,.69-.17.69-.66,0-2,0-4,0-6.07,0-.5-.22-.67-.7-.66q-3,0-6.07,0c-.45,0-.64.17-.63.63,0,1,0,2,0,3.07m19.37,12.07h0c0-1,0-2.09,0-3.14,0-.44-.17-.63-.64-.63-2,0-4,0-6.07,0-.47,0-.68.16-.68.66q0,3,0,6.07c0,.5.19.67.68.66,2,0,4,0,6,0,.59,0,.74-.24.73-.77,0-1,0-1.9,0-2.86"/><path class="cls-2" d="M112.33,121.09c0-1.31,0-2.62,0-3.93A2.88,2.88,0,0,1,115,114.1c1.92-.2,3.86-.06,5.78-.08a18.28,18.28,0,0,1,3.14.08,2.85,2.85,0,0,1,2.59,2.85q.08,4.22,0,8.42a2.78,2.78,0,0,1-2.74,2.84,75.47,75.47,0,0,1-8.77,0,2.8,2.8,0,0,1-2.67-2.89c0-1.41,0-2.81,0-4.22Zm7.09,3.76c1,0,2,0,3.07,0,.47,0,.69-.15.66-.67-.12-2-.07-4,0-6,0-.52-.15-.68-.63-.68q-3.08,0-6.13,0c-.49,0-.68.18-.67.67q0,3,0,6.06c0,.49.17.68.67.67,1,0,2,0,3.06,0"/><path class="cls-2" d="M110.89,103.43c0-1.33,0-2.67,0-4a2.88,2.88,0,0,1,3-3H122a2.85,2.85,0,0,1,3,2.91c.07,2.78.06,5.56,0,8.34a2.93,2.93,0,0,1-3,2.93c-2.73,0-5.47,0-8.2,0a2.88,2.88,0,0,1-2.93-3c0-.72,0-1.43,0-2.14v-2.07m7-3.65c-1,0-2,0-2.92,0-.47,0-.7.12-.69.64,0,2,0,4,0,6.06,0,.48.15.7.66.69q3,0,6.06,0c.49,0,.68-.2.68-.68q0-3,0-6c0-.5-.19-.73-.72-.72-1,0-2,0-3.07,0"/><path class="cls-2" d="M155.37,89.41c1.36,0,2.71,0,4.07,0a2.81,2.81,0,0,1,3,3q0,4.11,0,8.22a2.88,2.88,0,0,1-2.89,3q-4.17.07-8.36,0a2.92,2.92,0,0,1-2.92-3c0-2.69,0-5.38,0-8.07a2.88,2.88,0,0,1,3.21-3.11h3.93M159,96.52c0-1,0-2,0-3.07,0-.47-.17-.69-.67-.68-2,0-4,0-6.07,0-.44,0-.66.14-.66.61,0,2,0,4.09,0,6.14,0,.44.18.65.63.65,2.05,0,4.09,0,6.14,0,.46,0,.63-.2.63-.65,0-1,0-2,0-3"/><path class="cls-2" d="M143.84,96.45c0,1.33,0,2.66,0,4a2.89,2.89,0,0,1-3,3.15q-4,.07-8.06,0a2.9,2.9,0,0,1-3.08-3q-.09-4,0-8.06a2.93,2.93,0,0,1,3.25-3.09h7.85a2.86,2.86,0,0,1,3.08,3c0,1.33,0,2.67,0,4m-7-3.68c-1,0-2,0-3,0-.52,0-.73.15-.73.69q0,3,0,6c0,.53.22.71.72.71q3,0,6,0c.48,0,.69-.18.68-.67q0-3,0-6.07c0-.5-.19-.67-.68-.66-1,0-2,0-3,0"/><path class="cls-2" d="M108.18,85.88c0-1.33,0-2.67,0-4a2.85,2.85,0,0,1,3-3c2.67,0,5.33,0,8-.06a3,3,0,0,1,3.15,3c0,2.71.06,5.43,0,8.14a2.92,2.92,0,0,1-3.1,3c-2.69.07-5.39.06-8.07,0a2.91,2.91,0,0,1-3-3.18V85.88m7.11-3.69c-1,0-2.05,0-3.07,0-.47,0-.69.15-.68.65q0,3,0,6.07c0,.51.2.67.68.67q3,0,6,0c.5,0,.73-.17.73-.7q0-3,0-6c0-.53-.22-.71-.73-.7-1,0-2,0-2.93,0"/><path class="cls-2" d="M149.92,67.83c1.38,0,2.76,0,4.14,0A2.75,2.75,0,0,1,157,70.74c0,2.78,0,5.57,0,8.35a2.75,2.75,0,0,1-2.45,2.84,23.4,23.4,0,0,1-3.35.08h-4.93c-2.15,0-3.29-1-3.39-3.11a71.68,71.68,0,0,1,0-8.42,2.72,2.72,0,0,1,2.89-2.65c1.38,0,2.76,0,4.14,0m-3.68,7.09c0,1,0,2,0,2.92,0,.5.13.74.68.74q3,0,6.06,0c.45,0,.65-.16.65-.62,0-2,0-4.09,0-6.14,0-.47-.2-.62-.65-.62-2,0-4,0-6.06,0-.55,0-.69.24-.68.73,0,1,0,2,0,3"/><path class="cls-2" d="M99.17,87.34c-1.42,0-2.85,0-4.28,0a2.82,2.82,0,0,1-2.84-2.88c0-2.74,0-5.48,0-8.22a2.87,2.87,0,0,1,3-3c2.76-.07,5.52-.06,8.28,0a2.87,2.87,0,0,1,2.9,2.93c0,2.79.05,5.57,0,8.36a2.84,2.84,0,0,1-3,2.87c-1.35,0-2.71,0-4.07,0ZM99.1,84c1.07,0,2.14,0,3.21,0,.43,0,.59-.17.58-.59q0-3.11,0-6.2c0-.43-.17-.6-.59-.6q-3.14,0-6.27,0c-.46,0-.63.19-.62.64q0,3.08,0,6.13c0,.47.18.63.63.62,1,0,2,0,3.06,0"/><path class="cls-2" d="M147.55,108.68h4.14a2.84,2.84,0,0,1,3,2.88c0,2.8,0,5.61,0,8.41a2.87,2.87,0,0,1-2.88,2.87c-2.78.07-5.57.08-8.35,0a2.87,2.87,0,0,1-3-3.21c0-2.59,0-5.18,0-7.78a2.91,2.91,0,0,1,3.15-3.15h3.92m.12,3.37c-1,0-2,0-3.06,0-.55,0-.78.19-.77.75q0,3,0,6c0,.44.14.65.61.65,2.09,0,4.18,0,6.27,0,.43,0,.6-.16.6-.59,0-2.07,0-4.14,0-6.2,0-.5-.21-.6-.64-.59-1,0-2,0-3,0"/><path class="cls-2" d="M99.19,116.41h4a2.9,2.9,0,0,1,3,2.92q.06,4.17,0,8.35a2.9,2.9,0,0,1-2.93,2.9q-4.14.07-8.29,0a2.92,2.92,0,0,1-3-3.08c0-2.67,0-5.33,0-8a2.91,2.91,0,0,1,3.14-3.1h4Zm0,3.37c-1,0-2.09,0-3.14,0-.44,0-.65.13-.65.61q0,3.08,0,6.14c0,.46.18.64.63.64h6.21c.45,0,.65-.16.64-.63q0-3.06,0-6.14c0-.46-.17-.63-.63-.62-1,0-2.05,0-3.07,0"/><path class="cls-2" d="M99.16,94.83c1.38,0,2.76,0,4.14,0a2.81,2.81,0,0,1,2.93,2.79q.08,4.26,0,8.5a2.85,2.85,0,0,1-2.88,2.86c-2.69,0-5.38.06-8.07,0a3,3,0,0,1-3.23-3.34c0-2.55,0-5.09,0-7.64a2.9,2.9,0,0,1,3.19-3.19h3.92Zm0,10.74c1,0,2,0,3.07,0,.48,0,.68-.16.68-.66q0-3,0-6.07c0-.5-.2-.66-.68-.66-2,0-4.09,0-6.14,0-.48,0-.68.15-.68.66q0,3,0,6.07c0,.5.2.67.68.66,1,0,2,0,3.07,0"/><path class="cls-2" d="M139.12,65.77c-1.33,0-2.66,0-4,0a3,3,0,0,1-3.06-3c0-2.71,0-5.42,0-8.14a3,3,0,0,1,3.15-3.05h7.64c2.22,0,3.4,1.17,3.4,3.38v7.5q0,3.31-3.35,3.32c-1.26,0-2.52,0-3.79,0m-3.62-7.18c0,1,0,2.09,0,3.14,0,.47.16.69.66.68h6.13c.47,0,.62-.18.62-.63,0-2.07,0-4.14,0-6.2,0-.51-.2-.66-.68-.65h-6.05c-.5,0-.69.19-.68.67,0,1,0,2,0,3"/><path class="cls-2" d="M106.25,58.75c0,1.31,0,2.62,0,3.93a2.93,2.93,0,0,1-3.1,3.09q-4,0-8.07,0a2.89,2.89,0,0,1-3-2.95q-.06-4.14,0-8.28A2.87,2.87,0,0,1,95,51.59c2.76-.05,5.52-.06,8.28,0a2.94,2.94,0,0,1,3,3.17c0,1.33,0,2.66,0,4m-7.09-3.82c-1,0-2,0-2.93,0-.62,0-.84.18-.83.82,0,2,0,3.95,0,5.92,0,.63.23.76.78.75q3,0,6,0c.51,0,.73-.15.72-.69,0-2,0-4.1,0-6.14,0-.5-.18-.68-.67-.66-1,0-2,0-3.07,0"/></g></g></svg>