<svg id="Layer_1" data-name="Layer 1" xmlns="http://www.w3.org/2000/svg" viewBox="0 0 35.25 65.75"><defs><style>.cls-1{fill:#fff;}</style></defs><path class="cls-1" d="M14.94,65.75H5.4a1,1,0,0,1-1-1V45.68a3.08,3.08,0,0,1-1.14.21H3.09A3.09,3.09,0,0,1,0,42.8V32.33a5.14,5.14,0,0,1,5.14-5.14H15.19a5.15,5.15,0,0,1,5.15,5.14V42.8a3.09,3.09,0,0,1-3.09,3.09h-.2a3.12,3.12,0,0,1-1.14-.21v19.1A1,1,0,0,1,14.94,65.75Zm-8.57-2H14v-21a1,1,0,0,1,1.95,0,1.14,1.14,0,0,0,1.14,1.14h.2a1.15,1.15,0,0,0,1.14-1.14V32.33a3.2,3.2,0,0,0-3.2-3.19h-10A3.19,3.19,0,0,0,2,32.33V42.8a1.14,1.14,0,0,0,1.14,1.14h.19A1.14,1.14,0,0,0,4.42,42.8a1,1,0,0,1,2,0Z"/><path class="cls-1" d="M5.4,43.78a1,1,0,0,1-1-1V35.69a1,1,0,1,1,2,0V42.8A1,1,0,0,1,5.4,43.78Z"/><path class="cls-1" d="M14.94,43.78a1,1,0,0,1-1-1V35.69a1,1,0,1,1,1.95,0V42.8A1,1,0,0,1,14.94,43.78Z"/><path class="cls-1" d="M10.17,26.64A5.49,5.49,0,0,1,4.81,21a5.49,5.49,0,0,1,5.36-5.61A5.5,5.5,0,0,1,15.53,21,5.5,5.5,0,0,1,10.17,26.64Zm0-9.27A3.54,3.54,0,0,0,6.76,21a3.54,3.54,0,0,0,3.41,3.66A3.54,3.54,0,0,0,13.58,21,3.54,3.54,0,0,0,10.17,17.37Z"/><path class="cls-1" d="M10.17,65.75a1,1,0,0,1-1-1V48.6a1,1,0,0,1,2,0V64.78A1,1,0,0,1,10.17,65.75Z"/><path class="cls-1" d="M30.5,65.75H22.36a1,1,0,0,1-1-1V48.68a2.82,2.82,0,0,1-.83.12,1,1,0,0,1,0-1.95.83.83,0,0,0,.83-.82,1,1,0,1,1,1.95,0V63.8h6.2V46a1,1,0,1,1,1.95,0,.82.82,0,0,0,.82.82h.17A.83.83,0,0,0,33.3,46V37.09a2.58,2.58,0,0,0-2.58-2.58H22.14a1,1,0,0,1,0-2h8.58a4.54,4.54,0,0,1,4.53,4.54V46a2.78,2.78,0,0,1-2.78,2.77H32.3a2.81,2.81,0,0,1-.82-.12v16.1A1,1,0,0,1,30.5,65.75Z"/><path class="cls-1" d="M22.36,47a1,1,0,0,1-1-1V40a1,1,0,0,1,1.95,0V46A1,1,0,0,1,22.36,47Z"/><path class="cls-1" d="M30.5,47a1,1,0,0,1-1-1V40a1,1,0,0,1,1.95,0V46A1,1,0,0,1,30.5,47Z"/><path class="cls-1" d="M26.43,31.92A4.93,4.93,0,1,1,31.15,27,4.83,4.83,0,0,1,26.43,31.92Zm0-7.91a3,3,0,1,0,2.76,3A2.88,2.88,0,0,0,26.43,24Z"/><path class="cls-1" d="M26.43,65.75a1,1,0,0,1-1-1V51a1,1,0,0,1,1.95,0V64.78A1,1,0,0,1,26.43,65.75Z"/><path class="cls-1" d="M28.71,18.26a.85.85,0,0,1-.63-.26l-6.51-6.5a.89.89,0,0,1,1.26-1.26l6.51,6.5a.91.91,0,0,1,0,1.26A.89.89,0,0,1,28.71,18.26Z"/><path class="cls-1" d="M22.2,18.26a.87.87,0,0,1-.63-.26.89.89,0,0,1,0-1.26l6.51-6.5a.89.89,0,0,1,1.26,0,.91.91,0,0,1,0,1.26L22.83,18A.85.85,0,0,1,22.2,18.26Z"/><path class="cls-1" d="M10,12.91a.85.85,0,0,1-.63-.26L4.77,8.07A.89.89,0,0,1,6,6.81l4.58,4.58A.89.89,0,0,1,10,12.91Z"/><path class="cls-1" d="M9.72,12.91a.85.85,0,0,1-.63-.26.89.89,0,0,1,0-1.26L20.21.26a.89.89,0,0,1,1.27,1.26L10.35,12.65A.89.89,0,0,1,9.72,12.91Z"/></svg>