<svg xmlns="http://www.w3.org/2000/svg" viewBox="0 0 134.99 116.91"><defs><style>.cls-1{fill:#332d2f;}.cls-2{fill:#cf181d;}.cls-3{fill:none;stroke:#fff;stroke-miterlimit:10;}</style></defs><g id="Capa_2" data-name="Capa 2"><g id="Capa_1-2" data-name="Capa 1"><polygon class="cls-1" points="101.24 0 33.75 0 0 58.45 33.75 116.91 101.24 116.91 134.99 58.45 101.24 0"/><path class="cls-2" d="M58.74,42.84a9.52,9.52,0,0,1,11.69,1.72,1,1,0,0,1,0,1.41,1,1,0,0,1-1.42,0,7.52,7.52,0,0,0-10.62-.33,1,1,0,0,1-1.42,0,1,1,0,0,1,0-1.41A8.85,8.85,0,0,1,58.74,42.84Z"/><path class="cls-2" d="M56.68,37.89a13.5,13.5,0,0,1,16.57,2.46,1,1,0,0,1,0,1.41,1,1,0,0,1-1.42,0,11.5,11.5,0,0,0-16.26-.5,1,1,0,1,1-1.37-1.46A13.83,13.83,0,0,1,56.68,37.89Z"/><path class="cls-3" d="M52.52,55.34c.74-1.54,0-3,.46-4.66L60.8,55.3c.85-.54.44-1.27.55-1.87.13-.77-.43-1.87.39-2.26s1.47.55,2.18.95c1.37.77,2.72,1.58,4.06,2.4,1.19.72,1.9.58,1.81-1-.12-2.22.9-1.81,2.2-1,1.63,1,3.25,2,5,2.84,2,1,2.78.57,3-1.71.64-8,1.32-16,1.89-24,.11-1.44.45-2.06,2-2s2.26.3,2.33,2c.33,7.94.77,15.88,1.19,23.82.06,1.09-.3,2.43,1.55,2.53.89,0,.79.92.79,1.57,0,5.3,0,10.61,0,15.91,0,1.3-.47,1.72-1.75,1.72q-20.88,0-41.77,0c-1.35,0-2-.37-2-1.81q.06-10.45,0-20.89c0-1.48.5-1.5,1.59-.88C48,52.85,50.25,54.07,52.52,55.34Zm9.22,8c-1.24,0-2.47,0-3.71,0-.72,0-1,.4-1,1.11a.86.86,0,0,0,.94.91c2.48,0,5,0,7.43,0,.58,0,.84-.4.87-1,0-.76-.39-1-1.06-1Zm10.51,2c1.08,0,2.15,0,3.23,0,.72,0,1.32-.15,1.27-1.09,0-.77-.52-.95-1.16-.95h-7c-.64,0-1.11.22-1.14,1,0,.93.56,1.08,1.28,1.08Zm-10.5,1.9h0c-1.15,0-2.31,0-3.47,0-.76,0-1.3.19-1.24,1.11s.53.94,1.17.94c2.24,0,4.47,0,6.7,0,.68,0,1.34,0,1.37-1s-.6-1-1.3-1Zm10.42,2.06h3.47c.67,0,1.1-.24,1.11-1s-.41-1-1.07-1h-7.2c-.55,0-1,.22-1,.86s.2,1.14.94,1.16ZM51,65.35h3.47c.65,0,1.09-.25,1.08-1s-.43-1-1.1-1H47.51a.86.86,0,0,0-1,.89c0,.7.26,1.11,1,1.12C48.68,65.36,49.84,65.35,51,65.35Zm31.84-2H79.35c-.68,0-1.08.29-1.07,1.05s.47,1,1.12,1h6.71c.63,0,1.15-.11,1.18-.91s-.43-1.16-1.23-1.14Zm-31.89,6H54.4c.64,0,1.12-.18,1.15-1s-.36-1-1-1H47.57c-.71,0-1,.33-1,1.07s.52.94,1.16,1Zm32-2H79.45c-.61,0-1.14.11-1.17.9s.24,1.11,1,1.11c2.37,0,4.75,0,7.12,0a.83.83,0,0,0,.92-.9c0-.68-.21-1.11-1-1.11Z"/></g></g></svg>