<svg xmlns="http://www.w3.org/2000/svg" xmlns:xlink="http://www.w3.org/1999/xlink" viewBox="0 0 134.99 116.91"><defs><style>.cls-1{fill:#332d2f;}.cls-2,.cls-3,.cls-4,.cls-5,.cls-6{fill:none;}.cls-2,.cls-5,.cls-6{stroke:#fff;}.cls-2,.cls-5{stroke-linecap:round;stroke-linejoin:round;}.cls-2,.cls-3,.cls-4{stroke-width:0.89px;}.cls-3,.cls-4,.cls-6{stroke-miterlimit:10;}.cls-3{stroke:url(#linear-gradient);}.cls-4{stroke:url(#linear-gradient-2);}.cls-5,.cls-6{stroke-width:0.63px;}</style><linearGradient id="linear-gradient" x1="58.11" y1="37.22" x2="76.88" y2="37.22" gradientUnits="userSpaceOnUse"><stop offset="0" stop-color="#cf181d"/><stop offset="1" stop-color="#df1719"/></linearGradient><linearGradient id="linear-gradient-2" x1="61.68" y1="37.22" x2="73.31" y2="37.22" xlink:href="#linear-gradient"/></defs><g id="Capa_2" data-name="Capa 2"><g id="Capa_1-2" data-name="Capa 1"><polygon class="cls-1" points="101.24 0 33.75 0 0 58.45 33.75 116.91 101.24 116.91 134.99 58.45 101.24 0"/><path class="cls-2" d="M73,52.8V51.47c.15-1.86,0-2.71,1.12-3.27a12.69,12.69,0,1,0-13.25,0c1.25.94,1,1.41,1.12,3.27V52.8Z"/><rect class="cls-2" x="62" y="52.8" width="11.01" height="4.5"/><line class="cls-2" x1="62" y1="54.37" x2="73" y2="54.37"/><line class="cls-2" x1="62" y1="55.85" x2="73" y2="55.85"/><path class="cls-2" d="M64.24,57.3a3.29,3.29,0,0,0,6.52,0Z"/><path class="cls-3" d="M76.34,38.74l.08-2.45-1.49,0a8,8,0,0,0-.41-1.47L75.88,34,74.7,31.87l-1.45.79a7.58,7.58,0,0,0-1-1l.87-1.47L71,28.94l-.9,1.51a7.43,7.43,0,0,0-1.35-.35V28.33H66.27V30.1a7.17,7.17,0,0,0-1,.25l-.82-1.56-2.17,1.15.8,1.51a7.94,7.94,0,0,0-1,.86l-1.4-.9-1.32,2.07,1.33.84a7.16,7.16,0,0,0-.51,1.43l-1.51,0-.08,2.46,1.4,0a7.36,7.36,0,0,0,.3,1.58l-1.16.64,1.18,2.15L61.37,42a7.12,7.12,0,0,0,1.14,1.25l-.6,1L64,45.5l.57-1a6.76,6.76,0,0,0,1.68.48v1.1h2.45V45a6.77,6.77,0,0,0,1.34-.35l.52,1,2.17-1.15-.55-1a7.63,7.63,0,0,0,1.11-1.09l1,.65L75.65,41l-1.1-.7A8.06,8.06,0,0,0,75,38.69Z"/><path class="cls-4" d="M67.49,31.86a5.36,5.36,0,1,0,5.37,5.36A5.36,5.36,0,0,0,67.49,31.86Zm0,9a3.67,3.67,0,1,1,3.68-3.67A3.67,3.67,0,0,1,67.49,40.89Z"/><path class="cls-5" d="M48.22,80.6v-.93c.11-1.31,0-1.91.79-2.3a8.93,8.93,0,1,0-9.32,0c.88.66.68,1,.79,2.3v.93Z"/><rect class="cls-5" x="40.48" y="80.6" width="7.74" height="3.17"/><line class="cls-5" x1="40.48" y1="81.71" x2="48.22" y2="81.71"/><line class="cls-5" x1="40.48" y1="82.75" x2="48.22" y2="82.75"/><path class="cls-5" d="M42.06,83.77a2.31,2.31,0,0,0,4.58,0Z"/><path class="cls-6" d="M50.57,70.71,50.63,69l-1.05,0a5.16,5.16,0,0,0-.29-1l1-.52-.83-1.52-1,.56a5.36,5.36,0,0,0-.73-.7l.61-1-1.49-.88-.63,1.06a4.91,4.91,0,0,0-.95-.25V63.38H43.48v1.25a6,6,0,0,0-.73.17l-.58-1.09-1.52.81.56,1.06a5.51,5.51,0,0,0-.68.6l-1-.63L38.61,67l.93.6a5.77,5.77,0,0,0-.36,1l-1.06,0,0,1.73,1,0a5.08,5.08,0,0,0,.22,1.11l-.82.45.83,1.52L40,73a5.13,5.13,0,0,0,.8.88l-.42.71,1.48.88.4-.67a5.3,5.3,0,0,0,1.18.33v.78h1.73v-.78a4.8,4.8,0,0,0,.94-.24l.37.69L48,74.76,47.66,74a4.68,4.68,0,0,0,.78-.76l.72.46.93-1.46-.78-.49a4.57,4.57,0,0,0,.29-1.1Z"/><path class="cls-6" d="M44.35,65.87a3.77,3.77,0,1,0,3.77,3.77A3.77,3.77,0,0,0,44.35,65.87Zm0,6.35a2.59,2.59,0,1,1,2.58-2.58A2.58,2.58,0,0,1,44.35,72.22Z"/><path class="cls-5" d="M94.21,80.6v-.93c.11-1.31,0-1.91.79-2.3a8.93,8.93,0,1,0-9.32,0c.88.66.68,1,.79,2.3v.93Z"/><rect class="cls-5" x="86.47" y="80.6" width="7.74" height="3.17"/><line class="cls-5" x1="86.47" y1="81.71" x2="94.21" y2="81.71"/><line class="cls-5" x1="86.47" y1="82.75" x2="94.21" y2="82.75"/><path class="cls-5" d="M88.05,83.77a2.31,2.31,0,0,0,4.58,0Z"/><path class="cls-6" d="M96.56,70.71,96.62,69l-1.05,0a5.16,5.16,0,0,0-.29-1l1-.52-.83-1.52-1,.56a5.36,5.36,0,0,0-.73-.7l.61-1-1.49-.88-.63,1.06a4.91,4.91,0,0,0-1-.25V63.38H89.48v1.25a5.55,5.55,0,0,0-.73.17l-.59-1.09-1.52.81.56,1.06a5.51,5.51,0,0,0-.68.6l-1-.63L84.6,67l.93.6a5,5,0,0,0-.35,1l-1.07,0,0,1.73,1,0a5.08,5.08,0,0,0,.22,1.11l-.82.45.83,1.52L86,73a5.13,5.13,0,0,0,.8.88l-.42.71,1.48.88.41-.67a5,5,0,0,0,1.18.33v.78H91.2v-.78a4.8,4.8,0,0,0,.94-.24l.37.69L94,74.76,93.65,74a4.68,4.68,0,0,0,.78-.76l.72.46.93-1.46-.78-.49a5.11,5.11,0,0,0,.3-1.1Z"/><path class="cls-6" d="M90.34,65.87a3.77,3.77,0,1,0,3.77,3.77A3.77,3.77,0,0,0,90.34,65.87Zm0,6.35a2.59,2.59,0,1,1,2.58-2.58A2.58,2.58,0,0,1,90.34,72.22Z"/></g></g></svg>