<svg xmlns="http://www.w3.org/2000/svg" viewBox="0 0 210.35 182.17"><defs><style>.cls-1{fill:#353132;}.cls-2{fill:none;stroke:#fff;stroke-miterlimit:10;stroke-width:2.57px;}</style></defs><title>Recurso 4</title><g id="Capa_2" data-name="Capa 2"><g id="Capa_1-2" data-name="Capa 1"><polygon class="cls-1" points="157.76 0 52.59 0 0 91.08 52.59 182.16 157.76 182.16 210.35 91.08 157.76 0"/><path class="cls-2" d="M121.45,114.77H90.34s3.17-10.28-6.87-22C70.4,77.6,79.16,43.93,107.8,44.62"/><path class="cls-2" d="M120.83,114.77s-3.26-10.35,6.87-22c15-17.26,7-48.88-21.68-48.19"/><rect class="cls-2" x="85.47" y="115.28" width="40.81" height="7.2" rx="3.01"/><rect class="cls-2" x="85.24" y="123.43" width="40.81" height="7.2" rx="3.01"/><path class="cls-2" d="M97.44,130.31A1.74,1.74,0,0,0,96,132.49c.82,4.67,4.2,8.11,8.26,8.11h3.5c4.06,0,7.44-3.46,8.26-8.14a1.74,1.74,0,0,0-1.43-2.18Z"/></g></g></svg>