<svg id="Layer_1" data-name="Layer 1" xmlns="http://www.w3.org/2000/svg" viewBox="0 0 65.63 63.82"><defs><style>.cls-1{fill:#27aae1;}</style></defs><path d="M14.84,37.66a7.49,7.49,0,1,1,7.5-7.49A7.5,7.5,0,0,1,14.84,37.66Zm0-12.73a5.25,5.25,0,1,0,5.25,5.24A5.25,5.25,0,0,0,14.84,24.93Z"/><path d="M28.56,51.87H1.12A1.13,1.13,0,0,1,0,50.74V49A14.78,14.78,0,0,1,11.36,34.55a1.12,1.12,0,0,1,.84.12,5.08,5.08,0,0,0,5.29,0,1.1,1.1,0,0,1,.83-.12A14.78,14.78,0,0,1,29.69,49v1.78A1.13,1.13,0,0,1,28.56,51.87ZM2.25,49.62H27.44V49a12.53,12.53,0,0,0-9.23-12.12,7.33,7.33,0,0,1-6.73,0A12.53,12.53,0,0,0,2.25,49Z"/><path d="M7.74,51.87a1.13,1.13,0,0,1-1.12-1.13V46a1.12,1.12,0,1,1,2.24,0v4.77A1.13,1.13,0,0,1,7.74,51.87Z"/><path d="M22,51.87a1.14,1.14,0,0,1-1.13-1.13V46a1.13,1.13,0,0,1,2.25,0v4.77A1.13,1.13,0,0,1,22,51.87Z"/><path d="M50.78,26.29a7.49,7.49,0,1,1,7.49-7.49A7.5,7.5,0,0,1,50.78,26.29Zm0-12.74A5.25,5.25,0,1,0,56,18.8,5.25,5.25,0,0,0,50.78,13.55Z"/><path d="M64.5,40.49H37.06a1.12,1.12,0,0,1-1.12-1.12V37.59A14.79,14.79,0,0,1,47.3,23.17a1.15,1.15,0,0,1,.83.13,5.1,5.1,0,0,0,5.3,0,1.15,1.15,0,0,1,.83-.13A14.8,14.8,0,0,1,65.63,37.59v1.78A1.13,1.13,0,0,1,64.5,40.49ZM38.18,38.25h25.2v-.66a12.53,12.53,0,0,0-9.23-12.12,7.35,7.35,0,0,1-6.74,0,12.54,12.54,0,0,0-9.23,12.12Z"/><path d="M43.68,40.49a1.12,1.12,0,0,1-1.12-1.12V34.6a1.12,1.12,0,1,1,2.24,0v4.77A1.12,1.12,0,0,1,43.68,40.49Z"/><path d="M57.88,40.49a1.12,1.12,0,0,1-1.12-1.12V34.6a1.13,1.13,0,0,1,2.25,0v4.77A1.13,1.13,0,0,1,57.88,40.49Z"/><path d="M9,19.92a1.15,1.15,0,0,1-.31,0A1.12,1.12,0,0,1,7.91,19l-.8-4.25H5.62A5.47,5.47,0,0,1,.15,9.29V5.48A5.48,5.48,0,0,1,5.62,0H27.4a5.49,5.49,0,0,1,5.48,5.48V9.65a5.49,5.49,0,0,1-5.48,5.48H13.89L9.84,19.56A1.15,1.15,0,0,1,9,19.92ZM5.62,2.25A3.23,3.23,0,0,0,2.39,5.48V9.29a3.23,3.23,0,0,0,3.23,3.23H8a1.13,1.13,0,0,1,1.11.91l.55,2.95,2.86-3.13a1.12,1.12,0,0,1,.83-.37h14a3.23,3.23,0,0,0,3.23-3.23V5.48A3.23,3.23,0,0,0,27.4,2.25Z"/><path class="cls-1" d="M9.33,10.65a3.12,3.12,0,1,1,3.11-3.12A3.12,3.12,0,0,1,9.33,10.65Zm0-4a.88.88,0,1,0,.87.87A.87.87,0,0,0,9.33,6.66Z"/><path class="cls-1" d="M16.51,10.65a3.12,3.12,0,1,1,3.12-3.12A3.12,3.12,0,0,1,16.51,10.65Zm0-4a.88.88,0,1,0,.87.87A.87.87,0,0,0,16.51,6.66Z"/><path class="cls-1" d="M23.7,10.65a3.12,3.12,0,1,1,3.12-3.12A3.12,3.12,0,0,1,23.7,10.65Zm0-4a.88.88,0,1,0,.87.87A.87.87,0,0,0,23.7,6.66Z"/><path d="M59.59,63.82H37.81a5.48,5.48,0,0,1-5.47-5.48V54.17a5.48,5.48,0,0,1,5.47-5.48H51.33l4-4.43a1.13,1.13,0,0,1,1.94.55l.79,4.24h1.49a5.49,5.49,0,0,1,5.48,5.48v3.81A5.49,5.49,0,0,1,59.59,63.82ZM37.81,50.94a3.23,3.23,0,0,0-3.23,3.23v4.17a3.23,3.23,0,0,0,3.23,3.23H59.59a3.23,3.23,0,0,0,3.23-3.23V54.53a3.23,3.23,0,0,0-3.23-3.23H57.17a1.12,1.12,0,0,1-1.1-.92l-.56-2.94-2.86,3.13a1.13,1.13,0,0,1-.83.37Z"/><path d="M55.89,59.4A3.12,3.12,0,1,1,59,56.28,3.12,3.12,0,0,1,55.89,59.4Zm0-4a.88.88,0,1,0,.87.87A.87.87,0,0,0,55.89,55.41Z"/><path d="M48.7,59.4a3.12,3.12,0,1,1,3.12-3.12A3.12,3.12,0,0,1,48.7,59.4Zm0-4a.88.88,0,1,0,.87.87A.87.87,0,0,0,48.7,55.41Z"/><path d="M41.52,59.4a3.12,3.12,0,1,1,3.11-3.12A3.12,3.12,0,0,1,41.52,59.4Zm0-4a.88.88,0,1,0,.87.87A.87.87,0,0,0,41.52,55.41Z"/></svg>