<svg id="Layer_1" data-name="Layer 1" xmlns="http://www.w3.org/2000/svg" viewBox="0 0 67.8 44.75"><defs><style>.cls-1{fill:#414042;}</style></defs><path class="cls-1" d="M26.88,32.56H2.66a2.66,2.66,0,1,1,0-5.31H26.88a2.66,2.66,0,0,1,0,5.31ZM2.66,28.8a1.11,1.11,0,1,0,0,2.21H26.88a1.11,1.11,0,0,0,0-2.21Z"/><path class="cls-1" d="M25.85,35.36H3.68a.78.78,0,0,1-.78-.78v-2.8A.77.77,0,0,1,3.68,31H25.85a.77.77,0,0,1,.78.77v2.8A.78.78,0,0,1,25.85,35.36ZM4.46,33.8H25.08V32.56H4.46Z"/><path class="cls-1" d="M9.66,41.06h-3a.78.78,0,0,1-.78-.78v-5.7a.78.78,0,0,1,.78-.78H9.66a.78.78,0,0,1,.78.78v5.7A.78.78,0,0,1,9.66,41.06ZM7.38,39.5H8.89V35.36H7.38Z"/><path class="cls-1" d="M22.93,41.06H19.87a.78.78,0,0,1-.78-.78v-5.7a.78.78,0,0,1,.78-.78h3.06a.77.77,0,0,1,.77.78v5.7A.77.77,0,0,1,22.93,41.06ZM20.65,39.5h1.5V35.36h-1.5Z"/><path class="cls-1" d="M10.57,28.8A.78.78,0,0,1,9.79,28V26.18a.78.78,0,0,1,1.56,0V28A.78.78,0,0,1,10.57,28.8Z"/><path class="cls-1" d="M19,28.8a.78.78,0,0,1-.78-.77V26.18a.78.78,0,0,1,1.56,0V28A.78.78,0,0,1,19,28.8Z"/><path class="cls-1" d="M14.77,17.91a4.76,4.76,0,0,1-4.64-4.86A4.76,4.76,0,0,1,14.77,8.2a4.75,4.75,0,0,1,4.63,4.85A4.76,4.76,0,0,1,14.77,17.91Zm0-8.16a3.2,3.2,0,0,0-3.08,3.3,3.2,3.2,0,0,0,3.08,3.3,3.2,3.2,0,0,0,3.07-3.3A3.2,3.2,0,0,0,14.77,9.75Z"/><path class="cls-1" d="M22.85,28.8H6.68A.77.77,0,0,1,5.91,28v-4.8a4.44,4.44,0,0,1,4.44-4.44h8.83a4.45,4.45,0,0,1,4.45,4.44V28A.78.78,0,0,1,22.85,28.8ZM7.46,27.25H22.07v-4a2.89,2.89,0,0,0-2.89-2.89H10.35a2.9,2.9,0,0,0-2.89,2.89Z"/><path class="cls-1" d="M52.48,44.75a.81.81,0,0,1-.37-.09A.78.78,0,0,1,51.7,44V37.44a4,4,0,0,1,3.94-3.94H67a.78.78,0,0,1,.44,1.43L52.91,44.62A.75.75,0,0,1,52.48,44.75Zm3.16-9.69a2.38,2.38,0,0,0-2.39,2.38v5.08l11.21-7.46Z"/><path class="cls-1" d="M60.5,9.84H39.74A.78.78,0,0,1,39,9.07V5.71a.78.78,0,0,1,.78-.78H60.5a.78.78,0,0,1,.78.78V9.07A.78.78,0,0,1,60.5,9.84Zm-20-1.55H59.73V6.48H40.51Z"/><path class="cls-1" d="M53.27,14.05H47a.77.77,0,0,1-.78-.77A.78.78,0,0,1,47,12.5h6.3a.78.78,0,0,1,.78.78A.77.77,0,0,1,53.27,14.05Z"/><path class="cls-1" d="M60.69,18.27H39.74a.78.78,0,0,1,0-1.56H60.69a.78.78,0,0,1,0,1.56Z"/><path class="cls-1" d="M56.59,22.48H39.74a.78.78,0,0,1,0-1.56H56.59a.78.78,0,0,1,0,1.56Z"/><path class="cls-1" d="M52.19,26.69H39.74a.78.78,0,0,1-.78-.78.77.77,0,0,1,.78-.77H52.19a.77.77,0,0,1,.78.77A.78.78,0,0,1,52.19,26.69Z"/><path class="cls-1" d="M48,30.9H39.74a.78.78,0,1,1,0-1.55H48a.78.78,0,1,1,0,1.55Z"/><path class="cls-1" d="M52.48,44.75H36.37a3.93,3.93,0,0,1-3.93-3.93V39.27a.77.77,0,0,1,.78-.77.76.76,0,0,1,.77.77v1.55a2.39,2.39,0,0,0,2.38,2.38H52.24l14-9.34V8.33a.78.78,0,1,1,1.55,0v26a.8.8,0,0,1-.34.65L52.91,44.62A.75.75,0,0,1,52.48,44.75Z"/><path class="cls-1" d="M33.22,40.29a.78.78,0,0,1-.78-.78V3.94A3.94,3.94,0,0,1,36.37,0h27.5A3.94,3.94,0,0,1,67.8,3.94V7.39a.78.78,0,0,1-1.55,0V3.94a2.39,2.39,0,0,0-2.38-2.39H36.37A2.39,2.39,0,0,0,34,3.94V39.51A.77.77,0,0,1,33.22,40.29Z"/></svg>