<svg xmlns="http://www.w3.org/2000/svg" xmlns:xlink="http://www.w3.org/1999/xlink" viewBox="0 0 134.99 116.91"><defs><style>.cls-1,.cls-4,.cls-5,.cls-6,.cls-7,.cls-8{fill:none;}.cls-2{isolation:isolate;}.cls-3{fill:#332d2f;}.cls-4,.cls-6,.cls-7,.cls-8{stroke-miterlimit:10;}.cls-4{stroke-width:0.89px;stroke:url(#linear-gradient);}.cls-5,.cls-6,.cls-7,.cls-8{stroke:#fff;}.cls-5{stroke-linecap:round;stroke-linejoin:round;}.cls-5,.cls-6{stroke-width:0.48px;}.cls-7{stroke-width:0.49px;}.cls-8{stroke-width:0.45px;}.cls-9{clip-path:url(#clip-path);}.cls-10{fill:#fff;fill-rule:evenodd;mix-blend-mode:hard-light;}</style><linearGradient id="linear-gradient" x1="44.55" y1="64.38" x2="89.39" y2="64.38" gradientUnits="userSpaceOnUse"><stop offset="0" stop-color="#cf181d"/><stop offset="1" stop-color="#df1719"/></linearGradient><clipPath id="clip-path"><rect class="cls-1" x="35.32" y="44.72" width="59.92" height="47.72"/></clipPath></defs><g class="cls-2"><g id="Capa_2" data-name="Capa 2"><g id="Capa_1-2" data-name="Capa 1"><polygon class="cls-3" points="101.24 0 33.75 0 0 58.45 33.75 116.91 101.24 116.91 134.99 58.45 101.24 0"/><circle class="cls-4" cx="66.97" cy="64.38" r="21.98"/><ellipse class="cls-3" cx="67.44" cy="86.21" rx="4.51" ry="3.94"/><path class="cls-5" d="M37,61.91V61.2c.09-1,0-1.45.61-1.75a6.8,6.8,0,1,0-7.1,0c.67.5.51.75.6,1.75v.71Z"/><rect class="cls-5" x="31.08" y="61.91" width="5.9" height="2.41"/><line class="cls-5" x1="31.08" y1="62.76" x2="36.98" y2="62.76"/><line class="cls-5" x1="31.08" y1="63.54" x2="36.98" y2="63.54"/><path class="cls-5" d="M32.28,64.33A1.77,1.77,0,0,0,34,65.83a1.75,1.75,0,0,0,1.74-1.5Z"/><path class="cls-6" d="M38.77,54.38l0-1.32L38,53a4.2,4.2,0,0,0-.22-.79l.73-.4-.63-1.15-.78.42a4.79,4.79,0,0,0-.56-.54L37,49.8l-1.13-.67-.48.81a3.56,3.56,0,0,0-.73-.19v-1H33.37v1a5.07,5.07,0,0,0-.56.13l-.44-.83-1.16.62.43.81a3.73,3.73,0,0,0-.52.45l-.76-.48-.71,1.11.72.45a4.17,4.17,0,0,0-.28.77l-.8,0-.05,1.32.75,0a4,4,0,0,0,.17.85l-.63.34.63,1.15.58-.31a4.85,4.85,0,0,0,.61.67l-.32.54,1.13.67.31-.52a3.88,3.88,0,0,0,.9.26v.59h1.31v-.59a3.47,3.47,0,0,0,.72-.19l.28.53,1.16-.62-.29-.55a4,4,0,0,0,.59-.58l.55.35.71-1.11-.59-.38a4.3,4.3,0,0,0,.22-.84Z"/><path class="cls-6" d="M34,50.69a2.88,2.88,0,1,0,2.87,2.88A2.88,2.88,0,0,0,34,50.69Zm0,4.84a2,2,0,1,1,2-2A2,2,0,0,1,34,55.53Z"/><path class="cls-6" d="M39.76,53.66a5.56,5.56,0,0,1-5.56,5.56"/><path class="cls-7" d="M71.06,28.82l0,0-5.23-7-.12-.13a2.89,2.89,0,0,0-3.14-4.33l1.59,2.13-1.85,1.38L60.7,18.73A2.9,2.9,0,0,0,64,23a.6.6,0,0,0,.09.15l5.23,7v0a2.9,2.9,0,0,0,3.14,4.34l-1.59-2.13,1.85-1.38,1.59,2.12a2.9,2.9,0,0,0-3.23-4.24Z"/><path class="cls-7" d="M70,28.68a.33.33,0,0,1-.11.44h0a.32.32,0,0,1-.45,0l-4.49-6a.33.33,0,0,1,.11-.44h0a.32.32,0,0,1,.45,0Z"/><path class="cls-7" d="M65,19a2.13,2.13,0,0,1-.49,3"/><path class="cls-7" d="M70.31,33.24a2.12,2.12,0,0,1,.5-3"/><rect class="cls-8" x="93.64" y="50.9" width="13.02" height="12.39" rx="1.61"/><path class="cls-8" d="M97.15,53.31h6a1,1,0,0,1,1,1V59.9a1,1,0,0,1-1,1h-6a1,1,0,0,1-1-1V54.29A1,1,0,0,1,97.15,53.31Z"/><path class="cls-8" d="M102.43,57.13c0-.07,0-.14,0-.21l.45-.12-.2-.78-.47.12a2.27,2.27,0,0,0-.37-.56l.3-.38-.64-.5-.31.4a2.14,2.14,0,0,0-.63-.22v-.49h-.81v.49a2.49,2.49,0,0,0-.6.2l-.29-.4-.65.49.29.39a2.19,2.19,0,0,0-.29.39l-.46-.17-.28.76.45.16a2,2,0,0,0,0,.43v.14l-.45.12.21.79.44-.12a2.24,2.24,0,0,0,.38.58l-.28.36.64.49.27-.35a2.25,2.25,0,0,0,.66.23v.44h.81v-.44a2.29,2.29,0,0,0,.64-.21l.26.35.65-.48-.27-.36a3.91,3.91,0,0,0,.3-.41l.42.15.28-.75-.43-.16A2.4,2.4,0,0,0,102.43,57.13Zm-2.28,1.52a1.55,1.55,0,1,1,1.55-1.55A1.55,1.55,0,0,1,100.15,58.65Z"/><line class="cls-8" x1="95.57" y1="48.8" x2="95.57" y2="50.9"/><line class="cls-8" x1="97.1" y1="48.8" x2="97.1" y2="50.9"/><line class="cls-8" x1="98.62" y1="48.8" x2="98.62" y2="50.9"/><line class="cls-8" x1="100.15" y1="48.8" x2="100.15" y2="50.9"/><line class="cls-8" x1="101.67" y1="48.8" x2="101.67" y2="50.9"/><line class="cls-8" x1="103.2" y1="48.8" x2="103.2" y2="50.9"/><line class="cls-8" x1="104.73" y1="48.8" x2="104.73" y2="50.9"/><line class="cls-8" x1="108.76" y1="52.52" x2="106.66" y2="52.52"/><line class="cls-8" x1="108.76" y1="54.04" x2="106.66" y2="54.04"/><line class="cls-8" x1="108.76" y1="55.57" x2="106.66" y2="55.57"/><line class="cls-8" x1="108.76" y1="57.1" x2="106.66" y2="57.1"/><line class="cls-8" x1="108.76" y1="58.62" x2="106.66" y2="58.62"/><line class="cls-8" x1="108.76" y1="60.15" x2="106.66" y2="60.15"/><line class="cls-8" x1="108.76" y1="61.68" x2="106.66" y2="61.68"/><line class="cls-8" x1="104.73" y1="65.39" x2="104.73" y2="63.29"/><line class="cls-8" x1="103.2" y1="65.39" x2="103.2" y2="63.29"/><line class="cls-8" x1="101.67" y1="65.39" x2="101.67" y2="63.29"/><line class="cls-8" x1="100.15" y1="65.39" x2="100.15" y2="63.29"/><line class="cls-8" x1="98.62" y1="65.39" x2="98.62" y2="63.29"/><line class="cls-8" x1="97.1" y1="65.39" x2="97.1" y2="63.29"/><line class="cls-8" x1="95.57" y1="65.39" x2="95.57" y2="63.29"/><line class="cls-8" x1="91.54" y1="61.68" x2="93.64" y2="61.68"/><line class="cls-8" x1="91.54" y1="60.15" x2="93.64" y2="60.15"/><line class="cls-8" x1="91.54" y1="58.62" x2="93.64" y2="58.62"/><line class="cls-8" x1="91.54" y1="57.1" x2="93.64" y2="57.1"/><line class="cls-8" x1="91.54" y1="55.57" x2="93.64" y2="55.57"/><line class="cls-8" x1="91.54" y1="54.04" x2="93.64" y2="54.04"/><line class="cls-8" x1="91.54" y1="52.52" x2="93.64" y2="52.52"/><path class="cls-8" d="M95.73,52.68a.48.48,0,1,1-.48-.48A.47.47,0,0,1,95.73,52.68Z"/><path class="cls-8" d="M95.73,61.52a.48.48,0,1,1-.48-.48A.48.48,0,0,1,95.73,61.52Z"/><path class="cls-8" d="M105.68,52.68a.48.48,0,1,1-.48-.48A.47.47,0,0,1,105.68,52.68Z"/><path class="cls-8" d="M105.68,61.52a.48.48,0,1,1-.48-.48A.48.48,0,0,1,105.68,61.52Z"/><g class="cls-9"><path class="cls-10" d="M88.84,92.83H78.13v8.29h-.45a11.21,11.21,0,0,0-4-5.71,14.74,14.74,0,0,0-4.18-2.24l-.61-7.09,1-2-2.52-2-2.52,2,1.09,2-.53,6.2A22.24,22.24,0,0,0,63,92.15a19,19,0,0,0-8.34,1.76,14.21,14.21,0,0,0-5.94,5.24,13.17,13.17,0,0,0-1,2H46.15l0-11.49s-.4-1.91,3.24-3.41,10.44-4.36,10.44-4.36l1.52-2.67L62.69,79V78.4c-1.41-1.5-1.73-4.17-3-7.47l-.07-.19a1.26,1.26,0,0,1-.95-.1c-.69-.46-1.11-2.94-1.13-4.15,0-1.82.84-1.64.84-1.64l.08,0c0-.14,0-.28,0-.43,0-1.7-.31-4.44.1-5.93.62-2.34,1.37-4.9,3-4.9s.49-2,2.37-2.68,5.14.52,5.78.52A7.92,7.92,0,0,1,74.65,54c1.15,1.26,1,2.14,1.65,4.46.41,1.55.1,4.32.1,6,0,.15,0,.29,0,.44h0s.87-.18.85,1.64c0,1.21-.43,3.69-1.13,4.15a1.3,1.3,0,0,1-.92.11,1.71,1.71,0,0,0-.07.18c-1.18,3.16-1.69,6-2.93,7.44V79l1.21.21,1.42,2.24L86.2,86.86s2.53.32,2.64,3.51Z"/></g></g></g></g></svg>