<svg id="Layer_1" data-name="Layer 1" xmlns="http://www.w3.org/2000/svg" viewBox="0 0 39.06 59.64"><defs><style>.cls-1{fill:#27aae1;}</style></defs><path d="M38.55,12.94H.51A.51.51,0,0,1,0,12.43V.51A.51.51,0,0,1,.51,0h38a.51.51,0,0,1,.51.51V12.43A.51.51,0,0,1,38.55,12.94ZM1,11.92H38V1H1Z"/><path d="M38.55,36.29H.51A.51.51,0,0,1,0,35.78V23.86a.51.51,0,0,1,.51-.51h38a.51.51,0,0,1,.51.51V35.78A.51.51,0,0,1,38.55,36.29ZM1,35.27H38V24.37H1Z"/><path d="M38.55,59.64H.51A.51.51,0,0,1,0,59.13V47.22a.51.51,0,0,1,.51-.51h38a.51.51,0,0,1,.51.51V59.13A.51.51,0,0,1,38.55,59.64ZM1,58.62H38V47.73H1Z"/><path class="cls-1" d="M9.22,9.13a2.66,2.66,0,1,1,2.65-2.66A2.67,2.67,0,0,1,9.22,9.13Zm0-4.3a1.64,1.64,0,1,0,1.63,1.64A1.64,1.64,0,0,0,9.22,4.83Z"/><path d="M19.53,9.13a2.66,2.66,0,1,1,2.66-2.66A2.67,2.67,0,0,1,19.53,9.13Zm0-4.3a1.64,1.64,0,1,0,1.64,1.64A1.64,1.64,0,0,0,19.53,4.83Z"/><path d="M29.84,9.13A2.66,2.66,0,1,1,32.5,6.47,2.67,2.67,0,0,1,29.84,9.13Zm0-4.3a1.64,1.64,0,1,0,1.64,1.64A1.65,1.65,0,0,0,29.84,4.83Z"/><path d="M9.22,32.48a2.66,2.66,0,1,1,2.65-2.66A2.66,2.66,0,0,1,9.22,32.48Zm0-4.29a1.64,1.64,0,1,0,1.63,1.63A1.63,1.63,0,0,0,9.22,28.19Z"/><path class="cls-1" d="M19.53,32.48a2.66,2.66,0,1,1,2.66-2.66A2.66,2.66,0,0,1,19.53,32.48Zm0-4.29a1.64,1.64,0,1,0,1.64,1.63A1.63,1.63,0,0,0,19.53,28.19Z"/><path d="M29.84,32.48a2.66,2.66,0,1,1,2.66-2.66A2.66,2.66,0,0,1,29.84,32.48Zm0-4.29a1.64,1.64,0,1,0,1.64,1.63A1.64,1.64,0,0,0,29.84,28.19Z"/><path d="M9.22,55.83a2.66,2.66,0,1,1,2.65-2.66A2.66,2.66,0,0,1,9.22,55.83Zm0-4.29a1.64,1.64,0,1,0,1.63,1.63A1.63,1.63,0,0,0,9.22,51.54Z"/><path d="M19.53,55.83a2.66,2.66,0,1,1,2.66-2.66A2.66,2.66,0,0,1,19.53,55.83Zm0-4.29a1.64,1.64,0,1,0,1.64,1.63A1.63,1.63,0,0,0,19.53,51.54Z"/><path class="cls-1" d="M29.84,55.83a2.66,2.66,0,1,1,2.66-2.66A2.66,2.66,0,0,1,29.84,55.83Zm0-4.29a1.64,1.64,0,1,0,1.64,1.63A1.64,1.64,0,0,0,29.84,51.54Z"/><path d="M19.53,24.37a.51.51,0,0,1-.51-.51V12.43a.51.51,0,0,1,1,0V23.86A.51.51,0,0,1,19.53,24.37Z"/><path d="M19.53,47.73a.51.51,0,0,1-.51-.51V35.78a.51.51,0,0,1,1,0V47.22A.51.51,0,0,1,19.53,47.73Z"/></svg>