<svg xmlns="http://www.w3.org/2000/svg" viewBox="0 0 58.17 63.05"><defs><style>.cls-1{fill:#332d2f;}.cls-2{fill:#28a8df;}.cls-3{fill:#01040c;}</style></defs><g id="Capa_2" data-name="Capa 2"><g id="Capa_1-2" data-name="Capa 1"><path class="cls-1" d="M42.35,63.05H2.1A2.1,2.1,0,0,1,0,61V51.62a2.1,2.1,0,0,1,2.1-2.1H42.35a2.1,2.1,0,0,1,2.09,2.1V61A2.1,2.1,0,0,1,42.35,63.05ZM2.1,51.13a.49.49,0,0,0-.49.49V61a.49.49,0,0,0,.49.49H42.35a.49.49,0,0,0,.48-.49V51.62a.49.49,0,0,0-.48-.49Z"/><path class="cls-1" d="M36.26,57.09H33.57a.81.81,0,0,1,0-1.61h2.69a.81.81,0,1,1,0,1.61Z"/><path class="cls-1" d="M10.87,57.09H8.18a.81.81,0,1,1,0-1.61h2.69a.81.81,0,1,1,0,1.61Z"/><path class="cls-2" d="M42.35,13.53H2.1A2.1,2.1,0,0,1,0,11.43V2.1A2.1,2.1,0,0,1,2.1,0H42.35a2.1,2.1,0,0,1,2.09,2.1v9.33A2.1,2.1,0,0,1,42.35,13.53ZM2.1,1.61a.49.49,0,0,0-.49.49v9.33a.49.49,0,0,0,.49.49H42.35a.49.49,0,0,0,.48-.49V2.1a.49.49,0,0,0-.48-.49Z"/><path class="cls-3" d="M36.26,7.57H33.57a.81.81,0,0,1,0-1.61h2.69a.81.81,0,1,1,0,1.61Z"/><path class="cls-3" d="M10.87,7.57H8.18A.81.81,0,1,1,8.18,6h2.69a.81.81,0,1,1,0,1.61Z"/><path class="cls-1" d="M42.35,38.15H2.1A2.1,2.1,0,0,1,0,36.05V26.72a2.1,2.1,0,0,1,2.1-2.1H42.35a2.1,2.1,0,0,1,2.09,2.1v9.33A2.1,2.1,0,0,1,42.35,38.15ZM2.1,26.23a.49.49,0,0,0-.49.49v9.33a.49.49,0,0,0,.49.49H42.35a.49.49,0,0,0,.48-.49V26.72a.49.49,0,0,0-.48-.49Z"/><path class="cls-1" d="M36.26,32.19H33.57a.81.81,0,0,1,0-1.61h2.69a.81.81,0,1,1,0,1.61Z"/><path class="cls-1" d="M10.87,32.19H8.18a.81.81,0,1,1,0-1.61h2.69a.81.81,0,1,1,0,1.61Z"/><path class="cls-1" d="M34.12,15.11a.8.8,0,0,0-.8.81v5.36H16.74a.81.81,0,1,0,0,1.61H34.12a.81.81,0,0,0,.81-.81V15.92A.81.81,0,0,0,34.12,15.11Z"/><path class="cls-1" d="M34.12,15.11a.79.79,0,0,0-.59.26L32.2,16.82a.81.81,0,0,0,0,1.14.8.8,0,0,0,1.14-.05l.73-.8.74.8a.81.81,0,0,0,1.19-1.09l-1.33-1.45A.79.79,0,0,0,34.12,15.11Z"/><path class="cls-1" d="M27.71,47.73H10.32a.81.81,0,0,1-.81-.81V40.75a.81.81,0,1,1,1.62,0v5.36H27.71a.81.81,0,0,1,0,1.62Z"/><path class="cls-1" d="M11.65,43a.8.8,0,0,1-.59-.26l-.74-.8-.74.8a.81.81,0,0,1-1.19-1.09l1.34-1.45a.82.82,0,0,1,1.19,0l1.33,1.45a.81.81,0,0,1-.05,1.14A.82.82,0,0,1,11.65,43Z"/><path class="cls-2" d="M40.44,22.89,27.92,42.78a2.83,2.83,0,0,0,2.4,4.33h25a2.82,2.82,0,0,0,2.39-4.33L45.22,22.89A2.82,2.82,0,0,0,40.44,22.89Z"/><path class="cls-1" d="M41,29.78v-.4h3.58v.4l-.95,8.88H42Zm.16,10.45h3.26v3.21H41.2Z"/></g></g></svg>