<svg xmlns="http://www.w3.org/2000/svg" viewBox="0 0 210.35 182.17"><defs><style>.cls-1{fill:#353132;}.cls-2{fill:#fff;}</style></defs><title>Recurso 1</title><g id="Capa_2" data-name="Capa 2"><g id="Capa_1-2" data-name="Capa 1"><polygon class="cls-1" points="157.76 0 52.59 0 0 91.08 52.59 182.16 157.76 182.16 210.35 91.08 157.76 0"/><path class="cls-2" d="M122.37,49c.13.17.33.15.52.19a6.79,6.79,0,0,1,5.37,6.68q0,15.33,0,30.67a2,2,0,0,1-1.11,2,1.88,1.88,0,0,1-2.09-.22,2.08,2.08,0,0,1-.75-1.82q0-10.3,0-20.63V56.32c0-2.22-1.11-3.32-3.35-3.32q-17.43,0-34.86,0c-.81,0-1,.23-1,1,0,3.67,0,7.34,0,11a6.05,6.05,0,0,1-6.43,6.44c-2.6,0-5.21,0-7.81,0a2,2,0,0,1-1.89-3,2.1,2.1,0,0,1,2-1c2.54,0,5.09,0,7.64,0,1.77,0,2.47-.71,2.47-2.5q0-5.38,0-10.77c0-1-.06-1-1-.61a8.21,8.21,0,0,0-2.54,1.78c-2.87,2.87-5.73,5.74-8.61,8.6A7.75,7.75,0,0,0,66.7,69.7q0,28.08,0,56.15c0,2.2,1.08,3.27,3.29,3.27h37.82a7.2,7.2,0,0,1,1.14,0,1.92,1.92,0,0,1,1.71,2.06,2,2,0,0,1-1.84,1.88c-.28,0-.55,0-.83,0H70.1c-3.91,0-6.34-1.93-7.28-5.75a2.75,2.75,0,0,0-.14-.3V68.37a2.51,2.51,0,0,0,.16-.46,11.05,11.05,0,0,1,3.33-6.69q4.36-4.39,8.76-8.77a11.52,11.52,0,0,1,5.88-3.22c.43-.08.89,0,1.27-.26Z"/><path class="cls-2" d="M105.21,112.42A20.81,20.81,0,0,1,123.1,91.71a19.91,19.91,0,0,1,11.31,1.58,2,2,0,1,1-1.61,3.63,16.89,16.89,0,0,0-7.42-1.46c-7.94.16-15,6.71-16.07,14.59a17,17,0,0,0,13.48,18.79c9.12,1.87,18.55-4.7,19.84-13.89a17.18,17.18,0,0,0-1.25-9.47,2,2,0,1,1,3.64-1.57c2.65,6.24,2.53,12.44-.79,18.34-4.09,7.28-10.5,10.95-18.85,10.82a20.7,20.7,0,0,1-20-17.79c-.14-1-.14-2-.21-2.86"/><path class="cls-2" d="M134,107.06a2,2,0,0,1-.46,1.24q-3.56,5.13-7.13,10.24a2,2,0,0,1-3.47.06c-1.27-1.68-2.51-3.38-3.75-5.09a2,2,0,1,1,3.19-2.35c.61.81,1.23,1.61,1.8,2.45.34.5.52.46.85,0,1.73-2.52,3.5-5,5.24-7.55a2,2,0,0,1,2-1,1.93,1.93,0,0,1,1.71,2"/><path class="cls-2" d="M142.09,99.65a1.94,1.94,0,0,1-1.11,1.92,1.83,1.83,0,0,1-2.08-.21,18.41,18.41,0,0,1-2-2A1.94,1.94,0,0,1,137,97a1.89,1.89,0,0,1,2.44-.51,8.26,8.26,0,0,1,2.48,2.48,1.19,1.19,0,0,1,.22.72"/></g></g></svg>