<svg xmlns="http://www.w3.org/2000/svg" viewBox="0 0 210.35 182.17"><defs><style>.cls-1{fill:#332d2f;}.cls-2{fill:#f5f5f5;}</style></defs><g id="Capa_2" data-name="Capa 2"><g id="Capa_1-2" data-name="Capa 1"><polygon class="cls-1" points="157.76 0 52.59 0 0 91.08 52.59 182.16 157.76 182.16 210.35 91.08 157.76 0"/><path class="cls-2" d="M105,108a9.68,9.68,0,0,1-9.67-9.67,2.44,2.44,0,1,1,4.87,0,4.8,4.8,0,1,0,4.8-4.8,9.67,9.67,0,1,1,9.67-9.67,2.44,2.44,0,0,1-4.88,0A4.8,4.8,0,1,0,105,88.64,9.68,9.68,0,0,1,105,108Z"/><path class="cls-2" d="M105,129.71a38.63,38.63,0,1,1,38.63-38.63A38.67,38.67,0,0,1,105,129.71Zm0-72.38a33.75,33.75,0,1,0,33.75,33.75A33.79,33.79,0,0,0,105,57.33Z"/><path class="cls-2" d="M105,120.17a29.09,29.09,0,1,1,29.09-29.09A29.12,29.12,0,0,1,105,120.17Zm0-53.3a24.21,24.21,0,1,0,24.21,24.21A24.24,24.24,0,0,0,105,66.87Z"/><path class="cls-2" d="M105,79.06a2.44,2.44,0,0,1-2.44-2.44V73.54a2.44,2.44,0,1,1,4.88,0v3.08A2.45,2.45,0,0,1,105,79.06Z"/><path class="cls-2" d="M105,111.06a2.44,2.44,0,0,1-2.44-2.44v-3.07a2.44,2.44,0,0,1,4.88,0v3.07A2.44,2.44,0,0,1,105,111.06Z"/></g></g></svg>