<svg xmlns="http://www.w3.org/2000/svg" viewBox="0 0 210.35 182.17"><defs><style>.cls-1{fill:#332d2f;}.cls-2{fill:#f5f5f5;}</style></defs><g id="Capa_2" data-name="Capa 2"><g id="Capa_1-2" data-name="Capa 1"><polygon class="cls-1" points="157.76 0 52.59 0 0 91.08 52.59 182.16 157.76 182.16 210.35 91.08 157.76 0"/><path class="cls-2" d="M140.39,108.72h-71a1.52,1.52,0,0,1-1.51-1.51V61.42a1.52,1.52,0,0,1,1.51-1.51h71a1.52,1.52,0,0,1,1.51,1.51V83.55a1.51,1.51,0,0,1-3,0V62.93h-68V105.7h69.53a1.51,1.51,0,0,1,0,3Z"/><path class="cls-2" d="M152,122.25H57.76a3.18,3.18,0,0,1-1.91-5.73l12.53-10.47a1.58,1.58,0,0,1,1-.35h71a1.56,1.56,0,0,1,1,.35l12.53,10.47a3.18,3.18,0,0,1-1.91,5.73ZM69.9,108.72,57.75,118.86l-.09.07a.14.14,0,0,0-.06.19c0,.12.11.12.16.12H152c.05,0,.12,0,.16-.12a.14.14,0,0,0-.06-.19l-.09-.07-12.15-10.14Z"/><path class="cls-2" d="M140.84,117.05H68.35a1.51,1.51,0,1,1,0-3h72.49a1.51,1.51,0,1,1,0,3Z"/><path class="cls-2" d="M136.05,103.42A1.49,1.49,0,0,1,135,103l-9-9-2.3,2.3a1.5,1.5,0,0,1-2.56-.89l-1.64-14.32a1.53,1.53,0,0,1,.43-1.24,1.47,1.47,0,0,1,1.24-.43L135.45,81a1.51,1.51,0,0,1,.89,2.57l-2.3,2.3,9,9A1.51,1.51,0,0,1,140.93,97L130.84,87a1.52,1.52,0,0,1,0-2.14L132,83.65l-9.33-1.06,1.07,9.33,1.16-1.16a1.5,1.5,0,0,1,2.13,0l10.09,10.09a1.51,1.51,0,0,1-1.07,2.57Z"/><path class="cls-2" d="M87.62,82H77.3a1.52,1.52,0,0,1-1.51-1.51V70.17a1.51,1.51,0,0,1,1.51-1.51H87.62a1.51,1.51,0,1,1,0,3H78.81V79h7.3V76.86a1.51,1.51,0,1,1,3,0v3.63A1.52,1.52,0,0,1,87.62,82Z"/><path class="cls-2" d="M83.16,77.26a1.52,1.52,0,0,1-1.07-.44l-1.34-1.34a1.51,1.51,0,1,1,2.14-2.13l.16.16,4.61-5.61A1.51,1.51,0,0,1,90,69.81l-5.67,6.9a1.49,1.49,0,0,1-1.09.55Z"/><path class="cls-2" d="M87.62,101.51H77.3A1.52,1.52,0,0,1,75.79,100V89.68a1.52,1.52,0,0,1,1.51-1.51H87.62a1.51,1.51,0,0,1,0,3H78.81v7.3h7.3V96.37a1.51,1.51,0,1,1,3,0V100A1.52,1.52,0,0,1,87.62,101.51Z"/><path class="cls-2" d="M83.16,96.77a1.48,1.48,0,0,1-1.07-.44L80.75,95a1.51,1.51,0,1,1,2.14-2.13l.16.16,4.61-5.61A1.51,1.51,0,1,1,90,89.33l-5.67,6.89a1.49,1.49,0,0,1-1.09.55Z"/><path class="cls-2" d="M132.28,71.67H97.47a1.51,1.51,0,1,1,0-3h34.81a1.51,1.51,0,1,1,0,3Z"/><path class="cls-2" d="M112.48,79.06h-15a1.51,1.51,0,1,1,0-3h15a1.51,1.51,0,1,1,0,3Z"/><path class="cls-2" d="M114.14,91.19H97.47a1.51,1.51,0,0,1,0-3h16.67a1.51,1.51,0,0,1,0,3Z"/><path class="cls-2" d="M106.45,98.57h-9a1.51,1.51,0,1,1,0-3h9a1.51,1.51,0,1,1,0,3Z"/></g></g></svg>