<svg xmlns="http://www.w3.org/2000/svg" viewBox="0 0 191.46 25.47"><defs><style>.cls-1{fill:#4177bf;}.cls-2{fill:#4076bf;}</style></defs><title>Recurso 6</title><g id="Capa_2" data-name="Capa 2"><g id="Capa_1-2" data-name="Capa 1"><path class="cls-1" d="M141,25.29c-4.28,0-8.57,0-12.85,0-.76,0-1-.18-1-1q0-11.23,0-22.47c0-.77.2-1,1-1q12.73,0,25.46,0c.74,0,1,.22.93.94-.05,1.54-.06,3.1,0,4.64,0,.86-.26,1-1.07,1-4.87,0-9.75,0-14.62,0-.37,0-1-.23-1.09.23a3.56,3.56,0,0,0,0,2.07c.11.33.6.17.92.17,4.39,0,8.78,0,13.17,0,.86,0,1.17.2,1.12,1.09-.08,1.36-.06,2.73,0,4.09,0,.78-.26,1-1,1-4.39,0-8.79,0-13.18-.05-1.32,0-1,.71-1.1,1.45-.1.92.21,1.17,1.14,1.16,5.06-.05,10.11,0,15.17,0,.75,0,1,.16,1,1-.07,1.58,0,3.17,0,4.76,0,.71-.18.93-.92.92-4.35,0-8.71,0-13.06,0"/><path class="cls-1" d="M81.44,0c4,0,7.9.73,11.32,3.08,7.61,5.22,7,15.65-1.14,20-4.4,2.36-9.11,2.74-14,2.09a16.5,16.5,0,0,1-8.56-3.52c-6.52-5.42-5.6-15,1.82-19.18A20.5,20.5,0,0,1,81.44,0M75.26,12.82c0,3.86,2.39,6.25,6.17,6.23s6.25-2.51,6.17-6.35-2.36-6.27-6.24-6.26-6.12,2.42-6.1,6.38"/><path class="cls-2" d="M157.07.89c4.06,0,7.86,0,11.65,0a1.42,1.42,0,0,1,1.22.79c1.23,1.65,2.48,3.29,3.67,5,.42.6.63.49,1,0C175.79,5,177,3.35,178.19,1.69a1.64,1.64,0,0,1,1.52-.82c3.25,0,6.5,0,9.75,0h1.06l-6.33,6.88c-1.17,1.28-2.29,2.61-3.53,3.81-.7.67-.53,1.05,0,1.67,3.54,3.85,7.05,7.73,10.57,11.6.07.08.12.18.19.27-.15.34-.45.2-.68.2-3.65,0-7.3,0-10.95,0a1.52,1.52,0,0,1-1.37-.71c-1.45-1.91-2.94-3.79-4.37-5.71-.38-.51-.54-.49-.93,0-1.46,1.9-3,3.74-4.46,5.63a1.89,1.89,0,0,1-1.68.79c-3.28,0-6.57,0-9.85,0H156c1.45-1.58,2.71-3,4-4.39,2.37-2.58,4.72-5.18,7.14-7.7.68-.71.58-1.06-.06-1.72-3.2-3.31-6.34-6.69-9.5-10-.11-.12-.21-.26-.48-.58"/><path class="cls-2" d="M35.16,13c0-3.73,0-7.46,0-11.19,0-.69.15-.94.9-.94,5.65,0,11.3,0,16.94,0a12.2,12.2,0,0,1,8.48,2.92c4.17,3.83,3.34,9.79-1.67,12.42A17.6,17.6,0,0,1,51.57,18c-1.7,0-3.4,0-5.1,0-.75,0-.92.24-.91.95,0,1.8,0,3.61,0,5.42,0,.71-.17.95-.91.93q-4.26-.06-8.52,0c-.78,0-1-.24-1-1,0-3.76,0-7.53,0-11.29m13.53-1.27v0c.92,0,1.84,0,2.75,0a4.62,4.62,0,0,0,1-.19,2.13,2.13,0,0,0,1.65-1.32c.51-1.37-.3-2.52-2-2.65s-3.53,0-5.29-.13c-1-.07-1.28.32-1.17,1.24s-.44,2.37.24,2.94,1.89.1,2.88.1"/><path class="cls-1" d="M34,25.29c-3.42,0-6.78,0-10.14,0-.48,0-.79-.16-.86-.64-.4-2.6-2-3.07-4.39-2.83a47.72,47.72,0,0,1-5.86,0c-.66,0-1.07.16-1.2.81-.45,2.23-1.77,2.88-4,2.67-2.48-.23-5-.05-7.48-.05-.14-.45.13-.71.27-1Q5.9,13,11.51,1.76a1.34,1.34,0,0,1,1.42-.9c2.76.06,5.53,0,8.3,0,.5,0,.88,0,1.15.59q5.75,11.75,11.53,23.47a1.63,1.63,0,0,1,.06.35M17,9.62c-.93,2.22-1.72,4.11-2.52,6-.16.38-.22.63.32.63H19c.39,0,.55-.14.4-.53L17,9.62"/><path class="cls-2" d="M112,.89c4.42,0,8.85,0,13.28,0,.73,0,1,.14,1,1-.07,1.59-.06,3.18,0,4.76,0,.77-.26.92-1,.91-2.4,0-4.79,0-7.19,0-.79,0-1,.23-1,1,0,5.28,0,10.55,0,15.82,0,.83-.19,1.05-1,1-2.8-.06-5.61-.06-8.41,0-.82,0-1-.19-1-1,0-5.2,0-10.4,0-15.6,0-.92-.16-1.27-1.18-1.23-2.36.09-4.72,0-7.08,0-.7,0-.89-.2-.87-.88.05-1.58.06-3.17,0-4.75,0-.77.18-1,1-1,4.46,0,8.92,0,13.39,0"/></g></g></svg>