<svg id="Layer_1" data-name="Layer 1" xmlns="http://www.w3.org/2000/svg" viewBox="0 0 45.46 45.49"><defs><style>.cls-1{fill:#fff;}</style></defs><path class="cls-1" d="M18.47,28.26a.78.78,0,0,1-.78-.78V24.2a.78.78,0,0,1,1.56,0v3.28A.78.78,0,0,1,18.47,28.26Z"/><path class="cls-1" d="M21.06,28.26a.78.78,0,0,1-.78-.78v-6a.78.78,0,0,1,.78-.78.77.77,0,0,1,.77.78v6A.77.77,0,0,1,21.06,28.26Z"/><path class="cls-1" d="M23.64,28.23a.78.78,0,0,1-.78-.78V21.5a.78.78,0,0,1,1.56,0v5.95A.78.78,0,0,1,23.64,28.23Z"/><path class="cls-1" d="M26.23,32.75a.77.77,0,0,1-.78-.77V27a.78.78,0,0,1,.78-.78A.77.77,0,0,1,27,27v5A.76.76,0,0,1,26.23,32.75Z"/><path class="cls-1" d="M26.23,41.75H17a.76.76,0,0,1-.77-.77V39.13a12.12,12.12,0,0,0-.55-3.59l-.14-.46a9.32,9.32,0,0,1-.42-2.78v-8a2.06,2.06,0,0,1,2.58-2.07v-.63a2.15,2.15,0,0,1,1.58-2.09,2.07,2.07,0,0,1,1.16.06,2,2,0,0,1,3.2-.9,2.1,2.1,0,0,1,.65.89,2.06,2.06,0,0,1,2.72,2v3.12a2.36,2.36,0,0,1,1-.17,2.56,2.56,0,0,1,2.31,2.53v5a4.73,4.73,0,0,1-1.27,3.23l-1.87,2a.71.71,0,0,0-.19.48V41A.76.76,0,0,1,26.23,41.75ZM17.77,40.2h7.68V37.76a2.26,2.26,0,0,1,.6-1.54l1.87-2a3.17,3.17,0,0,0,.85-2.17v-5a1,1,0,0,0-.83-1,.89.89,0,0,0-.66.24A.86.86,0,0,0,27,27a.77.77,0,0,1-.77.78.78.78,0,0,1-.78-.78V21.57a.56.56,0,0,0-.38-.57.51.51,0,0,0-.46.09.53.53,0,0,0-.19.41.78.78,0,0,1-1.56,0V20.27a.53.53,0,0,0-.19-.41.5.5,0,0,0-.46-.09.57.57,0,0,0-.38.56V21.5a.76.76,0,0,1-.77.77.77.77,0,0,1-.78-.77.51.51,0,0,0-.2-.41.49.49,0,0,0-.45-.09.56.56,0,0,0-.38.57V24.2a.78.78,0,1,1-1.56,0,.53.53,0,0,0-.19-.4.54.54,0,0,0-.46-.1.58.58,0,0,0-.38.57v8A7.91,7.91,0,0,0,17,34.62l.14.46a13.58,13.58,0,0,1,.62,4.05Z"/><path class="cls-1" d="M23,18.81a.76.76,0,0,1-.38-.11l-2.31-1.33A.78.78,0,1,1,21.13,16l2.3,1.33a.78.78,0,0,1,.29,1.06A.79.79,0,0,1,23,18.81Z"/><path class="cls-1" d="M21.06,20.64a.76.76,0,0,1-.39-.1l-1.61-.93a.78.78,0,1,1,.78-1.34l1.6.92a.77.77,0,0,1-.38,1.45Z"/><path class="cls-1" d="M16.22,23.82a.75.75,0,0,1-.38-.1l-3.26-1.88a.78.78,0,1,1,.78-1.34l3.25,1.88a.77.77,0,0,1-.39,1.44Z"/><path class="cls-1" d="M15.87,27.42a.73.73,0,0,1-.25,0,2.19,2.19,0,0,1-.44-.2l-4.33-2.5A4.69,4.69,0,0,1,8.7,22l-.81-2.62a.67.67,0,0,0-.32-.4L4.79,17.34a.79.79,0,0,1-.37-.47.81.81,0,0,1,.08-.59l4.62-8A.77.77,0,0,1,10.18,8l1.6.92a12,12,0,0,0,3.38,1.33l.47.1a9.54,9.54,0,0,1,2.62,1l4.86,2.8a.78.78,0,0,1,.28,1.06.77.77,0,0,1-1.06.29l-4.86-2.81a7.78,7.78,0,0,0-2.19-.85l-.46-.11A13.79,13.79,0,0,1,11,10.27l-.92-.54L6.24,16.39l2.11,1.22a2.21,2.21,0,0,1,1,1.29l.8,2.62a3.17,3.17,0,0,0,1.45,1.82L16,25.84l.16.07a.77.77,0,0,1-.25,1.51Z"/><path class="cls-1" d="M26.41,26.29a.77.77,0,0,1-.67-.38A.79.79,0,0,1,26,24.84l2.54-1.46a.78.78,0,0,1,.77,1.35L26.8,26.19A.76.76,0,0,1,26.41,26.29Z"/><path class="cls-1" d="M26.41,23.31A.78.78,0,0,1,26,21.86l1.24-.72a.78.78,0,0,1,1.06.29A.77.77,0,0,1,28,22.49l-1.24.72A.76.76,0,0,1,26.41,23.31Z"/><path class="cls-1" d="M25.56,20.82a.78.78,0,0,1-.39-1.45l.77-.45a.78.78,0,0,1,.78,1.35l-.77.44A.79.79,0,0,1,25.56,20.82Z"/><path class="cls-1" d="M24.61,18.38a.76.76,0,0,1-.67-.39.78.78,0,0,1,.28-1.06l4.35-2.51a.78.78,0,0,1,1.06.28.79.79,0,0,1-.28,1.07L25,18.27A.79.79,0,0,1,24.61,18.38Z"/><path class="cls-1" d="M29.63,27.42A.76.76,0,0,1,29,27,.77.77,0,0,1,29.24,26L34,23.21a7.84,7.84,0,0,0,1.84-1.46l.32-.35a13.5,13.5,0,0,1,3.21-2.56l.92-.54-3.84-6.65-2.12,1.22a2.21,2.21,0,0,1-1.63.25l-2.67-.62a3.18,3.18,0,0,0-2.3.35l-4.33,2.5A1,1,0,0,0,23,16.56a.87.87,0,0,0,.54.45.88.88,0,0,0,.69-.08A.78.78,0,1,1,25,18.27l-2.15,1.24a.77.77,0,0,1-1.06-.28.78.78,0,0,1,.29-1.06l.17-.1a2.63,2.63,0,0,1-.64-.8,2.56,2.56,0,0,1,1-3.27L27,11.5A4.72,4.72,0,0,1,30.4,11l2.67.62a.76.76,0,0,0,.51-.08l2.78-1.61A.81.81,0,0,1,37,9.84a.79.79,0,0,1,.48.36l4.61,8a.77.77,0,0,1-.28,1.06l-1.6.92a12.23,12.23,0,0,0-2.84,2.27L37,22.8a9.11,9.11,0,0,1-2.2,1.76L30,27.32A.78.78,0,0,1,29.63,27.42Z"/><path class="cls-1" d="M41.68,19.9l-.2,0a.79.79,0,0,1-.47-.37l-5.24-9.07a.78.78,0,0,1,.28-1.06L39,7.71a.77.77,0,0,1,1,.17,22.75,22.75,0,0,1,4.94,9.67.77.77,0,0,1-.37.85l-2.42,1.4A.76.76,0,0,1,41.68,19.9ZM37.5,10.34,42,18.06l1.25-.72a21.25,21.25,0,0,0-4.05-8Z"/><path class="cls-1" d="M4.86,18a.75.75,0,0,1-.38-.1l-2.9-1.67a.79.79,0,0,1-.35-.93A22.88,22.88,0,0,1,7.15,6.17a.79.79,0,0,1,.92-.11l2.42,1.4a.8.8,0,0,1,.36.47.72.72,0,0,1-.08.59L5.54,17.59A.79.79,0,0,1,4.86,18ZM2.92,15.19l1.66,1L9,8.42,7.8,7.7A21.25,21.25,0,0,0,2.92,15.19Z"/><path class="cls-1" d="M22.72,45.49a22.81,22.81,0,0,1-6.57-1,.78.78,0,0,1-.55-.75V41a.77.77,0,0,1,.77-.78H26.85a.77.77,0,0,1,.77.78v3.34a.77.77,0,0,1-.63.77A22.86,22.86,0,0,1,22.72,45.49ZM17.15,43.2a21.26,21.26,0,0,0,8.92.47V41.75H17.15Z"/><path class="cls-1" d="M22.72,45.49A22.72,22.72,0,0,1,0,23.9a.77.77,0,0,1,.74-.81.75.75,0,0,1,.81.73,21.2,21.2,0,0,0,34,15.81.78.78,0,0,1,.93,1.24A22.55,22.55,0,0,1,22.72,45.49Z"/><path class="cls-1" d="M1.07,19.75H.94a.78.78,0,0,1-.63-.9A22.86,22.86,0,0,1,9.79,4a.78.78,0,1,1,.89,1.27A21.3,21.3,0,0,0,1.84,19.1.79.79,0,0,1,1.07,19.75Z"/><path class="cls-1" d="M18.39,2a.78.78,0,0,1-.76-.63.77.77,0,0,1,.61-.91c.42-.08.84-.15,1.27-.21a.77.77,0,1,1,.21,1.53L18.54,2Z"/><path class="cls-1" d="M14,3.35a.78.78,0,0,1-.71-.47.77.77,0,0,1,.41-1c.48-.21,1-.41,1.48-.58a.78.78,0,0,1,1,.48.79.79,0,0,1-.48,1Q15,3,14.31,3.29A.81.81,0,0,1,14,3.35Z"/><path class="cls-1" d="M10.24,5.44a.79.79,0,0,1-.64-.33A.77.77,0,0,1,9.79,4c.36-.25.72-.48,1.08-.71a.79.79,0,0,1,1.07.26.78.78,0,0,1-.26,1.07c-.34.21-.67.43-1,.65A.74.74,0,0,1,10.24,5.44Z"/><path class="cls-1" d="M44.69,23.52a.77.77,0,0,1-.78-.77A21.22,21.22,0,0,0,22.72,1.55a21.51,21.51,0,0,0-3,.21.76.76,0,0,1-.87-.66.76.76,0,0,1,.66-.87,22.72,22.72,0,0,1,26,22.52A.76.76,0,0,1,44.69,23.52Z"/><path class="cls-1" d="M36,41a.78.78,0,0,1-.47-1.4l.93-.75a.77.77,0,0,1,1.09.09.77.77,0,0,1-.08,1.09c-.33.28-.66.55-1,.81A.74.74,0,0,1,36,41Z"/><path class="cls-1" d="M40,37.05a.77.77,0,0,1-.61-1.25,21.17,21.17,0,0,0,1.23-1.75.77.77,0,1,1,1.31.82,20.46,20.46,0,0,1-1.32,1.88A.76.76,0,0,1,40,37.05Zm3.25-5.78a.86.86,0,0,1-.27-.05.78.78,0,0,1-.45-1,20.17,20.17,0,0,0,.65-2,.78.78,0,0,1,1.5.4c-.2.74-.43,1.47-.7,2.19A.78.78,0,0,1,43.28,31.27Z"/><path class="cls-1" d="M44.65,24.77h0a.77.77,0,0,1-.73-.82c0-.39,0-.79,0-1.19a.78.78,0,0,1,.78-.78.77.77,0,0,1,.77.78c0,.43,0,.86,0,1.28A.78.78,0,0,1,44.65,24.77Z"/></svg>