<svg id="Layer_1" data-name="Layer 1" xmlns="http://www.w3.org/2000/svg" viewBox="0 0 56.79 33.26"><defs><style>.cls-1{fill:#fff;}</style></defs><path class="cls-1" d="M14.89,33.26a.66.66,0,0,1-.27-.06.57.57,0,0,1-.3-.51V27.83a2.93,2.93,0,0,1,2.92-2.93h8.47A.58.58,0,0,1,26,26L15.22,33.17A.63.63,0,0,1,14.89,33.26Zm2.35-7.2a1.77,1.77,0,0,0-1.77,1.77v3.78l8.33-5.55Z"/><path class="cls-1" d="M20.86,7.32H5.43a.58.58,0,0,1-.58-.58V4.24a.58.58,0,0,1,.58-.58H20.86a.58.58,0,0,1,.58.58v2.5A.58.58,0,0,1,20.86,7.32ZM6,6.16H20.28V4.82H6Z"/><path class="cls-1" d="M15.49,10.45H10.8a.58.58,0,0,1,0-1.16h4.69a.58.58,0,0,1,0,1.16Z"/><path class="cls-1" d="M21,13.58H5.43a.58.58,0,0,1,0-1.16H21a.58.58,0,0,1,0,1.16Z"/><path class="cls-1" d="M18,16.71H5.43a.58.58,0,0,1,0-1.16H18a.58.58,0,0,1,0,1.16Z"/><path class="cls-1" d="M14.68,19.84H5.43a.58.58,0,0,1,0-1.16h9.25a.58.58,0,0,1,0,1.16Z"/><path class="cls-1" d="M11.56,23H5.43a.58.58,0,1,1,0-1.16h6.13a.58.58,0,0,1,0,1.16Z"/><path class="cls-1" d="M14.89,33.26h-12A2.93,2.93,0,0,1,0,30.34V29.19a.58.58,0,1,1,1.16,0v1.15a1.77,1.77,0,0,0,1.77,1.77H14.72l10.41-6.94v-19a.58.58,0,0,1,.58-.58.57.57,0,0,1,.57.58V25.48A.58.58,0,0,1,26,26L15.22,33.17A.63.63,0,0,1,14.89,33.26Z"/><path class="cls-1" d="M.58,29.94A.57.57,0,0,1,0,29.37V2.93A2.93,2.93,0,0,1,2.93,0H23.36a2.93,2.93,0,0,1,2.92,2.93V5.49a.57.57,0,0,1-.57.58.58.58,0,0,1-.58-.58V2.93a1.77,1.77,0,0,0-1.77-1.77H2.93A1.77,1.77,0,0,0,1.16,2.93V29.37A.57.57,0,0,1,.58,29.94Z"/><path class="cls-1" d="M45.4,33.26a.66.66,0,0,1-.27-.06.58.58,0,0,1-.31-.51V27.83a2.93,2.93,0,0,1,2.93-2.93h8.46a.59.59,0,0,1,.56.41.57.57,0,0,1-.24.65L45.72,33.17A.59.59,0,0,1,45.4,33.26Zm2.35-7.2A1.77,1.77,0,0,0,46,27.83v3.78l8.33-5.55Z"/><path class="cls-1" d="M51.37,7.32H35.93a.57.57,0,0,1-.57-.58V4.24a.57.57,0,0,1,.57-.58H51.37a.57.57,0,0,1,.57.58v2.5A.57.57,0,0,1,51.37,7.32ZM36.51,6.16H50.79V4.82H36.51Z"/><path class="cls-1" d="M46,10.45H41.31a.58.58,0,0,1,0-1.16H46a.58.58,0,0,1,0,1.16Z"/><path class="cls-1" d="M51.5,13.58H35.93a.58.58,0,0,1,0-1.16H51.5a.58.58,0,0,1,0,1.16Z"/><path class="cls-1" d="M48.46,16.71H35.93a.58.58,0,0,1,0-1.16H48.46a.58.58,0,1,1,0,1.16Z"/><path class="cls-1" d="M45.19,19.84H35.93a.58.58,0,0,1,0-1.16h9.26a.58.58,0,1,1,0,1.16Z"/><path class="cls-1" d="M42.07,23H35.93a.58.58,0,0,1,0-1.16h6.14a.58.58,0,0,1,0,1.16Z"/><path class="cls-1" d="M45.4,33.26h-12a2.92,2.92,0,0,1-2.92-2.92V29.19a.58.58,0,1,1,1.15,0v1.15a1.77,1.77,0,0,0,1.77,1.77h11.8l10.41-6.94v-19a.58.58,0,1,1,1.15,0V25.48a.56.56,0,0,1-.26.48L45.72,33.17A.57.57,0,0,1,45.4,33.26Z"/><path class="cls-1" d="M31.09,29.94a.57.57,0,0,1-.58-.57V2.93A2.93,2.93,0,0,1,33.43,0H53.87a2.93,2.93,0,0,1,2.92,2.93V5.49a.58.58,0,1,1-1.15,0V2.93a1.77,1.77,0,0,0-1.77-1.77H33.43a1.77,1.77,0,0,0-1.77,1.77V29.37A.57.57,0,0,1,31.09,29.94Z"/></svg>