<svg xmlns="http://www.w3.org/2000/svg" viewBox="0 0 67.71 50.08"><defs><style>.cls-1{fill:#332d2f;}.cls-2{fill:#28a8df;}</style></defs><g id="Capa_2" data-name="Capa 2"><g id="Capa_1-2" data-name="Capa 1"><path class="cls-1" d="M59.09,31.29V4.19A2.14,2.14,0,0,0,57,2.05l-46.12.13A2.14,2.14,0,0,0,8.7,4.32V47.94a2.14,2.14,0,0,0,2.13,2.14H57a2.14,2.14,0,0,0,2.14-2.14V40.87a2.13,2.13,0,0,1-1.64,2.07v5a.5.5,0,0,1-.5.5H10.83a.5.5,0,0,1-.49-.5V4.32a.49.49,0,0,1,.49-.49L57,3.69a.5.5,0,0,1,.5.5v25A2.12,2.12,0,0,1,59.09,31.29Z"/><line class="cls-1" x1="45.06" y1="2.18" x2="46.7" y2="2.18"/><path class="cls-1" d="M57.45,29.22V42.94a2.13,2.13,0,0,0,1.64-2.07V31.29A2.12,2.12,0,0,0,57.45,29.22Z"/><polyline class="cls-1" points="39.21 48.57 39.21 28.87 50.9 28.87 50.9 48.57"/><path class="cls-1" d="M64.76,22.32H3A2.94,2.94,0,0,1,.22,18.27L6.85,1.85A2.94,2.94,0,0,1,9.58,0H58.13a3,3,0,0,1,2.74,1.85L67.5,18.27A3,3,0,0,1,64.76,22.32Z"/><rect class="cls-2" x="14.34" y="28.51" width="19.52" height="11.51"/></g></g></svg>