<svg xmlns="http://www.w3.org/2000/svg" viewBox="0 0 59.18 69.73"><defs><style>.cls-1{fill:#353132;}.cls-2{fill:none;stroke:#c43535;stroke-miterlimit:10;}</style></defs><title>Recurso 20</title><g id="Capa_2" data-name="Capa 2"><g id="Capa_1-2" data-name="Capa 1"><path class="cls-1" d="M44.39,68.71H0V9.41A9.42,9.42,0,0,1,9.41,0H35a9.42,9.42,0,0,1,9.41,9.41ZM2.06,66.65H42.33V9.41A7.36,7.36,0,0,0,35,2.06H9.41A7.35,7.35,0,0,0,2.06,9.41Z"/><rect class="cls-1" x="1.03" y="20.27" width="42.33" height="2.06"/><path class="cls-2" d="M22.19,54.69a7.94,7.94,0,0,1-7.93-7.93c0-4.12,6.59-12.38,7.34-13.3l.59-.73.59.73c.75.92,7.35,9.18,7.35,13.3A7.94,7.94,0,0,1,22.19,54.69Zm0-19.53C20,38,15.78,44,15.78,46.76a6.42,6.42,0,1,0,12.83,0C28.61,44,24.41,38,22.19,35.16Z"/><polygon class="cls-1" points="49.18 18.07 49.18 10.11 46.3 10.11 46.3 18.07 46.3 30.56 49.18 30.56 52.73 30.56 52.73 18.07 49.18 18.07"/><path class="cls-1" d="M54.67,69.73a3.2,3.2,0,0,1-2.44-1c-1.95-2.1-1.66-6.65-1.65-6.85,1.24-15.46-7.42-21.52-7.51-21.58l.57-.85c.38.25,9.25,6.42,8,22.51,0,0-.28,4.3,1.38,6.07a2.19,2.19,0,0,0,1.68.72c1.1,0,2-.91,2.71-2.7a12.13,12.13,0,0,0-.49-9.61C53.82,50,48.66,38.06,48.66,30.56h1c0,7.3,5.1,19,8.13,25.38a13.15,13.15,0,0,1,.52,10.43c-.86,2.23-2.1,3.36-3.67,3.36"/></g></g></svg>