<svg id="Layer_1" data-name="Layer 1" xmlns="http://www.w3.org/2000/svg" viewBox="0 0 44.2 48.09"><defs><style>.cls-1{fill:#fff;}</style></defs><path class="cls-1" d="M40.84,37.86H3.36A3.37,3.37,0,0,1,0,34.5v-23A3.37,3.37,0,0,1,3.36,8.16a.79.79,0,1,1,0,1.58,1.79,1.79,0,0,0-1.78,1.79v23a1.78,1.78,0,0,0,1.78,1.78H40.84a1.78,1.78,0,0,0,1.78-1.78v-23a1.79,1.79,0,0,0-1.78-1.79.79.79,0,1,1,0-1.58,3.37,3.37,0,0,1,3.36,3.37v23A3.37,3.37,0,0,1,40.84,37.86Z"/><path class="cls-1" d="M43.41,33.92H.79a.79.79,0,0,1,0-1.58H43.41a.79.79,0,0,1,0,1.58Z"/><path class="cls-1" d="M24.76,42.1H19.44a.79.79,0,0,1-.79-.79V37.07a.79.79,0,0,1,.79-.79h5.32a.78.78,0,0,1,.78.79v4.24A.78.78,0,0,1,24.76,42.1Zm-4.53-1.58H24V37.86H20.23Z"/><path class="cls-1" d="M29.11,48.09h-14a.79.79,0,0,1-.77-.62.81.81,0,0,1,.44-.89c3-1.36,2.85-5.19,2.85-5.23a.79.79,0,0,1,.78-.83H25.8a.76.76,0,0,1,.57.25.8.8,0,0,1,.22.58c0,.16-.14,3.88,2.85,5.23a.81.81,0,0,1,.44.89A.79.79,0,0,1,29.11,48.09ZM17.45,46.51h9.3A7.7,7.7,0,0,1,25,42.1H19.16A7.7,7.7,0,0,1,17.45,46.51Z"/><path class="cls-1" d="M33,48.09H11.22a.79.79,0,0,1,0-1.58H33a.79.79,0,0,1,0,1.58Z"/><path class="cls-1" d="M25.23,33.92H19a.79.79,0,0,1-.79-.79V20.82a2,2,0,0,1-.59.09h-.13a2.18,2.18,0,0,1-2.17-2.18V11.87a3.53,3.53,0,0,1,3.52-3.52h6.58a3.53,3.53,0,0,1,3.52,3.52v6.86a2.18,2.18,0,0,1-2.17,2.18h-.13a2,2,0,0,1-.6-.09V33.13A.78.78,0,0,1,25.23,33.92Zm-5.47-1.58h4.68V18.73a.79.79,0,1,1,1.57,0,.6.6,0,0,0,.6.6h.13a.59.59,0,0,0,.59-.6V11.87a2,2,0,0,0-1.94-1.95H18.81a2,2,0,0,0-1.95,1.95v6.86a.6.6,0,0,0,.6.6h.13a.59.59,0,0,0,.59-.6.79.79,0,1,1,1.58,0Z"/><path class="cls-1" d="M19,19.52a.79.79,0,0,1-.79-.79V14.07a.79.79,0,0,1,1.58,0v4.66A.79.79,0,0,1,19,19.52Z"/><path class="cls-1" d="M25.23,19.52a.79.79,0,0,1-.79-.79V14.07a.79.79,0,1,1,1.57,0v4.66A.78.78,0,0,1,25.23,19.52Z"/><path class="cls-1" d="M22.1,7.65a3.74,3.74,0,0,1-3.66-3.82,3.66,3.66,0,1,1,7.32,0A3.74,3.74,0,0,1,22.1,7.65Zm0-6.07A2.17,2.17,0,0,0,20,3.83a2.09,2.09,0,1,0,4.16,0A2.17,2.17,0,0,0,22.1,1.58Z"/><path class="cls-1" d="M22.1,33.92a.79.79,0,0,1-.79-.79V22.53a.79.79,0,0,1,1.58,0v10.6A.79.79,0,0,1,22.1,33.92Z"/><path class="cls-1" d="M34.59,31.47a5.11,5.11,0,0,1-4.4-7.73.79.79,0,1,1,1.35.81,3.54,3.54,0,1,0,6.59,1.81.79.79,0,0,1,1.58,0A5.12,5.12,0,0,1,34.59,31.47Z"/><path class="cls-1" d="M37.46,23.9a.76.76,0,0,1-.53-.2,3.6,3.6,0,0,0-3.83-.56.78.78,0,0,1-1.05-.38.79.79,0,0,1,.38-1.05,5.21,5.21,0,0,1,5.55.81.79.79,0,0,1,.07,1.12A.82.82,0,0,1,37.46,23.9Z"/><path class="cls-1" d="M36.16,18.25a4.19,4.19,0,1,1,4.19-4.18.79.79,0,0,1-1.58,0,2.61,2.61,0,1,0-2.61,2.61,2.54,2.54,0,0,0,1.63-.58.8.8,0,0,1,1.11.12.79.79,0,0,1-.12,1.11A4.16,4.16,0,0,1,36.16,18.25Z"/><path class="cls-1" d="M32.76,14.85H31.47a.79.79,0,1,1,0-1.57h1.29a.79.79,0,1,1,0,1.57Z"/><path class="cls-1" d="M35.16,22.85h-.1a.8.8,0,0,1-.68-.89L35,17.34a.79.79,0,1,1,1.57.21L36,22.17A.8.8,0,0,1,35.16,22.85Z"/><path class="cls-1" d="M30.26,27.14H28.12a.79.79,0,1,1,0-1.57h2.14a.79.79,0,1,1,0,1.57Z"/><path class="cls-1" d="M9.61,31.47a5.12,5.12,0,0,1-5.12-5.11.79.79,0,0,1,1.58,0,3.54,3.54,0,1,0,6.59-1.81A.79.79,0,0,1,14,23.74a5.11,5.11,0,0,1-4.4,7.73Z"/><path class="cls-1" d="M6.74,23.9a.8.8,0,0,1-.59-.26.79.79,0,0,1,.07-1.12,5.21,5.21,0,0,1,5.55-.81.8.8,0,0,1,.38,1.05.78.78,0,0,1-1.05.38,3.62,3.62,0,0,0-3.84.56A.74.74,0,0,1,6.74,23.9Z"/><path class="cls-1" d="M8,18.25a4.16,4.16,0,0,1-2.62-.92.77.77,0,0,1-.12-1.1.79.79,0,0,1,1.11-.13A2.54,2.54,0,0,0,8,16.68a2.61,2.61,0,1,0-2.61-2.61.79.79,0,0,1-1.58,0A4.19,4.19,0,1,1,8,18.25Z"/><path class="cls-1" d="M12.73,14.85h-1.3a.79.79,0,0,1,0-1.57h1.3a.79.79,0,1,1,0,1.57Z"/><path class="cls-1" d="M9,22.85a.79.79,0,0,1-.78-.68l-.62-4.62a.79.79,0,1,1,1.56-.21L9.82,22a.8.8,0,0,1-.68.89Z"/><path class="cls-1" d="M16.07,27.14H13.94a.79.79,0,1,1,0-1.57h2.13a.79.79,0,1,1,0,1.57Z"/></svg>