<svg xmlns="http://www.w3.org/2000/svg" xmlns:xlink="http://www.w3.org/1999/xlink" viewBox="0 0 120.4 104.27"><defs><style>.cls-1,.cls-8{fill:none;}.cls-2{isolation:isolate;}.cls-3{fill:#332d2f;}.cls-4{fill:#fff;}.cls-5{clip-path:url(#clip-path);}.cls-6{opacity:0.7;mix-blend-mode:soft-light;}.cls-7{fill:#d9d9d9;}.cls-8{stroke:#d9d9d9;stroke-linecap:round;stroke-linejoin:round;stroke-width:0.31px;}</style><clipPath id="clip-path"><rect class="cls-1" x="352.7" y="-285.34" width="321.49" height="873.63"/></clipPath></defs><g class="cls-2"><g id="Layer_1" data-name="Layer 1"><polygon class="cls-3" points="90.3 0 30.1 0 0 52.13 30.1 104.27 90.3 104.27 120.4 52.13 90.3 0"/><path class="cls-4" d="M89.28,65.57H32.43a1,1,0,0,1,0-2H89.28a1,1,0,0,1,0,2Z"/><path class="cls-4" d="M64.57,76.08H57.13a1,1,0,0,1-1-1v-5a1,1,0,0,1,1-1h7.44a1,1,0,0,1,1,1v5A1,1,0,0,1,64.57,76.08Zm-6.42-2h5.4v-3h-5.4Z"/><path class="cls-4" d="M69.77,82.58H51.94a1,1,0,0,1-.89-.51,1,1,0,0,1,0-1l3.78-6.5a1,1,0,0,1,.88-.51H66a1,1,0,0,1,.88.51l3.78,6.5a1,1,0,0,1,0,1A1,1,0,0,1,69.77,82.58Zm-16.06-2H68L65.4,76.08H56.3Z"/><path class="cls-4" d="M76.09,82.58H45.62a1,1,0,1,1,0-2H76.09a1,1,0,0,1,0,2Z"/><path class="cls-4" d="M60.85,60.84A19.86,19.86,0,1,1,80.71,41,19.87,19.87,0,0,1,60.85,60.84Zm0-37.67A17.82,17.82,0,1,0,78.67,41,17.84,17.84,0,0,0,60.85,23.17Z"/><path class="cls-4" d="M60.85,60.84c-6.2,0-11.06-8.72-11.06-19.85s4.86-19.86,11.06-19.86S71.91,29.86,71.91,41,67.05,60.84,60.85,60.84Zm0-37.67c-4.89,0-9,8.16-9,17.82S56,58.8,60.85,58.8s9-8.15,9-17.81S65.74,23.17,60.85,23.17Z"/><path class="cls-4" d="M60.85,52.05C49.72,52.05,41,47.19,41,41s8.72-11.06,19.85-11.06S80.71,34.79,80.71,41,72,52.05,60.85,52.05Zm0-20.08C51.2,32,43,36.1,43,41s8.16,9,17.81,9,17.82-4.13,17.82-9S70.51,32,60.85,32Z"/><path class="cls-4" d="M60.85,60.84a1,1,0,0,1-1-1V22.15a1,1,0,1,1,2,0V59.82A1,1,0,0,1,60.85,60.84Z"/><path class="cls-4" d="M79.69,42H42a1,1,0,0,1,0-2H79.69a1,1,0,0,1,0,2Z"/><path class="cls-4" d="M85.68,71.08H36a4.62,4.62,0,0,1-4.62-4.62V34.3A4.63,4.63,0,0,1,36,29.67h3.39a1,1,0,0,1,0,2H36a2.59,2.59,0,0,0-2.58,2.59V66.46A2.58,2.58,0,0,0,36,69H85.68a2.58,2.58,0,0,0,2.58-2.58V34.3a2.59,2.59,0,0,0-2.58-2.59h-3.4a1,1,0,1,1,0-2h3.4A4.64,4.64,0,0,1,90.3,34.3V66.46A4.63,4.63,0,0,1,85.68,71.08Z"/><g class="cls-5"><g class="cls-6"><path class="cls-7" d="M87.67,74.34A2.31,2.31,0,1,1,90,72,2.3,2.3,0,0,1,87.67,74.34Z"/><polyline class="cls-8" points="18.85 -105.3 41.24 -74 57.12 -21.07 41.24 115.27 87.67 72.04 99.16 127.75 135.36 59.38 156.48 119.54 150.69 157.73 135.02 175.59 117.75 242.05 116.36 264.63 99.16 266.96 148.39 309.93 94.68 329.7 65.18 354.16 80.08 227.29"/><polygon class="cls-8" points="57.12 -21.07 87.67 72.04 135.36 59.38 57.12 -21.07"/><polyline class="cls-8" points="236.69 -31.74 220.66 10.75 261.41 47.85 256.16 89.9 261.4 104.74 264.81 115.67 253.84 138.39 215.08 130.05 224.8 102.64 220.1 81.61 197.07 21.2 165.38 34.59 180.64 87.6 192 132.85 156.48 119.54 99.16 127.75 41.24 115.27 46.85 231.9 80.08 227.29 117.75 242.05 163.07 243.8 164.13 264.41 185.23 261.78 209.09 281.23 200.07 294.07 211.67 309.93 214.08 320.13 203.63 331.57 203.61 356.46 188.72 363.23 176.65 369.8 151.87 367.93 176.82 428.58 176.65 369.8 197.55 399.31 188.72 363.23 203.97 384.94 203.61 356.46 214.08 320.13 231 317.05 229.78 302 234.16 276.96 216.83 241.75 183.88 187.25 185.23 261.78 163.07 243.8 116.36 264.63 148.39 309.93"/><polyline class="cls-8" points="261.4 104.74 224.8 102.64 263.71 115.67 215.08 130.05 192 132.85 150.69 157.73 173.38 189.1 135.02 175.59 99.16 127.75 80.08 227.29 99.16 266.96 117.75 242.05 173.38 189.1 163.07 243.8 183.88 187.25 206.28 194.85 216.83 241.75 185.23 261.78 234.16 276.96 209.09 281.23 229.78 302 200.07 294.07 231 317.05 211.67 309.93"/><polyline class="cls-8" points="57.12 -21.07 165.38 34.59 220.1 81.61 180.64 87.6 156.48 119.54"/></g></g></g></g></svg>