<svg xmlns="http://www.w3.org/2000/svg" viewBox="0 0 48.18 69.58"><defs><style>.cls-1{fill:#332d2f;}.cls-2{fill:#28a8df;}</style></defs><g id="Capa_2" data-name="Capa 2"><g id="Capa_1-2" data-name="Capa 1"><path class="cls-1" d="M41.44,63.63H6.73a1.12,1.12,0,0,1-1.11-1.12V8.25A1.12,1.12,0,0,1,6.73,7.13h8.74a1.12,1.12,0,0,1,1.12,1.12v2.51h15V8.25a1.12,1.12,0,0,1,1.12-1.12h8.73a1.12,1.12,0,0,1,1.12,1.12V62.51A1.12,1.12,0,0,1,41.44,63.63ZM7.85,61.4H40.33v-52H33.82v1.5A2.12,2.12,0,0,1,31.7,13H16.48a2.12,2.12,0,0,1-2.12-2.13V9.36H7.85Z"/><path class="cls-1" d="M43.1,69.58h-38A5.09,5.09,0,0,1,0,64.5V12.21A5.09,5.09,0,0,1,5.08,7.13H15.47a1.12,1.12,0,0,1,1.12,1.12v2.51h15V8.25a1.12,1.12,0,0,1,1.12-1.12H43.1a5.09,5.09,0,0,1,5.08,5.08V64.5A5.09,5.09,0,0,1,43.1,69.58ZM5.08,9.36a2.86,2.86,0,0,0-2.85,2.85V64.5a2.86,2.86,0,0,0,2.85,2.85h38A2.86,2.86,0,0,0,46,64.5V12.21A2.86,2.86,0,0,0,43.1,9.36H33.82v1.5A2.12,2.12,0,0,1,31.7,13H16.48a2.12,2.12,0,0,1-2.12-2.13V9.36Z"/><path class="cls-1" d="M31.7,13H16.48a2.12,2.12,0,0,1-2.12-2.13V4.24a2.12,2.12,0,0,1,2.12-2.13h3.43A1.12,1.12,0,0,1,21,3.23v1h6.13v-1a1.12,1.12,0,0,1,1.12-1.12H31.7a2.12,2.12,0,0,1,2.12,2.13v6.62A2.12,2.12,0,0,1,31.7,13ZM16.59,10.76h15V4.34h-2.2v.48a1.61,1.61,0,0,1-1.61,1.61H20.4a1.61,1.61,0,0,1-1.61-1.61V4.34h-2.2Z"/><path class="cls-1" d="M27.78,6.43H20.4a1.61,1.61,0,0,1-1.61-1.61V1.61A1.61,1.61,0,0,1,20.4,0h7.38a1.61,1.61,0,0,1,1.61,1.61V4.82A1.61,1.61,0,0,1,27.78,6.43ZM21,4.2h6.13v-2H21Z"/><path class="cls-2" d="M25.71,40.37H22.46a2.25,2.25,0,0,1-2.24-2.24v-1l-.69.69a2.25,2.25,0,0,1-3.17,0l-2.29-2.3A2.18,2.18,0,0,1,13.41,34a2.22,2.22,0,0,1,.66-1.59l.69-.69h-1a2.24,2.24,0,0,1-2.24-2.24V26.19A2.24,2.24,0,0,1,13.78,24h1l-.69-.69a2.23,2.23,0,0,1,0-3.17l2.29-2.3a2.31,2.31,0,0,1,3.17,0l.69.69v-1a2.24,2.24,0,0,1,2.24-2.24h3.25A2.24,2.24,0,0,1,28,17.51v1l.7-.69a2.31,2.31,0,0,1,3.17,0l2.29,2.3a2.23,2.23,0,0,1,0,3.17l-.69.69h1a2.25,2.25,0,0,1,2.24,2.24v3.25a2.24,2.24,0,0,1-2.24,2.24h-1l.69.69A2.22,2.22,0,0,1,34.77,34a2.18,2.18,0,0,1-.66,1.58l-2.3,2.3a2.3,2.3,0,0,1-3.16,0l-.7-.69v1A2.24,2.24,0,0,1,25.71,40.37Zm-4.79-6.62a1.06,1.06,0,0,1,.46.1l.36.14a1.13,1.13,0,0,1,.72,1v3.09h3.25V35a1.12,1.12,0,0,1,.72-1l.36-.15a1.1,1.1,0,0,1,1.24.23l2.19,2.18,2.3-2.3-2.18-2.19a1.1,1.1,0,0,1-.23-1.24l.15-.36a1.1,1.1,0,0,1,1-.72H34.4V26.19h-3.1a1.1,1.1,0,0,1-1-.72l-.15-.35a1.12,1.12,0,0,1,.23-1.25l2.18-2.18-2.3-2.31L28,21.55a1.1,1.1,0,0,1-1.24.23l-.36-.14a1.13,1.13,0,0,1-.72-1.05V17.51H22.46v3.09a1.13,1.13,0,0,1-.72,1.05l-.36.14a1.12,1.12,0,0,1-1.25-.23L18,19.37l-2.3,2.3,2.18,2.19a1.12,1.12,0,0,1,.23,1.25c-.06.12-.1.24-.15.36a1.12,1.12,0,0,1-1,.71H13.78v3.26h3.1a1.12,1.12,0,0,1,1,.71c.05.12.09.24.15.36a1.12,1.12,0,0,1-.23,1.25L15.65,34l2.29,2.31,2.19-2.18A1.11,1.11,0,0,1,20.92,33.75Z"/><path class="cls-2" d="M24.09,33.06a5.25,5.25,0,1,1,5.25-5.24A5.25,5.25,0,0,1,24.09,33.06Zm0-8.26a3,3,0,1,0,3,3A3,3,0,0,0,24.09,24.8Z"/><path class="cls-1" d="M29.22,45.9H19a1.12,1.12,0,1,1,0-2.23H29.22a1.12,1.12,0,1,1,0,2.23Z"/><path class="cls-1" d="M34.87,50.87H13.31a1.12,1.12,0,1,1,0-2.23H34.87a1.12,1.12,0,0,1,0,2.23Z"/><path class="cls-1" d="M34.87,55.84H13.31a1.12,1.12,0,1,1,0-2.23H34.87a1.12,1.12,0,0,1,0,2.23Z"/></g></g></svg>