<svg id="Layer_1" data-name="Layer 1" xmlns="http://www.w3.org/2000/svg" viewBox="0 0 123.16 106.66"><defs><style>.cls-1{fill:#332d2f;}.cls-2{fill:#fff;}</style></defs><polygon class="cls-1" points="92.37 0 30.79 0 0 53.33 30.79 106.66 92.37 106.66 123.16 53.33 92.37 0"/><path class="cls-2" d="M72,76.56l-.12,0-2.11-.48a.54.54,0,0,1-.42-.64l.25-1a6.48,6.48,0,0,1-1.65-1.14l-1,.58a.54.54,0,0,1-.41.07.55.55,0,0,1-.35-.24l-1.15-1.8a.58.58,0,0,1-.07-.41.52.52,0,0,1,.25-.33l.93-.57a6.26,6.26,0,0,1-.35-2l-1.08-.25a.54.54,0,0,1-.42-.64l.49-2.07a.53.53,0,0,1,.65-.4l1.08.24a6.45,6.45,0,0,1,1.16-1.63l-.59-.92a.47.47,0,0,1-.07-.4.55.55,0,0,1,.24-.34L69.11,61a.6.6,0,0,1,.42-.07.55.55,0,0,1,.34.24l.58.92a6.71,6.71,0,0,1,2-.35l.26-1.06a.55.55,0,0,1,.24-.34.53.53,0,0,1,.41-.06l2.12.47a.55.55,0,0,1,.41.65l-.25,1.05a6.77,6.77,0,0,1,1.66,1.13l.94-.58a.56.56,0,0,1,.76.18L80.14,65a.51.51,0,0,1,.07.4.55.55,0,0,1-.24.34l-.93.57a6.5,6.5,0,0,1,.34,2l1.09.25a.53.53,0,0,1,.41.64l-.49,2.07a.53.53,0,0,1-.65.4l-1.07-.24A6.89,6.89,0,0,1,77.5,73l.59.93a.53.53,0,0,1-.17.74l-1.84,1.12a.54.54,0,0,1-.75-.17l-.59-.91a6.7,6.7,0,0,1-2,.34l-.25,1.07a.51.51,0,0,1-.24.33A.53.53,0,0,1,72,76.56Zm-1.45-1.42,1,.23.23-1a.53.53,0,0,1,.56-.41,5.83,5.83,0,0,0,2.42-.42.55.55,0,0,1,.67.21l.53.83.91-.56-.53-.83a.55.55,0,0,1,.09-.69,5.49,5.49,0,0,0,1.42-2,.53.53,0,0,1,.62-.32l1,.22.24-1-1-.22a.55.55,0,0,1-.43-.55,5.38,5.38,0,0,0-.42-2.37.54.54,0,0,1,.21-.66l.85-.52-.57-.89-.86.52a.55.55,0,0,1-.69-.09,5.56,5.56,0,0,0-2-1.38.54.54,0,0,1-.33-.62l.23-1-1-.24-.23,1a.54.54,0,0,1-.55.41,5.91,5.91,0,0,0-2.43.42.55.55,0,0,1-.67-.21l-.53-.83-.91.56.54.83a.52.52,0,0,1-.1.68,5.68,5.68,0,0,0-1.42,2,.54.54,0,0,1-.62.32l-1-.22-.24,1,1,.22a.53.53,0,0,1,.42.55,5.38,5.38,0,0,0,.42,2.37.53.53,0,0,1-.21.66l-.85.51.57.9.86-.53a.55.55,0,0,1,.69.09,5.68,5.68,0,0,0,2,1.39.53.53,0,0,1,.33.61Z"/><path class="cls-2" d="M72.6,72.27a3.71,3.71,0,0,1-.88-.1,3.85,3.85,0,0,1-3-4.6,3.9,3.9,0,0,1,3.83-3,4.21,4.21,0,0,1,.87.09,3.92,3.92,0,0,1,2.45,1.71,3.71,3.71,0,0,1,.5,2.9A3.89,3.89,0,0,1,72.6,72.27Zm0-6.61A2.76,2.76,0,0,0,72,71.13a3.29,3.29,0,0,0,.63.07,2.8,2.8,0,0,0,2.75-2.15A2.71,2.71,0,0,0,75,67a2.79,2.79,0,0,0-1.76-1.23A2.7,2.7,0,0,0,72.6,65.66Z"/><path class="cls-2" d="M80.51,58.48h-.12l-1.65-.37a.53.53,0,0,1-.41-.64l.17-.73a5.1,5.1,0,0,1-1.16-.8l-.66.41a.58.58,0,0,1-.41.07.6.6,0,0,1-.34-.24l-.9-1.4a.58.58,0,0,1-.07-.41.52.52,0,0,1,.25-.33l.64-.4a5.25,5.25,0,0,1-.24-1.37l-.75-.17a.54.54,0,0,1-.42-.64l.38-1.61a.54.54,0,0,1,.66-.4l.74.16A5.3,5.3,0,0,1,77,48.47l-.4-.64a.53.53,0,0,1,.17-.74l1.42-.88a.57.57,0,0,1,.42-.07.55.55,0,0,1,.34.24l.41.63a5.48,5.48,0,0,1,1.4-.24L81,46a.55.55,0,0,1,.65-.41l1.65.37a.55.55,0,0,1,.34.24.51.51,0,0,1,.07.4l-.17.73a5.1,5.1,0,0,1,1.16.8l.66-.41a.53.53,0,0,1,.41-.06.51.51,0,0,1,.34.23l.9,1.41a.56.56,0,0,1,.07.4.57.57,0,0,1-.25.34l-.64.39a5.25,5.25,0,0,1,.24,1.37l.76.17a.55.55,0,0,1,.34.24.52.52,0,0,1,.07.4l-.38,1.61a.54.54,0,0,1-.66.4l-.73-.16A5.35,5.35,0,0,1,85,55.63l.41.65a.56.56,0,0,1,.07.4.57.57,0,0,1-.25.34l-1.43.87a.54.54,0,0,1-.41.07.53.53,0,0,1-.34-.24l-.4-.63a5.63,5.63,0,0,1-1.41.24l-.17.74A.54.54,0,0,1,80.51,58.48Zm-1-1.3.58.12.14-.63a.54.54,0,0,1,.57-.41,4.17,4.17,0,0,0,1.82-.32.55.55,0,0,1,.68.22l.35.54.5-.31-.36-.55a.52.52,0,0,1,.1-.68A4.14,4.14,0,0,0,85,53.67a.56.56,0,0,1,.63-.32l.63.15.14-.56-.65-.15a.55.55,0,0,1-.42-.55A4.07,4.07,0,0,0,85,50.45a.54.54,0,0,1,.21-.66l.56-.34L85.43,49l-.56.35a.54.54,0,0,1-.69-.1,4.3,4.3,0,0,0-1.52-1,.54.54,0,0,1-.33-.62l.15-.62-.58-.13-.14.63a.56.56,0,0,1-.57.42,4.19,4.19,0,0,0-1.82.31.57.57,0,0,1-.68-.21l-.35-.55-.49.31.35.55a.52.52,0,0,1-.1.68A4.14,4.14,0,0,0,77,50.43a.55.55,0,0,1-.62.32l-.64-.15-.14.57.65.14a.53.53,0,0,1,.42.55,4.31,4.31,0,0,0,.32,1.8.52.52,0,0,1-.21.65l-.56.34.32.49.56-.35a.56.56,0,0,1,.69.1,4.17,4.17,0,0,0,1.52,1,.54.54,0,0,1,.33.62Z"/><path class="cls-2" d="M81,55.16a3,3,0,0,1-.72-.09A3.09,3.09,0,0,1,81,49a2.84,2.84,0,0,1,.72.08,3.1,3.1,0,0,1-.7,6.13ZM81,50a2.07,2.07,0,0,0-2,1.57A2,2,0,0,0,80.54,54a2.42,2.42,0,0,0,.47,0,2,2,0,0,0,.46-4A2.61,2.61,0,0,0,81,50Z"/><path class="cls-2" d="M93.25,79.79H41.79l-11.57-.06a.54.54,0,0,1-.54-.53V27.61a.54.54,0,0,1,.54-.54H76l17.3,0a.54.54,0,0,1,.55.54V79.26A.54.54,0,0,1,93.25,79.79ZM30.77,78.66l11,.06H92.7V28.16L76,28.14H30.77Z"/><path class="cls-2" d="M93.25,39.48h-63a.54.54,0,0,1-.54-.54V27.61a.54.54,0,0,1,.54-.54H76l17.3,0a.54.54,0,0,1,.55.54V38.94A.54.54,0,0,1,93.25,39.48ZM30.77,38.4H92.7V28.16L76,28.14H30.77Z"/><path class="cls-2" d="M38.85,36.12a2.49,2.49,0,1,1,2.54-2.49A2.52,2.52,0,0,1,38.85,36.12Zm0-3.9a1.41,1.41,0,1,0,1.45,1.41A1.43,1.43,0,0,0,38.85,32.22Z"/><path class="cls-2" d="M52.27,36.12a2.49,2.49,0,1,1,2.53-2.49A2.52,2.52,0,0,1,52.27,36.12Zm0-3.9a1.41,1.41,0,1,0,1.44,1.41A1.43,1.43,0,0,0,52.27,32.22Z"/><path class="cls-2" d="M65.68,36.12a2.49,2.49,0,1,1,2.54-2.49A2.52,2.52,0,0,1,65.68,36.12Zm0-3.9a1.41,1.41,0,1,0,1.44,1.41A1.43,1.43,0,0,0,65.68,32.22Z"/><path class="cls-2" d="M52.1,66.72l-.12,0-2.52-.56a.54.54,0,0,1-.41-.65l.31-1.33a8.1,8.1,0,0,1-2.08-1.43l-1.2.73a.54.54,0,0,1-.41.07.58.58,0,0,1-.35-.24L44,61.14a.51.51,0,0,1-.07-.4.55.55,0,0,1,.24-.34l1.19-.72a7.42,7.42,0,0,1-.44-2.46l-1.38-.31a.52.52,0,0,1-.34-.24.51.51,0,0,1-.07-.4l.58-2.47a.55.55,0,0,1,.24-.34.56.56,0,0,1,.42-.06l1.35.3a8.21,8.21,0,0,1,1.47-2l-.75-1.17a.54.54,0,0,1,.17-.74l2.2-1.35a.55.55,0,0,1,.75.17l.74,1.16a8.21,8.21,0,0,1,2.51-.42L53.08,48a.54.54,0,0,1,.66-.4l2.52.57a.53.53,0,0,1,.41.64l-.31,1.34a7.79,7.79,0,0,1,2.08,1.43l1.2-.74a.58.58,0,0,1,.41-.07.57.57,0,0,1,.34.24l1.38,2.15a.54.54,0,0,1,.07.41.51.51,0,0,1-.24.33l-1.19.73A7.62,7.62,0,0,1,60.85,57l1.38.31a.55.55,0,0,1,.34.24.54.54,0,0,1,.07.41l-.58,2.47a.54.54,0,0,1-.66.4L60,60.56a7.88,7.88,0,0,1-1.46,2l.75,1.18a.53.53,0,0,1-.18.74L57,65.85a.55.55,0,0,1-.75-.17l-.75-1.16A7.91,7.91,0,0,1,53,65l-.32,1.35A.56.56,0,0,1,52.1,66.72Zm-1.86-1.51,1.45.33.3-1.25a.54.54,0,0,1,.56-.42,6.84,6.84,0,0,0,2.93-.5.55.55,0,0,1,.67.21l.69,1.08,1.27-.78-.7-1.08a.54.54,0,0,1,.1-.69,6.7,6.7,0,0,0,1.71-2.38.56.56,0,0,1,.63-.32l1.26.28.34-1.42L60.17,58a.53.53,0,0,1-.42-.55,6.59,6.59,0,0,0-.52-2.87.53.53,0,0,1,.22-.66l1.1-.67L59.76,52l-1.11.68a.56.56,0,0,1-.7-.09,6.84,6.84,0,0,0-2.44-1.68.54.54,0,0,1-.32-.62L55.48,49,54,48.72,53.73,50a.56.56,0,0,1-.56.42,6.82,6.82,0,0,0-2.93.5.56.56,0,0,1-.68-.22l-.69-1.07-1.26.77.7,1.09a.54.54,0,0,1-.1.69,6.61,6.61,0,0,0-1.71,2.38.56.56,0,0,1-.63.32l-1.26-.29L44.27,56l1.28.28a.54.54,0,0,1,.42.55,6.66,6.66,0,0,0,.52,2.88.52.52,0,0,1-.22.65l-1.1.68L46,62.27l1.11-.69a.56.56,0,0,1,.7.1,6.92,6.92,0,0,0,2.44,1.68.53.53,0,0,1,.32.61Z"/><path class="cls-2" d="M52.86,61.61a4.38,4.38,0,0,1-1-.12,4.51,4.51,0,0,1-2.86-2,4.4,4.4,0,0,1-.58-3.39,4.53,4.53,0,0,1,4.46-3.47,5.05,5.05,0,0,1,1,.11,4.59,4.59,0,0,1,2.86,2,4.42,4.42,0,0,1,.58,3.38A4.53,4.53,0,0,1,52.86,61.61Zm0-7.89a3.49,3.49,0,0,0-3.39,2.64,3.35,3.35,0,0,0,.44,2.58,3.49,3.49,0,0,0,2.17,1.51,4.13,4.13,0,0,0,.78.08,3.49,3.49,0,0,0,3.39-2.64,3.32,3.32,0,0,0-.44-2.57,3.55,3.55,0,0,0-3-1.6Z"/></svg>