<svg xmlns="http://www.w3.org/2000/svg" viewBox="0 0 318.36 115.53"><defs><style>.cls-1{fill:#d7631a;}</style></defs><title>Recurso 9</title><g id="Capa_2" data-name="Capa 2"><g id="Capa_1-2" data-name="Capa 1"><path class="cls-1" d="M21.92,76.21c1.71.68,3.31.43,4.85.65C35,78,42.29,81.48,49,86.27c5.23,3.72,10.3,7.64,15.87,10.86A41.59,41.59,0,0,0,86.11,103,43.72,43.72,0,0,0,107,97.32a59.38,59.38,0,0,0,15-11.2c.8-.84,1.34-.83,2,.14q2.86,4.18,5.83,8.32c.64.9.2,1.44-.42,2.06A63.45,63.45,0,0,1,115.43,107a63.43,63.43,0,0,1-25.35,8.17c-12.85,1.3-24.84-1.23-35.71-8.39-4-2.63-8-5.36-11.94-8A53.46,53.46,0,0,0,11.7,89.54c-2.72,0-5.46-.05-8.18,0-1.23,0-1.86-.33-2-1.61-.4-2.69-.89-5.38-1.42-8.06A2.17,2.17,0,0,1,.8,77.75c5.82-5.82,11.65-11.64,17.42-17.51C24.7,53.65,31.13,47,37.57,40.37c.27-.28.78-.54.64-.95s-.78-.3-1.2-.3c-8.65,0-17.29,0-25.93,0-2.29,0-2.32,0-1.9-2.33.54-2.94,1.12-5.86,1.62-8.8.2-1.23.79-1.65,2-1.65q23.43.06,46.86,0c1.31,0,1.86.35,1.55,1.77-.64,3-1.17,5.95-1.76,8.92a4.52,4.52,0,0,1-1.43,2.28q-9,9.12-18,18.26L22.92,75.06c-.31.32-.59.67-1,1.15"/><path class="cls-1" d="M60.42,64.21c.35-12,4.37-22.42,13.36-30.6a33.92,33.92,0,0,1,19.07-8.49,29,29,0,0,1,16,2.25c8.59,4,13,11.08,13.81,20.26,1.17,12.91-2.43,24.45-11.9,33.49-10.27,9.82-22.5,12.67-35.94,7.62-7.22-2.71-11.47-8.51-13.42-16a30.54,30.54,0,0,1-1-8.57m15.86.09a19.17,19.17,0,0,0,.39,4.09c1.74,10,11.65,13.86,19.64,7.69,4.08-3.16,6.55-7.49,8.25-12.28,2.18-6.15,3.24-12.39,1.33-18.85a11,11,0,0,0-4.45-6.12c-4.79-3.26-11.8-2.06-16.29,2.56-6.21,6.4-8.25,14.38-8.87,22.91"/><path class="cls-1" d="M158.86,91c-8.39.07-13.8-.92-18.65-4-5.54-3.56-8.48-8.89-9.61-15.18-2.19-12.12,1-23,8.1-32.89a33.23,33.23,0,0,1,15.67-12c7.26-2.64,14.65-3.1,21.89.07,6.22,2.73,9.46,7.68,9.88,14.43A18.19,18.19,0,0,1,183.94,52a18.41,18.41,0,0,1-7.68,6.9c-4.81,2.55-10.06,3.55-15.4,4.26a95.25,95.25,0,0,1-13.92.59c-1.39,0-1.83.45-1.83,1.83,0,7.82,5.3,13,13.55,13.23a38,38,0,0,0,16.62-3.49c1.57-.71,1.65-.72,1.9,1,.39,2.74.66,5.51,1.07,8.26a1.81,1.81,0,0,1-1.32,2.18A51.36,51.36,0,0,1,158.86,91m-7.32-38.89a47.81,47.81,0,0,0,11.25-1.27c2.7-.63,5.34-1.48,7.27-3.73a6.06,6.06,0,0,0-.32-8.46c-2.91-2.76-6.47-2.49-9.83-1.5-6.79,2-10.56,7.07-12.76,13.51-.33,1,0,1.45,1.06,1.45h3.33"/><path class="cls-1" d="M223.51,38.49c-1.72,0-3.45.09-5.16,0-1.48-.1-2.06.55-2.32,1.92-.9,4.71-1.88,9.41-2.8,14.12-1.11,5.7-2.22,11.4-3.25,17.11-.77,4.32,1.52,6.95,5.89,6.94a21.11,21.11,0,0,0,5.52-.86c1.47-.4,1.68-.14,1.6,1.36-.17,3-.31,6-.41,9.08,0,.77-.05,1.38-1,1.61-5.46,1.33-10.91,1.86-16.48.43-8.23-2.11-11.7-8.9-10.67-16.13,1.08-7.6,2.75-15.1,4.3-22.62.79-3.86,1.45-7.74,2.24-11.6.22-1.11-.26-1.35-1.19-1.34-1.92,0-3.84,0-5.76,0-1.22,0-1.61-.48-1.36-1.69.62-3,1.2-5.94,1.72-8.93a1.66,1.66,0,0,1,2-1.56c1.82.06,3.65,0,5.46,0,1.34.06,1.88-.53,2.1-1.79.51-2.83,1.16-5.64,1.69-8.47a2,2,0,0,1,1.57-1.78q6.56-1.89,13.09-3.83c1.37-.41,1.5.31,1.29,1.34-.81,4.11-1.64,8.22-2.45,12.33-.39,2-.21,2.18,1.84,2.18,3.39,0,6.77,0,10.16,0,1.35,0,1.81.4,1.51,1.8C232,31,231.46,34,230.93,36.9a1.69,1.69,0,0,1-2,1.6c-1.81,0-3.63,0-5.45,0Z"/><path class="cls-1" d="M275.62,91A42.29,42.29,0,0,1,260,88.15a7.76,7.76,0,0,1-1.09-.52c-2-1.14-2.11-1.4-1.29-3.61.89-2.42,1.83-4.81,2.58-7.28.48-1.59.79-1.57,2.28-.9,4.34,2,8.78,3.65,13.66,3.57A12,12,0,0,0,281.66,78c5.09-2.75,5.22-9.14.3-12.77a69.24,69.24,0,0,0-6.09-3.67c-4.05-2.39-7.7-5.27-9.65-9.74-2.68-6.11-1-14.08,3.66-19,4.33-4.56,9.77-6.7,15.81-7.58a37.52,37.52,0,0,1,17.91,2c2,.7,2.14,1,1.43,2.95-.94,2.61-1.93,5.21-2.8,7.85-.4,1.25-.92,1.39-2.09.88a22.5,22.5,0,0,0-12.38-2.11,8.29,8.29,0,0,0-6.07,3.33c-2.14,3.16-1.48,6.32,1.71,8.92,2.41,2,5.29,3.16,7.89,4.81,3.8,2.41,7.26,5.21,9.06,9.5,2.5,6,1.45,11.67-1.81,16.94-4.19,6.81-11,9.32-18.47,10.47a26.29,26.29,0,0,1-4.45.33"/><path class="cls-1" d="M239,89.54c-2.08,0-4.15,0-6.22,0-1.17,0-1.47-.4-1.24-1.56q2.34-11.89,4.6-23.81,3.26-17,6.5-33.93c.74-3.9.74-3.9,4.75-3.91,3.14,0,6.27,0,9.4,0,1.76,0,1.94.22,1.61,2-1.79,9.32-3.61,18.64-5.39,28-2,10.42-4,20.84-5.9,31.27-.27,1.47-.8,2.11-2.35,2-1.92-.12-3.84,0-5.76,0"/><path class="cls-1" d="M253.36,17.64c-4.92,0-7.88-3.07-7.87-8.17a9.16,9.16,0,0,1,9-9.47,8.08,8.08,0,0,1,8.39,8.42c0,5.35-3.95,9.21-9.5,9.22"/><path class="cls-1" d="M314.21,86.67a18.28,18.28,0,0,0,1.64-4.16c.3-.77.53-1.63,1.61-1.44s.87,1.09.88,1.82c0,1.76,0,3.53,0,5.29,0,.6,0,1.36-.86,1.31s-.65-.78-.67-1.31a12.52,12.52,0,0,0-.34-3.34c-.36,1.07-.73,2.13-1.08,3.2-.22.67-.33,1.45-1.27,1.44s-1-.83-1.26-1.47c-.35-.91-.43-1.93-1.46-2.68,0,1,0,2.06,0,3.09,0,.46-.08,1-.69,1s-.77-.48-.78-.94c0-2.17,0-4.33.05-6.5a.82.82,0,0,1,.79-.93,1.17,1.17,0,0,1,1.33.77c.43,1.13.82,2.28,1.26,3.41.19.49.22,1.1.85,1.45"/><path class="cls-1" d="M305.9,81c.85,0,1.71,0,2.56,0,.49,0,.91.23.87.82s-.49.65-.89.61c-1.65-.14-1.93.78-1.86,2.15s0,2.62,0,3.93c0,.41-.12.85-.66.84s-.62-.46-.63-.87c0-1.41-.06-2.82,0-4.23,0-1.14-.27-1.86-1.59-1.8-.49,0-1.12,0-1.12-.71s.69-.75,1.23-.77c.7,0,1.41,0,2.12,0Z"/></g></g></svg>