<svg id="Layer_1" data-name="Layer 1" xmlns="http://www.w3.org/2000/svg" viewBox="0 0 123.16 106.66"><defs><style>.cls-1{fill:#332d2f;}.cls-2{fill:#fff;}</style></defs><polygon class="cls-1" points="92.37 0 30.79 0 0 53.33 30.79 106.66 92.37 106.66 123.16 53.33 92.37 0"/><path class="cls-2" d="M65.9,81.55H53.76a1.24,1.24,0,0,1-1.25-1.24V56a3.81,3.81,0,0,1-1.44.28h-.25a3.93,3.93,0,0,1-3.93-3.93V39a6.55,6.55,0,0,1,6.55-6.55H66.22A6.56,6.56,0,0,1,72.78,39V52.34a3.94,3.94,0,0,1-3.94,3.93H68.6A3.82,3.82,0,0,1,67.15,56V80.31A1.24,1.24,0,0,1,65.9,81.55ZM55,79.07h9.66V52.34a1.25,1.25,0,0,1,2.49,0,1.45,1.45,0,0,0,1.45,1.45h.24a1.45,1.45,0,0,0,1.45-1.45V39a4.07,4.07,0,0,0-4.07-4.07H53.44A4.07,4.07,0,0,0,49.37,39V52.34a1.45,1.45,0,0,0,1.45,1.45h.25a1.45,1.45,0,0,0,1.44-1.45,1.25,1.25,0,0,1,2.49,0Z"/><path class="cls-2" d="M53.76,53.58a1.25,1.25,0,0,1-1.25-1.24V43.28a1.25,1.25,0,1,1,2.49,0v9.06A1.25,1.25,0,0,1,53.76,53.58Z"/><path class="cls-2" d="M65.9,53.58a1.25,1.25,0,0,1-1.24-1.24V43.28a1.25,1.25,0,1,1,2.49,0v9.06A1.25,1.25,0,0,1,65.9,53.58Z"/><path class="cls-2" d="M59.83,31.76A7,7,0,0,1,53,24.62a6.83,6.83,0,1,1,13.64,0A7,7,0,0,1,59.83,31.76Zm0-11.8a4.52,4.52,0,0,0-4.34,4.66,4.35,4.35,0,1,0,8.68,0A4.52,4.52,0,0,0,59.83,20Z"/><path class="cls-2" d="M59.83,81.55a1.23,1.23,0,0,1-1.24-1.24V59.72a1.24,1.24,0,1,1,2.48,0V80.31A1.23,1.23,0,0,1,59.83,81.55Z"/><path class="cls-2" d="M85.72,81.55H75.35a1.23,1.23,0,0,1-1.24-1.24V59.82a3.73,3.73,0,0,1-1.06.16,1.25,1.25,0,0,1,0-2.49,1.06,1.06,0,0,0,1.06-1.05,1.24,1.24,0,0,1,2.48,0V79.07h7.88V56.44a1.25,1.25,0,0,1,2.49,0A1,1,0,0,0,88,57.49h.21a1.06,1.06,0,0,0,1.06-1.05V45.06A3.3,3.3,0,0,0,86,41.77H75.08a1.24,1.24,0,1,1,0-2.48H86a5.78,5.78,0,0,1,5.77,5.77V56.44A3.55,3.55,0,0,1,88.22,60H88A3.6,3.6,0,0,1,87,59.82V80.31A1.24,1.24,0,0,1,85.72,81.55Z"/><path class="cls-2" d="M75.35,57.68a1.24,1.24,0,0,1-1.24-1.24V48.71a1.24,1.24,0,1,1,2.48,0v7.73A1.24,1.24,0,0,1,75.35,57.68Z"/><path class="cls-2" d="M85.72,57.68a1.25,1.25,0,0,1-1.25-1.24V48.71a1.25,1.25,0,1,1,2.49,0v7.73A1.25,1.25,0,0,1,85.72,57.68Z"/><path class="cls-2" d="M80.53,38.48a6.28,6.28,0,1,1,6-6.27A6.14,6.14,0,0,1,80.53,38.48Zm0-10.07a3.81,3.81,0,1,0,3.52,3.8A3.67,3.67,0,0,0,80.53,28.41Z"/><path class="cls-2" d="M80.53,81.55a1.24,1.24,0,0,1-1.24-1.24V62.74a1.24,1.24,0,1,1,2.48,0V80.31A1.23,1.23,0,0,1,80.53,81.55Z"/><path class="cls-2" d="M44.31,81.55H33.94a1.24,1.24,0,0,1-1.24-1.24V59.82a3.66,3.66,0,0,1-1.05.16h-.21a3.55,3.55,0,0,1-3.54-3.54V45.06a5.78,5.78,0,0,1,5.77-5.77H44.58a1.24,1.24,0,1,1,0,2.48H33.67a3.3,3.3,0,0,0-3.29,3.29V56.44a1.06,1.06,0,0,0,1.06,1.05h.21a1,1,0,0,0,1.05-1.05,1.25,1.25,0,0,1,2.49,0V79.07h7.88V56.44a1.24,1.24,0,0,1,2.48,0,1.06,1.06,0,0,0,1.06,1.05,1.25,1.25,0,0,1,0,2.49,3.73,3.73,0,0,1-1.06-.16V80.31A1.23,1.23,0,0,1,44.31,81.55Z"/><path class="cls-2" d="M44.31,57.68a1.25,1.25,0,0,1-1.24-1.24V48.71a1.24,1.24,0,1,1,2.48,0v7.73A1.24,1.24,0,0,1,44.31,57.68Z"/><path class="cls-2" d="M33.94,57.68a1.25,1.25,0,0,1-1.24-1.24V48.71a1.25,1.25,0,1,1,2.49,0v7.73A1.25,1.25,0,0,1,33.94,57.68Z"/><path class="cls-2" d="M39.13,38.48a6.28,6.28,0,1,1,6-6.27A6.15,6.15,0,0,1,39.13,38.48Zm0-10.07a3.81,3.81,0,1,0,3.52,3.8A3.67,3.67,0,0,0,39.13,28.41Z"/><path class="cls-2" d="M39.13,81.55a1.23,1.23,0,0,1-1.24-1.24V62.74a1.24,1.24,0,1,1,2.48,0V80.31A1.24,1.24,0,0,1,39.13,81.55Z"/></svg>