<svg id="Layer_1" data-name="Layer 1" xmlns="http://www.w3.org/2000/svg" viewBox="0 0 123.16 106.66"><defs><style>.cls-1{fill:#332d2f;}.cls-2{fill:#fff;}</style></defs><polygon class="cls-1" points="92.37 0 30.79 0 0 53.33 30.79 106.66 92.37 106.66 123.16 53.33 92.37 0"/><path class="cls-2" d="M61.58,78.2a23.09,23.09,0,1,1,22.59-28,23.25,23.25,0,0,1,.09,9.34A23.14,23.14,0,0,1,61.58,78.2Zm0-43.47a20.35,20.35,0,1,0,0,40.7A20.14,20.14,0,0,0,74,71.22a20.62,20.62,0,0,0,4-4,20.43,20.43,0,0,0,4-12.12,19.83,19.83,0,0,0-.46-4.31A20.35,20.35,0,0,0,61.58,34.73Z"/><path class="cls-2" d="M60.19,42.8h2.19v2A5.29,5.29,0,0,1,67.12,49l-3,1.23c-.58-1.69-1.49-2.54-2.72-2.54a2,2,0,0,0-1.49.57,1.91,1.91,0,0,0-.56,1.38,1.52,1.52,0,0,0,.54,1.26A9.18,9.18,0,0,0,62.2,52a21.83,21.83,0,0,1,3,1.35A4.77,4.77,0,0,1,67,55.05a5,5,0,0,1,.66,2.61,5.5,5.5,0,0,1-1.37,3.81,5.84,5.84,0,0,1-3.93,1.8v2.61H60.19v-2.6q-4.29-.44-5.31-5l3.38-.88c.31,1.9,1.35,2.85,3.11,2.85a2.4,2.4,0,0,0,1.82-.61,2,2,0,0,0,.58-1.47,1.63,1.63,0,0,0-.58-1.36,10.42,10.42,0,0,0-2.58-1.17,15,15,0,0,1-2.82-1.24,4.67,4.67,0,0,1-1.65-1.71,5.06,5.06,0,0,1-.63-2.56,5.67,5.67,0,0,1,1.13-3.46,5,5,0,0,1,3.55-1.87Z"/><path class="cls-2" d="M83.23,54.76a1.4,1.4,0,0,1-1-.41,1.38,1.38,0,0,1,0-2L90,44.63a1.39,1.39,0,0,1,1-.41h0a1.39,1.39,0,0,1,1,.41l.92.93.61-7.33-7.33.6.93.94a1.38,1.38,0,0,1,0,1.95l-5,5a1.38,1.38,0,0,1-2-2l4-4-2.06-2.06A1.38,1.38,0,0,1,83,36.32l11.93-1a1.45,1.45,0,0,1,1.09.4,1.37,1.37,0,0,1,.4,1.1l-1,11.94a1.36,1.36,0,0,1-.9,1.18,1.41,1.41,0,0,1-1.46-.32l-2-2.06-6.79,6.78A1.38,1.38,0,0,1,83.23,54.76Z"/><path class="cls-2" d="M36.51,75.61a1.41,1.41,0,0,1-1-.41l-4.87-4.86a1.39,1.39,0,0,1,0-2l8.89-8.84a1.39,1.39,0,0,1,1.95,2L33.6,69.36l2.92,2.91,6.06-6a1.38,1.38,0,1,1,2,2l-7,7A1.43,1.43,0,0,1,36.51,75.61Z"/></svg>