<svg id="Layer_1" data-name="Layer 1" xmlns="http://www.w3.org/2000/svg" viewBox="0 0 34.69 34.08"><defs><style>.cls-1{fill:#fff;}</style></defs><path class="cls-1" d="M16.18,1.34V34.08A.78.78,0,0,0,17,33.3V2.13A.79.79,0,0,0,16.18,1.34Z"/><path class="cls-1" d="M12.52,4.81H8A.79.79,0,0,0,8,6.39h4.48a.79.79,0,1,0,0-1.58Z"/><path class="cls-1" d="M4.34,5.6a.78.78,0,0,0-.78-.79H0V6.39H3.56A.78.78,0,0,0,4.34,5.6Z"/><path class="cls-1" d="M12.52,9.15H0v1.58H12.52a.79.79,0,0,0,0-1.58Z"/><path class="cls-1" d="M12.52,13.49H0v1.58H12.52a.79.79,0,0,0,0-1.58Z"/><path class="cls-1" d="M12.52,17.83H5.26a.79.79,0,0,0,0,1.58h7.26a.79.79,0,1,0,0-1.58Z"/><path class="cls-1" d="M2.24,18.62a.79.79,0,0,0-.79-.79H0v1.58H1.45A.79.79,0,0,0,2.24,18.62Z"/><path class="cls-1" d="M12.52,22.17H0v1.58H12.52a.79.79,0,1,0,0-1.58Z"/><path class="cls-1" d="M12.52,26.51H10.21a.79.79,0,0,0,0,1.58h2.31a.79.79,0,1,0,0-1.58Z"/><path class="cls-1" d="M5.71,26.51H0v1.58H5.71a.79.79,0,1,0,0-1.58Z"/><path class="cls-1" d="M21.1,6.68h.55a.79.79,0,0,0,.47-.17A.76.76,0,0,0,22,7v.55a.79.79,0,1,0,1.58,0V7a.76.76,0,0,0-.17-.46.76.76,0,0,0,.46.17h.55a.79.79,0,0,0,0-1.58h-.55a.76.76,0,0,0-.46.17.77.77,0,0,0,.17-.47V4.25a.79.79,0,0,0-1.58,0V4.8a.77.77,0,0,0,.17.47.79.79,0,0,0-.47-.17H21.1a.79.79,0,1,0,0,1.58Zm2.1-1.25a.71.71,0,0,0,0,.92.76.76,0,0,0-.46-.17.79.79,0,0,0-.47.17.71.71,0,0,0,0-.92.86.86,0,0,0,.47.16A.82.82,0,0,0,23.2,5.43Z"/><path class="cls-1" d="M28.71,14.63h-.56a.76.76,0,0,0-.46.17.76.76,0,0,0,.17-.46v-.55a.79.79,0,0,0-1.58,0v.55a.76.76,0,0,0,.17.46.76.76,0,0,0-.46-.17h-.55a.79.79,0,0,0,0,1.58H26a.76.76,0,0,0,.46-.17.76.76,0,0,0-.17.46v.55a.79.79,0,1,0,1.58,0V16.5a.76.76,0,0,0-.17-.46.76.76,0,0,0,.46.17h.56a.79.79,0,0,0,0-1.58Zm-2.1,1.25a.8.8,0,0,0,.16-.46.73.73,0,0,0-.16-.46.74.74,0,0,0,.92,0,.74.74,0,0,0,0,.92.74.74,0,0,0-.92,0Z"/><path class="cls-1" d="M24.37,24.16h-.55a.76.76,0,0,0-.46.17.76.76,0,0,0,.17-.46v-.55a.79.79,0,1,0-1.58,0v.55a.76.76,0,0,0,.17.46.79.79,0,0,0-.47-.17H21.1a.79.79,0,1,0,0,1.58h.55a.79.79,0,0,0,.47-.17A.77.77,0,0,0,22,26v.55a.79.79,0,0,0,1.58,0V26a.77.77,0,0,0-.17-.47.76.76,0,0,0,.46.17h.55a.79.79,0,0,0,0-1.58Zm-2.1,1.25a.71.71,0,0,0,0-.92.78.78,0,0,0,.47.16.76.76,0,0,0,.46-.16.71.71,0,0,0,0,.92.82.82,0,0,0-.46-.16A.86.86,0,0,0,22.27,25.41Z"/><path class="cls-1" d="M33.9,29.36h-.55a.76.76,0,0,0-.46.17.76.76,0,0,0,.17-.46v-.56a.79.79,0,0,0-1.58,0v.56a.76.76,0,0,0,.17.46.77.77,0,0,0-.47-.17h-.55a.79.79,0,0,0,0,1.58h.55a.77.77,0,0,0,.47-.17.76.76,0,0,0-.17.46v.55a.79.79,0,0,0,1.58,0v-.55a.76.76,0,0,0-.17-.46.76.76,0,0,0,.46.17h.55a.79.79,0,0,0,0-1.58Zm-2.09,1.25a.74.74,0,0,0,0-.92.8.8,0,0,0,.46.16.82.82,0,0,0,.46-.16.71.71,0,0,0,0,.92.74.74,0,0,0-.92,0Z"/><path class="cls-1" d="M30.63,3.21h.55A.77.77,0,0,0,31.65,3a.79.79,0,0,0-.17.47v.55a.79.79,0,1,0,1.58,0V3.51A.79.79,0,0,0,32.89,3a.76.76,0,0,0,.46.17h.55a.79.79,0,0,0,0-1.58h-.55a.76.76,0,0,0-.46.17.74.74,0,0,0,.17-.46V.79a.79.79,0,1,0-1.58,0v.55a.74.74,0,0,0,.17.46.77.77,0,0,0-.47-.17h-.55a.79.79,0,0,0,0,1.58ZM32.73,2a.76.76,0,0,0-.17.46.79.79,0,0,0,.17.47.71.71,0,0,0-.92,0A.86.86,0,0,0,32,2.42.82.82,0,0,0,31.81,2a.74.74,0,0,0,.46.17A.76.76,0,0,0,32.73,2Z"/></svg>