<svg xmlns="http://www.w3.org/2000/svg" viewBox="0 0 77.93 37.65"><defs><style>.cls-1{fill:#c43535;}</style></defs><title>Recurso 21</title><g id="Capa_2" data-name="Capa 2"><g id="Capa_1-2" data-name="Capa 1"><path class="cls-1" d="M70.16,13.63c-2.92-.73-9.22-1.85-10.89-2.15C57.37,9.62,47.12,0,38.06,0c-1.55,0-4.28.11-6.93.21C28.65.31,26.3.4,25.07.4c-7.67,0-12.7,6-15.12,9-.32.38-.68.81-.9,1.05-1.83,0-6,.19-6.21.19l-.78,0-.34.71A21.87,21.87,0,0,0,0,19.88c0,4.73,0,11.88,6.41,11.88H10a7.23,7.23,0,0,0,14.25-.27v.27H51.2a7.22,7.22,0,0,0,14.21-.06c1.28-.06,3.55-.14,6.23-.14,4.78,0,5.16-2.14,5.74-5.38.13-.77.29-1.63.51-2.62l0-.14v-.15c0-4.6-4-8.7-7.77-9.64m-53,21.45a4.66,4.66,0,1,1,4.66-4.66,4.66,4.66,0,0,1-4.66,4.66m41.17,0A4.66,4.66,0,1,1,63,30.42a4.66,4.66,0,0,1-4.66,4.66m16.54-9.36c-.55,3.08-.58,3.26-3.2,3.26s-4.91.08-6.23.14a7.22,7.22,0,0,0-14.23.06H24.27v.17A7.22,7.22,0,0,0,10,29.18H6.41c-3.55,0-3.83-4-3.83-9.3a20.06,20.06,0,0,1,1.19-6.74C5.26,13.08,8.34,13,9.44,13c.85,0,1.36-.62,2.49-2,2.17-2.6,6.67-8,13.14-8,1.28,0,3.65-.1,6.16-.2s5.33-.21,6.83-.21c6.21,0,13.46,5.5,17.18,8.72h-17V6.68H35.62v4.61H26.77c-4.91,0-5.75-3.46-5.83-3.84l-2.53.47c.38,2.06,2.61,5.95,8.36,5.95H58l.41.07c.08,0,7.89,1.37,11.1,2.18,2.71.67,5.74,3.8,5.82,7-.22,1-.38,1.83-.51,2.58"/></g></g></svg>