<svg xmlns="http://www.w3.org/2000/svg" viewBox="0 0 210.35 182.17"><defs><style>.cls-1{fill:#353132;}.cls-2{fill:#fff;}</style></defs><title>Recurso 2</title><g id="Capa_2" data-name="Capa 2"><g id="Capa_1-2" data-name="Capa 1"><polygon class="cls-1" points="157.76 0 52.59 0 0 91.08 52.59 182.16 157.76 182.16 210.35 91.08 157.76 0"/><path class="cls-2" d="M105.18,129.64q-14.12,0-28.23,0c-6.31,0-9.91-3.62-9.92-9.93V69.05c0-6.1,3.49-9.71,9.57-9.83,1.45,0,2.12-.36,2.12-2,0-3.82,1.37-4.74,5.15-3.87,1.15.27,1.07,1.11,1.13,1.92.27,3.89.26,3.89,4.16,3.89,11.14,0,22.29,0,33.43,0,2,0,3-.44,2.78-2.63-.1-1-.53-2.55.68-3a9.49,9.49,0,0,1,4.91-.06c.58.11.63.69.66,1.18a14.47,14.47,0,0,1,0,2.28c-.19,1.74.58,2.23,2.27,2.24,4.77,0,8.25,2.76,9.19,7.11a13.28,13.28,0,0,1,.2,2.68q0,25.44,0,50.87c0,6-3.67,9.73-9.68,9.74q-14.22,0-28.45,0m0-46.63c-9.82,0-19.64,0-29.46,0-2,0-2.63.56-2.61,2.58.09,11.07,0,22.13,0,33.2,0,4,.78,4.77,4.7,4.77q27.29,0,54.57,0c3.88,0,4.77-.89,4.77-4.76,0-11.06,0-22.13.05-33.19,0-2-.61-2.62-2.6-2.6-9.82.09-19.64,0-29.46,0M105,76.67h13.28c5.6,0,11.21,0,16.81,0,.85,0,2,.25,2-1.1,0-2.62.35-5.27-.18-7.86-.36-1.75-2-2.62-4-2.38s-1.07,1.74-1.25,2.75a16.38,16.38,0,0,0,0,1.86c0,.5-.13,1-.68,1.16a7.78,7.78,0,0,1-4.89-.06c-1.21-.52-.67-2-.7-3-.08-2.69,0-2.7-2.86-2.7q-16.8,0-33.61,0c-4,0-4-.41-3.85,3.75,0,1.72-.68,2.29-2.35,2.31-3.92,0-3.92.11-4-3.89,0-.28,0-.56,0-.83,0-1-.5-1.29-1.42-1.35-2.72-.15-4,1-4.1,3.72,0,1.65.12,3.33,0,5-.2,2.07.48,2.76,2.64,2.73,9.75-.11,19.5,0,29.25,0"/><path class="cls-2" d="M105.13,94.67c-3.13,0-3.13,0-3.13-3.27,0-3.07,0-3.07,3.32-3.07,3,0,3,0,3,3.37,0,3,0,3-3.21,3"/><path class="cls-2" d="M120,91.51c0,3.16,0,3.16-3.22,3.16s-3.12,0-3.12-3.28c0-3,0-3.06,3.13-3.06s3.21,0,3.21,3.18"/><path class="cls-2" d="M105.15,106.33c-3.15,0-3.15,0-3.15-3.24s0-3.1,3.3-3.1c3,0,3,0,3,3.15s0,3.19-3.19,3.19"/><path class="cls-2" d="M116.65,106.33c-3,0-3,0-3-3.4,0-2.94,0-2.94,3.25-2.94s3.09,0,3.08,3.31c0,3,0,3-3.35,3"/><path class="cls-2" d="M93.6,88.33c3.07,0,3.08,0,3.08,3.14s-.07,3.2-3.29,3.2c-3,0-3,0-3-3.17s0-3.17,3.25-3.17"/><path class="cls-2" d="M93.47,106.33c-3.13,0-3.13,0-3.12-3.3,0-3,0-3,3.17-3s3.17.08,3.16,3.33c0,3,0,3-3.21,3"/><path class="cls-2" d="M131.66,103.25c0,3.09,0,3.09-3.34,3.08-3,0-3,0-3-3.23,0-3.06.07-3.12,3.37-3.11,3,0,3,0,3,3.26"/><path class="cls-2" d="M93.41,118c-3.07,0-3.07,0-3.06-3.34,0-3,0-3,3.23-3,3,0,3.11.07,3.1,3.38,0,2.95,0,2.95-3.27,2.94"/><path class="cls-2" d="M128.61,94.67c-3.21,0-3.28-.07-3.28-3.19s.09-3.14,3.12-3.15c3.21,0,3.21,0,3.21,3.19s0,3.15-3,3.15"/><path class="cls-2" d="M78.69,103.18c0-3.18,0-3.18,3-3.19,3.25,0,3.32.06,3.31,3.16s-.06,3.18-3.28,3.18c-3,0-3,0-3-3.15"/><path class="cls-2" d="M81.72,118c-3,0-3,0-3-3.37,0-3,0-3,3.23-3,3,0,3.1.1,3.09,3.17S85,118,81.72,118"/><path class="cls-2" d="M105,118c-3,0-3,0-3-3.21s.09-3.14,3.35-3.12c2.91,0,3,.1,3,3.27s0,3.06-3.34,3.06"/></g></g></svg>