<svg xmlns="http://www.w3.org/2000/svg" viewBox="0 0 276.24 115.93"><defs><style>.cls-1{fill:#fdfcfc;}.cls-2{fill:#f20000;}.cls-3{fill:#030202;}</style></defs><g id="Capa_2" data-name="Capa 2"><g id="Capa_1-2" data-name="Capa 1"><g id="WH1ZxP"><path class="cls-1" d="M86.21,83.88a44.74,44.74,0,0,0,15.36,20.39c13.21,9.85,28.23,13.24,44.34,11,19.84-2.77,33.94-13.78,42.46-31.8,4.73-10,5.82-20.66,4.28-31.6a7.3,7.3,0,0,1,4.66,1.4c3.84,2.43,5,6.27,5,10.47.1,8,0,16.07,0,24.11,0,.89.21,1.17,1.13,1.14,2.26-.07,4.53-.08,6.79,0,1,0,1.28-.26,1.27-1.29q-.06-12.12,0-24.24a29.65,29.65,0,0,0-.56-6.17c-1.38-6.55-5.07-11-11.63-12.87A23.58,23.58,0,0,0,191.1,44a5.31,5.31,0,0,0-.1-.68c-3.19-12-8.47-22.88-17.17-31.88-5.06-5.23-10.9-9.29-18.18-10.75-4.11-.82-8.26-1.25-12.25.7-3.13,1.53-5.07,4.22-6.9,7a90.16,90.16,0,0,1-8.18,11.15C123,25.47,116.52,30,109.74,34.09a13.14,13.14,0,0,1-.08-3.43c0-1-.33-1.22-1.26-1.19-2.2.06-4.41.09-6.62,0-1.13-.05-1.35.34-1.35,1.39a88.84,88.84,0,0,1-.11,8.94C95.2,42.61,90.56,46,87.1,50.84a22,22,0,0,0-3.8-3.21,23.43,23.43,0,0,0-15.77-3.31c-7,.82-12.59,4-16,10.39-3.65,6.84-3.78,14-1.35,21.25A18.93,18.93,0,0,0,62.06,88.08a25.62,25.62,0,0,0,13.5,1A22.56,22.56,0,0,0,86.21,83.88ZM38.34,61c1.34,0,2.68,0,4,0,.68,0,1-.06.83-.89-1.3-5.54-4.12-10-9.08-13a23.68,23.68,0,0,0-15.2-2.82c-6.93.8-12.41,4-15.85,10.17C-.2,60.35-.66,66.64.75,73.09A19.88,19.88,0,0,0,9.43,86c5.26,3.43,11.09,4,17.13,3.15A19.65,19.65,0,0,0,43.15,73.58c.19-.85,0-1-.82-1-2.3,0-4.62.11-6.92,0-1.39-.08-1.9.34-2.33,1.69-1.46,4.62-5.39,7.15-10.89,7.29a11.64,11.64,0,0,1-11.94-8.91,23.48,23.48,0,0,1-.52-9.44c.76-5.92,4.52-10.06,10.35-10.94S31.81,54,33.34,60.13c.18.72.55.9,1.26.87C35.84,60.94,37.09,61,38.34,61ZM242.16,74.59c-1.29,0-2.59,0-3.88,0-.73,0-.95.2-.87,1a13.06,13.06,0,0,0,5.44,9.53,23.17,23.17,0,0,0,12.91,4.29c5.55.31,10.87-.51,15.59-3.68,4.16-2.8,5.64-6.91,4.55-11.76-.87-3.85-3.49-6.06-6.79-7.65a56.18,56.18,0,0,0-8.84-3.11c-3.12-.91-6.36-1.57-9.17-3.32-3-1.87-3.07-5.39-.19-7.42s6-2.11,9.28-1.29,5.63,2.35,5.95,6c.07.69.53.51.9.51,2.4,0,4.81,0,7.21,0,.83,0,1-.25.89-1A12.23,12.23,0,0,0,268,46.41a23.5,23.5,0,0,0-22.31.2c-5.16,2.69-7.27,7.9-5.64,13,1.08,3.34,3.75,5,6.74,6.29a122,122,0,0,0,12,3.94,23.05,23.05,0,0,1,6.37,2.56,4.63,4.63,0,0,1-.44,8.21,15.22,15.22,0,0,1-9.31,1.32c-3.32-.43-6.76-1.53-7.91-4.92-.9-2.62-2.35-2.58-4.32-2.44C242.9,74.61,242.53,74.59,242.16,74.59Zm-11.82-7.67c0-7,0-14,0-21.05,0-1-.22-1.28-1.21-1.24-2.26.07-4.53,0-6.79,0-.84,0-1.2.12-1.2,1.11q.06,21.12,0,42.23c0,.78.19,1,1,1,2.31-.06,4.62-.08,6.92,0,1,0,1.3-.27,1.29-1.3C230.32,80.77,230.34,73.84,230.34,66.92Zm-4.43-40.43c-3.4-.09-5.92,1.94-6.06,4.89a5.07,5.07,0,0,0,3.88,5.44c3.31.8,6.39-.37,7.5-2.84C232.89,30.31,230.25,26.61,225.91,26.49Z"/><path class="cls-2" d="M109.74,34.09c6.78-4.1,13.23-8.62,18.58-14.54A90.16,90.16,0,0,0,136.5,8.4c1.83-2.79,3.77-5.48,6.9-7,4-1.95,8.14-1.52,12.25-.7,7.28,1.46,13.12,5.52,18.18,10.75,8.7,9,14,19.89,17.17,31.88a5.31,5.31,0,0,1,.1.68A19,19,0,0,0,179,52a54.64,54.64,0,0,1-.14-5.81c0-1-.26-1.4-1.32-1.36-2.12.07-4.25.1-6.37,0-1.25-.06-1.56.34-1.55,1.55,0,7.44,0,14.87,0,22.31,0,6.28,0,12.56,0,18.84,0,1.17.35,1.5,1.49,1.46,2.08-.09,4.16-.1,6.23,0,1.24.06,1.55-.32,1.55-1.54-.06-7.76-.05-15.52,0-23.28a14.7,14.7,0,0,1,1.89-7.28c2.41-4.23,8-6,11.94-5,1.54,10.94.45,21.58-4.28,31.6-8.52,18-22.62,29-42.46,31.8-16.11,2.25-31.13-1.14-44.34-11A44.74,44.74,0,0,1,86.21,83.88a25,25,0,0,0,5.31-9c.35-1.15.07-1.47-1.09-1.45-2.31,0-4.62,0-6.92-.08a32.55,32.55,0,0,1-.32-4.63c2.76,0,5.53-.09,8.29-.08.81,0,1.12-.21,1.14-1.08.15-6.25-1.39-11.92-5.52-16.75,3.46-4.82,8.1-8.23,13.22-11.05,0,2.45.1,4.89.1,7.34q0,20.16,0,40.32c0,1.25.36,1.58,1.56,1.53,2.08-.09,4.16-.1,6.24,0,1.23.06,1.55-.33,1.54-1.55,0-9.38,0-18.75,0-28.13Q109.71,46.7,109.74,34.09Zm30.18,55.37c.83,0,1.66,0,2.49,0a15.51,15.51,0,0,0,1.78-.24c7.56-1.31,13.27-5.13,16.36-12.32a26.08,26.08,0,0,0,1.38-15.59,19.78,19.78,0,0,0-9.79-14.06,24.57,24.57,0,0,0-16.44-2.79,21.07,21.07,0,0,0-11.48,5.35,21.3,21.3,0,0,0-6.7,14.44A24.72,24.72,0,0,0,120,78.31C124.28,86.21,131.28,89.34,139.92,89.46Z"/><path class="cls-3" d="M83.51,73.38c2.3,0,4.61.12,6.92.08,1.16,0,1.44.3,1.09,1.45a25,25,0,0,1-5.31,9A22.56,22.56,0,0,1,75.56,89.1a25.62,25.62,0,0,1-13.5-1A18.93,18.93,0,0,1,50.2,76c-2.43-7.22-2.3-14.41,1.35-21.25,3.39-6.35,9-9.57,16-10.39A23.43,23.43,0,0,1,83.3,47.63a22,22,0,0,1,3.8,3.21c4.13,4.83,5.67,10.5,5.52,16.75,0,.87-.33,1.08-1.14,1.08-2.76,0-5.53,0-8.29.08q-12.45,0-24.9-.1c-.79,0-.62.5-.61.93.17,6.6,3.91,11.07,10.34,12.23s13-1.71,14.64-7.63A1.13,1.13,0,0,1,83.51,73.38ZM70.64,62.3H81.72c1.79,0,1.79,0,1.32-1.71-1.6-5.87-6.28-9.23-12.69-9.11s-10.83,3.65-12.26,9.67c-.22.94-.07,1.18.91,1.17C62.88,62.27,66.76,62.3,70.64,62.3Z"/><path class="cls-3" d="M192.65,51.86c-4-1-9.53.79-11.94,5a14.7,14.7,0,0,0-1.89,7.28c0,7.76,0,15.52,0,23.28,0,1.22-.31,1.6-1.55,1.54-2.07-.1-4.15-.09-6.23,0-1.14,0-1.5-.29-1.49-1.46.06-6.28,0-12.56,0-18.84,0-7.44,0-14.87,0-22.31,0-1.21.3-1.61,1.55-1.55,2.12.1,4.25.07,6.37,0,1.06,0,1.36.35,1.32,1.36A54.64,54.64,0,0,0,179,52a19,19,0,0,1,12.14-8,23.58,23.58,0,0,1,8.25.42c6.56,1.84,10.25,6.32,11.63,12.87a29.65,29.65,0,0,1,.56,6.17q0,12.12,0,24.24c0,1-.23,1.33-1.27,1.29-2.26-.09-4.53-.08-6.79,0-.92,0-1.14-.25-1.13-1.14,0-8,.09-16.07,0-24.11,0-4.2-1.2-8-5-10.47A7.3,7.3,0,0,0,192.65,51.86Z"/><path class="cls-3" d="M38.34,61c-1.25,0-2.5,0-3.74,0-.71,0-1.08-.15-1.26-.87-1.53-6.13-7.43-8.77-13.26-7.89s-9.59,5-10.35,10.94a23.48,23.48,0,0,0,.52,9.44,11.64,11.64,0,0,0,11.94,8.91c5.5-.14,9.43-2.67,10.89-7.29.43-1.35.94-1.77,2.33-1.69,2.3.14,4.62.07,6.92,0,.81,0,1,.15.82,1A19.65,19.65,0,0,1,26.56,89.19c-6,.87-11.87.28-17.13-3.15a19.88,19.88,0,0,1-8.68-13C-.66,66.64-.2,60.35,3.05,54.5,6.49,48.32,12,45.13,18.9,44.33a23.68,23.68,0,0,1,15.2,2.82c5,2.94,7.78,7.41,9.08,13,.2.83-.15.91-.83.89C41,61,39.68,61,38.34,61Z"/><path class="cls-3" d="M242.16,74.59c.37,0,.74,0,1.11,0,2-.14,3.42-.18,4.32,2.44,1.15,3.39,4.59,4.49,7.91,4.92a15.22,15.22,0,0,0,9.31-1.32,4.63,4.63,0,0,0,.44-8.21,23.05,23.05,0,0,0-6.37-2.56,122,122,0,0,1-12-3.94c-3-1.27-5.66-2.95-6.74-6.29-1.63-5.11.48-10.32,5.64-13a23.5,23.5,0,0,1,22.31-.2,12.23,12.23,0,0,1,7.1,10.19c.08.79-.06,1-.89,1-2.4,0-4.81,0-7.21,0-.37,0-.83.18-.9-.51-.32-3.63-2.84-5.19-5.95-6s-6.43-.72-9.28,1.29-2.8,5.55.19,7.42c2.81,1.75,6,2.41,9.17,3.32a56.18,56.18,0,0,1,8.84,3.11c3.3,1.59,5.92,3.8,6.79,7.65,1.09,4.85-.39,9-4.55,11.76-4.72,3.17-10,4-15.59,3.68a23.17,23.17,0,0,1-12.91-4.29,13.06,13.06,0,0,1-5.44-9.53c-.08-.76.14-1,.87-1C239.57,74.62,240.87,74.59,242.16,74.59Z"/><path class="cls-3" d="M109.74,34.09q0,12.6,0,25.21c0,9.38,0,18.75,0,28.13,0,1.22-.31,1.61-1.54,1.55-2.08-.1-4.16-.09-6.24,0-1.2,0-1.56-.28-1.56-1.53q.08-20.16,0-40.32c0-2.45-.06-4.89-.1-7.34a88.84,88.84,0,0,0,.11-8.94c0-1.05.22-1.44,1.35-1.39,2.21.1,4.42.07,6.62,0,.93,0,1.3.18,1.26,1.19A13.14,13.14,0,0,0,109.74,34.09Z"/><path class="cls-3" d="M230.34,66.92c0,6.92,0,13.85,0,20.77,0,1-.24,1.33-1.29,1.3-2.3-.09-4.61-.07-6.92,0-.8,0-1-.23-1-1q0-21.12,0-42.23c0-1,.36-1.12,1.2-1.11,2.26,0,4.53.07,6.79,0,1,0,1.22.28,1.21,1.24C230.32,52.88,230.34,59.9,230.34,66.92Z"/><path class="cls-3" d="M225.91,26.49c4.34.12,7,3.82,5.32,7.49-1.11,2.47-4.19,3.64-7.5,2.84a5.07,5.07,0,0,1-3.88-5.44C220,28.43,222.51,26.4,225.91,26.49Z"/><path class="cls-3" d="M139.92,89.46c-8.64-.12-15.64-3.25-19.88-11.15a24.72,24.72,0,0,1-2.52-14.07,21.3,21.3,0,0,1,6.7-14.44,21.07,21.07,0,0,1,11.48-5.35,24.57,24.57,0,0,1,16.44,2.79,19.78,19.78,0,0,1,9.79,14.06,26.08,26.08,0,0,1-1.38,15.59c-3.09,7.19-8.8,11-16.36,12.32a15.51,15.51,0,0,1-1.78.24C141.58,89.49,140.75,89.46,139.92,89.46Zm13.14-23.34a15.72,15.72,0,0,0-1.15-6,11.9,11.9,0,0,0-10.84-8c-5.32-.37-9.72,1.48-12.37,6.39-2.35,4.36-2.41,9-1.16,13.69a11.6,11.6,0,0,0,9,8.84c4.77,1.1,9.18.25,12.73-3.4C152.18,74.67,153,70.91,153.06,66.12Z"/><path class="cls-1" d="M83.51,73.38a1.13,1.13,0,0,0-.85.8C81,80.1,74.32,83,68,81.81S57.85,76.18,57.68,69.58c0-.43-.18-.93.61-.93q12.45.07,24.9.1A32.55,32.55,0,0,0,83.51,73.38Z"/><path class="cls-1" d="M70.64,62.3c-3.88,0-7.76,0-11.64,0-1,0-1.13-.23-.91-1.17,1.43-6,5.88-9.56,12.26-9.67S81.44,54.72,83,60.59c.47,1.71.47,1.71-1.32,1.71Z"/><path class="cls-2" d="M153.06,66.12c0,4.79-.88,8.55-3.8,11.55-3.55,3.65-8,4.5-12.73,3.4a11.6,11.6,0,0,1-9-8.84c-1.25-4.66-1.19-9.33,1.16-13.69,2.65-4.91,7.05-6.76,12.37-6.39a11.9,11.9,0,0,1,10.84,8A15.72,15.72,0,0,1,153.06,66.12Z"/></g></g></g></svg>