<svg id="Layer_1" data-name="Layer 1" xmlns="http://www.w3.org/2000/svg" viewBox="0 0 79.35 44.19"><defs><style>.cls-1{fill:#414042;}</style></defs><path class="cls-1" d="M76.77,33.36H53.29a2.58,2.58,0,0,1,0-5.15H76.77a2.58,2.58,0,1,1,0,5.15ZM53.29,29.72a1.07,1.07,0,0,0,0,2.13H76.77a1.07,1.07,0,1,0,0-2.13Z"/><path class="cls-1" d="M75.78,36.07H54.29a.75.75,0,0,1-.76-.75V32.61a.76.76,0,0,1,.76-.76H75.78a.75.75,0,0,1,.75.76v2.71A.74.74,0,0,1,75.78,36.07ZM55,34.57H75V33.36H55Z"/><path class="cls-1" d="M60.09,41.6h-3a.76.76,0,0,1-.75-.76V35.32a.75.75,0,0,1,.75-.75h3a.75.75,0,0,1,.75.75v5.52A.76.76,0,0,1,60.09,41.6Zm-2.21-1.51h1.45v-4H57.88Z"/><path class="cls-1" d="M72.94,41.6H70a.75.75,0,0,1-.75-.76V35.32a.74.74,0,0,1,.75-.75h3a.75.75,0,0,1,.76.75v5.52A.76.76,0,0,1,72.94,41.6Zm-2.21-1.51h1.46v-4H70.73Z"/><path class="cls-1" d="M61,29.72a.76.76,0,0,1-.76-.75V27.18a.76.76,0,0,1,1.51,0V29A.76.76,0,0,1,61,29.72Z"/><path class="cls-1" d="M69.1,29.72a.75.75,0,0,1-.75-.75V27.18a.75.75,0,0,1,1.5,0V29A.75.75,0,0,1,69.1,29.72Z"/><path class="cls-1" d="M65,19.16a4.61,4.61,0,0,1-4.49-4.71,4.49,4.49,0,1,1,9,0A4.6,4.6,0,0,1,65,19.16Zm0-7.91a3.1,3.1,0,0,0-3,3.2,3,3,0,1,0,6,0A3.11,3.11,0,0,0,65,11.25Z"/><path class="cls-1" d="M72.87,29.72H57.2a.76.76,0,0,1-.76-.75V24.32A4.32,4.32,0,0,1,60.75,20h8.57a4.31,4.31,0,0,1,4.3,4.31V29A.75.75,0,0,1,72.87,29.72ZM58,28.21H72.12V24.32a2.81,2.81,0,0,0-2.8-2.8H60.75a2.81,2.81,0,0,0-2.8,2.8Z"/><path class="cls-1" d="M21,38.71A17.71,17.71,0,1,1,38.61,19.12a.75.75,0,0,1-.67.83.77.77,0,0,1-.83-.67A16.2,16.2,0,1,0,21,37.2a.76.76,0,0,1,0,1.51Z"/><path class="cls-1" d="M21,42A21,21,0,1,1,42,19.58a.77.77,0,0,1-.71.8.75.75,0,0,1-.8-.7A19.49,19.49,0,1,0,21,40.5l.9,0a.74.74,0,0,1,.79.71A.75.75,0,0,1,22,42C21.65,42,21.33,42,21,42Z"/><path class="cls-1" d="M21,24.63a.74.74,0,0,1-.53-.22l-2.88-2.88a.75.75,0,0,1,0-1.06l2.88-2.88a.75.75,0,0,1,1.06,0l2.88,2.88a.75.75,0,0,1,0,1.06l-2.88,2.88A.73.73,0,0,1,21,24.63ZM19.19,21,21,22.81,22.81,21,21,19.19Z"/><path class="cls-1" d="M21,18.88a.76.76,0,0,1-.75-.75v-6.9a.75.75,0,1,1,1.5,0v6.9A.75.75,0,0,1,21,18.88Z"/><path class="cls-1" d="M22.51,20.38a.73.73,0,0,1-.63-.33A.76.76,0,0,1,22.09,19l9.05-6A.75.75,0,1,1,32,14.25l-9,6A.78.78,0,0,1,22.51,20.38Z"/><path class="cls-1" d="M35.07,44.19H32.38a2,2,0,0,1-2-2V40.87L30,40.7l-.94.94a2,2,0,0,1-2.82,0l-1.9-1.91a2,2,0,0,1,0-2.82l.94-.94c-.07-.13-.12-.27-.18-.41H23.75a2,2,0,0,1-2-2v-2.7a2,2,0,0,1,2-2h1.32l.18-.41-.94-.94a2,2,0,0,1,0-2.82l1.9-1.91a2,2,0,0,1,2.82,0l.94.94.41-.17V22.24a2,2,0,0,1,2-2h2.69a2,2,0,0,1,2,2v1.33l.41.17.94-.94a2,2,0,0,1,2.82,0l1.9,1.91a2,2,0,0,1,0,2.82l-.94.94c.06.13.12.27.17.41H43.7a2,2,0,0,1,2,2v2.7a2,2,0,0,1-2,2H42.37c0,.14-.11.27-.17.41l.94.94a2,2,0,0,1,0,2.82l-1.9,1.91a2,2,0,0,1-2.82,0l-.94-.94-.41.17V42.2A2,2,0,0,1,35.07,44.19ZM29.82,39a.69.69,0,0,1,.34.09,9.28,9.28,0,0,0,1.2.5.75.75,0,0,1,.53.72V42.2a.48.48,0,0,0,.49.48h2.69a.48.48,0,0,0,.49-.48V40.34a.75.75,0,0,1,.52-.72,8.24,8.24,0,0,0,1.2-.5.76.76,0,0,1,.88.13l1.32,1.32a.49.49,0,0,0,.69,0l1.91-1.9a.49.49,0,0,0,0-.69l-1.32-1.32a.76.76,0,0,1-.14-.88,6.79,6.79,0,0,0,.5-1.2.76.76,0,0,1,.72-.53H43.7a.48.48,0,0,0,.49-.48v-2.7a.49.49,0,0,0-.49-.49H41.84a.75.75,0,0,1-.72-.52,6.79,6.79,0,0,0-.5-1.2.76.76,0,0,1,.14-.88l1.32-1.32a.49.49,0,0,0,0-.69l-1.91-1.9a.49.49,0,0,0-.69,0l-1.32,1.31a.73.73,0,0,1-.87.14,8.16,8.16,0,0,0-1.21-.5.75.75,0,0,1-.52-.72V22.24a.49.49,0,0,0-.49-.49H32.38a.49.49,0,0,0-.49.49V24.1a.75.75,0,0,1-.53.72,8.06,8.06,0,0,0-1.2.5.73.73,0,0,1-.87-.14L28,23.87a.49.49,0,0,0-.69,0l-1.91,1.9a.49.49,0,0,0,0,.69l1.32,1.32a.76.76,0,0,1,.14.88,7.71,7.71,0,0,0-.51,1.2.75.75,0,0,1-.71.52H23.75a.49.49,0,0,0-.49.49v2.7a.48.48,0,0,0,.49.48h1.86a.76.76,0,0,1,.71.53,7.71,7.71,0,0,0,.51,1.2.76.76,0,0,1-.14.88L25.37,38a.49.49,0,0,0,0,.69l1.91,1.9a.49.49,0,0,0,.69,0l1.32-1.32A.75.75,0,0,1,29.82,39Z"/><path class="cls-1" d="M33.72,41.49A9.28,9.28,0,1,1,43,32.22,9.28,9.28,0,0,1,33.72,41.49Zm0-17a7.77,7.77,0,1,0,7.77,7.77A7.78,7.78,0,0,0,33.72,24.45Z"/><path class="cls-1" d="M33.72,37.11a4.9,4.9,0,0,1-4.89-4.89.76.76,0,0,1,1.51,0,3.39,3.39,0,1,0,3.38-3.39.75.75,0,0,1,0-1.5,4.89,4.89,0,1,1,0,9.78Z"/></svg>