<svg id="Layer_1" data-name="Layer 1" xmlns="http://www.w3.org/2000/svg" viewBox="0 0 46.38 63.38"><defs><style>.cls-1{stroke:#000;stroke-miterlimit:10;stroke-width:0.49px;}.cls-2{fill:#27aae1;}</style></defs><path class="cls-1" d="M13.05,26.32a.54.54,0,0,1-.39-.17.53.53,0,0,1,0-.76l4.18-4a.53.53,0,0,1,.76,0,.54.54,0,0,1,0,.76l-4.19,4A.53.53,0,0,1,13.05,26.32Z"/><path class="cls-1" d="M13.05,26.32a.54.54,0,0,1-.45-.24L11,23.67a.54.54,0,0,1,.15-.75.54.54,0,0,1,.75.15l1.61,2.41a.55.55,0,0,1-.15.75A.55.55,0,0,1,13.05,26.32Z"/><path class="cls-1" d="M13.05,48a.5.5,0,0,1-.39-.17.53.53,0,0,1,0-.76l4.18-4a.54.54,0,0,1,.75.78l-4.19,4A.53.53,0,0,1,13.05,48Z"/><path class="cls-1" d="M13.05,48a.52.52,0,0,1-.45-.24L11,45.3a.55.55,0,0,1,.15-.75.55.55,0,0,1,.75.15l1.61,2.41a.54.54,0,0,1-.15.75A.55.55,0,0,1,13.05,48Z"/><path class="cls-1" d="M45.59,63.14H.78a.54.54,0,0,1-.54-.54V6.35a.54.54,0,0,1,.54-.54h13a.54.54,0,0,1,.54.54V12.6H32.1V6.35a.54.54,0,0,1,.54-.54h13a.54.54,0,0,1,.54.54V62.6A.54.54,0,0,1,45.59,63.14ZM1.32,62.06H45.05V6.89H33.18v6.25a.54.54,0,0,1-.54.54H13.74a.54.54,0,0,1-.54-.54V6.89H1.32Z"/><path class="cls-1" d="M42.14,58.8H4.24a.54.54,0,0,1-.54-.54V10.69a.54.54,0,0,1,.54-.54h9.5a.54.54,0,0,1,.54.54V12.6H32.1V10.69a.54.54,0,0,1,.54-.54h9.5a.54.54,0,0,1,.54.54V58.26A.54.54,0,0,1,42.14,58.8ZM4.78,57.72H41.6V11.23H33.18v1.91a.54.54,0,0,1-.54.54H13.74a.54.54,0,0,1-.54-.54V11.23H4.78Z"/><path class="cls-1" d="M20.52,29.06H8.91a.54.54,0,0,1-.54-.54v-10A.54.54,0,0,1,8.91,18H20.52a.54.54,0,0,1,.54.54v10A.54.54,0,0,1,20.52,29.06ZM9.45,28H20V19.06H9.45Z"/><path class="cls-1" d="M21.3,51.63H8.14a.54.54,0,0,1-.54-.54V39.76a.54.54,0,0,1,.54-.54H21.3a.54.54,0,0,1,.54.54V51.09A.54.54,0,0,1,21.3,51.63ZM8.68,50.55H20.76V40.3H8.68Z"/><path class="cls-2" d="M38.24,21.2H24.52a.54.54,0,0,1-.54-.54.54.54,0,0,1,.54-.54H38.24a.54.54,0,0,1,.54.54A.54.54,0,0,1,38.24,21.2Z"/><path class="cls-2" d="M32.85,26.16H24.52a.54.54,0,0,1,0-1.08h8.33a.54.54,0,1,1,0,1.08Z"/><path class="cls-2" d="M38.24,43.86H24.52a.54.54,0,0,1,0-1.08H38.24a.54.54,0,0,1,0,1.08Z"/><path class="cls-2" d="M32.85,48.83H24.52a.54.54,0,0,1,0-1.08h8.33a.54.54,0,0,1,0,1.08Z"/><path class="cls-2" d="M32.64,13.68H13.74a.54.54,0,0,1-.54-.54V4.32a.54.54,0,0,1,.54-.54h5a4.53,4.53,0,0,1,8.94,0h5a.54.54,0,0,1,.54.54v8.82A.54.54,0,0,1,32.64,13.68ZM14.28,12.6H32.1V4.86H27.17a.55.55,0,0,1-.54-.51,3.45,3.45,0,0,0-6.89,0,.54.54,0,0,1-.54.51H14.28Z"/><path class="cls-2" d="M23.19,11.54a2.69,2.69,0,1,1,2.69-2.69A2.69,2.69,0,0,1,23.19,11.54Zm0-4.3A1.61,1.61,0,1,0,24.8,8.85,1.61,1.61,0,0,0,23.19,7.24Z"/></svg>