<svg xmlns="http://www.w3.org/2000/svg" viewBox="0 0 118.85 102.93"><defs><style>.cls-1,.cls-3{fill:#353132;}.cls-2{fill:#f6f6f6;}.cls-3{font-size:13.11px;font-family:Gotham-Bold, Gotham;font-weight:700;}</style></defs><title>icon23</title><g id="Capa_2" data-name="Capa 2"><g id="Capa_1-2" data-name="Capa 1"><polygon class="cls-1" points="89.14 0 29.71 0 0 51.47 29.71 102.93 89.14 102.93 118.85 51.47 89.14 0"/><path class="cls-2" d="M95,32.46a7.59,7.59,0,1,1-7.58-7.58A7.59,7.59,0,0,1,95,32.46"/><text class="cls-3" transform="translate(85.28 36.9)">!</text><path class="cls-2" d="M74.88,53.32a.78.78,0,0,1-.78-.78V33.18H42.54a.77.77,0,0,1-.78-.77.78.78,0,0,1,.78-.78H74.88a.77.77,0,0,1,.77.78V52.54a.77.77,0,0,1-.77.78"/><path class="cls-2" d="M72.22,55.19a.78.78,0,0,1-.78-.78V36.29H39.87a.78.78,0,0,1-.77-.78.77.77,0,0,1,.77-.77H72.22a.77.77,0,0,1,.77.77v18.9a.78.78,0,0,1-.77.78"/><path class="cls-2" d="M70.41,76.86H36.35A1.83,1.83,0,0,1,34.52,75V53.79a2.89,2.89,0,0,1,2.89-2.88H55a2.88,2.88,0,0,1,2.88,2.88v2.1H70.41a1.83,1.83,0,0,1,1.83,1.83V75a1.83,1.83,0,0,1-1.83,1.83m-33-24.4a1.34,1.34,0,0,0-1.34,1.33V75a.29.29,0,0,0,.28.28H70.41a.28.28,0,0,0,.28-.28V57.72a.27.27,0,0,0-.28-.28H57.06a.78.78,0,0,1-.78-.78V53.79A1.34,1.34,0,0,0,55,52.46Z"/><path class="cls-2" d="M69.55,57.44H57.06a.78.78,0,0,1-.78-.78V53.79A1.34,1.34,0,0,0,55,52.46H37.29a.81.81,0,0,1-.6-.19.79.79,0,0,1-.25-.58V38.61a.77.77,0,0,1,.77-.77H69.55a.78.78,0,0,1,.78.77v18a.78.78,0,0,1-.78.78M57.83,55.89h11V39.39H38V50.91H55a2.88,2.88,0,0,1,2.88,2.88Z"/><path class="cls-2" d="M65.46,72.17H41.3a.77.77,0,0,1-.77-.77.78.78,0,0,1,.77-.78H65.46a.78.78,0,0,1,.78.78.77.77,0,0,1-.78.77"/></g></g></svg>