<svg id="Layer_1" data-name="Layer 1" xmlns="http://www.w3.org/2000/svg" viewBox="0 0 45.53 47.51"><defs><style>.cls-1{fill:#fff;}</style></defs><path class="cls-1" d="M44.74,34.36H.79a.79.79,0,0,1,0-1.58h44a.79.79,0,0,1,0,1.58Z"/><path class="cls-1" d="M25.64,42.49H19.89a.79.79,0,0,1-.79-.79V37.83a.79.79,0,0,1,.79-.79h5.75a.79.79,0,0,1,.79.79V41.7A.79.79,0,0,1,25.64,42.49Zm-5-1.58h4.17V38.62H20.68Z"/><path class="cls-1" d="M29.66,47.51H15.87a.78.78,0,0,1-.68-.4.8.8,0,0,1,0-.79l2.93-5a.79.79,0,0,1,.68-.39h7.94a.79.79,0,0,1,.68.39l2.92,5a.8.8,0,0,1,0,.79A.78.78,0,0,1,29.66,47.51ZM17.25,45.93h11l-2-3.44h-7Z"/><path class="cls-1" d="M34.55,47.51H11a.79.79,0,0,1,0-1.58H34.55a.79.79,0,0,1,0,1.58Z"/><path class="cls-1" d="M22.77,30.7A15.35,15.35,0,1,1,38.12,15.35,15.36,15.36,0,0,1,22.77,30.7Zm0-29.12A13.77,13.77,0,1,0,36.54,15.35,13.79,13.79,0,0,0,22.77,1.58Z"/><path class="cls-1" d="M42,38.62H3.57A3.57,3.57,0,0,1,0,35.05V10.18A3.58,3.58,0,0,1,3.57,6.6H6.2a.79.79,0,0,1,0,1.58H3.57a2,2,0,0,0-2,2V35.05a2,2,0,0,0,2,2H42a2,2,0,0,0,2-2V10.18a2,2,0,0,0-2-2H39.34a.79.79,0,0,1,0-1.58H42a3.58,3.58,0,0,1,3.57,3.58V35.05A3.57,3.57,0,0,1,42,38.62Z"/><path class="cls-1" d="M22.77,22.63a6.92,6.92,0,0,1,0-13.84,7.42,7.42,0,0,1,.94.06.79.79,0,0,1,.67.89.77.77,0,0,1-.88.67,6,6,0,0,0-.73-.05,5.33,5.33,0,1,0,4.92,3.26A.79.79,0,0,1,29.14,13a6.93,6.93,0,0,1-6.37,9.63Z"/><path class="cls-1" d="M22.69,18.75a.8.8,0,0,1-.73-.48l-3.19-7.44a.79.79,0,0,1,1.45-.62l2.36,5.51c.86-2.26,2.61-5.79,5.63-7.54a.79.79,0,0,1,1.08.29A.81.81,0,0,1,29,9.55c-4,2.3-5.53,8.53-5.55,8.6a.79.79,0,0,1-.7.6Z"/></svg>