<svg xmlns="http://www.w3.org/2000/svg" viewBox="0 0 210.35 182.17"><defs><style>.cls-1{fill:#332d2f;}.cls-2{fill:#f5f5f5;}</style></defs><g id="Capa_2" data-name="Capa 2"><g id="Capa_1-2" data-name="Capa 1"><polygon class="cls-1" points="157.76 0 52.59 0 0 91.08 52.59 182.16 157.76 182.16 210.35 91.08 157.76 0"/><path class="cls-2" d="M80.25,54a1.53,1.53,0,0,1-1.53-1.53V50.3a8.37,8.37,0,0,1,8.36-8.36H124a8.37,8.37,0,0,1,8.36,8.36v1.86a1.53,1.53,0,1,1-3.06,0V50.3A5.3,5.3,0,0,0,124,45H87.08a5.29,5.29,0,0,0-5.29,5.29v2.21A1.53,1.53,0,0,1,80.25,54Z"/><path class="cls-2" d="M124,140.23H87.08a8.37,8.37,0,0,1-8.36-8.36V113.45a1.54,1.54,0,0,1,3.07,0v18.42a5.29,5.29,0,0,0,5.29,5.29H124a5.3,5.3,0,0,0,5.3-5.29V115.16a1.53,1.53,0,1,1,3.06,0v16.71A8.37,8.37,0,0,1,124,140.23Z"/><path class="cls-2" d="M130.8,126.15H80.25a1.54,1.54,0,0,1,0-3.07H130.8a1.54,1.54,0,0,1,0,3.07Z"/><path class="cls-2" d="M109.21,132.87h-7.36a1.54,1.54,0,1,1,0-3.07h7.36a1.54,1.54,0,0,1,0,3.07Z"/><path class="cls-2" d="M106.08,51.29H105a1.54,1.54,0,0,1,0-3.07h1.11a1.54,1.54,0,0,1,0,3.07Z"/><path class="cls-2" d="M129,88.63a1.53,1.53,0,0,1-1.54-1.53V84.48a8,8,0,0,1-6.76-7.85V64.34a8,8,0,0,1,7.94-7.94h20.86a8,8,0,0,1,7.94,7.94V76.63a8,8,0,0,1-7.94,7.94H135l-5.09,3.76A1.53,1.53,0,0,1,129,88.63Zm-.36-29.16a4.87,4.87,0,0,0-4.87,4.87V76.63a4.87,4.87,0,0,0,4.87,4.87H129A1.54,1.54,0,0,1,130.5,83v1l3.05-2.25a1.52,1.52,0,0,1,.91-.31h15a4.88,4.88,0,0,0,4.88-4.87V64.34a4.88,4.88,0,0,0-4.88-4.87Z"/><path class="cls-2" d="M148,68.76H130.16a1.54,1.54,0,0,1,0-3.07H148a1.54,1.54,0,0,1,0,3.07Z"/><path class="cls-2" d="M140.09,75.79h-9.93a1.54,1.54,0,0,1,0-3.07h9.93a1.54,1.54,0,1,1,0,3.07Z"/><path class="cls-2" d="M117.75,115a1.52,1.52,0,0,1-1.53-1.53v-2.62a8,8,0,0,1-6.76-7.85V89.5a8,8,0,0,1,7.94-7.94,1.54,1.54,0,0,1,0,3.07,4.88,4.88,0,0,0-4.88,4.87V103a4.88,4.88,0,0,0,4.88,4.87h.36a1.54,1.54,0,0,1,1.53,1.54v1l3-2.25a1.49,1.49,0,0,1,.91-.31h15a4.88,4.88,0,0,0,4.88-4.87V88.79a1.53,1.53,0,0,1,3.06,0V103a8,8,0,0,1-7.94,7.94h-14.5l-5.09,3.76A1.53,1.53,0,0,1,117.75,115Z"/><path class="cls-2" d="M136.79,95.11H119A1.54,1.54,0,1,1,119,92h17.84a1.54,1.54,0,1,1,0,3.07Z"/><path class="cls-2" d="M128.88,102.14H119a1.54,1.54,0,1,1,0-3.07h9.93a1.54,1.54,0,0,1,0,3.07Z"/><path class="cls-2" d="M83.38,88.63a1.53,1.53,0,0,1-.91-.3l-5.09-3.76H62.87a8,8,0,0,1-7.94-7.94V64.34a8,8,0,0,1,7.94-7.94H83.74a8,8,0,0,1,7.94,7.94V76.63a8,8,0,0,1-6.77,7.85V87.1a1.52,1.52,0,0,1-.84,1.37A1.55,1.55,0,0,1,83.38,88.63ZM62.87,59.47A4.87,4.87,0,0,0,58,64.34V76.63a4.87,4.87,0,0,0,4.87,4.87h15a1.49,1.49,0,0,1,.91.31l3.06,2.25V83a1.53,1.53,0,0,1,1.53-1.54h.36a4.88,4.88,0,0,0,4.87-4.87V64.34a4.88,4.88,0,0,0-4.87-4.87Z"/><path class="cls-2" d="M82.19,68.76H64.34a1.54,1.54,0,0,1,0-3.07H82.19a1.54,1.54,0,0,1,0,3.07Z"/><path class="cls-2" d="M74.27,75.79H64.34a1.54,1.54,0,0,1,0-3.07h9.93a1.54,1.54,0,1,1,0,3.07Z"/><path class="cls-2" d="M94.59,115a1.53,1.53,0,0,1-.91-.3l-5.09-3.76H74.09a8,8,0,0,1-8-7.94V88.79a1.54,1.54,0,0,1,3.07,0V103a4.88,4.88,0,0,0,4.88,4.87h15a1.54,1.54,0,0,1,.91.31l3,2.25v-1a1.53,1.53,0,0,1,1.53-1.54H95A4.87,4.87,0,0,0,99.82,103V89.5A4.88,4.88,0,0,0,95,84.63a1.54,1.54,0,0,1,0-3.07,8,8,0,0,1,7.94,7.94V103a8,8,0,0,1-6.77,7.85v2.62A1.52,1.52,0,0,1,94.59,115Z"/><path class="cls-2" d="M93.4,95.11H75.55a1.54,1.54,0,0,1,0-3.07H93.4a1.54,1.54,0,0,1,0,3.07Z"/><path class="cls-2" d="M85.49,102.14H75.55a1.54,1.54,0,0,1,0-3.07h9.94a1.54,1.54,0,0,1,0,3.07Z"/></g></g></svg>