<svg id="Layer_1" data-name="Layer 1" xmlns="http://www.w3.org/2000/svg" viewBox="0 0 36.26 60.64"><defs><style>.cls-1{fill:#27aae1;}</style></defs><path d="M31.23,60.64H5a5,5,0,0,1-5-5V5A5,5,0,0,1,5,0H31.23a5,5,0,0,1,5,5V55.6A5,5,0,0,1,31.23,60.64ZM5,2A3,3,0,0,0,2,5V55.6a3,3,0,0,0,3,3H31.23a3,3,0,0,0,3-3V5a3,3,0,0,0-3-3Z"/><path d="M25.58,7.45H10.68A2.62,2.62,0,0,1,8.06,4.83V1a1,1,0,0,1,1-1H27.2a1,1,0,0,1,1,1V4.83A2.62,2.62,0,0,1,25.58,7.45ZM10.07,2V4.83a.61.61,0,0,0,.61.61h14.9a.61.61,0,0,0,.61-.61V2Z"/><path d="M18.13,40.63A14.44,14.44,0,1,1,32.57,26.19,14.46,14.46,0,0,1,18.13,40.63Zm0-26.86A12.42,12.42,0,1,0,30.55,26.19,12.43,12.43,0,0,0,18.13,13.77Z"/><path d="M18.13,32.84a40.11,40.11,0,0,1-13.25-2,1,1,0,0,1-.61-.66,14.08,14.08,0,0,1,0-8,1,1,0,0,1,.61-.67,40.13,40.13,0,0,1,13.25-2,40.13,40.13,0,0,1,13.25,2,1,1,0,0,1,.62.67,14.32,14.32,0,0,1,0,8,1,1,0,0,1-.62.66A40.11,40.11,0,0,1,18.13,32.84ZM6.07,29.14a39.31,39.31,0,0,0,12.06,1.68,39.31,39.31,0,0,0,12.06-1.68,12.27,12.27,0,0,0,0-5.9,39.31,39.31,0,0,0-12.06-1.68A39.31,39.31,0,0,0,6.07,23.24a12.27,12.27,0,0,0,0,5.9Z"/><path d="M18.13,40.63a14.49,14.49,0,0,1-4-.58,1,1,0,0,1-.66-.61,40.11,40.11,0,0,1-2-13.25,40.11,40.11,0,0,1,2-13.25,1,1,0,0,1,.66-.62,14.32,14.32,0,0,1,8,0,1,1,0,0,1,.67.62,40.13,40.13,0,0,1,2,13.25,40.13,40.13,0,0,1-2,13.25,1,1,0,0,1-.67.61A14.49,14.49,0,0,1,18.13,40.63Zm-2.95-2.38a12.27,12.27,0,0,0,5.9,0,39.31,39.31,0,0,0,1.68-12.06,39.31,39.31,0,0,0-1.68-12.06,12.27,12.27,0,0,0-5.9,0A39.31,39.31,0,0,0,13.5,26.19,39.31,39.31,0,0,0,15.18,38.25Z"/><path d="M27,53.92H9.27a1,1,0,1,1,0-2H27a1,1,0,1,1,0,2Z"/><path d="M25.53,55.61A1,1,0,0,1,24.77,54l.89-1-.89-1a1,1,0,1,1,1.53-1.31l1.46,1.69a1,1,0,0,1,0,1.31L26.3,55.26A1,1,0,0,1,25.53,55.61Z"/><path class="cls-1" d="M27,46.67H9.27a1,1,0,1,1,0-2H27a1,1,0,1,1,0,2Z"/><path class="cls-1" d="M10.73,48.36A1,1,0,0,1,10,48L8.5,46.32A1,1,0,0,1,8.5,45L10,43.31a1,1,0,0,1,1.52,1.32l-.89,1,.89,1a1,1,0,0,1-.1,1.42A1,1,0,0,1,10.73,48.36Z"/></svg>