<?xml version="1.0" encoding="utf-8"?>
<!-- Generator: Adobe Illustrator 25.0.1, SVG Export Plug-In . SVG Version: 6.00 Build 0)  -->
<svg version="1.1" id="Layer_1" xmlns="http://www.w3.org/2000/svg" xmlns:xlink="http://www.w3.org/1999/xlink" x="0px" y="0px"
	 viewBox="0 0 140 130" style="enable-background:new 0 0 140 130;" xml:space="preserve">
<style type="text/css">
	.st0{fill:#332D2F;}
	.st1{fill:none;stroke:#FFFFFF;stroke-miterlimit:10;}
</style>
<g>
	<g>
		<polygon class="st0" points="101.81,9.9 38.19,9.9 6.38,65 38.19,120.1 101.81,120.1 133.62,65 		"/>
	</g>
	<g id="iTJXsM_1_">
		<g>
			<path class="st1" d="M91.73,65.93c-1.32-0.01-2.26-0.62-2.82-1.81c-0.37-0.79-0.52-0.82-1.17-0.2c-0.94,0.9-1.89,1.8-2.83,2.69
				c-0.55,0.52-0.81,0.54-1.33,0.01c-0.92-0.95-1.84-1.91-2.74-2.88c-0.61-0.66-0.5-1.02,0.34-1.33c2.07-0.76,2.87-2.97,1.72-4.71
				c-1.29-1.94-4.14-1.77-5.28,0.31c-0.8,1.47-0.81,1.47-2.01,0.24c-0.78-0.8-1.53-1.64-2.32-2.43c-0.43-0.43-0.45-0.79,0.01-1.21
				c0.97-0.9,1.93-1.82,2.88-2.75c0.62-0.6,0.58-0.79-0.17-1.21c-1.2-0.67-1.86-1.92-1.65-3.13c0.27-1.52,1.33-2.63,2.76-2.87
				c1.28-0.22,2.57,0.46,3.24,1.7c0.06,0.12,0.12,0.25,0.17,0.37c0.19,0.49,0.47,0.51,0.82,0.16c0.95-0.92,1.91-1.84,2.86-2.76
				c0.7-0.68,0.89-0.69,1.57,0c0.83,0.85,1.63,1.73,2.46,2.58c0.65,0.67,0.87,0.64,1.3-0.2c0.61-1.2,1.62-1.82,2.92-1.84
				c1.2-0.02,2.14,0.59,2.76,1.64c0.96,1.62,0.26,3.65-1.56,4.55c-0.85,0.42-0.89,0.58-0.23,1.28c0.84,0.9,1.7,1.79,2.57,2.67
				c0.47,0.48,0.44,0.88-0.06,1.33c-0.99,0.91-1.96,1.85-2.93,2.79c-0.51,0.5-0.47,0.66,0.18,0.98c1.31,0.64,2.08,2.14,1.77,3.45
				C94.6,64.88,93.29,65.92,91.73,65.93z"/>
			<path class="st1" d="M68.36,83.96c0-0.73,0-1.46,0-2.2c0-0.46-0.2-0.6-0.65-0.53c-0.4,0.07-0.82,0.09-1.23,0.08
				c-1.63-0.06-2.85-1.41-2.78-3.05c0.08-1.71,1.45-3,3.1-2.91c1.82,0.09,1.54,0.14,1.56-1.47c0.01-1.05,0-2.11,0.01-3.16
				c0-0.86,0.12-0.97,1.01-0.98c1.14-0.01,2.29,0,3.43,0c1.01,0,1.14-0.17,0.85-1.13c-0.38-1.3-0.14-2.47,0.85-3.4
				c0.96-0.91,2.13-1.16,3.37-0.69c1.27,0.48,1.95,1.47,2.09,2.82c0.06,0.54-0.08,1.04-0.25,1.54c-0.22,0.64-0.08,0.85,0.59,0.86
				c1.26,0.02,2.52,0,3.78,0.01c0.88,0.01,1.05,0.18,1.05,1.05c0,1.3-0.01,2.61,0,3.91c0,0.74,0.12,0.82,0.8,0.59
				c1.35-0.46,2.91-0.06,3.62,0.92c0.88,1.22,0.88,2.93,0.01,4.12c-0.84,1.14-2.16,1.52-3.61,1.05c-0.73-0.24-0.82-0.18-0.83,0.62
				c-0.01,1.28,0,2.56-0.01,3.85c-0.01,0.93-0.18,1.1-1.07,1.1c-1.33,0-2.66,0.01-3.98-0.01c-0.87-0.01-1.06-0.33-0.72-1.13
				c0.89-2.07,0.03-4.03-1.99-4.52c-1.09-0.26-2.09,0.02-2.83,0.82c-0.84,0.9-0.99,2.03-0.66,3.21c0.06,0.22,0.18,0.42,0.27,0.63
				c0.21,0.55,0.02,0.94-0.58,0.95c-1.51,0.04-3.02,0.02-4.53,0.01c-0.44,0-0.66-0.26-0.66-0.71
				C68.37,85.47,68.37,84.71,68.36,83.96C68.37,83.96,68.37,83.96,68.36,83.96z"/>
			<path class="st1" d="M54,69.65c-0.66,0-1.33-0.04-1.99,0.01c-0.45,0.03-0.56-0.14-0.56-0.54c0.01-1.33,0.01-2.65,0-3.98
				c0-0.72-0.13-0.8-0.82-0.6c-1.58,0.46-2.9,0.02-3.74-1.24c-0.77-1.14-0.7-2.87,0.17-4c0.68-0.9,2.26-1.3,3.51-0.89
				c0.82,0.27,0.88,0.23,0.89-0.66c0.01-1.28,0-2.56,0.01-3.84c0.01-0.8,0.22-1.02,1.03-1.03c1.24-0.01,2.47,0,3.71,0
				c0.84,0,0.93-0.15,0.66-0.93c-0.65-1.9,0.34-3.84,2.22-4.34c1.85-0.49,3.64,0.68,4.02,2.64c0.12,0.63-0.02,1.22-0.22,1.81
				c-0.22,0.64-0.01,0.89,0.66,0.88c1.21-0.02,2.42-0.06,3.64-0.03c1,0.03,1.16,0.28,1.12,1.28c-0.04,1.28-0.03,2.56-0.04,3.84
				c0,0.56,0.27,0.67,0.75,0.5c0.56-0.2,1.13-0.31,1.75-0.2c2.29,0.4,2.88,2.45,2.5,4.08c-0.43,1.82-2.32,2.8-4.13,2.19
				c-0.75-0.25-0.88-0.17-0.88,0.65c-0.01,1.28-0.01,2.56,0,3.84c0,0.42-0.1,0.6-0.59,0.58c-1.33-0.05-2.65-0.02-3.98-0.03
				c-0.81-0.01-0.9-0.14-0.66-0.88c0.45-1.4,0.16-2.63-0.9-3.64c-1-0.95-2.21-1.19-3.5-0.69c-1.34,0.53-2,1.61-2.17,3.01
				c-0.05,0.46,0.08,0.91,0.22,1.34c0.23,0.7,0.13,0.84-0.63,0.86c-0.69,0.01-1.37,0-2.06,0C54,69.64,54,69.64,54,69.65z"/>
			<path class="st1" d="M51.74,83.77c0-0.64,0.01-1.28,0-1.92c-0.01-0.89-0.26-1.1-1.1-0.78c-1.67,0.64-3.09-0.29-3.65-1.33
				c-0.57-1.07-0.42-2.66,0.36-3.56c0.68-0.79,2.04-1.09,3.17-0.71c1,0.34,1.21,0.19,1.22-0.9c0-1.26,0.02-2.52-0.01-3.78
				c-0.02-0.63,0.26-0.88,0.85-0.88c1.19,0,2.38,0,3.57-0.01c1.1-0.01,1.3-0.28,0.95-1.33c-0.44-1.33,0.01-2.75,1.13-3.54
				c1.01-0.71,2.46-0.68,3.47,0.08c1.05,0.79,1.45,2.22,0.98,3.52c-0.34,0.95-0.13,1.26,0.89,1.27c1.1,0.01,2.2,0,3.3,0
				c1.13,0,1.23,0.1,1.23,1.2c0,0.96,0,1.92,0,2.88c0,0.87-0.07,0.96-1.02,0.89c-1.1-0.07-2.02,0.25-2.77,1.07
				c-1.04,1.13-1.1,2.43-0.6,3.78c0.46,1.23,1.64,1.94,3.04,1.94c1.35,0,1.35,0,1.35,1.33c0,0.92-0.01,1.83,0,2.75
				c0.01,0.64-0.22,0.96-0.93,0.93c-1.23-0.04-2.47-0.01-3.71-0.02c-0.85-0.01-0.94-0.14-0.6-0.92c0.86-2.01-0.09-4.13-2.13-4.71
				c-1.87-0.53-3.8,0.76-4,2.7c-0.08,0.76-0.06,1.51,0.32,2.21c0.28,0.51,0.06,0.72-0.47,0.73c-1.37,0-2.75,0-4.12,0.01
				c-0.49,0-0.71-0.21-0.71-0.7C51.76,85.24,51.75,84.51,51.74,83.77C51.75,83.77,51.74,83.77,51.74,83.77z"/>
		</g>
	</g>
</g>
</svg>
