<?xml version="1.0" encoding="utf-8"?>
<!-- Generator: Adobe Illustrator 25.0.1, SVG Export Plug-In . SVG Version: 6.00 Build 0)  -->
<svg version="1.1" id="Layer_1" xmlns="http://www.w3.org/2000/svg" xmlns:xlink="http://www.w3.org/1999/xlink" x="0px" y="0px"
	 viewBox="0 0 140 130" style="enable-background:new 0 0 140 130;" xml:space="preserve">
<style type="text/css">
	.st0{fill:#332D2F;}
	.st1{fill:#FFFFFF;}
</style>
<g>
	<g>
		<polygon class="st0" points="101.81,9.9 38.19,9.9 6.38,65 38.19,120.1 101.81,120.1 133.62,65 		"/>
	</g>
	<g id="rE4sDa_1_">
		<g>
			<path class="st1" d="M82.7,47.64c-0.4,1.06-0.07,2.03,0.78,3.15c1.32,1.71,1.45,4-0.09,5.43c-3.23,2.99-3.43,7.89-7.25,10.55
				c-1.58,1.1,0.16,5.16,2.7,6.38c1.84,0.88,3.9,1.33,5.86,1.95c2.75,0.86,4.82,2.4,5.38,5.4c0.12,0.65,0.43,1.55-0.71,1.67
				c-0.81,0.08-0.97-0.51-1.07-1.19c-0.33-2.39-2.05-3.3-4.1-4.12c-4.16-1.66-8.06-2.09-11.61,1.3c-1.82,1.74-3.64,1.55-5.46-0.03
				c-0.15-0.13-0.37-0.2-0.51-0.34c-4.1-4.03-8.34-1.79-12.51-0.21c-1.59,0.6-2.29,2.02-2.48,3.67c-0.09,0.8-0.54,1.08-1.27,0.88
				c-0.66-0.18-0.61-0.76-0.53-1.27c0.44-2.54,1.78-4.4,4.27-5.26c1.95-0.67,3.98-1.12,5.91-1.86c4.45-1.72,5.28-5.27,2.14-8.72
				c-1.19-1.31-2.15-2.79-2.78-4.45c-0.58-1.53-1.17-2.9-2.55-4.07c-1.64-1.4-1.72-3.72-0.47-5.4c1.05-1.41,1.14-2.55,0.88-4.15
				c-0.81-5.01,0.96-8.59,5.01-10.67c4.15-2.13,9.54-1.56,12.8,1.35c0.52,0.46,0.83,1.08,1.63,1.33
				C81.49,40.46,83.04,42.67,82.7,47.64z M69.93,66.95c4.25,0,8.1-3.5,9.66-8.73c0.29-0.99,0.02-2.19,1.64-2.59
				c1.39-0.34,1.58-1.75,1.19-3.07c-0.31-1.04-0.99-1.47-2.12-1.21c-1.3,0.3-2.36,0.67-2.26,2.36c0.07,1.05,0.35,2.69-1.48,2.28
				c-1.81-0.41-4.53,1.68-5.36-1.79c-0.17-0.71,0.02-1.84-1.13-1.95c-1.4-0.13-1.32,1.14-1.49,1.94c-0.7,3.39-3.32,1.41-5.04,1.8
				c-1.83,0.42-2-0.94-1.85-2.3c0.17-1.46-0.64-2-1.9-2.3c-1.07-0.25-1.8-0.07-2.2,1.04c-0.44,1.22-0.28,2.7,0.76,2.99
				c1.77,0.49,1.71,1.74,2.08,2.98C61.95,63.44,65.88,66.94,69.93,66.95z M70,50.28c0,0.01,0,0.02,0,0.03
				c2.48,0,4.96,0.07,7.44-0.03c1.48-0.06,2.22-0.64,1.48-2.38c-1.14-2.67-2.8-4.21-5.88-4c-2.06,0.14-4.14,0.14-6.21,0
				c-3.09-0.2-4.78,1.32-5.82,4.05c-0.55,1.43-0.28,2.24,1.26,2.29C64.84,50.34,67.42,50.28,70,50.28z M59.23,47.79
				c1.77-5,5-5.93,8.92-5.67c1.65,0.11,3.32,0.08,4.97-0.01c0.72-0.04,1.81,0.59,2.12-0.54c0.22-0.83-0.49-1.53-1.02-2.16
				c-2.22-2.66-6.85-3.44-10.61-1.82C59.87,39.19,58.41,42.13,59.23,47.79z M67.89,68.41c-0.92-0.11-4.24,3.96-3.83,4.97
				c0.94,2.32,3.61,2.72,5.49,4.01c0.59,0.4,6.6-3.2,6.38-3.73c-0.69-1.68-1.16-3.78-2.18-4.9C72.37,67.25,69.72,69.66,67.89,68.41z
				 M80.63,46.97c0.27-2.72-0.1-5.11-3.26-6.19C77.2,43.69,79.94,44.79,80.63,46.97z M74.43,52.19c-0.42,0.27-1.6-0.48-1.6,0.93
				c0,1.1,0.8,1.28,1.69,1.24c0.77-0.04,1.75,0.21,1.81-1.03C76.38,52.09,75.45,52.2,74.43,52.19z M65.36,52.17
				c-0.75,0.14-1.79-0.28-1.86,1.02c-0.07,1.24,0.82,1.17,1.66,1.18c0.87,0.01,1.71-0.09,1.84-1.14
				C67.18,51.79,66.01,52.34,65.36,52.17z"/>
		</g>
	</g>
</g>
</svg>
