<?xml version="1.0" encoding="utf-8"?>
<!-- Generator: Adobe Illustrator 25.0.1, SVG Export Plug-In . SVG Version: 6.00 Build 0)  -->
<svg version="1.1" id="Layer_1" xmlns="http://www.w3.org/2000/svg" xmlns:xlink="http://www.w3.org/1999/xlink" x="0px" y="0px"
	 viewBox="0 0 180 150" style="enable-background:new 0 0 180 150;" xml:space="preserve">
<style type="text/css">
	.st0{fill:#332D2F;}
	.st1{fill:none;}
	.st2{enable-background:new    ;}
	.st3{fill:#FFFFFF;}
</style>
<polygon class="st0" points="130.41,5 49.59,5 9.18,75 49.59,145 130.41,145 170.82,75 "/>
<polygon class="st1" points="44.09,122.33 44.09,108.52 141.98,108.52 141.98,122.28 "/>
<g class="st2">
	<path class="st3" d="M56.89,108.92h1.54l5.08,6.55v-6.55h1.64v9.47h-1.39l-5.22-6.74v6.74h-1.64V108.92z"/>
	<path class="st3" d="M67.58,108.92h7.02v1.49h-5.36v2.46h4.75v1.49h-4.75v2.54h5.43v1.49h-7.09V108.92z"/>
	<path class="st3" d="M78.97,110.47h-3v-1.54h7.69v1.54h-3v7.93h-1.68V110.47z"/>
	<path class="st3" d="M84.69,108.92h1.8l2.26,7.02l2.33-7.05h1.41l2.33,7.05l2.26-7.02h1.75l-3.3,9.54h-1.43l-2.33-6.81l-2.33,6.81
		h-1.43L84.69,108.92z"/>
	<path class="st3" d="M99.59,113.69v-0.03c0-2.67,2.06-4.9,4.97-4.9s4.94,2.21,4.94,4.87v0.03c0,2.67-2.06,4.9-4.97,4.9
		S99.59,116.36,99.59,113.69z M107.75,113.69v-0.03c0-1.84-1.34-3.37-3.22-3.37c-1.88,0-3.19,1.5-3.19,3.34v0.03
		c0,1.84,1.34,3.37,3.22,3.37C106.44,117.03,107.75,115.53,107.75,113.69z"/>
	<path class="st3" d="M111.51,108.92h4.22c1.19,0,2.13,0.35,2.73,0.95c0.5,0.51,0.79,1.22,0.79,2.04v0.03
		c0,1.56-0.93,2.49-2.26,2.87l2.56,3.59h-1.96l-2.33-3.3h-2.08v3.3h-1.66V108.92z M115.62,113.62c1.19,0,1.95-0.62,1.95-1.58v-0.03
		c0-1.01-0.73-1.57-1.96-1.57h-2.42v3.18H115.62z"/>
	<path class="st3" d="M121.3,108.92h1.66v4.76l4.51-4.76h2.04l-3.94,4.07l4.11,5.4h-2.02l-3.23-4.26l-1.48,1.52v2.75h-1.66V108.92z"
		/>
</g>
<path class="st3" d="M104.18,47.71c-1.11-0.48-2.25-0.88-3.42-1.22c-0.97-0.28-1.96-0.5-2.97-0.68c-0.52-0.09-1.04-0.16-1.57-0.22
	c-0.29-0.03-0.58-0.06-0.87-0.08s-0.58-0.05-0.87-0.07c-0.22-0.01-0.44-0.01-0.66-0.02c-0.01,0-0.02,0-0.03,0l0,0
	c-0.25-0.01-0.5-0.02-0.76-0.02l0,0c-0.25,0-0.5,0.01-0.76,0.02c-15.17,0.4-27.39,12.86-27.39,28.13s12.22,27.72,27.39,28.13
	l3.94-0.17c0.53-0.06,1.05-0.14,1.57-0.22c1.01-0.17,2-0.4,2.97-0.68c1.17-0.34,2.32-0.74,3.42-1.22c9.99-4.33,17-14.28,17-25.84
	C121.18,61.99,114.17,52.04,104.18,47.71z M92.06,48.14c0,0.23,0,0.48,0,0.76c0,4.31,0,13.73,0,24.66s0,20.35,0,24.66
	c0,0.27,0,0.53,0,0.76c0,0.29,0,0.54,0,0.76c-0.25-0.01-0.5-0.02-0.76-0.04c-0.25-0.02-0.5-0.03-0.76-0.06
	c-13.28-1.26-23.71-12.47-23.71-26.07S77.26,48.75,90.54,47.5c0.25-0.02,0.5-0.04,0.76-0.06c0.25-0.02,0.5-0.03,0.76-0.04
	C92.06,47.6,92.06,47.85,92.06,48.14z M96.35,97.8c-0.07,0.08-0.14,0.16-0.21,0.24c-0.2,0.23-0.41,0.44-0.62,0.62
	c-0.05,0.04-0.09,0.08-0.14,0.12c-0.2,0.04-0.41,0.07-0.62,0.1c-0.25,0.03-0.5,0.06-0.76,0.08v-0.19v-0.56V98.2v-0.28V49.2v-0.29
	V48.9v-0.55v-0.19v-0.01v-0.52l1.51,0.74v0.1c0.21,0.18,0.41,0.39,0.62,0.62c0.07,0.08,0.14,0.16,0.21,0.24
	c1.05,1.25,2.03,3.06,2.88,5.37c1.86,5.03,2.89,11.73,2.89,18.87C102.13,84.18,99.66,93.8,96.35,97.8z M102.42,96.38
	c-0.56,0.43-1.13,0.82-1.72,1.18c-0.32,0.19-0.65,0.37-0.98,0.54c-0.09,0.03-0.19,0.06-0.28,0.08c-0.37,0.1-0.74,0.18-1.12,0.26
	c0.17-0.24,0.34-0.48,0.51-0.74c0.04-0.06,0.08-0.12,0.11-0.18c0.2-0.33,0.4-0.67,0.6-1.02c2.92-5.4,4.54-14.26,4.54-22.94
	s-1.63-17.54-4.54-22.94c-0.19-0.36-0.39-0.7-0.6-1.02c-0.04-0.06-0.08-0.12-0.11-0.18c-0.17-0.26-0.34-0.51-0.51-0.74
	c0.38,0.08,0.75,0.17,1.12,0.26c0.09,0.02,0.19,0.05,0.28,0.08c0.33,0.17,0.66,0.35,0.98,0.54c0.59,0.35,1.17,0.74,1.72,1.18
	c5.83,4.5,9.77,13.04,9.77,22.83C112.19,83.34,108.24,91.89,102.42,96.38z M109.51,93.9c-0.73,0.59-1.49,1.14-2.28,1.65
	s-1.61,0.98-2.46,1.41c0.68-0.61,1.33-1.27,1.96-1.99c0.45-0.52,0.89-1.05,1.31-1.62c0.12-0.16,0.23-0.33,0.35-0.49
	c3.7-5.24,5.74-12.06,5.74-19.3s-2.04-14.06-5.74-19.3c-0.12-0.16-0.23-0.33-0.35-0.5c-0.42-0.57-0.86-1.11-1.31-1.63
	c-0.54-0.62-1.11-1.19-1.69-1.73c0.63,0.34,1.36,0.72,2.19,1.15c0.79,0.51,1.55,1.06,2.28,1.65c5.93,4.81,9.72,12.14,9.72,20.35
	S115.44,89.1,109.51,93.9z"/>
</svg>
