<?xml version="1.0" encoding="utf-8"?>
<!-- Generator: Adobe Illustrator 25.0.1, SVG Export Plug-In . SVG Version: 6.00 Build 0)  -->
<svg version="1.1" id="Layer_1" xmlns="http://www.w3.org/2000/svg" xmlns:xlink="http://www.w3.org/1999/xlink" x="0px" y="0px"
	 viewBox="0 0 130 112.58" style="enable-background:new 0 0 130 112.58;" xml:space="preserve">
<style type="text/css">
	.st0{fill:#342D2F;}
	.st1{fill:#E6312B;}
	.st2{fill:#FFFFFF;}
</style>
<g>
	<g>
		<polygon class="st0" points="96.81,1.19 33.19,1.19 1.38,56.29 33.19,111.39 96.81,111.39 128.62,56.29 		"/>
	</g>
</g>
<g>
	<g>
		<path class="st1" d="M79.72,66.09c-0.15,0-0.3-0.04-0.44-0.11c-0.44-0.24-0.6-0.8-0.35-1.24c1.12-2.02,3.66-3.99,5.59-4.9
			c0.46-0.21,1-0.02,1.21,0.44c0.21,0.46,0.02,1-0.44,1.21c-1.62,0.76-3.84,2.46-4.77,4.13C80.35,65.92,80.04,66.09,79.72,66.09z"/>
		<path class="st1" d="M88.11,63.99c-1.75,0-3.39-1.09-4-2.83l-5.2-14.73c-0.78-2.21,0.38-4.63,2.59-5.41l0.23-0.08
			c1.08-0.38,2.24-0.31,3.27,0.19c1.03,0.5,1.8,1.38,2.16,2.47l4.96,14.82c0.73,2.18-0.44,4.58-2.61,5.35
			C89.05,63.92,88.58,63.99,88.11,63.99z M83.15,42.52c-0.27,0-0.54,0.05-0.81,0.14l-0.24,0.08c-1.26,0.44-1.92,1.83-1.48,3.09
			l5.2,14.73c0.44,1.26,1.83,1.92,3.09,1.48c1.24-0.44,1.91-1.8,1.49-3.05l-4.96-14.82c-0.21-0.62-0.64-1.12-1.23-1.41
			C83.87,42.6,83.51,42.52,83.15,42.52z"/>
		<path class="st2" d="M40.38,67.5c-0.57,0-1.15-0.12-1.68-0.35l-0.4-0.17c-2.04-0.88-3.06-3.21-2.32-5.31l4.85-13.76
			c0.39-1.1,1.23-2.01,2.3-2.48c1.07-0.47,2.3-0.47,3.38-0.01l0.4,0.17c2.04,0.88,3.06,3.21,2.32,5.31l-4.85,13.76
			c-0.39,1.1-1.23,2.01-2.3,2.48C41.54,67.38,40.96,67.5,40.38,67.5z M44.83,46.91c-0.33,0-0.66,0.07-0.97,0.2
			c-0.62,0.27-1.09,0.77-1.31,1.41L37.7,62.29c-0.42,1.19,0.16,2.52,1.32,3.03l0.4,0.17c0.62,0.27,1.31,0.27,1.93,0
			c0.62-0.27,1.09-0.77,1.31-1.41l4.85-13.76c0.42-1.19-0.16-2.52-1.32-3.03l-0.4-0.17C45.48,46.97,45.16,46.91,44.83,46.91z"/>
		<path class="st2" d="M71.4,78.17c-0.56,0-1.12-0.12-1.66-0.38l-3.45-1.65c-0.45-0.22-0.65-0.76-0.43-1.22
			c0.22-0.45,0.76-0.65,1.22-0.43l3.45,1.65c1.01,0.48,2.23,0.06,2.71-0.96c0.45-0.94,0.09-2.1-0.82-2.63
			c-0.34-0.2-0.51-0.58-0.44-0.96c0.08-0.38,0.39-0.67,0.77-0.73l0.09-0.01c0.18-0.02,0.36,0,0.52,0.08
			c0.49,0.24,1.04,0.27,1.55,0.08c0.51-0.18,0.92-0.55,1.16-1.04c0.42-0.88,0.15-1.94-0.64-2.52c-0.38-0.28-0.49-0.8-0.25-1.21
			l0.05-0.08c0.24-0.39,0.73-0.55,1.15-0.36c0.94,0.41,2.04-0.04,2.52-1.04c0.41-0.85,0.21-1.87-0.47-2.43
			c-0.13-0.1-0.23-0.17-0.34-0.22l-8.93-4.28c-0.97-0.47-2.74,0.14-3.2,1.11c-0.22,0.45-0.76,0.65-1.22,0.43
			c-0.45-0.22-0.65-0.76-0.43-1.22c0.9-1.88,3.74-2.87,5.63-1.96l8.92,4.28c0.23,0.11,0.45,0.25,0.67,0.42
			c0.02,0.02,0.04,0.03,0.07,0.05c1.33,1.1,1.71,2.98,0.94,4.6c-0.55,1.16-1.58,1.92-2.71,2.15c0.37,0.96,0.35,2.07-0.12,3.05
			c-0.45,0.93-1.23,1.63-2.2,1.97c-0.18,0.06-0.36,0.11-0.54,0.15c0.39,0.97,0.39,2.09-0.09,3.09
			C74.22,77.37,72.83,78.17,71.4,78.17z"/>
		<path class="st2" d="M66.68,76.23c-0.15,0-0.3-0.04-0.44-0.11l-5.29-2.92c-0.44-0.24-0.6-0.8-0.36-1.24
			c0.24-0.44,0.8-0.6,1.24-0.36l5.29,2.92c0.44,0.24,0.6,0.8,0.36,1.24C67.31,76.06,67,76.23,66.68,76.23z"/>
		<path class="st2" d="M72.87,72.69c-0.14,0-0.28-0.03-0.42-0.1l-8.46-4.39c-0.45-0.23-0.62-0.78-0.39-1.23
			c0.23-0.45,0.78-0.62,1.23-0.39l8.46,4.39c0.45,0.23,0.62,0.78,0.39,1.23C73.52,72.51,73.2,72.69,72.87,72.69z"/>
		<path class="st2" d="M76.01,67.57c-0.14,0-0.29-0.03-0.42-0.1l-7.37-3.84c-0.45-0.23-0.62-0.78-0.39-1.23
			c0.23-0.45,0.78-0.62,1.23-0.39l7.37,3.84c0.45,0.23,0.62,0.78,0.39,1.23C76.65,67.39,76.33,67.57,76.01,67.57z"/>
		<path class="st2" d="M65.74,79.62c-0.25,0-0.53-0.03-0.83-0.11c-2.71-0.7-12.39-5.33-18.03-10.71c-0.54-0.52-0.97-1.03-1.38-1.52
			c-0.72-0.86-1.34-1.59-2.38-2.09c-0.45-0.22-0.65-0.76-0.43-1.22c0.22-0.45,0.76-0.65,1.22-0.43c1.4,0.67,2.21,1.63,2.99,2.57
			c0.38,0.45,0.77,0.92,1.24,1.37c5.47,5.22,14.94,9.67,17.23,10.26c0.51,0.13,0.76-0.01,0.92-0.15c0.3-0.26,0.31-0.6,0.29-0.79
			c-0.04-0.38-0.27-0.72-0.6-0.9l-3.74-2c-0.44-0.24-0.61-0.79-0.37-1.23c0.24-0.44,0.79-0.61,1.23-0.37l3.74,2
			c0.87,0.46,1.45,1.32,1.55,2.31c0.1,0.92-0.23,1.78-0.92,2.37C67.1,79.3,66.53,79.62,65.74,79.62z"/>
		<path class="st2" d="M53.88,52.89c-1.78,0-3.6-0.35-4.95-1l-0.95-0.44c-0.46-0.21-0.66-0.75-0.45-1.21
			c0.21-0.46,0.75-0.66,1.21-0.45l0.96,0.44c1.57,0.75,4.03,1.02,5.99,0.67c0.5-0.09,0.97,0.24,1.06,0.73
			c0.09,0.5-0.24,0.97-0.73,1.06C55.34,52.83,54.61,52.89,53.88,52.89z"/>
		<path class="st2" d="M46.79,68.3c-0.1,0-0.21-0.02-0.31-0.06c-0.47-0.17-0.72-0.7-0.54-1.17l3.76-10.28
			c0.17-0.47,0.7-0.72,1.17-0.54c0.47,0.17,0.72,0.7,0.54,1.17L47.65,67.7C47.51,68.07,47.16,68.3,46.79,68.3z"/>
		<path class="st1" d="M78.33,57.03c-0.37,0-0.72-0.23-0.86-0.6l-2.8-7.74c-0.17-0.47,0.07-1,0.55-1.17c0.47-0.17,1,0.07,1.17,0.55
			l2.8,7.74c0.17,0.47-0.07,1-0.55,1.17C78.54,57.01,78.43,57.03,78.33,57.03z"/>
		<path class="st1" d="M62.2,62.61c-0.88,0-1.73-0.32-2.41-0.93c-0.43-0.39-0.77-0.85-1.02-1.37l-3.55-7.58
			c-1-2.15-0.07-4.71,2.07-5.72c4.41-1.93,11.36-0.59,15.97,0.29l0.17,0.03c1.8,0.34,3.66,0.09,5.41-0.72l0.84-0.4
			c0.46-0.21,1-0.02,1.21,0.44c0.21,0.46,0.02,1-0.44,1.21l-0.85,0.4c-2.1,0.98-4.35,1.28-6.53,0.86l-0.18-0.03
			c-4.38-0.84-11-2.11-14.87-0.42c-1.22,0.57-1.75,2.05-1.17,3.29l3.55,7.58c0.14,0.3,0.34,0.57,0.59,0.79
			c0.77,0.69,1.61,0.44,1.94,0.3c0.6-0.25,1.25-0.88,1.28-1.86c0.04-1.36-0.41-3-1.34-4.88c-0.22-0.45-0.04-1,0.41-1.22
			c0.45-0.22,1-0.04,1.22,0.41c1.06,2.15,1.58,4.09,1.52,5.75c-0.05,1.52-0.98,2.89-2.38,3.48C63.19,62.51,62.69,62.61,62.2,62.61z"
			/>
	</g>
</g>
</svg>
