<?xml version="1.0" encoding="utf-8"?>
<!-- Generator: Adobe Illustrator 25.0.1, SVG Export Plug-In . SVG Version: 6.00 Build 0)  -->
<svg version="1.1" id="Layer_1" xmlns="http://www.w3.org/2000/svg" xmlns:xlink="http://www.w3.org/1999/xlink" x="0px" y="0px"
	 viewBox="0 0 130 112.58" style="enable-background:new 0 0 130 112.58;" xml:space="preserve">
<style type="text/css">
	.st0{fill:#342D2F;}
	.st1{fill:#F5F6F6;}
</style>
<g>
	<g>
		<polygon class="st0" points="96.81,1.19 33.19,1.19 1.38,56.29 33.19,111.39 96.81,111.39 128.62,56.29 		"/>
	</g>
	<g>
		<g>
			<g>
				<path class="st1" d="M65.92,67.34c-0.08,0-0.15-0.02-0.22-0.06l-9.28-5.35c-0.14-0.08-0.23-0.23-0.1,0.27V51.48
					c-0.13-0.82-0.04-0.97,0.1-1.05l4.64-2.68l4.64-2.68c0.14-0.08,0.31-0.08,0.45,0l4.64,2.68l4.64,2.68
					c0.14,0.08,0.23,0.23,0.23,0.39v10.71c0,0.16-0.09,0.31-0.23,0.39l-9.28,5.35C66.08,67.32,66,67.34,65.92,67.34z M57.09,61.28
					l8.83,5.09l8.83-5.09V51.08l-4.42-2.55l-4.42-2.55l-8.83,5.1V61.28z"/>
				<path class="st1" d="M65.92,67.64c-0.13,0-0.26-0.03-0.37-0.1l-8.99-5.18c-0.05,0.07-0.12,0.12-0.21,0.13
					c-0.15,0.02-0.29-0.08-0.33-0.22c-0.06-0.25-0.12-0.45-0.01-0.6V51.48c-0.11-0.69-0.11-1.1,0.25-1.31l9.28-5.36
					c0.23-0.13,0.52-0.13,0.75,0l9.28,5.36c0.23,0.13,0.37,0.38,0.37,0.65v10.71c0,0.27-0.14,0.51-0.37,0.65l-9.28,5.35
					C66.18,67.6,66.05,67.64,65.92,67.64z M56.61,61.69l9.23,5.33c0.05,0.03,0.11,0.03,0.15,0l9.28-5.35
					c0.05-0.03,0.08-0.08,0.08-0.13V50.82c0-0.05-0.03-0.11-0.08-0.13L66,45.33c-0.05-0.03-0.11-0.03-0.15,0l-9.28,5.36
					c0,0.01-0.05,0.14,0.05,0.74L56.61,61.69z M65.92,66.67c-0.05,0-0.1-0.01-0.15-0.04l-8.83-5.1c-0.09-0.05-0.15-0.15-0.15-0.26
					V51.08c0-0.11,0.06-0.2,0.15-0.26l8.83-5.1c0.09-0.05,0.21-0.05,0.3,0l8.83,5.1c0.09,0.05,0.15,0.15,0.15,0.26v10.19
					c0,0.11-0.06,0.2-0.15,0.26l-8.83,5.1C66.02,66.66,65.97,66.67,65.92,66.67z M57.38,61.1l8.53,4.92l8.53-4.92v-9.85l-8.53-4.93
					l-8.53,4.93V61.1z"/>
			</g>
		</g>
		<g>
			<g>
				<path class="st1" d="M65.92,45.92c-0.25,0-0.45-0.2-0.45-0.45v-4.7c0-0.25,0.2-0.45,0.45-0.45c0.25,0,0.45,0.2,0.45,0.45v4.7
					C66.37,45.71,66.17,45.92,65.92,45.92z"/>
				<path class="st1" d="M65.92,46.06c-0.33,0-0.6-0.27-0.6-0.6v-4.7c0-0.33,0.27-0.6,0.6-0.6c0.33,0,0.6,0.27,0.6,0.6v4.7
					C66.52,45.79,66.25,46.06,65.92,46.06z M65.92,40.46c-0.17,0-0.3,0.14-0.3,0.3v4.7c0,0.17,0.14,0.3,0.3,0.3
					c0.17,0,0.3-0.14,0.3-0.3v-4.7C66.22,40.6,66.09,40.46,65.92,40.46z"/>
			</g>
		</g>
		<g>
			<g>
				<path class="st1" d="M75.3,51.33c-0.16,0-0.31-0.08-0.39-0.23c-0.12-0.22-0.05-0.49,0.17-0.62l4.07-2.35
					c0.22-0.12,0.49-0.05,0.62,0.17c0.13,0.22,0.05,0.49-0.16,0.62l-4.07,2.35C75.46,51.31,75.38,51.33,75.3,51.33z"/>
				<path class="st1" d="M75.3,51.48c-0.21,0-0.41-0.11-0.52-0.3c-0.16-0.29-0.07-0.65,0.22-0.82l4.07-2.35
					c0.29-0.16,0.65-0.07,0.82,0.22c0.08,0.14,0.1,0.3,0.06,0.46c-0.04,0.15-0.14,0.28-0.28,0.36L75.6,51.4
					C75.51,51.45,75.41,51.48,75.3,51.48z M79.37,48.23c-0.05,0-0.1,0.01-0.15,0.04l-4.07,2.35c-0.14,0.08-0.19,0.27-0.11,0.41
					c0.08,0.14,0.27,0.19,0.41,0.11l4.07-2.35c0.07-0.04,0.12-0.11,0.14-0.18c0.02-0.08,0.01-0.16-0.03-0.23
					C79.58,48.28,79.48,48.23,79.37,48.23z"/>
			</g>
		</g>
		<g>
			<g>
				<path class="st1" d="M79.37,64.5c-0.08,0-0.15-0.02-0.23-0.06l-4.07-2.35c-0.22-0.12-0.29-0.4-0.17-0.62
					c0.13-0.22,0.4-0.29,0.62-0.17l4.07,2.35c0.22,0.12,0.29,0.4,0.16,0.62C79.68,64.42,79.53,64.5,79.37,64.5z"/>
				<path class="st1" d="M79.37,64.65c-0.1,0-0.21-0.03-0.3-0.08L75,62.22c-0.29-0.17-0.39-0.53-0.22-0.82
					c0.16-0.29,0.53-0.38,0.82-0.22l4.07,2.35c0.14,0.08,0.24,0.21,0.28,0.36c0.04,0.15,0.02,0.32-0.06,0.46
					C79.79,64.54,79.59,64.65,79.37,64.65z M75.3,61.4c-0.1,0-0.2,0.05-0.26,0.15c-0.08,0.14-0.03,0.33,0.11,0.41l4.07,2.35
					c0.14,0.08,0.33,0.03,0.41-0.11c0.04-0.07,0.05-0.15,0.03-0.23c-0.02-0.08-0.07-0.14-0.14-0.18l-4.07-2.35
					C75.4,61.42,75.35,61.4,75.3,61.4z"/>
			</g>
		</g>
		<g>
			<g>
				<path class="st1" d="M65.92,72.27c-0.25,0-0.45-0.2-0.45-0.45v-4.7c0-0.25,0.2-0.45,0.45-0.45c0.25,0,0.45,0.2,0.45,0.45v4.7
					C66.37,72.06,66.17,72.27,65.92,72.27z"/>
				<path class="st1" d="M65.92,72.41c-0.33,0-0.6-0.27-0.6-0.6v-4.7c0-0.33,0.27-0.6,0.6-0.6c0.33,0,0.6,0.27,0.6,0.6v4.7
					C66.52,72.15,66.25,72.41,65.92,72.41z M65.92,66.82c-0.17,0-0.3,0.14-0.3,0.3v4.7c0,0.17,0.14,0.3,0.3,0.3
					c0.17,0,0.3-0.14,0.3-0.3v-4.7C66.22,66.95,66.09,66.82,65.92,66.82z"/>
			</g>
		</g>
		<g>
			<g>
				<path class="st1" d="M52.46,64.5c-0.16,0-0.31-0.08-0.39-0.23c-0.12-0.22-0.05-0.49,0.17-0.62l4.07-2.35
					c0.22-0.12,0.49-0.05,0.61,0.17c0.13,0.22,0.05,0.49-0.16,0.62l-4.07,2.35C52.62,64.48,52.54,64.5,52.46,64.5z"/>
				<path class="st1" d="M52.46,64.65c-0.21,0-0.41-0.12-0.52-0.3c-0.08-0.14-0.1-0.3-0.06-0.46c0.04-0.15,0.14-0.28,0.28-0.36
					l4.07-2.35c0.14-0.08,0.3-0.1,0.46-0.06c0.15,0.04,0.28,0.14,0.36,0.28c0.08,0.14,0.1,0.3,0.06,0.45
					c-0.04,0.16-0.14,0.29-0.28,0.37l-4.07,2.35C52.67,64.63,52.57,64.65,52.46,64.65z M56.54,61.4c-0.05,0-0.1,0.01-0.15,0.04
					l-4.07,2.35c-0.07,0.04-0.12,0.1-0.14,0.18c-0.02,0.08-0.01,0.16,0.03,0.23c0.08,0.14,0.27,0.19,0.41,0.11l4.07-2.35
					c0.07-0.04,0.12-0.11,0.14-0.18c0.02-0.08,0.01-0.16-0.03-0.23c-0.04-0.07-0.1-0.12-0.18-0.14
					C56.59,61.41,56.56,61.4,56.54,61.4z"/>
			</g>
		</g>
		<g>
			<g>
				<path class="st1" d="M56.54,51.33c-0.08,0-0.15-0.02-0.23-0.06l-4.07-2.35c-0.22-0.13-0.29-0.4-0.16-0.62
					c0.12-0.22,0.4-0.29,0.62-0.17l4.07,2.35c0.22,0.12,0.29,0.4,0.16,0.62C56.84,51.25,56.69,51.33,56.54,51.33z"/>
				<path class="st1" d="M56.54,51.48c-0.11,0-0.21-0.03-0.3-0.08l-4.07-2.35c-0.29-0.17-0.38-0.53-0.22-0.82
					c0.08-0.14,0.21-0.24,0.36-0.28c0.16-0.04,0.32-0.02,0.46,0.06l4.07,2.35c0.14,0.08,0.24,0.21,0.28,0.36
					c0.04,0.16,0.02,0.32-0.06,0.46C56.95,51.36,56.75,51.48,56.54,51.48z M52.46,48.22c-0.03,0-0.05,0-0.08,0.01
					c-0.08,0.02-0.14,0.07-0.18,0.14c-0.08,0.14-0.03,0.33,0.11,0.41l4.07,2.35c0.14,0.08,0.33,0.03,0.41-0.11
					c0.04-0.07,0.05-0.15,0.03-0.23c-0.02-0.08-0.07-0.14-0.14-0.18l-4.07-2.35C52.57,48.24,52.52,48.22,52.46,48.22z"/>
			</g>
		</g>
		<g>
			<g>
				<path class="st1" d="M65.92,41.21c-3.11,0-5.64-2.53-5.64-5.64c0-3.11,2.53-5.64,5.64-5.64c3.11,0,5.64,2.53,5.64,5.64
					C71.56,38.69,69.03,41.21,65.92,41.21z M65.92,30.84c-2.61,0-4.74,2.13-4.74,4.74c0,2.61,2.13,4.74,4.74,4.74
					c2.61,0,4.74-2.12,4.74-4.74C70.66,32.96,68.53,30.84,65.92,30.84z"/>
				<path class="st1" d="M65.92,41.36c-3.19,0-5.79-2.6-5.79-5.79c0-3.19,2.6-5.79,5.79-5.79c3.19,0,5.79,2.6,5.79,5.79
					C71.71,38.77,69.11,41.36,65.92,41.36z M65.92,30.09c-3.03,0-5.5,2.46-5.5,5.49c0,3.03,2.47,5.49,5.5,5.49
					c3.03,0,5.49-2.46,5.49-5.49C71.41,32.55,68.95,30.09,65.92,30.09z M65.92,40.46c-2.7,0-4.89-2.19-4.89-4.88
					c0-2.7,2.19-4.89,4.89-4.89c2.7,0,4.89,2.19,4.89,4.89C70.81,38.27,68.62,40.46,65.92,40.46z M65.92,30.99
					c-2.53,0-4.59,2.06-4.59,4.59c0,2.53,2.06,4.59,4.59,4.59c2.53,0,4.59-2.06,4.59-4.59C70.51,33.05,68.45,30.99,65.92,30.99z"/>
			</g>
		</g>
		<g>
			<g>
				<path class="st1" d="M83.88,51.57c-2.01,0-3.89-1.08-4.89-2.82c-0.75-1.31-0.95-2.83-0.56-4.28c0.39-1.46,1.32-2.67,2.63-3.43
					c0.86-0.5,1.83-0.76,2.82-0.76c2.01,0,3.89,1.08,4.89,2.82c0.75,1.3,0.95,2.82,0.56,4.28c-0.39,1.46-1.32,2.67-2.63,3.42
					C85.84,51.31,84.86,51.57,83.88,51.57z M83.87,41.19c-0.83,0-1.64,0.22-2.37,0.64c-1.1,0.63-1.88,1.66-2.21,2.88
					c-0.33,1.22-0.16,2.5,0.47,3.6c0.85,1.46,2.42,2.37,4.11,2.37c0.83,0,1.64-0.22,2.36-0.64c1.1-0.63,1.88-1.66,2.21-2.88
					c0.33-1.22,0.16-2.5-0.47-3.59C87.13,42.1,85.56,41.19,83.87,41.19z"/>
				<path class="st1" d="M83.88,51.72c-2.06,0-3.99-1.11-5.02-2.89c-0.77-1.34-0.98-2.9-0.58-4.4c0.4-1.49,1.36-2.74,2.7-3.52
					c0.88-0.51,1.88-0.78,2.89-0.78c2.07,0,3.99,1.11,5.02,2.9c0.77,1.34,0.98,2.9,0.58,4.39c-0.4,1.49-1.36,2.74-2.7,3.52
					C85.89,51.45,84.89,51.72,83.88,51.72z M83.87,40.44c-0.96,0-1.91,0.25-2.74,0.74c-1.27,0.73-2.18,1.92-2.56,3.33
					c-0.38,1.42-0.18,2.9,0.55,4.17c0.98,1.69,2.8,2.74,4.76,2.74c0.96,0,1.91-0.25,2.74-0.74c1.27-0.73,2.18-1.92,2.56-3.33
					c0.38-1.42,0.19-2.9-0.55-4.16C87.65,41.49,85.83,40.44,83.87,40.44z M83.88,50.82c-1.74,0-3.37-0.94-4.24-2.44
					c-0.65-1.13-0.83-2.45-0.49-3.71c0.34-1.26,1.15-2.32,2.28-2.97c0.74-0.43,1.59-0.66,2.44-0.66c1.74,0,3.37,0.94,4.24,2.45
					c0.65,1.13,0.83,2.45,0.49,3.71c-0.34,1.26-1.15,2.32-2.28,2.97C85.57,50.59,84.73,50.82,83.88,50.82z M83.87,41.34
					c-0.8,0-1.59,0.21-2.29,0.62c-1.06,0.61-1.82,1.6-2.14,2.79c-0.32,1.18-0.15,2.42,0.46,3.48c0.82,1.41,2.34,2.29,3.98,2.29
					c0.8,0,1.59-0.21,2.29-0.62c1.06-0.61,1.82-1.6,2.14-2.79c0.32-1.18,0.16-2.42-0.46-3.48C87.03,42.22,85.5,41.34,83.87,41.34z"
					/>
			</g>
		</g>
		<g>
			<g>
				<path class="st1" d="M83.87,72.29c-0.99,0-1.96-0.26-2.82-0.76c-1.3-0.75-2.24-1.97-2.63-3.42c-0.39-1.46-0.19-2.98,0.56-4.28
					c1.01-1.74,2.88-2.82,4.89-2.82c0.98,0,1.96,0.26,2.81,0.76c2.69,1.55,3.62,5.01,2.07,7.7C87.76,71.21,85.88,72.29,83.87,72.29z
					 M83.88,61.91c-1.69,0-3.27,0.91-4.11,2.37c-0.63,1.1-0.8,2.37-0.47,3.6c0.33,1.22,1.11,2.24,2.21,2.87
					c0.72,0.42,1.54,0.64,2.37,0.64c1.69,0,3.27-0.91,4.11-2.37c1.31-2.26,0.53-5.17-1.74-6.47C85.52,62.13,84.7,61.91,83.88,61.91z
					"/>
				<path class="st1" d="M83.87,72.44c-1.01,0-2.01-0.27-2.89-0.78c-1.34-0.77-2.3-2.02-2.7-3.51c-0.4-1.49-0.19-3.06,0.58-4.4
					c1.03-1.78,2.96-2.89,5.02-2.89c1.01,0,2.01,0.27,2.89,0.78c1.34,0.77,2.3,2.02,2.7,3.51c0.4,1.5,0.2,3.05-0.57,4.39
					C87.86,71.33,85.93,72.44,83.87,72.44z M83.88,61.16c-1.96,0-3.79,1.05-4.76,2.74c-0.73,1.27-0.93,2.75-0.55,4.17
					c0.38,1.42,1.29,2.6,2.56,3.33c0.84,0.48,1.78,0.74,2.75,0.74c1.96,0,3.78-1.05,4.76-2.75c0.73-1.27,0.92-2.75,0.54-4.17
					c-0.38-1.42-1.29-2.6-2.56-3.33C85.79,61.41,84.84,61.16,83.88,61.16z M83.87,71.54c-0.85,0-1.7-0.23-2.44-0.66
					c-1.13-0.65-1.94-1.7-2.28-2.96c-0.34-1.26-0.16-2.58,0.49-3.71c0.87-1.51,2.5-2.44,4.24-2.44c0.85,0,1.7,0.23,2.44,0.66
					c1.13,0.65,1.94,1.7,2.28,2.97c0.34,1.26,0.17,2.58-0.48,3.71C87.24,70.6,85.61,71.54,83.87,71.54z M83.88,62.06
					c-1.64,0-3.16,0.88-3.98,2.29c-0.61,1.06-0.78,2.3-0.46,3.48c0.32,1.18,1.08,2.17,2.14,2.78c0.7,0.4,1.49,0.62,2.29,0.62
					c1.64,0,3.16-0.88,3.98-2.29c0.61-1.06,0.77-2.3,0.46-3.48c-0.32-1.19-1.08-2.17-2.14-2.79C85.47,62.27,84.68,62.06,83.88,62.06
					z"/>
			</g>
		</g>
		<g>
			<g>
				<path class="st1" d="M65.92,82.65c-3.11,0-5.64-2.53-5.64-5.64c0-3.11,2.53-5.64,5.64-5.64c3.11,0,5.64,2.53,5.64,5.64
					C71.56,80.12,69.03,82.65,65.92,82.65z M65.92,72.27c-2.61,0-4.74,2.13-4.74,4.74c0,2.61,2.13,4.74,4.74,4.74
					c2.61,0,4.74-2.13,4.74-4.74C70.66,74.39,68.53,72.27,65.92,72.27z"/>
				<path class="st1" d="M65.92,82.8c-3.19,0-5.79-2.6-5.79-5.79c0-3.19,2.6-5.79,5.79-5.79c3.19,0,5.79,2.6,5.79,5.79
					C71.71,80.2,69.11,82.8,65.92,82.8z M65.92,71.51c-3.03,0-5.5,2.46-5.5,5.49c0,3.03,2.47,5.49,5.5,5.49
					c3.03,0,5.49-2.46,5.49-5.49C71.41,73.98,68.95,71.51,65.92,71.51z M65.92,81.89c-2.7,0-4.89-2.19-4.89-4.89
					c0-2.7,2.19-4.89,4.89-4.89c2.7,0,4.89,2.19,4.89,4.89C70.81,79.7,68.62,81.89,65.92,81.89z M65.92,72.41
					c-2.53,0-4.59,2.06-4.59,4.59c0,2.53,2.06,4.59,4.59,4.59c2.53,0,4.59-2.06,4.59-4.59C70.51,74.47,68.45,72.41,65.92,72.41z"/>
			</g>
		</g>
		<g>
			<g>
				<path class="st1" d="M47.97,72.29c-2.01,0-3.88-1.08-4.89-2.82c-0.75-1.31-0.96-2.83-0.56-4.28c0.39-1.45,1.32-2.67,2.63-3.42
					c0.86-0.5,1.83-0.76,2.82-0.76c2.01,0,3.89,1.08,4.89,2.82c0.75,1.31,0.95,2.83,0.56,4.28c-0.39,1.46-1.32,2.67-2.63,3.42
					C49.93,72.03,48.95,72.29,47.97,72.29z M47.96,61.91c-0.83,0-1.64,0.22-2.37,0.64c-1.1,0.63-1.88,1.66-2.21,2.88
					c-0.33,1.22-0.16,2.5,0.47,3.6c0.84,1.46,2.42,2.37,4.11,2.37c0.83,0,1.65-0.22,2.37-0.64c1.1-0.63,1.88-1.65,2.21-2.87
					c0.33-1.22,0.16-2.5-0.47-3.6C51.23,62.82,49.65,61.91,47.96,61.91z"/>
				<path class="st1" d="M47.97,72.44c-2.06,0-3.99-1.11-5.02-2.89c-0.77-1.34-0.98-2.9-0.58-4.39c0.4-1.49,1.36-2.74,2.7-3.51
					c0.88-0.51,1.88-0.78,2.89-0.78c2.07,0,3.99,1.11,5.02,2.89c0.77,1.34,0.98,2.9,0.58,4.39c-0.4,1.49-1.36,2.74-2.7,3.51
					C49.98,72.17,48.98,72.44,47.97,72.44z M47.96,61.16c-0.96,0-1.91,0.25-2.74,0.74c-1.27,0.73-2.18,1.92-2.56,3.33
					c-0.38,1.42-0.19,2.9,0.55,4.17c0.98,1.69,2.8,2.75,4.76,2.75c0.96,0,1.91-0.25,2.74-0.74c1.27-0.73,2.18-1.91,2.56-3.33
					c0.38-1.42,0.18-2.9-0.55-4.17C51.75,62.21,49.92,61.16,47.96,61.16z M47.97,71.54c-1.74,0-3.37-0.94-4.24-2.44
					c-0.65-1.13-0.83-2.45-0.49-3.71c0.34-1.26,1.15-2.31,2.28-2.97c0.74-0.43,1.59-0.66,2.44-0.66c1.74,0,3.37,0.94,4.24,2.44
					c0.65,1.13,0.83,2.45,0.49,3.71c-0.34,1.26-1.15,2.31-2.28,2.96C49.67,71.31,48.82,71.54,47.97,71.54z M47.96,62.06
					c-0.8,0-1.59,0.21-2.29,0.62c-1.06,0.61-1.82,1.6-2.14,2.79c-0.32,1.18-0.15,2.42,0.46,3.48c0.82,1.42,2.34,2.29,3.98,2.29
					c0.8,0,1.6-0.21,2.29-0.62c1.06-0.61,1.82-1.6,2.14-2.78c0.32-1.18,0.16-2.42-0.46-3.48C51.13,62.94,49.6,62.06,47.96,62.06z"/>
			</g>
		</g>
		<g>
			<g>
				<path class="st1" d="M47.96,51.57c-0.99,0-1.96-0.26-2.82-0.76c-1.3-0.75-2.24-1.97-2.63-3.42c-0.39-1.46-0.19-2.98,0.56-4.28
					c1.01-1.74,2.88-2.82,4.89-2.82c0.98,0,1.96,0.26,2.82,0.76c2.69,1.55,3.62,5.01,2.07,7.71C51.85,50.49,49.97,51.57,47.96,51.57
					z M47.97,41.19c-1.69,0-3.27,0.91-4.11,2.37c-0.63,1.09-0.8,2.37-0.47,3.59c0.33,1.22,1.11,2.24,2.21,2.88
					c0.72,0.42,1.54,0.64,2.37,0.64c1.69,0,3.27-0.91,4.11-2.37c1.31-2.26,0.53-5.17-1.74-6.48C49.62,41.41,48.8,41.19,47.97,41.19z
					"/>
				<path class="st1" d="M47.96,51.72c-1.01,0-2.01-0.27-2.89-0.78c-1.34-0.77-2.3-2.02-2.7-3.52c-0.4-1.49-0.2-3.05,0.58-4.39
					c1.03-1.79,2.96-2.9,5.02-2.9c1.01,0,2.01,0.27,2.89,0.77c2.77,1.6,3.72,5.14,2.12,7.91C51.95,50.61,50.03,51.72,47.96,51.72z
					 M47.97,40.44c-1.96,0-3.78,1.05-4.76,2.75c-0.74,1.27-0.93,2.75-0.55,4.16c0.38,1.42,1.29,2.6,2.56,3.33
					c0.83,0.48,1.78,0.74,2.74,0.74c1.96,0,3.78-1.05,4.76-2.74c1.51-2.62,0.61-5.99-2.01-7.5C49.88,40.7,48.93,40.44,47.97,40.44z
					 M47.96,50.82c-0.85,0-1.7-0.23-2.44-0.66c-1.13-0.65-1.94-1.71-2.28-2.97c-0.34-1.26-0.16-2.58,0.49-3.71
					c0.87-1.51,2.5-2.45,4.24-2.45c0.85,0,1.7,0.23,2.44,0.65c2.33,1.35,3.14,4.34,1.79,6.68C51.33,49.89,49.71,50.82,47.96,50.82z
					 M47.97,41.34c-1.64,0-3.16,0.88-3.98,2.3c-0.61,1.06-0.78,2.3-0.46,3.48c0.32,1.18,1.08,2.17,2.14,2.79
					c0.7,0.4,1.49,0.62,2.29,0.62c1.64,0,3.16-0.88,3.98-2.29c1.26-2.19,0.51-5.01-1.68-6.27C49.56,41.56,48.77,41.34,47.97,41.34z"
					/>
			</g>
		</g>
	</g>
</g>
</svg>
