<?xml version="1.0" encoding="utf-8"?>
<!-- Generator: Adobe Illustrator 25.0.1, SVG Export Plug-In . SVG Version: 6.00 Build 0)  -->
<svg version="1.1" id="Layer_1" xmlns="http://www.w3.org/2000/svg" xmlns:xlink="http://www.w3.org/1999/xlink" x="0px" y="0px"
	 viewBox="0 0 140 130" style="enable-background:new 0 0 140 130;" xml:space="preserve">
<style type="text/css">
	.st0{fill:#332D2F;}
	.st1{fill:none;stroke:#FFFFFF;stroke-miterlimit:10;}
</style>
<g>
	<g>
		<polygon class="st0" points="101.81,9.9 38.19,9.9 6.38,65 38.19,120.1 101.81,120.1 133.62,65 		"/>
	</g>
	<g>
		<path class="st1" d="M44.18,75.11L44.18,75.11c-1.11,0-2.02-0.91-2.02-2.02V60.95c0-1.11,0.91-2.02,2.02-2.02h0
			c1.11,0,2.02,0.91,2.02,2.02v12.14C46.2,74.2,45.29,75.11,44.18,75.11z"/>
		<path class="st1" d="M70.81,75.11L70.81,75.11c-1.11,0-2.02-0.91-2.02-2.02V60.95c0-1.11,0.91-2.02,2.02-2.02h0
			c1.11,0,2.02,0.91,2.02,2.02v12.14C72.83,74.2,71.92,75.11,70.81,75.11z"/>
		<path class="st1" d="M50.83,80.34L50.83,80.34c-1.11,0-2.02-0.91-2.02-2.02v-22.6c0-1.11,0.91-2.02,2.02-2.02h0
			c1.11,0,2.02,0.91,2.02,2.02v22.6C52.86,79.43,51.95,80.34,50.83,80.34z"/>
		<path class="st1" d="M90.78,80.34L90.78,80.34c-1.11,0-2.02-0.91-2.02-2.02v-22.6c0-1.11,0.91-2.02,2.02-2.02l0,0
			c1.11,0,2.02,0.91,2.02,2.02v22.6C92.8,79.43,91.89,80.34,90.78,80.34z"/>
		<path class="st1" d="M64.15,80.34L64.15,80.34c-1.11,0-2.02-0.91-2.02-2.02v-22.6c0-1.11,0.91-2.02,2.02-2.02l0,0
			c1.11,0,2.02,0.91,2.02,2.02v22.6C66.17,79.43,65.26,80.34,64.15,80.34z"/>
		<path class="st1" d="M77.46,80.34L77.46,80.34c-1.11,0-2.02-0.91-2.02-2.02v-22.6c0-1.11,0.91-2.02,2.02-2.02l0,0
			c1.11,0,2.02,0.91,2.02,2.02v22.6C79.49,79.43,78.58,80.34,77.46,80.34z"/>
		<path class="st1" d="M57.49,89.41L57.49,89.41c-1.11,0-2.02-0.91-2.02-2.02V46.65c0-1.11,0.91-2.02,2.02-2.02h0
			c1.11,0,2.02,0.91,2.02,2.02v40.73C59.51,88.5,58.6,89.41,57.49,89.41z"/>
		<path class="st1" d="M84.12,89.41L84.12,89.41c-1.11,0-2.02-0.91-2.02-2.02V46.65c0-1.11,0.91-2.02,2.02-2.02h0
			c1.11,0,2.02,0.91,2.02,2.02v40.73C86.15,88.5,85.24,89.41,84.12,89.41z"/>
	</g>
</g>
</svg>
