<?xml version="1.0" encoding="utf-8"?>
<!-- Generator: Adobe Illustrator 25.1.0, SVG Export Plug-In . SVG Version: 6.00 Build 0)  -->
<svg version="1.1" id="Layer_1" xmlns="http://www.w3.org/2000/svg" xmlns:xlink="http://www.w3.org/1999/xlink" x="0px" y="0px"
	 viewBox="0 0 1140 80" style="enable-background:new 0 0 1140 80;" xml:space="preserve">
<style type="text/css">
	.st0{fill:#01040C;}
	.st1{fill:none;stroke:#01040C;stroke-width:0.5871;stroke-miterlimit:10;}
</style>
<g>
	<g>
		<path class="st0" d="M59.17,40.12h3c2.41,0,4.08,1.66,4.08,3.82v0.02c0,2.16-1.67,3.84-4.08,3.84h-3V40.12z M60.86,41.65v4.63
			h1.31c1.38,0,2.31-0.93,2.31-2.29v-0.02c0-1.36-0.93-2.31-2.31-2.31H60.86z"/>
		<path class="st0" d="M67.48,40.12h5.79v1.5h-4.11v1.56h3.62v1.5h-3.62v1.61h4.17v1.5h-5.85V40.12z"/>
		<path class="st0" d="M74.03,46.68l1-1.2c0.69,0.57,1.42,0.93,2.29,0.93c0.69,0,1.11-0.27,1.11-0.72v-0.02
			c0-0.43-0.26-0.65-1.55-0.98c-1.55-0.39-2.55-0.82-2.55-2.35v-0.02c0-1.39,1.12-2.31,2.69-2.31c1.12,0,2.07,0.35,2.85,0.98
			L79,42.26c-0.68-0.47-1.35-0.76-2-0.76s-0.99,0.3-0.99,0.67v0.02c0,0.5,0.33,0.67,1.66,1.01c1.56,0.41,2.44,0.97,2.44,2.3v0.02
			c0,1.53-1.16,2.38-2.82,2.38C76.12,47.91,74.95,47.51,74.03,46.68z"/>
		<path class="st0" d="M81.38,40.12h1.69v7.68h-1.69V40.12z"/>
		<path class="st0" d="M84.38,43.98v-0.02c0-2.18,1.7-3.97,4.03-3.97c1.38,0,2.22,0.37,3.02,1.05l-1.06,1.28
			c-0.59-0.49-1.12-0.78-2.01-0.78c-1.23,0-2.21,1.09-2.21,2.39v0.02c0,1.4,0.97,2.44,2.33,2.44c0.61,0,1.16-0.15,1.59-0.46v-1.1
			h-1.7v-1.46h3.34v3.34c-0.79,0.67-1.88,1.22-3.28,1.22C86.02,47.94,84.38,46.26,84.38,43.98z"/>
		<path class="st0" d="M93.05,40.12h1.56l3.6,4.73v-4.73h1.67v7.68h-1.44l-3.72-4.88v4.88h-1.67V40.12z"/>
	</g>
</g>
<g>
	<g>
		<path class="st0" d="M157.51,46.68l1-1.2c0.69,0.57,1.42,0.93,2.29,0.93c0.69,0,1.11-0.27,1.11-0.72v-0.02
			c0-0.43-0.26-0.65-1.55-0.98c-1.55-0.39-2.55-0.82-2.55-2.35v-0.02c0-1.39,1.12-2.31,2.69-2.31c1.12,0,2.07,0.35,2.85,0.98
			l-0.88,1.27c-0.68-0.47-1.35-0.76-2-0.76s-0.99,0.3-0.99,0.67v0.02c0,0.5,0.33,0.67,1.66,1.01c1.56,0.41,2.44,0.97,2.44,2.3v0.02
			c0,1.53-1.16,2.38-2.82,2.38C159.61,47.91,158.44,47.51,157.51,46.68z"/>
		<path class="st0" d="M164.45,43.98v-0.02c0-2.18,1.72-3.97,4.09-3.97c2.37,0,4.07,1.77,4.07,3.95v0.02c0,2.18-1.72,3.97-4.09,3.97
			C166.15,47.94,164.45,46.17,164.45,43.98z M170.85,43.98v-0.02c0-1.32-0.97-2.41-2.33-2.41s-2.3,1.08-2.3,2.39v0.02
			c0,1.32,0.97,2.41,2.33,2.41S170.85,45.3,170.85,43.98z"/>
		<path class="st0" d="M173.72,44.51v-4.39h1.69v4.34c0,1.25,0.63,1.9,1.66,1.9s1.66-0.63,1.66-1.84v-4.4h1.69v4.33
			c0,2.33-1.31,3.47-3.37,3.47S173.72,46.77,173.72,44.51z"/>
		<path class="st0" d="M181.87,40.12h3.51c0.98,0,1.73,0.27,2.24,0.78c0.43,0.43,0.66,1.03,0.66,1.76v0.02
			c0,1.24-0.67,2.02-1.65,2.38l1.88,2.74h-1.97l-1.65-2.46h-1.33v2.46h-1.69V40.12z M185.27,43.85c0.82,0,1.29-0.44,1.29-1.09v-0.02
			c0-0.72-0.5-1.1-1.33-1.1h-1.68v2.21H185.27z"/>
		<path class="st0" d="M189.19,43.98v-0.02c0-2.18,1.65-3.97,4-3.97c1.45,0,2.31,0.48,3.03,1.19l-1.08,1.24
			c-0.59-0.54-1.2-0.87-1.96-0.87c-1.29,0-2.23,1.08-2.23,2.39v0.02c0,1.32,0.91,2.41,2.23,2.41c0.88,0,1.42-0.35,2.02-0.9
			l1.08,1.09c-0.79,0.85-1.67,1.37-3.15,1.37C190.87,47.94,189.19,46.19,189.19,43.98z"/>
		<path class="st0" d="M197.35,40.12h5.79v1.5h-4.11v1.56h3.62v1.5h-3.62v1.61h4.17v1.5h-5.85V40.12z"/>
	</g>
</g>
<g>
	<g>
		<path class="st0" d="M249.7,43.98v-0.02c0-2.18,1.65-3.97,4-3.97c1.45,0,2.31,0.48,3.03,1.19l-1.08,1.24
			c-0.59-0.54-1.2-0.87-1.96-0.87c-1.29,0-2.23,1.08-2.23,2.39v0.02c0,1.32,0.91,2.41,2.23,2.41c0.88,0,1.42-0.35,2.02-0.9
			l1.08,1.09c-0.79,0.85-1.67,1.37-3.15,1.37C251.38,47.94,249.7,46.19,249.7,43.98z"/>
		<path class="st0" d="M257.52,43.98v-0.02c0-2.18,1.72-3.97,4.09-3.97c2.37,0,4.07,1.77,4.07,3.95v0.02c0,2.18-1.72,3.97-4.09,3.97
			S257.52,46.17,257.52,43.98z M263.92,43.98v-0.02c0-1.32-0.97-2.41-2.33-2.41s-2.3,1.08-2.3,2.39v0.02c0,1.32,0.97,2.41,2.33,2.41
			S263.92,45.3,263.92,43.98z"/>
		<path class="st0" d="M266.92,40.12h1.56l3.6,4.73v-4.73h1.67v7.68h-1.44l-3.72-4.88v4.88h-1.67V40.12z"/>
		<path class="st0" d="M277.1,41.68h-2.34v-1.56h6.36v1.56h-2.34v6.12h-1.69V41.68z"/>
		<path class="st0" d="M282.15,40.12h3.51c0.98,0,1.73,0.27,2.24,0.78c0.43,0.43,0.66,1.03,0.66,1.76v0.02
			c0,1.24-0.67,2.02-1.65,2.38l1.88,2.74h-1.97l-1.65-2.46h-1.33v2.46h-1.69V40.12z M285.55,43.85c0.82,0,1.29-0.44,1.29-1.09v-0.02
			c0-0.72-0.5-1.1-1.33-1.1h-1.68v2.21H285.55z"/>
		<path class="st0" d="M292.44,40.07H294l3.29,7.73h-1.77l-0.7-1.72h-3.25l-0.7,1.72h-1.72L292.44,40.07z M294.22,44.59l-1.02-2.49
			l-1.02,2.49H294.22z"/>
		<path class="st0" d="M297.87,43.98v-0.02c0-2.18,1.65-3.97,4-3.97c1.45,0,2.31,0.48,3.03,1.19l-1.08,1.24
			c-0.59-0.54-1.2-0.87-1.96-0.87c-1.29,0-2.23,1.08-2.23,2.39v0.02c0,1.32,0.91,2.41,2.23,2.41c0.88,0,1.42-0.35,2.02-0.9
			l1.08,1.09c-0.79,0.85-1.67,1.37-3.15,1.37C299.54,47.94,297.87,46.19,297.87,43.98z"/>
		<path class="st0" d="M307.82,41.68h-2.34v-1.56h6.36v1.56h-2.34v6.12h-1.69V41.68z"/>
	</g>
</g>
<g>
	<g>
		<path class="st0" d="M350.46,40.12h5.85v1.54h-4.16v1.63h3.66v1.54h-3.66v2.97h-1.69V40.12z"/>
		<path class="st0" d="M357.05,43.98v-0.02c0-2.18,1.72-3.97,4.09-3.97c2.37,0,4.07,1.77,4.07,3.95v0.02c0,2.18-1.72,3.97-4.09,3.97
			S357.05,46.17,357.05,43.98z M363.44,43.98v-0.02c0-1.32-0.97-2.41-2.33-2.41s-2.3,1.08-2.3,2.39v0.02c0,1.32,0.97,2.41,2.33,2.41
			S363.44,45.3,363.44,43.98z"/>
		<path class="st0" d="M366.44,40.12h3.51c0.98,0,1.73,0.27,2.24,0.78c0.43,0.43,0.66,1.03,0.66,1.76v0.02
			c0,1.24-0.67,2.02-1.65,2.38l1.88,2.74h-1.97l-1.65-2.46h-1.33v2.46h-1.69V40.12z M369.84,43.85c0.82,0,1.29-0.44,1.29-1.09v-0.02
			c0-0.72-0.5-1.1-1.33-1.1h-1.68v2.21H369.84z"/>
		<path class="st0" d="M374.1,40.12h5.79v1.5h-4.11v1.56h3.62v1.5h-3.62v1.61h4.17v1.5h-5.85V40.12z"/>
		<path class="st0" d="M380.84,43.98v-0.02c0-2.18,1.65-3.97,4-3.97c1.45,0,2.31,0.48,3.03,1.19l-1.08,1.24
			c-0.59-0.54-1.2-0.87-1.96-0.87c-1.29,0-2.23,1.08-2.23,2.39v0.02c0,1.32,0.91,2.41,2.23,2.41c0.88,0,1.42-0.35,2.02-0.9
			l1.08,1.09c-0.79,0.85-1.67,1.37-3.15,1.37C382.52,47.94,380.84,46.19,380.84,43.98z"/>
		<path class="st0" d="M391.64,40.07h1.56l3.29,7.73h-1.77l-0.7-1.72h-3.25l-0.7,1.72h-1.72L391.64,40.07z M393.41,44.59l-1.02-2.49
			l-1.02,2.49H393.41z"/>
		<path class="st0" d="M396.87,46.68l1-1.2c0.69,0.57,1.42,0.93,2.29,0.93c0.69,0,1.11-0.27,1.11-0.72v-0.02
			c0-0.43-0.26-0.65-1.55-0.98c-1.55-0.39-2.55-0.82-2.55-2.35v-0.02c0-1.39,1.12-2.31,2.69-2.31c1.12,0,2.07,0.35,2.85,0.98
			l-0.88,1.27c-0.68-0.47-1.35-0.76-2-0.76s-0.99,0.3-0.99,0.67v0.02c0,0.5,0.33,0.67,1.66,1.01c1.56,0.41,2.44,0.97,2.44,2.3v0.02
			c0,1.53-1.16,2.38-2.82,2.38C398.97,47.91,397.79,47.51,396.87,46.68z"/>
		<path class="st0" d="M405.94,41.68h-2.34v-1.56h6.36v1.56h-2.34v6.12h-1.69V41.68z"/>
	</g>
</g>
<g>
	<g>
		<path class="st0" d="M457.01,43.98v-0.02c0-2.18,1.65-3.97,4-3.97c1.45,0,2.31,0.48,3.03,1.19l-1.08,1.24
			c-0.59-0.54-1.2-0.87-1.96-0.87c-1.29,0-2.23,1.08-2.23,2.39v0.02c0,1.32,0.91,2.41,2.23,2.41c0.88,0,1.42-0.35,2.02-0.9
			l1.08,1.09c-0.79,0.85-1.67,1.37-3.15,1.37C458.69,47.94,457.01,46.19,457.01,43.98z"/>
		<path class="st0" d="M464.83,43.98v-0.02c0-2.18,1.72-3.97,4.09-3.97c2.37,0,4.07,1.77,4.07,3.95v0.02c0,2.18-1.72,3.97-4.09,3.97
			C466.53,47.94,464.83,46.17,464.83,43.98z M471.23,43.98v-0.02c0-1.32-0.97-2.41-2.33-2.41s-2.3,1.08-2.3,2.39v0.02
			c0,1.32,0.97,2.41,2.33,2.41S471.23,45.3,471.23,43.98z"/>
		<path class="st0" d="M474.23,40.12h1.82l2.02,3.25l2.02-3.25h1.82v7.68h-1.68v-5.01l-2.16,3.28h-0.04l-2.14-3.25v4.98h-1.66V40.12
			z"/>
		<path class="st0" d="M483.48,40.12h1.82l2.02,3.25l2.02-3.25h1.82v7.68h-1.68v-5.01l-2.16,3.28h-0.04l-2.14-3.25v4.98h-1.66V40.12
			z"/>
		<path class="st0" d="M492.81,40.12h1.69v7.68h-1.69V40.12z"/>
		<path class="st0" d="M497.93,41.68h-2.34v-1.56h6.36v1.56h-2.34v6.12h-1.69V41.68z"/>
	</g>
</g>
<g>
	<g>
		<path class="st0" d="M556.78,40.12h3.51c0.98,0,1.73,0.27,2.24,0.78c0.43,0.43,0.66,1.03,0.66,1.76v0.02
			c0,1.24-0.67,2.02-1.65,2.38l1.88,2.74h-1.97l-1.65-2.46h-1.33v2.46h-1.69V40.12z M560.18,43.85c0.82,0,1.29-0.44,1.29-1.09v-0.02
			c0-0.72-0.5-1.1-1.33-1.1h-1.68v2.21H560.18z"/>
		<path class="st0" d="M564.44,40.12h5.79v1.5h-4.11v1.56h3.62v1.5h-3.62v1.61h4.17v1.5h-5.85V40.12z"/>
		<path class="st0" d="M578.38,48.03l-0.84-0.76c-0.65,0.42-1.43,0.66-2.28,0.66c-2.37,0-4.07-1.77-4.07-3.95v-0.02
			c0-2.18,1.72-3.97,4.09-3.97c2.37,0,4.07,1.77,4.07,3.95v0.02c0,0.81-0.25,1.57-0.68,2.21l0.79,0.67L578.38,48.03z M576.28,46.17
			l-1.25-1.06l1.08-1.21l1.26,1.14c0.13-0.31,0.21-0.67,0.21-1.05v-0.02c0-1.32-0.97-2.41-2.33-2.41s-2.3,1.08-2.3,2.39v0.02
			c0,1.32,0.97,2.41,2.33,2.41C575.64,46.38,575.98,46.31,576.28,46.17z"/>
		<path class="st0" d="M580.45,44.51v-4.39h1.69v4.34c0,1.25,0.63,1.9,1.66,1.9s1.66-0.63,1.66-1.84v-4.4h1.69v4.33
			c0,2.33-1.31,3.47-3.37,3.47S580.45,46.77,580.45,44.51z"/>
		<path class="st0" d="M588.59,40.12h5.79v1.5h-4.11v1.56h3.62v1.5h-3.62v1.61h4.17v1.5h-5.85V40.12z"/>
		<path class="st0" d="M595.15,46.68l1-1.2c0.69,0.57,1.42,0.93,2.29,0.93c0.69,0,1.11-0.27,1.11-0.72v-0.02
			c0-0.43-0.26-0.65-1.55-0.98c-1.55-0.39-2.55-0.82-2.55-2.35v-0.02c0-1.39,1.12-2.31,2.69-2.31c1.12,0,2.07,0.35,2.85,0.98
			l-0.88,1.27c-0.68-0.47-1.35-0.76-2-0.76s-0.99,0.3-0.99,0.67v0.02c0,0.5,0.33,0.67,1.66,1.01c1.56,0.41,2.44,0.97,2.44,2.3v0.02
			c0,1.53-1.16,2.38-2.82,2.38C597.24,47.91,596.07,47.51,595.15,46.68z"/>
		<path class="st0" d="M604.21,41.68h-2.34v-1.56h6.36v1.56h-2.34v6.12h-1.69V41.68z"/>
	</g>
</g>
<g>
	<g>
		<path class="st0" d="M663.11,43.98v-0.02c0-2.18,1.72-3.97,4.09-3.97c2.37,0,4.07,1.77,4.07,3.95v0.02c0,2.18-1.72,3.97-4.09,3.97
			S663.11,46.17,663.11,43.98z M669.51,43.98v-0.02c0-1.32-0.97-2.41-2.33-2.41s-2.3,1.08-2.3,2.39v0.02c0,1.32,0.97,2.41,2.33,2.41
			S669.51,45.3,669.51,43.98z"/>
		<path class="st0" d="M672.5,40.12h3.51c0.98,0,1.73,0.27,2.24,0.78c0.43,0.43,0.66,1.03,0.66,1.76v0.02
			c0,1.24-0.67,2.02-1.65,2.38l1.88,2.74h-1.97l-1.65-2.46h-1.33v2.46h-1.69V40.12z M675.91,43.85c0.82,0,1.29-0.44,1.29-1.09v-0.02
			c0-0.72-0.5-1.1-1.33-1.1h-1.68v2.21H675.91z"/>
		<path class="st0" d="M680.16,40.12h3c2.41,0,4.08,1.66,4.08,3.82v0.02c0,2.16-1.67,3.84-4.08,3.84h-3V40.12z M681.86,41.65v4.63
			h1.3c1.38,0,2.32-0.93,2.32-2.29v-0.02c0-1.36-0.93-2.31-2.32-2.31H681.86z"/>
		<path class="st0" d="M688.47,40.12h5.79v1.5h-4.11v1.56h3.62v1.5h-3.62v1.61h4.17v1.5h-5.85V40.12z"/>
		<path class="st0" d="M695.55,40.12h3.51c0.98,0,1.73,0.27,2.24,0.78c0.43,0.43,0.66,1.03,0.66,1.76v0.02
			c0,1.24-0.67,2.02-1.65,2.38l1.88,2.74h-1.97l-1.65-2.46h-1.33v2.46h-1.69V40.12z M698.95,43.85c0.82,0,1.29-0.44,1.29-1.09v-0.02
			c0-0.72-0.5-1.1-1.33-1.1h-1.68v2.21H698.95z"/>
	</g>
</g>
<g>
	<g>
		<path class="st0" d="M766.54,40.12h1.82l2.02,3.25l2.02-3.25h1.82v7.68h-1.68v-5.01l-2.16,3.28h-0.04l-2.14-3.25v4.98h-1.66V40.12
			z"/>
		<path class="st0" d="M778.42,40.07h1.56l3.29,7.73h-1.77l-0.7-1.72h-3.25l-0.7,1.72h-1.72L778.42,40.07z M780.2,44.59l-1.02-2.49
			l-1.02,2.49H780.2z"/>
		<path class="st0" d="M784.19,40.12h1.69v3.36l3.12-3.36h2.04l-3.13,3.26l3.27,4.42h-2.03l-2.38-3.27l-0.89,0.92v2.35h-1.69V40.12z
			"/>
		<path class="st0" d="M791.92,40.12h5.79v1.5h-4.11v1.56h3.62v1.5h-3.62v1.61h4.17v1.5h-5.85V40.12z"/>
	</g>
</g>
<g>
	<g>
		<path class="st0" d="M859.66,38.85h3.51c0.98,0,1.73,0.27,2.24,0.78c0.43,0.43,0.66,1.03,0.66,1.76v0.02
			c0,1.24-0.67,2.02-1.65,2.38l1.88,2.74h-1.97l-1.65-2.46h-1.33v2.46h-1.69V38.85z M863.06,42.58c0.82,0,1.29-0.44,1.29-1.09v-0.02
			c0-0.72-0.5-1.1-1.33-1.1h-1.68v2.21H863.06z"/>
		<path class="st0" d="M867.32,38.85h5.79v1.5H869v1.56h3.62v1.5H869v1.61h4.17v1.5h-5.85V38.85z"/>
		<path class="st0" d="M874.06,42.71v-0.02c0-2.18,1.65-3.97,4-3.97c1.45,0,2.32,0.48,3.03,1.19l-1.08,1.24
			c-0.59-0.54-1.2-0.87-1.96-0.87c-1.29,0-2.23,1.08-2.23,2.39v0.02c0,1.32,0.91,2.41,2.23,2.41c0.88,0,1.42-0.35,2.02-0.9
			l1.08,1.09c-0.79,0.85-1.67,1.37-3.15,1.37C875.74,46.66,874.06,44.91,874.06,42.71z"/>
		<path class="st0" d="M882.22,38.85h5.79v1.5h-4.11v1.56h3.62v1.5h-3.62v1.61h4.17v1.5h-5.85V38.85z"/>
		<path class="st0" d="M889.38,38.85h1.69v7.68h-1.69V38.85z"/>
		<path class="st0" d="M892.06,38.85h1.87l2.01,5.41l2.01-5.41h1.82l-3.1,7.73h-1.49L892.06,38.85z"/>
		<path class="st0" d="M900.67,38.85h5.79v1.5h-4.11v1.56h3.62v1.5h-3.62v1.61h4.17v1.5h-5.85V38.85z"/>
	</g>
</g>
<g>
	<g>
		<path class="st0" d="M954.35,38.85h1.82l2.02,3.25l2.02-3.25h1.82v7.68h-1.68v-5.01l-2.16,3.28h-0.04l-2.14-3.25v4.98h-1.66V38.85
			z"/>
		<path class="st0" d="M966.24,38.79h1.56l3.29,7.73h-1.77l-0.7-1.72h-3.25l-0.7,1.72h-1.72L966.24,38.79z M968.01,43.31l-1.02-2.49
			l-1.02,2.49H968.01z"/>
		<path class="st0" d="M972,38.85h1.56l3.6,4.73v-4.73h1.67v7.68h-1.44l-3.72-4.88v4.88H972V38.85z"/>
		<path class="st0" d="M983.03,38.79h1.56l3.29,7.73h-1.77l-0.7-1.72h-3.25l-0.7,1.72h-1.72L983.03,38.79z M984.8,43.31l-1.02-2.49
			l-1.02,2.49H984.8z"/>
		<path class="st0" d="M988.45,42.71v-0.02c0-2.18,1.7-3.97,4.03-3.97c1.38,0,2.22,0.37,3.02,1.05l-1.06,1.28
			c-0.59-0.49-1.12-0.78-2.01-0.78c-1.23,0-2.21,1.09-2.21,2.39v0.02c0,1.4,0.97,2.44,2.33,2.44c0.61,0,1.16-0.15,1.59-0.46v-1.1
			h-1.7V42.1h3.34v3.34c-0.79,0.67-1.88,1.22-3.28,1.22C990.1,46.66,988.45,44.98,988.45,42.71z"/>
		<path class="st0" d="M997.12,38.85h5.79v1.5h-4.11v1.56h3.62v1.5h-3.62v1.61h4.17v1.5h-5.85V38.85z"/>
	</g>
</g>
<g>
	<g>
		<path class="st0" d="M1062.46,37.93h3.14c1.83,0,2.94,1.09,2.94,2.65v0.02c0,1.78-1.38,2.7-3.11,2.7h-1.28v2.3h-1.69V37.93z
			 M1065.48,41.8c0.84,0,1.34-0.5,1.34-1.16v-0.02c0-0.76-0.53-1.16-1.37-1.16h-1.31v2.35H1065.48z"/>
		<path class="st0" d="M1072.15,37.88h1.56l3.29,7.73h-1.77l-0.7-1.72h-3.25l-0.7,1.72h-1.72L1072.15,37.88z M1073.92,42.4
			l-1.02-2.49l-1.02,2.49H1073.92z"/>
		<path class="st0" d="M1080.07,42.58l-2.95-4.65h1.97l1.83,3.08l1.87-3.08h1.92l-2.95,4.62v3.06h-1.69V42.58z"/>
	</g>
</g>
<g>
	<polygon class="st1" points="109.83,5.84 6.01,5.84 34.58,40 6.01,74.16 109.83,74.16 138.4,40 	"/>
	<polygon class="st1" points="209.35,5.84 105.54,5.84 134.11,40 105.54,74.16 209.35,74.16 237.93,40 	"/>
	<polygon class="st1" points="309.27,5.84 205.45,5.84 234.02,40 205.45,74.16 309.27,74.16 337.84,40 	"/>
	<polygon class="st1" points="409.52,5.84 305.7,5.84 334.28,40 305.7,74.16 409.52,74.16 438.09,40 	"/>
</g>
<g>
	<polygon class="st1" points="907.58,5.84 803.76,5.84 832.33,40 803.76,74.16 907.58,74.16 936.15,40 	"/>
	<polygon class="st1" points="1007.1,5.84 903.28,5.84 931.86,40 903.28,74.16 1007.1,74.16 1035.67,40 	"/>
	<polygon class="st1" points="1105.66,5.84 1001.84,5.84 1030.42,40 1001.84,74.16 1105.66,74.16 1134.23,40 	"/>
</g>
<g>
	<polygon class="st1" points="508.54,5.84 404.72,5.84 433.29,40 404.72,74.16 508.54,74.16 537.11,40 	"/>
	<polygon class="st1" points="608.06,5.84 504.25,5.84 532.82,40 504.25,74.16 608.06,74.16 636.64,40 	"/>
	<polygon class="st1" points="707.98,5.84 604.16,5.84 632.73,40 604.16,74.16 707.98,74.16 736.55,40 	"/>
	<polygon class="st1" points="808.23,5.84 704.41,5.84 732.99,40 704.41,74.16 808.23,74.16 836.8,40 	"/>
</g>
</svg>
