<?xml version="1.0" encoding="utf-8"?>
<!-- Generator: Adobe Illustrator 25.0.1, SVG Export Plug-In . SVG Version: 6.00 Build 0)  -->
<svg version="1.1" id="Layer_1" xmlns="http://www.w3.org/2000/svg" xmlns:xlink="http://www.w3.org/1999/xlink" x="0px" y="0px"
	 viewBox="0 0 180 150" style="enable-background:new 0 0 180 150;" xml:space="preserve">
<style type="text/css">
	.st0{fill:#332D2F;}
	.st1{fill:none;}
	.st2{enable-background:new    ;}
	.st3{fill:#FFFFFF;}
	.st4{fill:#E33231;stroke:#332D2F;stroke-width:0.4795;stroke-linecap:round;stroke-linejoin:round;stroke-miterlimit:10;}
</style>
<g>
	<polygon class="st0" points="130.41,5 49.59,5 9.18,75 49.59,145 130.41,145 170.82,75 	"/>
	<g>
		<polygon class="st1" points="41.05,121.36 41.05,107.55 138.95,107.55 138.95,121.32 		"/>
		<g class="st2">
			<path class="st3" d="M56.32,116.05l1-1.19c0.91,0.79,1.81,1.23,2.99,1.23c1.03,0,1.68-0.47,1.68-1.19v-0.03
				c0-0.68-0.38-1.04-2.14-1.45c-2.02-0.49-3.15-1.08-3.15-2.83v-0.03c0-1.62,1.35-2.75,3.23-2.75c1.38,0,2.48,0.42,3.44,1.19
				l-0.89,1.26c-0.85-0.64-1.71-0.97-2.57-0.97c-0.97,0-1.54,0.5-1.54,1.12v0.03c0,0.73,0.43,1.06,2.25,1.49
				c2,0.49,3.04,1.21,3.04,2.77v0.03c0,1.77-1.39,2.83-3.38,2.83C58.83,117.57,57.46,117.07,56.32,116.05z"/>
			<path class="st3" d="M65.47,113.42v-5.46h1.66v5.39c0,1.76,0.91,2.71,2.4,2.71c1.48,0,2.38-0.89,2.38-2.64v-5.46h1.66v5.37
				c0,2.83-1.6,4.25-4.07,4.25C67.04,117.58,65.47,116.16,65.47,113.42z"/>
			<path class="st3" d="M75.87,107.96h3.74c2.21,0,3.6,1.26,3.6,3.17v0.03c0,2.13-1.71,3.24-3.79,3.24h-1.88v3.04h-1.66V107.96z
				 M79.47,112.89c1.26,0,2.04-0.7,2.04-1.69v-0.03c0-1.11-0.8-1.69-2.04-1.69h-1.94v3.41H79.47z"/>
			<path class="st3" d="M84.91,107.96h3.74c2.21,0,3.6,1.26,3.6,3.17v0.03c0,2.13-1.7,3.24-3.79,3.24h-1.88v3.04h-1.66V107.96z
				 M88.51,112.89c1.26,0,2.04-0.7,2.04-1.69v-0.03c0-1.11-0.8-1.69-2.04-1.69h-1.94v3.41H88.51z"/>
			<path class="st3" d="M93.95,107.96h1.66v7.96h4.98v1.52h-6.65V107.96z"/>
			<path class="st3" d="M102.43,107.96h1.67v9.47h-1.67V107.96z"/>
			<path class="st3" d="M106.62,107.96h7.02v1.49h-5.36v2.46h4.75v1.49h-4.75v2.54h5.43v1.49h-7.09V107.96z"/>
			<path class="st3" d="M115.69,107.96h4.22c1.19,0,2.13,0.35,2.73,0.95c0.5,0.51,0.79,1.22,0.79,2.04v0.03
				c0,1.56-0.93,2.49-2.26,2.87l2.56,3.59h-1.96l-2.33-3.3h-2.08v3.3h-1.67V107.96z M119.79,112.66c1.19,0,1.95-0.62,1.95-1.58
				v-0.03c0-1.01-0.73-1.57-1.96-1.57h-2.42v3.18H119.79z"/>
		</g>
	</g>
	<g>
		<g>
			<path class="st3" d="M71.9,88.7c-0.4,0-0.72-0.32-0.72-0.72V61.41c0-0.4,0.32-0.72,0.72-0.72h21.26v-1.86H69.32v31.72h42.08
				v-20.7h-1.86v18.12c0,0.4-0.32,0.72-0.72,0.72H71.9V88.7z"/>
		</g>
		<g>
			<path class="st4" d="M101.21,84.1c-0.32,0-0.62-0.17-0.78-0.45l-9.54-16.53c-0.16-0.28-0.16-0.62,0-0.9s0.46-0.45,0.78-0.45h3.12
				c-0.32-2.34-1.19-7.17-3.34-11.83c-3.17-6.88-7.78-10.65-13.72-11.22c-0.43-0.04-0.78-0.39-0.81-0.82
				c-0.04-0.43,0.25-0.83,0.67-0.94c0.41-0.11,10.2-2.61,18.66,3.17c6.06,4.14,9.79,11.42,11.09,21.65h3.42
				c0.32,0,0.62,0.17,0.78,0.45c0.16,0.28,0.16,0.62,0,0.9L102,83.66C101.82,83.93,101.53,84.1,101.21,84.1z M93.22,67.58
				l7.98,13.83l7.98-13.83h-2.66c-0.46,0-0.84-0.34-0.89-0.8c-1.15-10.09-4.64-17.21-10.4-21.15c-4.29-2.94-9.06-3.53-12.48-3.47
				c4.29,1.83,7.81,5.57,10.33,11.03c2.64,5.74,3.44,11.7,3.62,13.39c0.03,0.25-0.05,0.51-0.23,0.7c-0.17,0.19-0.41,0.3-0.67,0.3
				C95.8,67.58,93.22,67.58,93.22,67.58z"/>
		</g>
	</g>
</g>
</svg>
