<?xml version="1.0" encoding="utf-8"?>
<!-- Generator: Adobe Illustrator 25.0.1, SVG Export Plug-In . SVG Version: 6.00 Build 0)  -->
<svg version="1.1" id="Layer_1" xmlns="http://www.w3.org/2000/svg" xmlns:xlink="http://www.w3.org/1999/xlink" x="0px" y="0px"
	 viewBox="0 0 72 62.35" style="enable-background:new 0 0 72 62.35;" xml:space="preserve">
<style type="text/css">
	.st0{fill:#342D2F;}
	.st1{clip-path:url(#SVGID_2_);fill-rule:evenodd;clip-rule:evenodd;fill:#FFFFFF;}
</style>
<g>
	<g>
		<polygon class="st0" points="53.71,0.51 18.29,0.51 0.59,31.18 18.29,61.84 53.71,61.84 71.41,31.18 		"/>
	</g>
	<g>
		<defs>
			<rect id="SVGID_1_" x="17.75" y="10.02" width="33.01" height="33.01"/>
		</defs>
		<clipPath id="SVGID_2_">
			<use xlink:href="#SVGID_1_"  style="overflow:visible;"/>
		</clipPath>
		<path class="st1" d="M49.91,43.69h-6.98v5.4h-0.3c-0.46-1.49-1.32-2.74-2.6-3.72c-0.81-0.62-1.72-1.11-2.72-1.46l-0.4-4.62
			l0.68-1.31l-1.64-1.31l-1.64,1.31l0.71,1.31l-0.34,4.04c-0.52-0.06-1.06-0.09-1.62-0.09c-2.03,0-3.85,0.39-5.43,1.15
			c-1.64,0.79-2.94,1.94-3.87,3.41c-0.26,0.41-0.48,0.84-0.67,1.28h-1l0.01-7.48c0,0-0.26-1.24,2.11-2.22
			c2.37-0.97,6.8-2.84,6.8-2.84l0.99-1.74l0.86-0.13v-0.38c-0.92-0.98-1.12-2.72-1.93-4.87c-0.01-0.04-0.03-0.09-0.04-0.13
			c-0.23,0.04-0.46,0.04-0.62-0.07c-0.45-0.3-0.72-1.91-0.73-2.7c-0.01-1.18,0.55-1.07,0.55-1.07s0.02,0,0.05-0.01
			c0-0.1-0.01-0.18-0.01-0.28c0-1.11-0.2-2.89,0.06-3.87c0.41-1.52,0.89-3.19,1.97-3.19c1,0,0.32-1.31,1.55-1.74
			c1.26-0.46,3.35,0.34,3.76,0.34c0.61,0,2.14,0.5,3.19,1.67c0.75,0.82,0.66,1.39,1.07,2.91C42,22.3,41.8,24.1,41.8,25.17
			c0,0.1-0.01,0.19-0.01,0.28c0.02,0.01,0.03,0.01,0.03,0.01s0.57-0.12,0.55,1.07c-0.01,0.79-0.28,2.41-0.74,2.7
			c-0.16,0.11-0.38,0.11-0.6,0.07c-0.01,0.04-0.02,0.08-0.04,0.12c-0.77,2.06-1.1,3.91-1.91,4.85v0.4l0.79,0.13l0.92,1.46l7.4,3.54
			c0,0,1.65,0.21,1.71,2.29C49.9,42.14,49.9,42.76,49.91,43.69z"/>
	</g>
</g>
</svg>
