<?xml version="1.0" encoding="utf-8"?>
<!-- Generator: Adobe Illustrator 25.0.1, SVG Export Plug-In . SVG Version: 6.00 Build 0)  -->
<svg version="1.1" id="Layer_1" xmlns="http://www.w3.org/2000/svg" xmlns:xlink="http://www.w3.org/1999/xlink" x="0px" y="0px"
	 viewBox="0 0 72 62.35" style="enable-background:new 0 0 72 62.35;" xml:space="preserve">
<style type="text/css">
	.st0{fill:#342D2F;}
	.st1{fill:#F5F6F6;}
</style>
<g>
	<g>
		<polygon class="st0" points="53.71,0.51 18.29,0.51 0.59,31.18 18.29,61.84 53.71,61.84 71.41,31.18 		"/>
	</g>
	<g>
		<g>
			<g>
				<path class="st1" d="M36.51,37.33c-0.04,0-0.09-0.01-0.12-0.03l-5.17-2.98c-0.08-0.05-0.13-0.13-0.05,0.15V28.5
					c-0.07-0.45-0.02-0.54,0.05-0.58l2.58-1.49l2.58-1.49c0.08-0.04,0.17-0.04,0.25,0l2.58,1.49l2.58,1.49
					c0.08,0.05,0.13,0.13,0.13,0.22v5.96c0,0.09-0.05,0.17-0.13,0.22l-5.17,2.98C36.6,37.32,36.56,37.33,36.51,37.33z M31.6,33.95
					l4.92,2.84l4.92-2.84v-5.67l-2.46-1.42l-2.46-1.42l-4.92,2.84V33.95z"/>
				<path class="st1" d="M36.51,37.49c-0.07,0-0.14-0.02-0.21-0.06l-5-2.88c-0.03,0.04-0.07,0.07-0.12,0.07
					c-0.08,0.01-0.16-0.04-0.18-0.12c-0.04-0.14-0.06-0.25-0.01-0.33V28.5c-0.06-0.38-0.06-0.61,0.14-0.73l5.17-2.98
					c0.13-0.07,0.29-0.07,0.42,0l5.17,2.98c0.13,0.07,0.21,0.21,0.21,0.36v5.96c0,0.15-0.08,0.29-0.21,0.36l-5.17,2.98
					C36.66,37.47,36.58,37.49,36.51,37.49z M31.33,34.18l5.14,2.97c0.03,0.01,0.06,0.01,0.09,0l5.17-2.98
					c0.03-0.02,0.04-0.04,0.04-0.07v-5.96c0-0.03-0.02-0.06-0.04-0.07l-5.17-2.98c-0.03-0.02-0.06-0.02-0.09,0l-5.17,2.98
					c0,0-0.03,0.08,0.03,0.41L31.33,34.18z M36.51,36.95c-0.03,0-0.06-0.01-0.08-0.02l-4.92-2.84c-0.05-0.03-0.08-0.08-0.08-0.14
					v-5.67c0-0.06,0.03-0.11,0.08-0.14l4.92-2.84c0.05-0.03,0.11-0.03,0.17,0l4.92,2.84c0.05,0.03,0.08,0.08,0.08,0.14v5.67
					c0,0.06-0.03,0.11-0.08,0.14l-4.92,2.84C36.57,36.95,36.54,36.95,36.51,36.95z M31.76,33.86l4.75,2.74l4.75-2.74v-5.48
					l-4.75-2.74l-4.75,2.74V33.86z"/>
			</g>
		</g>
		<g>
			<g>
				<path class="st1" d="M36.51,25.4c-0.14,0-0.25-0.11-0.25-0.25v-2.62c0-0.14,0.11-0.25,0.25-0.25c0.14,0,0.25,0.11,0.25,0.25
					v2.62C36.76,25.29,36.65,25.4,36.51,25.4z"/>
				<path class="st1" d="M36.51,25.48c-0.18,0-0.33-0.15-0.33-0.33v-2.62c0-0.18,0.15-0.33,0.33-0.33c0.18,0,0.33,0.15,0.33,0.33
					v2.62C36.85,25.33,36.7,25.48,36.51,25.48z M36.51,22.37c-0.09,0-0.17,0.08-0.17,0.17v2.62c0,0.09,0.08,0.17,0.17,0.17
					c0.09,0,0.17-0.08,0.17-0.17v-2.62C36.68,22.44,36.6,22.37,36.51,22.37z"/>
			</g>
		</g>
		<g>
			<g>
				<path class="st1" d="M41.73,28.41c-0.09,0-0.17-0.05-0.22-0.13c-0.07-0.12-0.03-0.27,0.09-0.34l2.27-1.31
					c0.12-0.07,0.27-0.03,0.34,0.09c0.07,0.12,0.03,0.27-0.09,0.34l-2.27,1.31C41.82,28.4,41.78,28.41,41.73,28.41z"/>
				<path class="st1" d="M41.73,28.5c-0.12,0-0.23-0.06-0.29-0.17c-0.09-0.16-0.04-0.36,0.12-0.46l2.27-1.31
					c0.16-0.09,0.36-0.04,0.46,0.12c0.04,0.08,0.06,0.17,0.03,0.25c-0.02,0.09-0.08,0.16-0.16,0.2l-2.27,1.31
					C41.85,28.48,41.79,28.5,41.73,28.5z M44,26.69c-0.03,0-0.06,0.01-0.08,0.02l-2.27,1.31c-0.08,0.05-0.11,0.15-0.06,0.23
					c0.05,0.08,0.15,0.11,0.23,0.06L44.08,27c0.04-0.02,0.07-0.06,0.08-0.1c0.01-0.04,0.01-0.09-0.02-0.13
					C44.11,26.72,44.06,26.69,44,26.69z"/>
			</g>
		</g>
		<g>
			<g>
				<path class="st1" d="M44,35.75c-0.04,0-0.09-0.01-0.13-0.03l-2.27-1.31c-0.12-0.07-0.16-0.22-0.09-0.34
					c0.07-0.12,0.22-0.16,0.34-0.09l2.27,1.31c0.12,0.07,0.16,0.22,0.09,0.34C44.17,35.7,44.09,35.75,44,35.75z"/>
				<path class="st1" d="M44,35.83c-0.06,0-0.12-0.02-0.17-0.04l-2.27-1.31c-0.16-0.09-0.21-0.3-0.12-0.46s0.3-0.21,0.46-0.12
					l2.27,1.31c0.08,0.04,0.13,0.12,0.16,0.2c0.02,0.09,0.01,0.18-0.03,0.25C44.23,35.77,44.12,35.83,44,35.83z M41.73,34.02
					c-0.06,0-0.11,0.03-0.15,0.08c-0.05,0.08-0.02,0.18,0.06,0.23l2.27,1.31c0.08,0.05,0.19,0.02,0.23-0.06
					c0.02-0.04,0.03-0.08,0.02-0.13c-0.01-0.04-0.04-0.08-0.08-0.1l-2.27-1.31C41.79,34.03,41.76,34.02,41.73,34.02z"/>
			</g>
		</g>
		<g>
			<g>
				<path class="st1" d="M36.51,40.07c-0.14,0-0.25-0.11-0.25-0.25V37.2c0-0.14,0.11-0.25,0.25-0.25c0.14,0,0.25,0.11,0.25,0.25
					v2.61C36.76,39.96,36.65,40.07,36.51,40.07z"/>
				<path class="st1" d="M36.51,40.15c-0.18,0-0.33-0.15-0.33-0.33V37.2c0-0.18,0.15-0.33,0.33-0.33c0.18,0,0.33,0.15,0.33,0.33
					v2.61C36.85,40,36.7,40.15,36.51,40.15z M36.51,37.03c-0.09,0-0.17,0.08-0.17,0.17v2.61c0,0.09,0.08,0.17,0.17,0.17
					c0.09,0,0.17-0.08,0.17-0.17V37.2C36.68,37.11,36.6,37.03,36.51,37.03z"/>
			</g>
		</g>
		<g>
			<g>
				<path class="st1" d="M29.02,35.75c-0.09,0-0.17-0.04-0.22-0.13c-0.07-0.12-0.03-0.27,0.09-0.34l2.27-1.31
					c0.12-0.07,0.27-0.03,0.34,0.09c0.07,0.12,0.03,0.27-0.09,0.34l-2.27,1.31C29.11,35.74,29.06,35.75,29.02,35.75z"/>
				<path class="st1" d="M29.02,35.83c-0.12,0-0.23-0.06-0.29-0.17c-0.04-0.08-0.06-0.17-0.03-0.25c0.02-0.09,0.08-0.16,0.16-0.2
					l2.27-1.31c0.08-0.04,0.17-0.06,0.25-0.03c0.09,0.02,0.16,0.08,0.2,0.16c0.04,0.08,0.06,0.17,0.03,0.25
					c-0.02,0.09-0.08,0.16-0.16,0.2l-2.27,1.31C29.14,35.82,29.08,35.83,29.02,35.83z M31.29,34.02c-0.03,0-0.06,0.01-0.08,0.02
					l-2.27,1.31c-0.04,0.02-0.07,0.06-0.08,0.1c-0.01,0.04-0.01,0.09,0.02,0.13c0.04,0.08,0.15,0.11,0.23,0.06l2.27-1.31
					c0.04-0.02,0.07-0.06,0.08-0.1c0.01-0.04,0.01-0.09-0.02-0.13c-0.02-0.04-0.06-0.07-0.1-0.08
					C31.32,34.02,31.3,34.02,31.29,34.02z"/>
			</g>
		</g>
		<g>
			<g>
				<path class="st1" d="M31.29,28.41c-0.04,0-0.09-0.01-0.13-0.03l-2.27-1.31c-0.12-0.07-0.16-0.22-0.09-0.34
					c0.07-0.12,0.22-0.16,0.34-0.09l2.27,1.31c0.12,0.07,0.16,0.22,0.09,0.34C31.46,28.37,31.38,28.41,31.29,28.41z"/>
				<path class="st1" d="M31.29,28.5c-0.06,0-0.12-0.02-0.17-0.04l-2.27-1.31c-0.16-0.09-0.21-0.3-0.12-0.46
					c0.04-0.08,0.12-0.13,0.2-0.16c0.09-0.02,0.18-0.01,0.25,0.03l2.27,1.31c0.08,0.04,0.13,0.12,0.16,0.2
					c0.02,0.09,0.01,0.18-0.03,0.25C31.52,28.43,31.41,28.5,31.29,28.5z M29.02,26.69c-0.01,0-0.03,0-0.04,0.01
					c-0.04,0.01-0.08,0.04-0.1,0.08c-0.05,0.08-0.02,0.18,0.06,0.23l2.27,1.31c0.08,0.05,0.19,0.02,0.23-0.06
					c0.02-0.04,0.03-0.08,0.02-0.13c-0.01-0.04-0.04-0.08-0.08-0.1l-2.27-1.31C29.08,26.69,29.05,26.69,29.02,26.69z"/>
			</g>
		</g>
		<g>
			<g>
				<path class="st1" d="M36.51,22.79c-1.73,0-3.14-1.41-3.14-3.14c0-1.73,1.41-3.14,3.14-3.14c1.73,0,3.14,1.41,3.14,3.14
					C39.65,21.38,38.24,22.79,36.51,22.79z M36.51,17.01c-1.45,0-2.64,1.18-2.64,2.64c0,1.45,1.18,2.64,2.64,2.64
					c1.46,0,2.64-1.18,2.64-2.64C39.15,18.19,37.97,17.01,36.51,17.01z"/>
				<path class="st1" d="M36.51,22.87c-1.78,0-3.22-1.44-3.22-3.22c0-1.78,1.45-3.22,3.22-3.22c1.78,0,3.22,1.45,3.22,3.22
					C39.74,21.42,38.29,22.87,36.51,22.87z M36.51,16.59c-1.69,0-3.06,1.37-3.06,3.06c0,1.68,1.37,3.05,3.06,3.05
					c1.69,0,3.06-1.37,3.06-3.05C39.57,17.96,38.2,16.59,36.51,16.59z M36.51,22.37c-1.5,0-2.72-1.22-2.72-2.72
					c0-1.5,1.22-2.72,2.72-2.72c1.5,0,2.72,1.22,2.72,2.72C39.23,21.15,38.01,22.37,36.51,22.37z M36.51,17.09
					c-1.41,0-2.56,1.15-2.56,2.55c0,1.41,1.15,2.55,2.56,2.55c1.41,0,2.56-1.15,2.56-2.55C39.07,18.24,37.92,17.09,36.51,17.09z"/>
			</g>
		</g>
		<g>
			<g>
				<path class="st1" d="M46.51,28.55c-1.12,0-2.16-0.6-2.72-1.57c-0.42-0.73-0.53-1.57-0.31-2.38c0.22-0.81,0.74-1.49,1.46-1.91
					c0.48-0.28,1.02-0.42,1.57-0.42c1.12,0,2.16,0.6,2.72,1.57c0.42,0.73,0.53,1.57,0.31,2.38c-0.22,0.81-0.74,1.49-1.46,1.91
					C47.6,28.41,47.05,28.55,46.51,28.55z M46.5,22.77c-0.46,0-0.92,0.12-1.32,0.35c-0.61,0.35-1.05,0.92-1.23,1.6
					c-0.18,0.68-0.09,1.39,0.26,2c0.47,0.81,1.35,1.32,2.29,1.32c0.46,0,0.91-0.12,1.32-0.35c0.61-0.35,1.05-0.92,1.23-1.6
					c0.18-0.68,0.09-1.39-0.26-2C48.32,23.28,47.44,22.77,46.5,22.77z"/>
				<path class="st1" d="M46.51,28.63c-1.15,0-2.22-0.62-2.79-1.61c-0.43-0.75-0.54-1.61-0.32-2.45c0.22-0.83,0.76-1.53,1.5-1.96
					c0.49-0.28,1.05-0.43,1.61-0.43c1.15,0,2.22,0.62,2.8,1.61c0.43,0.75,0.54,1.61,0.32,2.44c-0.22,0.83-0.76,1.53-1.5,1.96
					C47.63,28.48,47.07,28.63,46.51,28.63z M46.5,22.35c-0.53,0-1.06,0.14-1.53,0.41c-0.71,0.41-1.21,1.07-1.42,1.86
					c-0.21,0.79-0.1,1.61,0.31,2.32c0.55,0.94,1.56,1.53,2.65,1.53c0.53,0,1.06-0.14,1.53-0.41c0.71-0.41,1.21-1.07,1.43-1.86
					c0.21-0.79,0.1-1.61-0.3-2.32C48.61,22.94,47.59,22.35,46.5,22.35z M46.51,28.13c-0.97,0-1.87-0.52-2.36-1.36
					c-0.36-0.63-0.46-1.36-0.27-2.07c0.19-0.7,0.64-1.29,1.27-1.65c0.41-0.24,0.88-0.36,1.36-0.36c0.97,0,1.88,0.52,2.36,1.36
					c0.36,0.63,0.46,1.36,0.27,2.06c-0.19,0.7-0.64,1.29-1.27,1.65C47.45,28.01,46.98,28.13,46.51,28.13z M46.5,22.86
					c-0.45,0-0.89,0.12-1.28,0.34c-0.59,0.34-1.01,0.89-1.19,1.55c-0.18,0.66-0.09,1.35,0.26,1.94c0.46,0.79,1.31,1.28,2.22,1.28
					c0.45,0,0.89-0.12,1.27-0.34c0.59-0.34,1.01-0.89,1.19-1.55c0.18-0.66,0.09-1.35-0.25-1.94C48.26,23.35,47.41,22.86,46.5,22.86z
					"/>
			</g>
		</g>
		<g>
			<g>
				<path class="st1" d="M46.5,40.08c-0.55,0-1.09-0.15-1.57-0.42c-0.73-0.42-1.25-1.09-1.46-1.9c-0.22-0.81-0.11-1.66,0.31-2.38
					c0.56-0.97,1.6-1.57,2.72-1.57c0.55,0,1.09,0.15,1.57,0.42c1.5,0.86,2.02,2.79,1.15,4.29C48.67,39.48,47.62,40.08,46.5,40.08z
					 M46.51,34.3c-0.94,0-1.82,0.51-2.29,1.32c-0.35,0.61-0.45,1.32-0.26,2c0.18,0.68,0.62,1.25,1.23,1.6
					c0.4,0.23,0.86,0.35,1.32,0.35c0.94,0,1.82-0.51,2.29-1.32c0.73-1.26,0.29-2.88-0.97-3.6C47.42,34.43,46.97,34.3,46.51,34.3z"/>
				<path class="st1" d="M46.5,40.16c-0.56,0-1.12-0.15-1.61-0.43c-0.75-0.43-1.28-1.12-1.5-1.95c-0.22-0.83-0.11-1.7,0.32-2.45
					c0.57-0.99,1.65-1.61,2.8-1.61c0.56,0,1.12,0.15,1.61,0.43c0.74,0.43,1.28,1.12,1.5,1.96c0.22,0.83,0.11,1.7-0.32,2.44
					C48.72,39.55,47.65,40.16,46.5,40.16z M46.51,33.89c-1.09,0-2.11,0.59-2.65,1.53c-0.41,0.71-0.52,1.53-0.31,2.32
					c0.21,0.79,0.72,1.45,1.42,1.85C45.44,39.86,45.97,40,46.5,40c1.09,0,2.11-0.59,2.65-1.53c0.41-0.71,0.51-1.53,0.3-2.32
					c-0.21-0.79-0.72-1.45-1.42-1.86C47.57,34.03,47.04,33.89,46.51,33.89z M46.5,39.66c-0.48,0-0.95-0.13-1.36-0.37
					c-0.63-0.36-1.08-0.95-1.27-1.65c-0.19-0.7-0.09-1.44,0.27-2.07c0.49-0.84,1.39-1.36,2.36-1.36c0.48,0,0.94,0.13,1.36,0.37
					c0.63,0.36,1.08,0.95,1.27,1.65c0.19,0.7,0.09,1.44-0.27,2.06C48.38,39.14,47.47,39.66,46.5,39.66z M46.51,34.39
					c-0.91,0-1.76,0.49-2.22,1.28c-0.34,0.59-0.43,1.28-0.26,1.94c0.18,0.66,0.6,1.21,1.19,1.55c0.39,0.22,0.83,0.34,1.28,0.34
					c0.91,0,1.76-0.49,2.22-1.28c0.34-0.59,0.43-1.28,0.25-1.94c-0.18-0.66-0.6-1.21-1.19-1.55C47.39,34.51,46.95,34.39,46.51,34.39
					z"/>
			</g>
		</g>
		<g>
			<g>
				<path class="st1" d="M36.51,45.85c-1.73,0-3.14-1.41-3.14-3.14c0-1.73,1.41-3.14,3.14-3.14c1.73,0,3.14,1.41,3.14,3.14
					C39.65,44.44,38.24,45.85,36.51,45.85z M36.51,40.07c-1.45,0-2.64,1.18-2.64,2.64c0,1.45,1.18,2.64,2.64,2.64
					c1.46,0,2.64-1.18,2.64-2.64C39.15,41.25,37.97,40.07,36.51,40.07z"/>
				<path class="st1" d="M36.51,45.93c-1.78,0-3.22-1.45-3.22-3.22c0-1.78,1.45-3.22,3.22-3.22c1.78,0,3.22,1.45,3.22,3.22
					C39.74,44.48,38.29,45.93,36.51,45.93z M36.51,39.65c-1.69,0-3.06,1.37-3.06,3.06c0,1.69,1.37,3.06,3.06,3.06
					c1.69,0,3.06-1.37,3.06-3.06C39.57,41.02,38.2,39.65,36.51,39.65z M36.51,45.43c-1.5,0-2.72-1.22-2.72-2.72
					c0-1.5,1.22-2.72,2.72-2.72c1.5,0,2.72,1.22,2.72,2.72C39.23,44.21,38.01,45.43,36.51,45.43z M36.51,40.15
					c-1.41,0-2.56,1.15-2.56,2.56c0,1.41,1.15,2.55,2.56,2.55c1.41,0,2.56-1.15,2.56-2.55C39.07,41.3,37.92,40.15,36.51,40.15z"/>
			</g>
		</g>
		<g>
			<g>
				<path class="st1" d="M26.52,40.08c-1.12,0-2.16-0.6-2.72-1.57c-0.42-0.73-0.53-1.57-0.31-2.38c0.22-0.81,0.74-1.49,1.46-1.91
					c0.48-0.28,1.02-0.42,1.57-0.42c1.12,0,2.16,0.6,2.72,1.57c0.42,0.73,0.53,1.57,0.31,2.38c-0.22,0.81-0.74,1.49-1.46,1.9
					C27.61,39.93,27.07,40.08,26.52,40.08z M26.52,34.3c-0.46,0-0.92,0.12-1.32,0.35c-0.61,0.35-1.05,0.92-1.23,1.6
					c-0.18,0.68-0.09,1.39,0.26,2c0.47,0.81,1.35,1.32,2.29,1.32c0.46,0,0.92-0.12,1.32-0.35c0.61-0.35,1.05-0.92,1.23-1.6
					c0.18-0.68,0.09-1.39-0.26-2C28.34,34.81,27.46,34.3,26.52,34.3z"/>
				<path class="st1" d="M26.52,40.16c-1.15,0-2.22-0.62-2.79-1.61c-0.43-0.75-0.55-1.61-0.32-2.45c0.22-0.83,0.76-1.53,1.5-1.96
					c0.49-0.28,1.05-0.43,1.61-0.43c1.15,0,2.22,0.62,2.79,1.61c0.43,0.75,0.54,1.61,0.32,2.45c-0.22,0.83-0.76,1.53-1.5,1.95
					C27.64,40.01,27.08,40.16,26.52,40.16z M26.52,33.89c-0.53,0-1.06,0.14-1.53,0.41c-0.71,0.41-1.21,1.07-1.42,1.86
					c-0.21,0.79-0.1,1.61,0.31,2.32c0.54,0.94,1.56,1.53,2.65,1.53c0.53,0,1.06-0.14,1.53-0.41c0.71-0.41,1.21-1.07,1.42-1.85
					c0.21-0.79,0.1-1.61-0.31-2.32C28.62,34.47,27.61,33.89,26.52,33.89z M26.52,39.66c-0.97,0-1.87-0.52-2.36-1.36
					c-0.36-0.63-0.46-1.36-0.27-2.06c0.19-0.7,0.64-1.29,1.27-1.65c0.41-0.24,0.88-0.36,1.36-0.36c0.97,0,1.88,0.52,2.36,1.36
					c0.36,0.63,0.46,1.36,0.27,2.07c-0.19,0.7-0.64,1.29-1.27,1.65C27.47,39.54,27,39.66,26.52,39.66z M26.52,34.39
					c-0.45,0-0.89,0.12-1.27,0.34c-0.59,0.34-1.01,0.89-1.19,1.55c-0.18,0.66-0.09,1.35,0.26,1.94c0.46,0.79,1.3,1.28,2.21,1.28
					c0.45,0,0.89-0.12,1.28-0.34c0.59-0.34,1.01-0.89,1.19-1.55c0.18-0.66,0.09-1.35-0.25-1.94C28.28,34.88,27.43,34.39,26.52,34.39
					z"/>
			</g>
		</g>
		<g>
			<g>
				<path class="st1" d="M26.52,28.55c-0.55,0-1.09-0.15-1.57-0.42c-0.73-0.42-1.25-1.1-1.46-1.91c-0.22-0.81-0.11-1.66,0.31-2.38
					c0.56-0.97,1.6-1.57,2.72-1.57c0.55,0,1.09,0.15,1.57,0.42c1.5,0.87,2.01,2.79,1.15,4.29C28.68,27.95,27.64,28.55,26.52,28.55z
					 M26.52,22.77c-0.94,0-1.82,0.51-2.29,1.32c-0.35,0.61-0.45,1.32-0.26,2c0.18,0.68,0.62,1.25,1.23,1.6
					c0.4,0.23,0.86,0.35,1.32,0.35c0.94,0,1.82-0.51,2.29-1.32c0.73-1.26,0.29-2.88-0.97-3.6C27.44,22.9,26.98,22.77,26.52,22.77z"
					/>
				<path class="st1" d="M26.52,28.63c-0.56,0-1.12-0.15-1.61-0.43c-0.75-0.43-1.28-1.13-1.5-1.96c-0.22-0.83-0.11-1.7,0.32-2.44
					c0.57-0.99,1.64-1.61,2.79-1.61c0.56,0,1.12,0.15,1.61,0.43c1.54,0.89,2.07,2.86,1.18,4.4C28.74,28.02,27.67,28.63,26.52,28.63z
					 M26.52,22.36c-1.09,0-2.11,0.59-2.65,1.53c-0.41,0.71-0.52,1.53-0.31,2.32c0.21,0.79,0.72,1.45,1.42,1.86
					c0.46,0.27,0.99,0.41,1.53,0.41c1.09,0,2.11-0.59,2.65-1.53c0.84-1.46,0.34-3.33-1.12-4.18C27.58,22.5,27.06,22.36,26.52,22.36z
					 M26.52,28.13c-0.48,0-0.94-0.13-1.36-0.36c-0.63-0.36-1.08-0.95-1.27-1.65c-0.19-0.7-0.09-1.43,0.27-2.06
					c0.49-0.84,1.39-1.36,2.36-1.36c0.47,0,0.94,0.13,1.36,0.36c1.3,0.75,1.75,2.42,1,3.72C28.39,27.61,27.49,28.13,26.52,28.13z
					 M26.52,22.86c-0.91,0-1.76,0.49-2.22,1.28c-0.34,0.59-0.43,1.28-0.26,1.94c0.18,0.66,0.6,1.21,1.19,1.55
					c0.39,0.22,0.83,0.34,1.28,0.34c0.91,0,1.76-0.49,2.22-1.28c0.7-1.22,0.28-2.79-0.94-3.49C27.41,22.98,26.97,22.86,26.52,22.86z
					"/>
			</g>
		</g>
	</g>
</g>
</svg>
