<?xml version="1.0" encoding="utf-8"?>
<!-- Generator: Adobe Illustrator 25.0.1, SVG Export Plug-In . SVG Version: 6.00 Build 0)  -->
<svg version="1.1" id="Layer_1" xmlns="http://www.w3.org/2000/svg" xmlns:xlink="http://www.w3.org/1999/xlink" x="0px" y="0px"
	 viewBox="0 0 72 62.35" style="enable-background:new 0 0 72 62.35;" xml:space="preserve">
<style type="text/css">
	.st0{fill:#342D2F;}
	.st1{fill:none;stroke:#FFFFFF;stroke-miterlimit:10;}
</style>
<g>
	<g>
		<polygon class="st0" points="53.71,0.51 18.29,0.51 0.59,31.18 18.29,61.84 53.71,61.84 71.41,31.18 		"/>
	</g>
	<g>
		<g>
			<path class="st1" d="M48.52,31.59l0.11-3.47l-2.1-0.07c-0.13-0.72-0.33-1.42-0.59-2.08l1.93-1.06l-1.67-3.05L44.15,23
				c-0.44-0.52-0.93-1-1.47-1.42l1.23-2.07l-2.99-1.77l-1.26,2.14c-0.61-0.22-1.25-0.39-1.91-0.5v-2.51h-3.47v2.51
				c-0.5,0.08-0.99,0.2-1.47,0.34l-1.17-2.2l-3.07,1.63l1.13,2.14c-0.49,0.36-0.96,0.76-1.38,1.2l-1.99-1.27l-1.87,2.93l1.88,1.2
				c-0.3,0.64-0.55,1.32-0.72,2.02l-2.13-0.07l-0.11,3.47l1.98,0.06c0.06,0.77,0.21,1.52,0.43,2.24l-1.65,0.9l1.67,3.04l1.53-0.84
				c0.47,0.65,1.01,1.25,1.61,1.77l-0.85,1.43l2.99,1.77l0.81-1.36c0.75,0.31,1.55,0.54,2.37,0.67v1.56h3.47v-1.56
				c0.65-0.1,1.29-0.27,1.9-0.49l0.74,1.39l3.06-1.63l-0.77-1.46c0.57-0.46,1.1-0.97,1.57-1.54l1.45,0.92l1.86-2.93l-1.56-0.99
				c0.27-0.71,0.47-1.45,0.59-2.22L48.52,31.59z"/>
			<path class="st1" d="M36,21.86c-4.19,0-7.59,3.4-7.59,7.59s3.4,7.59,7.59,7.59c4.19,0,7.59-3.4,7.59-7.59S40.2,21.86,36,21.86z
				 M36,34.64c-2.87,0-5.2-2.33-5.2-5.2c0-2.87,2.33-5.2,5.2-5.2c2.87,0,5.2,2.33,5.2,5.2C41.2,32.32,38.87,34.64,36,34.64z"/>
		</g>
	</g>
</g>
</svg>
