<svg id="Layer_1" data-name="Layer 1" xmlns="http://www.w3.org/2000/svg" xmlns:xlink="http://www.w3.org/1999/xlink" viewBox="0 0 75.69 134.75"><defs><style>.cls-1{fill:none;}.cls-2{clip-path:url(#clip-path);}.cls-3{clip-path:url(#clip-path-2);}.cls-4{fill:#e73231;}</style><clipPath id="clip-path"><rect class="cls-1" x="-99.62" y="320.79" width="1920.09" height="323.55"/></clipPath><clipPath id="clip-path-2"><rect class="cls-1" width="75.69" height="134.75"/></clipPath></defs><g class="cls-2"><image width="4000" height="3000" transform="translate(-144.82 -12.78) scale(0.32 0.32)" xlink:href="Cognitus/27.Gallop%20Project%20Lifecycle%20Management/Links/12370.jpg"/></g><g class="cls-3"><polygon class="cls-4" points="-26.07 90.37 12.61 68.54 -26.07 46.72 -26.07 35.81 27.49 68.54 -26.07 101.28 -26.07 90.37"/><polygon class="cls-4" points="-26.07 90.37 12.61 68.54 -26.07 46.72 -26.07 35.81 27.49 68.54 -26.07 101.28 -26.07 90.37"/><polygon class="cls-4" points="-26.07 113.18 45.34 68.54 -26.07 23.91 -26.07 9.03 69.15 68.54 -26.07 128.06 -26.07 113.18"/><polygon class="cls-4" points="-26.07 113.18 45.34 68.54 -26.07 23.91 -26.07 9.03 69.15 68.54 -26.07 128.06 -26.07 113.18"/></g></svg>